M48
;GenerationSoftware,Autodesk,EAGLE,9.3.0*%
;CreationDate,2020-06-15T15:34:44Z*%
FMAT,2
ICI,OFF
METRIC,TZ,000.000
T7C0.400
T6C0.450
T5C0.700
T4C1.100
T3C1.500
T2C1.600
T1C3.556
%
G90
M71
T1
X56388Y53340
X11430Y53340
X56388Y8382
X11430Y8382
T2
X31369Y60198
X31369Y55118
X36449Y55118
X36449Y60198
X33909Y57658
T3
X22879Y52925
X15729Y52925
T4
X21463Y60071
X24003Y60071
X16383Y57531
X16383Y60071
X50574Y14986
X54074Y14986
X58829Y14986
X62329Y14986
X27559Y10795
X30099Y10795
X35179Y10795
X37719Y10795
X40259Y10795
X18923Y60071
X1524Y39751
X1524Y24511
X45339Y13335
X45339Y10795
X18923Y57531
X6858Y34925
X60960Y34925
X21463Y57531
X24003Y57531
X32639Y10795
X11303Y57531
X13843Y60071
X13843Y57531
X8763Y60071
X8763Y57531
X11303Y60071
T5
X27686Y35941
X51689Y26797
X27940Y49149
X49530Y49149
X46736Y34163
X49530Y34163
X44450Y3683
X30099Y5334
X31877Y30480
X13462Y41656
X5969Y38227
X47371Y26797
T6
X19304Y52705
X18004Y52705
X19954Y53705
X20604Y52705
X18654Y53705
T7
X17018Y42799
X24511Y31242
X24511Y33274
X25527Y31242
X25527Y33274
X27559Y13081
X37084Y35306
X37084Y30607
X27559Y33274
X27559Y31242
X24130Y49911
X13335Y48133
X40005Y34163
X8763Y24511
X24130Y50927
X5715Y24511
X6731Y42926
X9652Y42926
X12827Y44323
X38735Y53467
X13208Y36703
X13208Y35687
X26543Y31242
X26543Y33274
X39878Y28702
X39878Y31115
X38735Y60579
X9398Y32004
X13208Y34671
X16256Y24003
X21336Y24003
X12192Y36195
X13208Y33655
X16002Y42799
X22860Y42799
X20574Y50927
X24511Y35941
X12954Y32004
X37211Y8890
X38735Y8890
X42926Y29591
X24511Y39878
X12954Y27432
X40005Y32639
X43942Y35687
X34925Y35687
X33782Y35687
X34925Y52959
X31623Y13462
X16637Y31242
X19050Y37338
X18669Y43434
X11176Y36195
X24511Y34925
X13208Y38227
X21844Y42799
X23749Y46101
M30