M48
;GenerationSoftware,Autodesk,EAGLE,9.3.0*%
;CreationDate,2020-11-02T07:18:04Z*%
FMAT,2
ICI,OFF
METRIC,TZ,000.000
T7C0.400
T6C0.450
T5C0.700
T4C1.100
T3C1.500
T2C1.600
T1C3.556
%
G90
M71
T1
X56388Y53340
X11430Y53340
X56388Y8382
X11430Y8382
T2
X31369Y60198
X33909Y57658
X36449Y60198
X36449Y55118
X31369Y55118
T3
X22879Y52925
X15729Y52925
T4
X27559Y10795
X16383Y57531
X24003Y60071
X62484Y16764
X24003Y57531
X21463Y57531
X37719Y10795
X18923Y57531
X18923Y60071
X16383Y60071
X62484Y11684
X11303Y60071
X8763Y57531
X8763Y60071
X13843Y57531
X13843Y60071
X11303Y57531
X21463Y60071
X59690Y34925
X8128Y34925
X45339Y10795
X45339Y13335
X1524Y23241
X1524Y41021
X40259Y10795
X35179Y10795
X32639Y10795
X30099Y10795
T5
X27940Y49149
X13462Y41656
X5969Y38227
X30099Y5334
X47371Y26797
X27686Y35941
X31877Y30480
X49530Y49149
X46736Y34163
X49276Y3683
X51689Y26797
X49530Y34163
T6
X18654Y53705
X19954Y53705
X20604Y52705
X18004Y52705
X19304Y52705
T7
X5715Y24511
X8763Y24511
X40005Y34163
X31623Y13462
X16637Y31242
X9398Y32004
X16256Y24003
X24511Y31242
X24511Y33274
X25527Y31242
X25527Y33274
X27559Y13081
X37084Y35306
X37084Y30607
X27559Y33274
X27559Y31242
X24130Y49911
X13335Y48133
X21336Y24003
X12954Y27432
X17018Y42799
X21844Y42799
X13208Y38227
X24511Y34925
X11176Y36195
X18669Y43434
X23749Y46101
X20574Y50927
X34925Y52959
X33782Y35687
X34925Y35687
X43942Y35687
X40005Y32639
X24511Y39878
X42926Y29591
X38735Y8890
X37211Y8890
X17272Y39116
X20828Y39116
X20828Y35560
X17272Y35560
X42164Y6604
X46990Y3683
X12954Y32004
X24511Y35941
X22860Y42799
X16002Y42799
X13208Y36703
X13208Y33655
X12192Y36195
X13208Y34671
X39878Y31115
X39878Y28702
X26543Y33274
X26543Y31242
X13208Y35687
X24130Y50927
X38735Y60579
X38735Y53467
X12827Y44323
X9652Y42926
X6731Y42926
M30