G04 EAGLE Gerber RS-274X export*
G75*
%MOMM*%
%FSLAX34Y34*%
%LPD*%
%INTop Copper*%
%IPPOS*%
%AMOC8*
5,1,8,0,0,1.08239X$1,22.5*%
G01*
%ADD10C,2.400000*%
%ADD11R,0.762000X0.889000*%
%ADD12R,1.016000X1.270000*%
%ADD13C,1.650000*%
%ADD14C,0.958000*%
%ADD15C,2.250000*%
%ADD16R,0.889000X0.762000*%
%ADD17R,0.635000X1.016000*%
%ADD18R,1.651000X1.397000*%
%ADD19R,1.016000X0.304800*%
%ADD20R,0.304800X1.016000*%
%ADD21R,5.080000X5.080000*%
%ADD22C,2.184400*%
%ADD23R,1.016000X1.778000*%
%ADD24R,0.700000X1.524000*%
%ADD25C,0.806400*%
%ADD26C,1.106400*%
%ADD27C,0.609600*%
%ADD28C,0.381000*%
%ADD29C,0.304800*%
%ADD30C,1.778000*%
%ADD31C,0.812800*%
%ADD32C,0.685800*%
%ADD33C,0.254000*%


D10*
X339090Y576580D03*
X364490Y601980D03*
X364490Y551180D03*
X313690Y551180D03*
X313690Y601980D03*
D11*
X104140Y320040D03*
X119380Y320040D03*
X439420Y326390D03*
X454660Y326390D03*
X410210Y326390D03*
X425450Y326390D03*
X227330Y476250D03*
X212090Y476250D03*
D12*
X372110Y74930D03*
X354330Y74930D03*
X372110Y55880D03*
X354330Y55880D03*
D11*
X387350Y76200D03*
X402590Y76200D03*
X387350Y60960D03*
X402590Y60960D03*
X104140Y304800D03*
X119380Y304800D03*
X162560Y251460D03*
X177800Y251460D03*
X213360Y251460D03*
X198120Y251460D03*
X186690Y445770D03*
X171450Y445770D03*
X104140Y375920D03*
X119380Y375920D03*
X119380Y274320D03*
X104140Y274320D03*
X439420Y341630D03*
X454660Y341630D03*
D13*
X113030Y600710D03*
X87630Y575310D03*
X87630Y600710D03*
X138430Y575310D03*
X138430Y600710D03*
X113030Y575310D03*
D14*
X193040Y527050D03*
X180040Y527050D03*
X186540Y537050D03*
X199540Y537050D03*
X206040Y527050D03*
D15*
X157290Y529250D03*
X228790Y529250D03*
D16*
X374015Y34290D03*
X337185Y34290D03*
D17*
X492150Y53340D03*
X511150Y53340D03*
X501650Y76200D03*
D11*
X425450Y341630D03*
X410210Y341630D03*
X425450Y311150D03*
X410210Y311150D03*
X227330Y461010D03*
X212090Y461010D03*
X186690Y461010D03*
X171450Y461010D03*
X119380Y289560D03*
X104140Y289560D03*
X341630Y341630D03*
X356870Y341630D03*
X370840Y341630D03*
X386080Y341630D03*
X341630Y326390D03*
X356870Y326390D03*
X370840Y326390D03*
X386080Y326390D03*
D18*
X167005Y269875D03*
X208915Y269875D03*
X208915Y296545D03*
X167005Y296545D03*
D19*
X156210Y398380D03*
X156210Y393380D03*
X156210Y388380D03*
X156210Y383380D03*
X156210Y378380D03*
X156210Y373380D03*
X156210Y368380D03*
X156210Y363380D03*
X156210Y358380D03*
X156210Y353380D03*
X156210Y348380D03*
D20*
X165500Y339090D03*
X170500Y339090D03*
X175500Y339090D03*
X180500Y339090D03*
X185500Y339090D03*
X190500Y339090D03*
X195500Y339090D03*
X200500Y339090D03*
X205500Y339090D03*
X210500Y339090D03*
X215500Y339090D03*
D19*
X224790Y348380D03*
X224790Y353380D03*
X224790Y358380D03*
X224790Y363380D03*
X224790Y368380D03*
X224790Y373380D03*
X224790Y378380D03*
X224790Y383380D03*
X224790Y388380D03*
X224790Y393380D03*
X224790Y398380D03*
D20*
X215500Y407670D03*
X210500Y407670D03*
X205500Y407670D03*
X200500Y407670D03*
X195500Y407670D03*
X190500Y407670D03*
X185500Y407670D03*
X180500Y407670D03*
X175500Y407670D03*
X170500Y407670D03*
X165500Y407670D03*
D21*
X190500Y373380D03*
D22*
X596900Y349250D03*
X81280Y349250D03*
D23*
X185420Y481330D03*
X154940Y481330D03*
D13*
X453390Y107950D03*
X453390Y133350D03*
X15240Y232410D03*
X15240Y410210D03*
X402590Y107950D03*
X377190Y107950D03*
X351790Y107950D03*
X326390Y107950D03*
X300990Y107950D03*
X275590Y107950D03*
D11*
X330200Y191770D03*
X345440Y191770D03*
X330200Y176530D03*
X345440Y176530D03*
X316230Y161290D03*
X300990Y161290D03*
X316230Y191770D03*
X300990Y191770D03*
X316230Y176530D03*
X300990Y176530D03*
X316230Y146050D03*
X300990Y146050D03*
D13*
X163830Y575310D03*
X240030Y600710D03*
X214630Y600710D03*
X240030Y575310D03*
X214630Y575310D03*
X189230Y575310D03*
X189230Y600710D03*
X163830Y600710D03*
D24*
X448660Y515620D03*
X438660Y515620D03*
X428660Y515620D03*
X418660Y515620D03*
X408660Y515620D03*
X398660Y515620D03*
X388660Y515620D03*
X378660Y515620D03*
X368660Y515620D03*
X358660Y515620D03*
X348660Y515620D03*
X338660Y515620D03*
X338660Y370840D03*
X348660Y370840D03*
X358660Y370840D03*
X408660Y370840D03*
X418660Y370840D03*
X428660Y370840D03*
X438660Y370840D03*
X448660Y370840D03*
D11*
X227330Y445770D03*
X212090Y445770D03*
D17*
X318160Y53340D03*
X337160Y53340D03*
X327660Y76200D03*
D11*
X104140Y406400D03*
X119380Y406400D03*
X104140Y391160D03*
X119380Y391160D03*
X439420Y311150D03*
X454660Y311150D03*
X439420Y295910D03*
X454660Y295910D03*
D13*
X624840Y116840D03*
X624840Y167640D03*
D11*
X458470Y21590D03*
X443230Y21590D03*
X458470Y36830D03*
X443230Y36830D03*
D17*
X441350Y53340D03*
X460350Y53340D03*
X450850Y76200D03*
D11*
X421640Y40005D03*
X421640Y76835D03*
D16*
X476250Y77470D03*
X476250Y62230D03*
D25*
X166370Y312420D03*
X93980Y320040D03*
X162560Y240030D03*
X213360Y240030D03*
X129540Y274320D03*
X170180Y427990D03*
X218440Y427990D03*
X132080Y382270D03*
X245110Y349250D03*
X111760Y361950D03*
D26*
X492760Y36830D03*
D27*
X492150Y37440D02*
X492150Y53340D01*
D28*
X492150Y37440D02*
X492760Y36830D01*
D25*
X186690Y434340D03*
X237490Y461010D03*
X205740Y509270D03*
D29*
X170500Y427670D02*
X170500Y407670D01*
X170500Y427670D02*
X170180Y427990D01*
X186690Y434340D02*
X186690Y445770D01*
X245110Y349250D02*
X244240Y348380D01*
X224790Y348380D01*
X104140Y320040D02*
X104140Y304800D01*
X104140Y320040D02*
X93980Y320040D01*
X119380Y274320D02*
X129540Y274320D01*
X162560Y251460D02*
X162560Y240030D01*
X213360Y240030D02*
X213360Y251460D01*
X166370Y297180D02*
X166370Y312420D01*
X166370Y297180D02*
X167005Y296545D01*
X180500Y322740D02*
X180500Y339090D01*
X170180Y312420D02*
X166370Y312420D01*
X170180Y312420D02*
X180500Y322740D01*
X107950Y361950D02*
X104140Y365760D01*
X104140Y375920D01*
X107950Y361950D02*
X111760Y361950D01*
X316230Y176530D02*
X316230Y161290D01*
X316230Y146050D01*
D25*
X316230Y134620D03*
D29*
X213360Y251460D02*
X213360Y265430D01*
X208915Y269875D01*
D25*
X349250Y529590D03*
X337820Y356870D03*
X349250Y356870D03*
X439420Y356870D03*
D27*
X438660Y357630D02*
X438660Y370840D01*
X438660Y357630D02*
X439420Y356870D01*
X439420Y341630D01*
X439420Y326390D01*
X348660Y529000D02*
X349250Y529590D01*
X348660Y529000D02*
X348660Y515620D01*
X348660Y370840D02*
X348660Y357460D01*
X349250Y356870D01*
X338660Y357710D02*
X338660Y370840D01*
X338660Y357710D02*
X337820Y356870D01*
D25*
X400050Y326390D03*
D29*
X410210Y326390D01*
X227330Y461010D02*
X227330Y476250D01*
X210500Y420050D02*
X210500Y407670D01*
X210500Y420050D02*
X218440Y427990D01*
D25*
X245110Y398780D03*
D29*
X244710Y398380D02*
X224790Y398380D01*
X244710Y398380D02*
X245110Y398780D01*
D27*
X439420Y326390D02*
X439420Y311150D01*
X439420Y295910D01*
D25*
X429260Y295910D03*
D27*
X439420Y295910D01*
D29*
X156210Y378380D02*
X139780Y378380D01*
X135890Y382270D02*
X132080Y382270D01*
X135890Y382270D02*
X139780Y378380D01*
X227330Y461010D02*
X237490Y461010D01*
X316230Y146050D02*
X316230Y134620D01*
D25*
X387350Y88900D03*
D27*
X372110Y74930D02*
X372110Y55880D01*
D26*
X300990Y53340D03*
D27*
X318160Y53340D01*
X387350Y60960D02*
X387350Y76200D01*
D25*
X372110Y88900D03*
D27*
X372110Y74930D01*
X387350Y76200D02*
X387350Y88900D01*
D25*
X172720Y391160D03*
X208280Y391160D03*
X208280Y355600D03*
X172720Y355600D03*
D29*
X190500Y373380D02*
X208280Y355600D01*
D25*
X421640Y66040D03*
D27*
X421640Y76835D01*
D25*
X469900Y36830D03*
D27*
X458470Y36830D01*
D29*
X428660Y351190D02*
X428660Y370840D01*
X425450Y347980D02*
X425450Y341630D01*
X425450Y347980D02*
X428660Y351190D01*
X425450Y341630D02*
X425450Y326390D01*
X425450Y311150D01*
D25*
X129540Y320040D03*
X245110Y359410D03*
D29*
X237810Y353380D02*
X224790Y353380D01*
X243840Y359410D02*
X245110Y359410D01*
X243840Y359410D02*
X237810Y353380D01*
X119380Y320040D02*
X119380Y304800D01*
X119380Y289560D01*
X119380Y320040D02*
X129540Y320040D01*
X175500Y325360D02*
X175500Y339090D01*
X175500Y325360D02*
X170180Y320040D01*
X316230Y191770D02*
X330200Y191770D01*
X330200Y176530D01*
D30*
X402590Y198120D02*
X402590Y107950D01*
X261620Y483870D02*
X261620Y488950D01*
X261620Y483870D02*
X276860Y468630D01*
D29*
X189230Y575310D02*
X176916Y587624D01*
X151516Y587624D02*
X138430Y600710D01*
X151516Y587624D02*
X176916Y587624D01*
X165100Y461010D02*
X161290Y457200D01*
X165100Y461010D02*
X171450Y461010D01*
X215500Y417430D02*
X215500Y407670D01*
X215500Y417430D02*
X218440Y420370D01*
D26*
X276860Y359410D03*
X318770Y304800D03*
D30*
X276860Y427990D02*
X276860Y468630D01*
X276860Y427990D02*
X276860Y359410D01*
D29*
X170180Y320040D02*
X129540Y320040D01*
D27*
X261620Y488950D02*
X261620Y524033D01*
X206051Y548264D02*
X193802Y560513D01*
X193802Y560578D01*
X206051Y548264D02*
X237389Y548264D01*
X189230Y565150D02*
X189230Y575310D01*
X237389Y548264D02*
X261620Y524033D01*
X193802Y560578D02*
X189230Y565150D01*
D25*
X228600Y427990D03*
D29*
X228600Y427419D01*
X221551Y420370D01*
X218440Y420370D01*
D31*
X228600Y427990D02*
X276860Y427990D01*
D25*
X160020Y427990D03*
D29*
X160020Y426720D02*
X165500Y421240D01*
X160020Y426720D02*
X160020Y427990D01*
X165500Y421240D02*
X165500Y407670D01*
X161290Y434994D02*
X161290Y457200D01*
X161290Y434994D02*
X160020Y433724D01*
X160020Y427990D01*
D30*
X391160Y209550D02*
X402590Y198120D01*
X391160Y209550D02*
X328930Y209550D01*
X318770Y219710D01*
X318770Y304800D01*
D27*
X402590Y76200D02*
X402590Y60960D01*
X402590Y76200D02*
X402590Y88900D01*
X402590Y107950D01*
D29*
X330200Y191770D02*
X328930Y193040D01*
X328930Y209550D01*
D27*
X374015Y34290D02*
X396240Y34290D01*
X402590Y40640D02*
X402590Y60960D01*
X402590Y40640D02*
X396240Y34290D01*
X450850Y76200D02*
X452120Y77470D01*
X476250Y77470D01*
X450850Y76200D02*
X450850Y85090D01*
X447040Y88900D02*
X402590Y88900D01*
X447040Y88900D02*
X450850Y85090D01*
D25*
X132080Y336550D03*
D29*
X134620Y575310D02*
X138430Y575310D01*
X134620Y575310D02*
X121920Y562610D01*
X108386Y562610D01*
X144481Y348380D02*
X156210Y348380D01*
X144481Y348380D02*
X132651Y336550D01*
X132080Y336550D01*
X93980Y386516D02*
X88900Y391596D01*
D25*
X121920Y361950D03*
D29*
X107950Y354330D02*
X93980Y368300D01*
X93980Y386516D01*
X121920Y361950D02*
X121920Y356299D01*
X119951Y354330D01*
X107950Y354330D01*
X88900Y543124D02*
X108386Y562610D01*
X88900Y543124D02*
X88900Y391596D01*
D25*
X132080Y346710D03*
D29*
X100330Y588010D02*
X113030Y600710D01*
X100330Y588010D02*
X100330Y568923D01*
X140020Y353380D02*
X156210Y353380D01*
X140020Y353380D02*
X133350Y346710D01*
X132080Y346710D01*
X129540Y346710D01*
X127000Y344170D01*
X78740Y547333D02*
X100330Y568923D01*
X63500Y341630D02*
X72390Y332740D01*
X90170Y332740D01*
X101600Y344170D02*
X127000Y344170D01*
X78740Y372110D02*
X78740Y547333D01*
X78740Y372110D02*
X63500Y356870D01*
X63500Y341630D01*
X90170Y332740D02*
X101600Y344170D01*
X185500Y339090D02*
X185500Y270510D01*
X185500Y254080D01*
X182880Y251460D02*
X177800Y251460D01*
X182880Y251460D02*
X185500Y254080D01*
X185500Y270510D02*
X167640Y270510D01*
X167005Y269875D01*
X190500Y297180D02*
X190500Y339090D01*
X190500Y297180D02*
X190500Y254000D01*
X193040Y251460D02*
X198120Y251460D01*
X193040Y251460D02*
X190500Y254000D01*
X190500Y297180D02*
X208280Y297180D01*
X208915Y296545D01*
D25*
X398780Y311150D03*
D29*
X410210Y311150D01*
D25*
X398780Y287020D03*
D29*
X396240Y289560D01*
X384412Y289560D01*
X375490Y298482D02*
X367697Y298482D01*
X363252Y302927D01*
X363252Y308578D01*
X356870Y314960D01*
X375490Y298482D02*
X384412Y289560D01*
X262858Y368332D02*
X247810Y383380D01*
X262858Y368332D02*
X262858Y336550D01*
X247810Y383380D02*
X224790Y383380D01*
D25*
X265430Y332740D03*
X265430Y312420D03*
D29*
X265430Y333978D02*
X262858Y336550D01*
X265430Y333978D02*
X265430Y332740D01*
X265430Y311849D02*
X272447Y304832D01*
X265430Y311849D02*
X265430Y312420D01*
X272447Y304832D02*
X278733Y304832D01*
X293941Y320040D01*
X328930Y320040D01*
X334010Y314960D02*
X356870Y314960D01*
X334010Y314960D02*
X328930Y320040D01*
D25*
X132080Y356870D03*
D29*
X133590Y358380D02*
X156210Y358380D01*
X133590Y358380D02*
X132080Y356870D01*
X88900Y384412D02*
X83820Y389492D01*
X88900Y366196D02*
X105846Y349250D01*
X88900Y366196D02*
X88900Y384412D01*
X130239Y356870D02*
X132080Y356870D01*
X130239Y356870D02*
X122619Y349250D01*
X105846Y349250D01*
X113030Y574439D02*
X113030Y575310D01*
X113030Y574439D02*
X83820Y545229D01*
X83820Y389492D01*
X175500Y407670D02*
X175500Y421880D01*
X177800Y424180D01*
X177800Y432371D01*
X171450Y438721D01*
X171450Y445770D01*
D25*
X132080Y367030D03*
D29*
X133430Y368380D02*
X156210Y368380D01*
X133430Y368380D02*
X132080Y367030D01*
X147640Y393380D02*
X156210Y393380D01*
D26*
X134620Y416560D03*
D29*
X134620Y406400D01*
X147640Y393380D01*
D31*
X153670Y480060D02*
X154940Y481330D01*
X153670Y480060D02*
X153670Y438150D01*
X134620Y419100D01*
X134620Y416560D01*
D26*
X59690Y382270D03*
D30*
X44450Y334010D02*
X72390Y306070D01*
X44450Y367030D02*
X59690Y382270D01*
X44450Y367030D02*
X44450Y334010D01*
X72390Y306070D02*
X72390Y232410D01*
D27*
X327660Y76200D02*
X353060Y76200D01*
X354330Y74930D01*
D30*
X97790Y207010D02*
X72390Y232410D01*
X191770Y207010D02*
X210820Y187960D01*
X210820Y147320D01*
X241300Y87630D02*
X254000Y74930D01*
X289560Y74930D02*
X299720Y74930D01*
X289560Y74930D02*
X254000Y74930D01*
X191770Y207010D02*
X97790Y207010D01*
X210820Y147320D02*
X241300Y116840D01*
X241300Y87630D01*
D27*
X326390Y74930D02*
X327660Y76200D01*
X326390Y74930D02*
X299720Y74930D01*
X458470Y21590D02*
X458470Y12700D01*
X455930Y10160D01*
X433070Y10160D01*
X424180Y19050D01*
X306070Y19050D01*
X289560Y35560D02*
X289560Y74930D01*
X289560Y35560D02*
X306070Y19050D01*
D29*
X136461Y373380D02*
X135223Y374618D01*
X136461Y373380D02*
X156210Y373380D01*
X135223Y374618D02*
X120682Y374618D01*
X119380Y375920D01*
X205500Y407670D02*
X205500Y425781D01*
X215297Y435578D01*
X224758Y435578D01*
X227330Y438150D01*
X227330Y445770D01*
X195580Y461010D02*
X186690Y461010D01*
X195580Y461010D02*
X196850Y462280D01*
D25*
X241300Y509270D03*
D29*
X202366Y492760D02*
X196850Y487244D01*
X202366Y492760D02*
X227766Y492760D01*
X233712Y498706D02*
X233712Y502253D01*
X240729Y509270D02*
X241300Y509270D01*
X240729Y509270D02*
X233712Y502253D01*
X233712Y498706D02*
X227766Y492760D01*
X196850Y487244D02*
X196850Y462280D01*
D31*
X180040Y499410D02*
X180040Y527050D01*
X185420Y494030D02*
X185420Y481330D01*
X185420Y494030D02*
X180040Y499410D01*
D29*
X195500Y339090D02*
X195500Y318850D01*
X204470Y309880D01*
X220980Y309880D01*
X224758Y306102D01*
X224758Y153739D01*
X255270Y123227D01*
X255270Y92710D01*
X260350Y87630D01*
X346710Y87630D01*
X351790Y92710D01*
X351790Y107950D01*
X355600Y189230D02*
X353060Y191770D01*
X345440Y191770D01*
X355600Y111760D02*
X351790Y107950D01*
X355600Y111760D02*
X355600Y189230D01*
X200500Y321470D02*
X200500Y339090D01*
X200500Y321470D02*
X207010Y314960D01*
X223084Y314960D01*
X229870Y308174D01*
X229870Y155812D01*
X260350Y125332D01*
X260350Y94814D02*
X262454Y92710D01*
X260350Y94814D02*
X260350Y125332D01*
X321310Y92710D02*
X326390Y97790D01*
X326390Y107950D01*
X321310Y92710D02*
X262454Y92710D01*
X345440Y168910D02*
X345440Y176530D01*
X345440Y168910D02*
X350520Y163830D01*
X350520Y128270D02*
X345440Y123190D01*
X350520Y128270D02*
X350520Y163830D01*
X345440Y123190D02*
X330200Y123190D01*
X326390Y119380D02*
X326390Y107950D01*
X326390Y119380D02*
X330200Y123190D01*
X87630Y563407D02*
X87630Y575310D01*
X170500Y339090D02*
X170500Y327980D01*
X167640Y325120D01*
X104140Y289560D02*
X104140Y274320D01*
D25*
X387350Y605790D03*
X387350Y534670D03*
D29*
X387350Y605790D01*
X104140Y250190D02*
X99060Y245110D01*
X104140Y250190D02*
X104140Y274320D01*
X104140Y289560D02*
X93980Y289560D01*
X86360Y297180D01*
X135191Y325120D02*
X167640Y325120D01*
X135191Y325120D02*
X131349Y328962D01*
X128937Y328962D01*
X126429Y331470D01*
X73660Y429260D02*
X73660Y549437D01*
X87630Y563407D01*
D25*
X128270Y443230D03*
X96520Y429260D03*
X67310Y429260D03*
D29*
X73660Y429260D01*
X96520Y429260D02*
X97790Y427990D01*
X117712Y427990D01*
X128270Y438549D02*
X128270Y443230D01*
X128270Y438549D02*
X117712Y427990D01*
D25*
X57150Y245110D03*
X87630Y245110D03*
D29*
X99060Y245110D01*
X58420Y358974D02*
X73660Y374214D01*
X58420Y358974D02*
X58420Y339526D01*
X70286Y327660D01*
X73660Y374214D02*
X73660Y429260D01*
X96084Y331470D02*
X126429Y331470D01*
X86360Y327660D02*
X70286Y327660D01*
X86360Y327660D02*
X92274Y327660D01*
X96084Y331470D01*
X86360Y327660D02*
X86360Y297180D01*
X57150Y245110D02*
X57150Y237490D01*
X52070Y232410D02*
X15240Y232410D01*
X52070Y232410D02*
X57150Y237490D01*
D27*
X501650Y96520D02*
X501650Y76200D01*
X490220Y107950D02*
X453390Y107950D01*
X490220Y107950D02*
X501650Y96520D01*
D26*
X473710Y267970D03*
X516890Y267970D03*
D30*
X453390Y247650D02*
X453390Y133350D01*
X453390Y247650D02*
X473710Y267970D01*
X516890Y267970D02*
X516890Y326390D01*
X539750Y349250D01*
X596900Y349250D01*
D27*
X351790Y53340D02*
X337160Y53340D01*
X351790Y53340D02*
X354330Y55880D01*
X337185Y53315D02*
X337160Y53340D01*
X337185Y53315D02*
X337185Y34290D01*
D29*
X212090Y461010D02*
X212090Y476250D01*
X212090Y461010D02*
X212090Y445770D01*
X200500Y427965D02*
X200500Y407670D01*
X200500Y427965D02*
X212090Y439555D01*
X212090Y445770D01*
D25*
X400050Y341630D03*
D27*
X448660Y360330D02*
X448660Y370840D01*
X454660Y354330D02*
X454660Y341630D01*
X454660Y354330D02*
X448660Y360330D01*
X454660Y341630D02*
X454660Y326390D01*
D29*
X400050Y341630D02*
X386080Y341630D01*
X400050Y341630D02*
X410210Y341630D01*
X386080Y341630D02*
X386080Y326390D01*
D26*
X279400Y491490D03*
X495300Y491490D03*
D27*
X454660Y326390D02*
X454660Y311150D01*
X454660Y295910D01*
D26*
X467360Y341630D03*
D27*
X454660Y341630D01*
D26*
X495300Y341630D03*
D30*
X495300Y491490D01*
D27*
X279400Y491490D02*
X279400Y492760D01*
X269748Y502412D01*
X269748Y527400D01*
X240756Y556392D01*
X209418Y556392D01*
D29*
X201930Y588010D02*
X189230Y600710D01*
D27*
X201930Y563880D02*
X209418Y556392D01*
X201930Y563880D02*
X201930Y568440D01*
D29*
X201930Y588010D01*
D30*
X495300Y341630D02*
X495300Y200660D01*
X528320Y167640D02*
X624840Y167640D01*
X528320Y167640D02*
X495300Y200660D01*
D29*
X300990Y161290D02*
X300990Y146050D01*
D25*
X245110Y312420D03*
D29*
X234950Y302260D01*
D25*
X245110Y332740D03*
D29*
X245110Y333439D02*
X252698Y341027D01*
X245110Y333439D02*
X245110Y332740D01*
X242570Y373380D02*
X224790Y373380D01*
X252698Y363252D02*
X252698Y341027D01*
X252698Y363252D02*
X242570Y373380D01*
X300990Y146050D02*
X300990Y123190D01*
X300990Y107950D01*
X234950Y157916D02*
X234950Y302260D01*
X234950Y157916D02*
X269676Y123190D01*
X300990Y123190D01*
X300990Y176530D02*
X300990Y191770D01*
D25*
X255270Y312420D03*
X255270Y332740D03*
D29*
X248253Y304832D02*
X244706Y304832D01*
X255270Y311849D02*
X255270Y312420D01*
X255270Y311849D02*
X248253Y304832D01*
X244706Y304832D02*
X240030Y300156D01*
X245190Y378380D02*
X224790Y378380D01*
X245190Y378380D02*
X257778Y365792D01*
X257778Y335248D02*
X255270Y332740D01*
X257778Y335248D02*
X257778Y365792D01*
D25*
X275590Y130810D03*
D29*
X269240Y130810D01*
X240030Y160020D02*
X240030Y300156D01*
X240030Y160020D02*
X269240Y130810D01*
X293370Y176530D02*
X300990Y176530D01*
X287020Y130810D02*
X275590Y130810D01*
X290830Y173990D02*
X293370Y176530D01*
X290830Y173990D02*
X290830Y134620D01*
X287020Y130810D01*
X356870Y326390D02*
X370840Y326390D01*
X418660Y515620D02*
X418660Y529150D01*
X469900Y534670D02*
X477520Y527050D01*
X424180Y534670D02*
X418660Y529150D01*
X424180Y534670D02*
X469900Y534670D01*
X370840Y326390D02*
X370840Y317500D01*
X388620Y299720D01*
X477520Y298450D02*
X477520Y527050D01*
X477520Y298450D02*
X463550Y284480D01*
X429959Y284480D01*
X414719Y299720D01*
X388620Y299720D01*
X370840Y341630D02*
X356870Y341630D01*
X408660Y515620D02*
X408660Y530580D01*
X417830Y539750D01*
X472004Y539750D01*
X482600Y529154D01*
D25*
X370840Y353060D03*
D29*
X370840Y341630D01*
D25*
X370840Y306070D03*
D29*
X375086Y306070D01*
X386516Y294640D01*
X412615Y294640D02*
X427855Y279400D01*
X465654Y279400D02*
X482600Y296346D01*
X465654Y279400D02*
X427855Y279400D01*
X482600Y296346D02*
X482600Y529154D01*
X412615Y294640D02*
X386516Y294640D01*
D32*
X338660Y515620D02*
X338660Y576150D01*
X339090Y576580D01*
D29*
X341630Y341630D02*
X308610Y341630D01*
X304800Y345440D02*
X304800Y523240D01*
X304800Y345440D02*
X308610Y341630D01*
X257810Y570230D02*
X257810Y582129D01*
X240030Y599909D02*
X240030Y600710D01*
X257810Y570230D02*
X304800Y523240D01*
X257810Y582129D02*
X240030Y599909D01*
X227716Y587624D02*
X214630Y600710D01*
X252730Y580025D02*
X252730Y568126D01*
X252730Y580025D02*
X245131Y587624D01*
X227716Y587624D01*
X252730Y568126D02*
X299720Y521136D01*
X299720Y330636D01*
X303966Y326390D01*
X341630Y326390D01*
X205500Y324090D02*
X205500Y339090D01*
X205500Y324090D02*
X209550Y320040D01*
D25*
X275590Y332740D03*
X275590Y312420D03*
D29*
X275590Y313690D01*
X269240Y320040D01*
X209550Y320040D01*
X287456Y330200D02*
X289560Y332304D01*
X278130Y330200D02*
X275590Y332740D01*
X278130Y330200D02*
X287456Y330200D01*
X243491Y562996D02*
X227309Y562996D01*
X214995Y575310D02*
X214630Y575310D01*
X214995Y575310D02*
X227309Y562996D01*
X243491Y562996D02*
X289560Y516927D01*
X289560Y332304D01*
X210500Y326710D02*
X210500Y339090D01*
X210500Y326710D02*
X212090Y325120D01*
X289560Y325120D01*
X294640Y330200D01*
X240030Y573642D02*
X240030Y575310D01*
X294640Y519032D02*
X294640Y330200D01*
X294640Y519032D02*
X240030Y573642D01*
X180500Y419260D02*
X180500Y407670D01*
X186722Y425482D02*
X189833Y425482D01*
X186722Y425482D02*
X180500Y419260D01*
X189833Y425482D02*
X196850Y432499D01*
X196850Y454660D01*
X201930Y459740D01*
D25*
X241300Y499110D03*
D29*
X204470Y487680D02*
X201930Y485140D01*
X204470Y487680D02*
X229870Y487680D01*
X241300Y499110D01*
X201930Y485140D02*
X201930Y459740D01*
X186540Y537050D02*
X176220Y547370D01*
X152400Y547370D02*
X141976Y536946D01*
X152400Y547370D02*
X176220Y547370D01*
X141976Y536946D02*
X141976Y437886D01*
X104140Y414020D02*
X104140Y406400D01*
X121920Y417830D02*
X141976Y437886D01*
X121920Y417830D02*
X107950Y417830D01*
X104140Y414020D01*
X145020Y388380D02*
X156210Y388380D01*
X127000Y406400D02*
X119380Y406400D01*
X127000Y406400D02*
X145020Y388380D01*
X142400Y383380D02*
X156210Y383380D01*
X135890Y389890D02*
X120650Y389890D01*
X119380Y391160D01*
X135890Y389890D02*
X142400Y383380D01*
X104140Y391160D02*
X96520Y391160D01*
X93980Y393700D01*
X93980Y415290D01*
D25*
X133350Y481330D03*
D29*
X136896Y477784D01*
X136896Y439990D01*
X119816Y422910D01*
X101600Y422910D01*
X93980Y415290D01*
D27*
X441350Y53340D02*
X441350Y45060D01*
X443230Y43180D01*
X443230Y36830D01*
X421640Y40005D02*
X421640Y49530D01*
X425450Y53340D02*
X441350Y53340D01*
X425450Y53340D02*
X421640Y49530D01*
X443230Y36830D02*
X443230Y21590D01*
X476250Y53340D02*
X476250Y62230D01*
X476250Y53340D02*
X476250Y45720D01*
X480060Y41910D01*
X480060Y33020D01*
X487680Y25400D02*
X499110Y25400D01*
X511150Y37440D01*
X511150Y53340D01*
X487680Y25400D02*
X480060Y33020D01*
X476250Y53340D02*
X460350Y53340D01*
D33*
X0Y78740D02*
X77Y76969D01*
X309Y75211D01*
X692Y73481D01*
X1225Y71790D01*
X1904Y70152D01*
X2722Y68580D01*
X3675Y67085D01*
X4754Y65679D01*
X5952Y64372D01*
X7259Y63174D01*
X8665Y62095D01*
X10160Y61142D01*
X11732Y60324D01*
X13370Y59645D01*
X15061Y59112D01*
X16791Y58729D01*
X18549Y58497D01*
X20320Y58420D01*
X27940Y58420D01*
X30597Y58304D01*
X33233Y57957D01*
X35829Y57381D01*
X38365Y56582D01*
X40821Y55564D01*
X43180Y54336D01*
X45423Y52908D01*
X47532Y51289D01*
X49493Y49493D01*
X51289Y47532D01*
X52908Y45423D01*
X54336Y43180D01*
X55564Y40821D01*
X56582Y38365D01*
X57381Y35829D01*
X57957Y33233D01*
X58304Y30597D01*
X58420Y27940D01*
X58420Y20320D01*
X58497Y18549D01*
X58729Y16791D01*
X59112Y15061D01*
X59645Y13370D01*
X60324Y11732D01*
X61142Y10160D01*
X62095Y8665D01*
X63174Y7259D01*
X64372Y5952D01*
X65679Y4754D01*
X67085Y3675D01*
X68580Y2722D01*
X70152Y1904D01*
X71790Y1225D01*
X73481Y692D01*
X75211Y309D01*
X76969Y77D01*
X78740Y0D01*
X599440Y0D01*
X601211Y77D01*
X602969Y309D01*
X604699Y692D01*
X606390Y1225D01*
X608028Y1904D01*
X609600Y2722D01*
X611095Y3675D01*
X612501Y4754D01*
X613808Y5952D01*
X615006Y7259D01*
X616085Y8665D01*
X617038Y10160D01*
X617856Y11732D01*
X618535Y13370D01*
X619068Y15061D01*
X619451Y16791D01*
X619683Y18549D01*
X619760Y20320D01*
X619760Y27940D01*
X619876Y30597D01*
X620223Y33233D01*
X620799Y35829D01*
X621598Y38365D01*
X622616Y40821D01*
X623844Y43180D01*
X625272Y45423D01*
X626891Y47532D01*
X628687Y49493D01*
X630648Y51289D01*
X632757Y52908D01*
X635000Y54336D01*
X637359Y55564D01*
X639815Y56582D01*
X642351Y57381D01*
X644947Y57957D01*
X647584Y58304D01*
X650240Y58420D01*
X657860Y58420D01*
X659631Y58497D01*
X661389Y58729D01*
X663119Y59112D01*
X664810Y59645D01*
X666448Y60324D01*
X668020Y61142D01*
X669515Y62095D01*
X670921Y63174D01*
X672228Y64372D01*
X673426Y65679D01*
X674505Y67085D01*
X675458Y68580D01*
X676276Y70152D01*
X676955Y71790D01*
X677488Y73481D01*
X677871Y75211D01*
X678103Y76969D01*
X678180Y78740D01*
X678180Y538480D01*
X678103Y540251D01*
X677871Y542009D01*
X677488Y543739D01*
X676955Y545430D01*
X676276Y547068D01*
X675458Y548640D01*
X674505Y550135D01*
X673426Y551541D01*
X672228Y552848D01*
X670921Y554046D01*
X669515Y555125D01*
X668020Y556078D01*
X666448Y556896D01*
X664810Y557575D01*
X663119Y558108D01*
X661389Y558491D01*
X659631Y558723D01*
X657860Y558800D01*
X650240Y558800D01*
X647584Y558916D01*
X644947Y559263D01*
X642351Y559839D01*
X639815Y560638D01*
X637359Y561656D01*
X635000Y562884D01*
X632757Y564312D01*
X630648Y565931D01*
X628687Y567727D01*
X626891Y569688D01*
X625272Y571797D01*
X623844Y574040D01*
X622616Y576399D01*
X621598Y578855D01*
X620799Y581391D01*
X620223Y583987D01*
X619876Y586624D01*
X619760Y589280D01*
X619760Y596900D01*
X619683Y598671D01*
X619451Y600429D01*
X619068Y602159D01*
X618535Y603850D01*
X617856Y605488D01*
X617038Y607060D01*
X616085Y608555D01*
X615006Y609961D01*
X613808Y611268D01*
X612501Y612466D01*
X611095Y613545D01*
X609600Y614498D01*
X608028Y615316D01*
X606390Y615995D01*
X604699Y616528D01*
X602969Y616911D01*
X601211Y617143D01*
X599440Y617220D01*
X78740Y617220D01*
X76969Y617143D01*
X75211Y616911D01*
X73481Y616528D01*
X71790Y615995D01*
X70152Y615316D01*
X68580Y614498D01*
X67085Y613545D01*
X65679Y612466D01*
X64372Y611268D01*
X63174Y609961D01*
X62095Y608555D01*
X61142Y607060D01*
X60324Y605488D01*
X59645Y603850D01*
X59112Y602159D01*
X58729Y600429D01*
X58497Y598671D01*
X58420Y596900D01*
X58420Y589280D01*
X58304Y586624D01*
X57957Y583987D01*
X57381Y581391D01*
X56582Y578855D01*
X55564Y576399D01*
X54336Y574040D01*
X52908Y571797D01*
X51289Y569688D01*
X49493Y567727D01*
X47532Y565931D01*
X45423Y564312D01*
X43180Y562884D01*
X40821Y561656D01*
X38365Y560638D01*
X35829Y559839D01*
X33233Y559263D01*
X30597Y558916D01*
X27940Y558800D01*
X20320Y558800D01*
X18549Y558723D01*
X16791Y558491D01*
X15061Y558108D01*
X13370Y557575D01*
X11732Y556896D01*
X10160Y556078D01*
X8665Y555125D01*
X7259Y554046D01*
X5952Y552848D01*
X4754Y551541D01*
X3675Y550135D01*
X2722Y548640D01*
X1904Y547068D01*
X1225Y545430D01*
X692Y543739D01*
X309Y542009D01*
X77Y540251D01*
X0Y538480D01*
X0Y78740D01*
X132080Y532818D02*
X132004Y531656D01*
X131852Y530502D01*
X131625Y529360D01*
X131324Y528236D01*
X130949Y527134D01*
X130504Y526058D01*
X129989Y525014D01*
X129407Y524006D01*
X128760Y523038D01*
X128052Y522114D01*
X127284Y521239D01*
X126461Y520416D01*
X125586Y519649D01*
X124662Y518940D01*
X123694Y518293D01*
X122686Y517711D01*
X121642Y517196D01*
X120566Y516751D01*
X119464Y516377D01*
X118340Y516075D01*
X117198Y515848D01*
X116044Y515696D01*
X114882Y515620D01*
X113718Y515620D01*
X112556Y515696D01*
X111402Y515848D01*
X110260Y516075D01*
X109136Y516377D01*
X108034Y516751D01*
X106958Y517196D01*
X105914Y517711D01*
X104906Y518293D01*
X103938Y518940D01*
X103014Y519649D01*
X102139Y520416D01*
X101316Y521239D01*
X100549Y522114D01*
X99840Y523038D01*
X99193Y524006D01*
X98611Y525014D01*
X98096Y526058D01*
X97651Y527134D01*
X97277Y528236D01*
X96975Y529360D01*
X96748Y530502D01*
X96596Y531656D01*
X96520Y532818D01*
X96520Y533982D01*
X96596Y535144D01*
X96748Y536298D01*
X96975Y537440D01*
X97277Y538564D01*
X97651Y539666D01*
X98096Y540742D01*
X98611Y541786D01*
X99193Y542794D01*
X99840Y543762D01*
X100549Y544686D01*
X101316Y545561D01*
X102139Y546384D01*
X103014Y547152D01*
X103938Y547860D01*
X104906Y548507D01*
X105914Y549089D01*
X106958Y549604D01*
X108034Y550049D01*
X109136Y550424D01*
X110260Y550725D01*
X111402Y550952D01*
X112556Y551104D01*
X113718Y551180D01*
X114882Y551180D01*
X116044Y551104D01*
X117198Y550952D01*
X118340Y550725D01*
X119464Y550424D01*
X120566Y550049D01*
X121642Y549604D01*
X122686Y549089D01*
X123694Y548507D01*
X124662Y547860D01*
X125586Y547152D01*
X126461Y546384D01*
X127284Y545561D01*
X128052Y544686D01*
X128760Y543762D01*
X129407Y542794D01*
X129989Y541786D01*
X130504Y540742D01*
X130949Y539666D01*
X131324Y538564D01*
X131625Y537440D01*
X131852Y536298D01*
X132004Y535144D01*
X132080Y533982D01*
X132080Y532818D01*
X581660Y532818D02*
X581584Y531656D01*
X581432Y530502D01*
X581205Y529360D01*
X580904Y528236D01*
X580529Y527134D01*
X580084Y526058D01*
X579569Y525014D01*
X578987Y524006D01*
X578340Y523038D01*
X577632Y522114D01*
X576864Y521239D01*
X576041Y520416D01*
X575166Y519649D01*
X574242Y518940D01*
X573274Y518293D01*
X572266Y517711D01*
X571222Y517196D01*
X570146Y516751D01*
X569044Y516377D01*
X567920Y516075D01*
X566778Y515848D01*
X565624Y515696D01*
X564462Y515620D01*
X563298Y515620D01*
X562136Y515696D01*
X560982Y515848D01*
X559840Y516075D01*
X558716Y516377D01*
X557614Y516751D01*
X556538Y517196D01*
X555494Y517711D01*
X554486Y518293D01*
X553518Y518940D01*
X552594Y519649D01*
X551719Y520416D01*
X550896Y521239D01*
X550129Y522114D01*
X549420Y523038D01*
X548773Y524006D01*
X548191Y525014D01*
X547676Y526058D01*
X547231Y527134D01*
X546857Y528236D01*
X546555Y529360D01*
X546328Y530502D01*
X546176Y531656D01*
X546100Y532818D01*
X546100Y533982D01*
X546176Y535144D01*
X546328Y536298D01*
X546555Y537440D01*
X546857Y538564D01*
X547231Y539666D01*
X547676Y540742D01*
X548191Y541786D01*
X548773Y542794D01*
X549420Y543762D01*
X550129Y544686D01*
X550896Y545561D01*
X551719Y546384D01*
X552594Y547152D01*
X553518Y547860D01*
X554486Y548507D01*
X555494Y549089D01*
X556538Y549604D01*
X557614Y550049D01*
X558716Y550424D01*
X559840Y550725D01*
X560982Y550952D01*
X562136Y551104D01*
X563298Y551180D01*
X564462Y551180D01*
X565624Y551104D01*
X566778Y550952D01*
X567920Y550725D01*
X569044Y550424D01*
X570146Y550049D01*
X571222Y549604D01*
X572266Y549089D01*
X573274Y548507D01*
X574242Y547860D01*
X575166Y547152D01*
X576041Y546384D01*
X576864Y545561D01*
X577632Y544686D01*
X578340Y543762D01*
X578987Y542794D01*
X579569Y541786D01*
X580084Y540742D01*
X580529Y539666D01*
X580904Y538564D01*
X581205Y537440D01*
X581432Y536298D01*
X581584Y535144D01*
X581660Y533982D01*
X581660Y532818D01*
X581660Y83238D02*
X581584Y82076D01*
X581432Y80922D01*
X581205Y79780D01*
X580904Y78656D01*
X580529Y77554D01*
X580084Y76478D01*
X579569Y75434D01*
X578987Y74426D01*
X578340Y73458D01*
X577632Y72534D01*
X576864Y71659D01*
X576041Y70836D01*
X575166Y70069D01*
X574242Y69360D01*
X573274Y68713D01*
X572266Y68131D01*
X571222Y67616D01*
X570146Y67171D01*
X569044Y66797D01*
X567920Y66495D01*
X566778Y66268D01*
X565624Y66116D01*
X564462Y66040D01*
X563298Y66040D01*
X562136Y66116D01*
X560982Y66268D01*
X559840Y66495D01*
X558716Y66797D01*
X557614Y67171D01*
X556538Y67616D01*
X555494Y68131D01*
X554486Y68713D01*
X553518Y69360D01*
X552594Y70069D01*
X551719Y70836D01*
X550896Y71659D01*
X550129Y72534D01*
X549420Y73458D01*
X548773Y74426D01*
X548191Y75434D01*
X547676Y76478D01*
X547231Y77554D01*
X546857Y78656D01*
X546555Y79780D01*
X546328Y80922D01*
X546176Y82076D01*
X546100Y83238D01*
X546100Y84402D01*
X546176Y85564D01*
X546328Y86718D01*
X546555Y87860D01*
X546857Y88984D01*
X547231Y90086D01*
X547676Y91162D01*
X548191Y92206D01*
X548773Y93214D01*
X549420Y94182D01*
X550129Y95106D01*
X550896Y95981D01*
X551719Y96804D01*
X552594Y97572D01*
X553518Y98280D01*
X554486Y98927D01*
X555494Y99509D01*
X556538Y100024D01*
X557614Y100469D01*
X558716Y100844D01*
X559840Y101145D01*
X560982Y101372D01*
X562136Y101524D01*
X563298Y101600D01*
X564462Y101600D01*
X565624Y101524D01*
X566778Y101372D01*
X567920Y101145D01*
X569044Y100844D01*
X570146Y100469D01*
X571222Y100024D01*
X572266Y99509D01*
X573274Y98927D01*
X574242Y98280D01*
X575166Y97572D01*
X576041Y96804D01*
X576864Y95981D01*
X577632Y95106D01*
X578340Y94182D01*
X578987Y93214D01*
X579569Y92206D01*
X580084Y91162D01*
X580529Y90086D01*
X580904Y88984D01*
X581205Y87860D01*
X581432Y86718D01*
X581584Y85564D01*
X581660Y84402D01*
X581660Y83238D01*
X132080Y83238D02*
X132004Y82076D01*
X131852Y80922D01*
X131625Y79780D01*
X131324Y78656D01*
X130949Y77554D01*
X130504Y76478D01*
X129989Y75434D01*
X129407Y74426D01*
X128760Y73458D01*
X128052Y72534D01*
X127284Y71659D01*
X126461Y70836D01*
X125586Y70069D01*
X124662Y69360D01*
X123694Y68713D01*
X122686Y68131D01*
X121642Y67616D01*
X120566Y67171D01*
X119464Y66797D01*
X118340Y66495D01*
X117198Y66268D01*
X116044Y66116D01*
X114882Y66040D01*
X113718Y66040D01*
X112556Y66116D01*
X111402Y66268D01*
X110260Y66495D01*
X109136Y66797D01*
X108034Y67171D01*
X106958Y67616D01*
X105914Y68131D01*
X104906Y68713D01*
X103938Y69360D01*
X103014Y70069D01*
X102139Y70836D01*
X101316Y71659D01*
X100549Y72534D01*
X99840Y73458D01*
X99193Y74426D01*
X98611Y75434D01*
X98096Y76478D01*
X97651Y77554D01*
X97277Y78656D01*
X96975Y79780D01*
X96748Y80922D01*
X96596Y82076D01*
X96520Y83238D01*
X96520Y84402D01*
X96596Y85564D01*
X96748Y86718D01*
X96975Y87860D01*
X97277Y88984D01*
X97651Y90086D01*
X98096Y91162D01*
X98611Y92206D01*
X99193Y93214D01*
X99840Y94182D01*
X100549Y95106D01*
X101316Y95981D01*
X102139Y96804D01*
X103014Y97572D01*
X103938Y98280D01*
X104906Y98927D01*
X105914Y99509D01*
X106958Y100024D01*
X108034Y100469D01*
X109136Y100844D01*
X110260Y101145D01*
X111402Y101372D01*
X112556Y101524D01*
X113718Y101600D01*
X114882Y101600D01*
X116044Y101524D01*
X117198Y101372D01*
X118340Y101145D01*
X119464Y100844D01*
X120566Y100469D01*
X121642Y100024D01*
X122686Y99509D01*
X123694Y98927D01*
X124662Y98280D01*
X125586Y97572D01*
X126461Y96804D01*
X127284Y95981D01*
X128052Y95106D01*
X128760Y94182D01*
X129407Y93214D01*
X129989Y92206D01*
X130504Y91162D01*
X130949Y90086D01*
X131324Y88984D01*
X131625Y87860D01*
X131852Y86718D01*
X132004Y85564D01*
X132080Y84402D01*
X132080Y83238D01*
M02*
