G04 EAGLE Gerber RS-274X export*
G75*
%MOMM*%
%FSLAX34Y34*%
%LPD*%
%INSilkscreen Top*%
%IPPOS*%
%AMOC8*
5,1,8,0,0,1.08239X$1,22.5*%
G01*
%ADD10C,0.127000*%
%ADD11C,0.076200*%
%ADD12C,0.254000*%


D10*
X98425Y326390D02*
X125095Y326390D01*
X125095Y313690D01*
X98425Y313690D01*
X98425Y326390D01*
D11*
X108291Y327787D02*
X109928Y327787D01*
X108291Y327787D02*
X108213Y327789D01*
X108135Y327794D01*
X108058Y327804D01*
X107981Y327817D01*
X107905Y327833D01*
X107830Y327853D01*
X107756Y327877D01*
X107683Y327904D01*
X107611Y327935D01*
X107541Y327969D01*
X107473Y328006D01*
X107406Y328047D01*
X107341Y328091D01*
X107279Y328137D01*
X107219Y328187D01*
X107161Y328239D01*
X107106Y328294D01*
X107054Y328352D01*
X107004Y328412D01*
X106958Y328474D01*
X106914Y328539D01*
X106873Y328606D01*
X106836Y328674D01*
X106802Y328744D01*
X106771Y328816D01*
X106744Y328889D01*
X106720Y328963D01*
X106700Y329038D01*
X106684Y329114D01*
X106671Y329191D01*
X106661Y329268D01*
X106656Y329346D01*
X106654Y329424D01*
X106654Y333516D01*
X106656Y333596D01*
X106662Y333676D01*
X106672Y333756D01*
X106685Y333835D01*
X106703Y333914D01*
X106724Y333991D01*
X106750Y334067D01*
X106779Y334142D01*
X106811Y334216D01*
X106847Y334288D01*
X106887Y334358D01*
X106930Y334425D01*
X106976Y334491D01*
X107026Y334554D01*
X107078Y334615D01*
X107133Y334674D01*
X107192Y334729D01*
X107252Y334781D01*
X107316Y334831D01*
X107382Y334877D01*
X107449Y334920D01*
X107519Y334960D01*
X107591Y334996D01*
X107665Y335028D01*
X107739Y335057D01*
X107816Y335083D01*
X107893Y335104D01*
X107972Y335122D01*
X108051Y335135D01*
X108131Y335145D01*
X108211Y335151D01*
X108291Y335153D01*
X109928Y335153D01*
X112773Y333516D02*
X114820Y335153D01*
X114820Y327787D01*
X116866Y327787D02*
X112773Y327787D01*
D10*
X433705Y332740D02*
X460375Y332740D01*
X460375Y320040D01*
X433705Y320040D01*
X433705Y332740D01*
D11*
X465314Y322707D02*
X466951Y322707D01*
X465314Y322707D02*
X465236Y322709D01*
X465158Y322714D01*
X465081Y322724D01*
X465004Y322737D01*
X464928Y322753D01*
X464853Y322773D01*
X464779Y322797D01*
X464706Y322824D01*
X464634Y322855D01*
X464564Y322889D01*
X464496Y322926D01*
X464429Y322967D01*
X464364Y323011D01*
X464302Y323057D01*
X464242Y323107D01*
X464184Y323159D01*
X464129Y323214D01*
X464077Y323272D01*
X464027Y323332D01*
X463981Y323394D01*
X463937Y323459D01*
X463896Y323526D01*
X463859Y323594D01*
X463825Y323664D01*
X463794Y323736D01*
X463767Y323809D01*
X463743Y323883D01*
X463723Y323958D01*
X463707Y324034D01*
X463694Y324111D01*
X463684Y324188D01*
X463679Y324266D01*
X463677Y324344D01*
X463677Y328436D01*
X463679Y328516D01*
X463685Y328596D01*
X463695Y328676D01*
X463708Y328755D01*
X463726Y328834D01*
X463747Y328911D01*
X463773Y328987D01*
X463802Y329062D01*
X463834Y329136D01*
X463870Y329208D01*
X463910Y329278D01*
X463953Y329345D01*
X463999Y329411D01*
X464049Y329474D01*
X464101Y329535D01*
X464156Y329594D01*
X464215Y329649D01*
X464275Y329701D01*
X464339Y329751D01*
X464405Y329797D01*
X464472Y329840D01*
X464542Y329880D01*
X464614Y329916D01*
X464688Y329948D01*
X464762Y329977D01*
X464839Y330003D01*
X464916Y330024D01*
X464995Y330042D01*
X465074Y330055D01*
X465154Y330065D01*
X465234Y330071D01*
X465314Y330073D01*
X466951Y330073D01*
X469796Y328436D02*
X471842Y330073D01*
X471842Y322707D01*
X469796Y322707D02*
X473888Y322707D01*
X481204Y328232D02*
X481202Y328317D01*
X481196Y328402D01*
X481186Y328486D01*
X481173Y328570D01*
X481155Y328654D01*
X481134Y328736D01*
X481109Y328817D01*
X481080Y328897D01*
X481047Y328976D01*
X481011Y329053D01*
X480971Y329128D01*
X480928Y329202D01*
X480882Y329273D01*
X480832Y329342D01*
X480779Y329409D01*
X480723Y329473D01*
X480664Y329534D01*
X480603Y329593D01*
X480539Y329649D01*
X480472Y329702D01*
X480403Y329752D01*
X480332Y329798D01*
X480258Y329841D01*
X480183Y329881D01*
X480106Y329917D01*
X480027Y329950D01*
X479947Y329979D01*
X479866Y330004D01*
X479784Y330025D01*
X479700Y330043D01*
X479616Y330056D01*
X479532Y330066D01*
X479447Y330072D01*
X479362Y330074D01*
X479362Y330073D02*
X479266Y330071D01*
X479170Y330065D01*
X479075Y330055D01*
X478980Y330042D01*
X478885Y330024D01*
X478792Y330003D01*
X478699Y329978D01*
X478608Y329949D01*
X478517Y329917D01*
X478428Y329881D01*
X478341Y329841D01*
X478255Y329798D01*
X478171Y329752D01*
X478089Y329702D01*
X478009Y329648D01*
X477932Y329592D01*
X477857Y329532D01*
X477784Y329470D01*
X477714Y329404D01*
X477646Y329336D01*
X477581Y329265D01*
X477520Y329192D01*
X477461Y329116D01*
X477405Y329037D01*
X477353Y328957D01*
X477304Y328874D01*
X477258Y328790D01*
X477216Y328704D01*
X477178Y328616D01*
X477143Y328527D01*
X477111Y328436D01*
X480589Y326800D02*
X480649Y326859D01*
X480706Y326921D01*
X480761Y326985D01*
X480812Y327052D01*
X480861Y327121D01*
X480907Y327191D01*
X480950Y327264D01*
X480990Y327338D01*
X481026Y327414D01*
X481059Y327492D01*
X481089Y327571D01*
X481116Y327651D01*
X481139Y327732D01*
X481158Y327814D01*
X481174Y327896D01*
X481187Y327980D01*
X481196Y328064D01*
X481201Y328148D01*
X481203Y328232D01*
X480589Y326799D02*
X477111Y322707D01*
X481203Y322707D01*
D10*
X431165Y332740D02*
X404495Y332740D01*
X431165Y332740D02*
X431165Y320040D01*
X404495Y320040D01*
X404495Y332740D01*
D11*
X403733Y322171D02*
X403733Y320534D01*
X403731Y320456D01*
X403726Y320378D01*
X403716Y320301D01*
X403703Y320224D01*
X403687Y320148D01*
X403667Y320073D01*
X403643Y319999D01*
X403616Y319926D01*
X403585Y319854D01*
X403551Y319784D01*
X403514Y319716D01*
X403473Y319649D01*
X403429Y319584D01*
X403383Y319522D01*
X403333Y319462D01*
X403281Y319404D01*
X403226Y319349D01*
X403168Y319297D01*
X403108Y319247D01*
X403046Y319201D01*
X402981Y319157D01*
X402915Y319116D01*
X402846Y319079D01*
X402776Y319045D01*
X402704Y319014D01*
X402631Y318987D01*
X402557Y318963D01*
X402482Y318943D01*
X402406Y318927D01*
X402329Y318914D01*
X402252Y318904D01*
X402174Y318899D01*
X402096Y318897D01*
X398004Y318897D01*
X397924Y318899D01*
X397844Y318905D01*
X397764Y318915D01*
X397685Y318928D01*
X397606Y318946D01*
X397529Y318967D01*
X397453Y318993D01*
X397378Y319022D01*
X397304Y319054D01*
X397232Y319090D01*
X397162Y319130D01*
X397095Y319173D01*
X397029Y319219D01*
X396966Y319269D01*
X396905Y319321D01*
X396846Y319376D01*
X396791Y319435D01*
X396739Y319495D01*
X396689Y319559D01*
X396643Y319624D01*
X396600Y319692D01*
X396560Y319762D01*
X396524Y319834D01*
X396492Y319908D01*
X396463Y319982D01*
X396438Y320059D01*
X396416Y320136D01*
X396398Y320215D01*
X396385Y320294D01*
X396375Y320373D01*
X396369Y320454D01*
X396367Y320534D01*
X396367Y322171D01*
X398004Y325016D02*
X396367Y327062D01*
X403733Y327062D01*
X403733Y325016D02*
X403733Y329108D01*
X397185Y332331D02*
X396367Y332331D01*
X396367Y336423D01*
X403733Y334377D01*
D10*
X233045Y469900D02*
X206375Y469900D01*
X206375Y482600D01*
X233045Y482600D01*
X233045Y469900D01*
D11*
X237984Y472567D02*
X239621Y472567D01*
X237984Y472567D02*
X237906Y472569D01*
X237828Y472574D01*
X237751Y472584D01*
X237674Y472597D01*
X237598Y472613D01*
X237523Y472633D01*
X237449Y472657D01*
X237376Y472684D01*
X237304Y472715D01*
X237234Y472749D01*
X237166Y472786D01*
X237099Y472827D01*
X237034Y472871D01*
X236972Y472917D01*
X236912Y472967D01*
X236854Y473019D01*
X236799Y473074D01*
X236747Y473132D01*
X236697Y473192D01*
X236651Y473254D01*
X236607Y473319D01*
X236566Y473386D01*
X236529Y473454D01*
X236495Y473524D01*
X236464Y473596D01*
X236437Y473669D01*
X236413Y473743D01*
X236393Y473818D01*
X236377Y473894D01*
X236364Y473971D01*
X236354Y474048D01*
X236349Y474126D01*
X236347Y474204D01*
X236347Y478296D01*
X236349Y478376D01*
X236355Y478456D01*
X236365Y478536D01*
X236378Y478615D01*
X236396Y478694D01*
X236417Y478771D01*
X236443Y478847D01*
X236472Y478922D01*
X236504Y478996D01*
X236540Y479068D01*
X236580Y479138D01*
X236623Y479205D01*
X236669Y479271D01*
X236719Y479334D01*
X236771Y479395D01*
X236826Y479454D01*
X236885Y479509D01*
X236945Y479561D01*
X237009Y479611D01*
X237075Y479657D01*
X237142Y479700D01*
X237212Y479740D01*
X237284Y479776D01*
X237358Y479808D01*
X237432Y479837D01*
X237509Y479863D01*
X237586Y479884D01*
X237665Y479902D01*
X237744Y479915D01*
X237824Y479925D01*
X237904Y479931D01*
X237984Y479933D01*
X239621Y479933D01*
X242466Y478296D02*
X244512Y479933D01*
X244512Y472567D01*
X242466Y472567D02*
X246558Y472567D01*
X249781Y474613D02*
X249783Y474702D01*
X249789Y474791D01*
X249799Y474880D01*
X249812Y474968D01*
X249829Y475056D01*
X249851Y475143D01*
X249876Y475228D01*
X249904Y475313D01*
X249937Y475396D01*
X249973Y475478D01*
X250012Y475558D01*
X250055Y475636D01*
X250101Y475712D01*
X250151Y475787D01*
X250204Y475859D01*
X250260Y475928D01*
X250319Y475995D01*
X250380Y476060D01*
X250445Y476121D01*
X250512Y476180D01*
X250581Y476236D01*
X250653Y476289D01*
X250728Y476339D01*
X250804Y476385D01*
X250882Y476428D01*
X250962Y476467D01*
X251044Y476503D01*
X251127Y476536D01*
X251212Y476564D01*
X251297Y476589D01*
X251384Y476611D01*
X251472Y476628D01*
X251560Y476641D01*
X251649Y476651D01*
X251738Y476657D01*
X251827Y476659D01*
X251916Y476657D01*
X252005Y476651D01*
X252094Y476641D01*
X252182Y476628D01*
X252270Y476611D01*
X252357Y476589D01*
X252442Y476564D01*
X252527Y476536D01*
X252610Y476503D01*
X252692Y476467D01*
X252772Y476428D01*
X252850Y476385D01*
X252926Y476339D01*
X253001Y476289D01*
X253073Y476236D01*
X253142Y476180D01*
X253209Y476121D01*
X253274Y476060D01*
X253335Y475995D01*
X253394Y475928D01*
X253450Y475859D01*
X253503Y475787D01*
X253553Y475712D01*
X253599Y475636D01*
X253642Y475558D01*
X253681Y475478D01*
X253717Y475396D01*
X253750Y475313D01*
X253778Y475228D01*
X253803Y475143D01*
X253825Y475056D01*
X253842Y474968D01*
X253855Y474880D01*
X253865Y474791D01*
X253871Y474702D01*
X253873Y474613D01*
X253871Y474524D01*
X253865Y474435D01*
X253855Y474346D01*
X253842Y474258D01*
X253825Y474170D01*
X253803Y474083D01*
X253778Y473998D01*
X253750Y473913D01*
X253717Y473830D01*
X253681Y473748D01*
X253642Y473668D01*
X253599Y473590D01*
X253553Y473514D01*
X253503Y473439D01*
X253450Y473367D01*
X253394Y473298D01*
X253335Y473231D01*
X253274Y473166D01*
X253209Y473105D01*
X253142Y473046D01*
X253073Y472990D01*
X253001Y472937D01*
X252926Y472887D01*
X252850Y472841D01*
X252772Y472798D01*
X252692Y472759D01*
X252610Y472723D01*
X252527Y472690D01*
X252442Y472662D01*
X252357Y472637D01*
X252270Y472615D01*
X252182Y472598D01*
X252094Y472585D01*
X252005Y472575D01*
X251916Y472569D01*
X251827Y472567D01*
X251738Y472569D01*
X251649Y472575D01*
X251560Y472585D01*
X251472Y472598D01*
X251384Y472615D01*
X251297Y472637D01*
X251212Y472662D01*
X251127Y472690D01*
X251044Y472723D01*
X250962Y472759D01*
X250882Y472798D01*
X250804Y472841D01*
X250728Y472887D01*
X250653Y472937D01*
X250581Y472990D01*
X250512Y473046D01*
X250445Y473105D01*
X250380Y473166D01*
X250319Y473231D01*
X250260Y473298D01*
X250204Y473367D01*
X250151Y473439D01*
X250101Y473514D01*
X250055Y473590D01*
X250012Y473668D01*
X249973Y473748D01*
X249937Y473830D01*
X249904Y473913D01*
X249876Y473998D01*
X249851Y474083D01*
X249829Y474170D01*
X249812Y474258D01*
X249799Y474346D01*
X249789Y474435D01*
X249783Y474524D01*
X249781Y474613D01*
X250190Y478296D02*
X250192Y478375D01*
X250198Y478454D01*
X250207Y478533D01*
X250220Y478611D01*
X250238Y478688D01*
X250258Y478764D01*
X250283Y478839D01*
X250311Y478913D01*
X250342Y478986D01*
X250378Y479057D01*
X250416Y479126D01*
X250458Y479193D01*
X250503Y479258D01*
X250551Y479321D01*
X250602Y479382D01*
X250656Y479439D01*
X250712Y479495D01*
X250771Y479547D01*
X250833Y479597D01*
X250897Y479643D01*
X250963Y479687D01*
X251031Y479727D01*
X251101Y479763D01*
X251173Y479797D01*
X251247Y479827D01*
X251321Y479853D01*
X251397Y479876D01*
X251474Y479894D01*
X251551Y479910D01*
X251630Y479921D01*
X251708Y479929D01*
X251787Y479933D01*
X251867Y479933D01*
X251946Y479929D01*
X252024Y479921D01*
X252103Y479910D01*
X252180Y479894D01*
X252257Y479876D01*
X252333Y479853D01*
X252407Y479827D01*
X252481Y479797D01*
X252553Y479763D01*
X252623Y479727D01*
X252691Y479687D01*
X252757Y479643D01*
X252821Y479597D01*
X252883Y479547D01*
X252942Y479495D01*
X252998Y479439D01*
X253052Y479382D01*
X253103Y479321D01*
X253151Y479258D01*
X253196Y479193D01*
X253238Y479126D01*
X253276Y479057D01*
X253312Y478986D01*
X253343Y478913D01*
X253371Y478839D01*
X253396Y478764D01*
X253416Y478688D01*
X253434Y478611D01*
X253447Y478533D01*
X253456Y478454D01*
X253462Y478375D01*
X253464Y478296D01*
X253462Y478217D01*
X253456Y478138D01*
X253447Y478059D01*
X253434Y477981D01*
X253416Y477904D01*
X253396Y477828D01*
X253371Y477753D01*
X253343Y477679D01*
X253312Y477606D01*
X253276Y477535D01*
X253238Y477466D01*
X253196Y477399D01*
X253151Y477334D01*
X253103Y477271D01*
X253052Y477210D01*
X252998Y477153D01*
X252942Y477097D01*
X252883Y477045D01*
X252821Y476995D01*
X252757Y476949D01*
X252691Y476905D01*
X252623Y476865D01*
X252553Y476829D01*
X252481Y476795D01*
X252407Y476765D01*
X252333Y476739D01*
X252257Y476716D01*
X252180Y476698D01*
X252103Y476682D01*
X252024Y476671D01*
X251946Y476663D01*
X251867Y476659D01*
X251787Y476659D01*
X251708Y476663D01*
X251630Y476671D01*
X251551Y476682D01*
X251474Y476698D01*
X251397Y476716D01*
X251321Y476739D01*
X251247Y476765D01*
X251173Y476795D01*
X251101Y476829D01*
X251031Y476865D01*
X250963Y476905D01*
X250897Y476949D01*
X250833Y476995D01*
X250771Y477045D01*
X250712Y477097D01*
X250656Y477153D01*
X250602Y477210D01*
X250551Y477271D01*
X250503Y477334D01*
X250458Y477399D01*
X250416Y477466D01*
X250378Y477535D01*
X250342Y477606D01*
X250311Y477679D01*
X250283Y477753D01*
X250258Y477828D01*
X250238Y477904D01*
X250220Y477981D01*
X250207Y478059D01*
X250198Y478138D01*
X250192Y478217D01*
X250190Y478296D01*
D10*
X347345Y66675D02*
X379095Y66675D01*
X347345Y66675D02*
X347345Y83185D01*
X379095Y83185D01*
X379095Y66675D01*
D11*
X361238Y84987D02*
X359601Y84987D01*
X359523Y84989D01*
X359445Y84994D01*
X359368Y85004D01*
X359291Y85017D01*
X359215Y85033D01*
X359140Y85053D01*
X359066Y85077D01*
X358993Y85104D01*
X358921Y85135D01*
X358851Y85169D01*
X358783Y85206D01*
X358716Y85247D01*
X358651Y85291D01*
X358589Y85337D01*
X358529Y85387D01*
X358471Y85439D01*
X358416Y85494D01*
X358364Y85552D01*
X358314Y85612D01*
X358268Y85674D01*
X358224Y85739D01*
X358183Y85806D01*
X358146Y85874D01*
X358112Y85944D01*
X358081Y86016D01*
X358054Y86089D01*
X358030Y86163D01*
X358010Y86238D01*
X357994Y86314D01*
X357981Y86391D01*
X357971Y86468D01*
X357966Y86546D01*
X357964Y86624D01*
X357964Y90716D01*
X357966Y90796D01*
X357972Y90876D01*
X357982Y90956D01*
X357995Y91035D01*
X358013Y91114D01*
X358034Y91191D01*
X358060Y91267D01*
X358089Y91342D01*
X358121Y91416D01*
X358157Y91488D01*
X358197Y91558D01*
X358240Y91625D01*
X358286Y91691D01*
X358336Y91754D01*
X358388Y91815D01*
X358443Y91874D01*
X358502Y91929D01*
X358562Y91981D01*
X358626Y92031D01*
X358692Y92077D01*
X358759Y92120D01*
X358829Y92160D01*
X358901Y92196D01*
X358975Y92228D01*
X359049Y92257D01*
X359126Y92283D01*
X359203Y92304D01*
X359282Y92322D01*
X359361Y92335D01*
X359441Y92345D01*
X359521Y92351D01*
X359601Y92353D01*
X361238Y92353D01*
X364084Y87033D02*
X364086Y87122D01*
X364092Y87211D01*
X364102Y87300D01*
X364115Y87388D01*
X364132Y87476D01*
X364154Y87563D01*
X364179Y87648D01*
X364207Y87733D01*
X364240Y87816D01*
X364276Y87898D01*
X364315Y87978D01*
X364358Y88056D01*
X364404Y88132D01*
X364454Y88207D01*
X364507Y88279D01*
X364563Y88348D01*
X364622Y88415D01*
X364683Y88480D01*
X364748Y88541D01*
X364815Y88600D01*
X364884Y88656D01*
X364956Y88709D01*
X365031Y88759D01*
X365107Y88805D01*
X365185Y88848D01*
X365265Y88887D01*
X365347Y88923D01*
X365430Y88956D01*
X365515Y88984D01*
X365600Y89009D01*
X365687Y89031D01*
X365775Y89048D01*
X365863Y89061D01*
X365952Y89071D01*
X366041Y89077D01*
X366130Y89079D01*
X366219Y89077D01*
X366308Y89071D01*
X366397Y89061D01*
X366485Y89048D01*
X366573Y89031D01*
X366660Y89009D01*
X366745Y88984D01*
X366830Y88956D01*
X366913Y88923D01*
X366995Y88887D01*
X367075Y88848D01*
X367153Y88805D01*
X367229Y88759D01*
X367304Y88709D01*
X367376Y88656D01*
X367445Y88600D01*
X367512Y88541D01*
X367577Y88480D01*
X367638Y88415D01*
X367697Y88348D01*
X367753Y88279D01*
X367806Y88207D01*
X367856Y88132D01*
X367902Y88056D01*
X367945Y87978D01*
X367984Y87898D01*
X368020Y87816D01*
X368053Y87733D01*
X368081Y87648D01*
X368106Y87563D01*
X368128Y87476D01*
X368145Y87388D01*
X368158Y87300D01*
X368168Y87211D01*
X368174Y87122D01*
X368176Y87033D01*
X368174Y86944D01*
X368168Y86855D01*
X368158Y86766D01*
X368145Y86678D01*
X368128Y86590D01*
X368106Y86503D01*
X368081Y86418D01*
X368053Y86333D01*
X368020Y86250D01*
X367984Y86168D01*
X367945Y86088D01*
X367902Y86010D01*
X367856Y85934D01*
X367806Y85859D01*
X367753Y85787D01*
X367697Y85718D01*
X367638Y85651D01*
X367577Y85586D01*
X367512Y85525D01*
X367445Y85466D01*
X367376Y85410D01*
X367304Y85357D01*
X367229Y85307D01*
X367153Y85261D01*
X367075Y85218D01*
X366995Y85179D01*
X366913Y85143D01*
X366830Y85110D01*
X366745Y85082D01*
X366660Y85057D01*
X366573Y85035D01*
X366485Y85018D01*
X366397Y85005D01*
X366308Y84995D01*
X366219Y84989D01*
X366130Y84987D01*
X366041Y84989D01*
X365952Y84995D01*
X365863Y85005D01*
X365775Y85018D01*
X365687Y85035D01*
X365600Y85057D01*
X365515Y85082D01*
X365430Y85110D01*
X365347Y85143D01*
X365265Y85179D01*
X365185Y85218D01*
X365107Y85261D01*
X365031Y85307D01*
X364956Y85357D01*
X364884Y85410D01*
X364815Y85466D01*
X364748Y85525D01*
X364683Y85586D01*
X364622Y85651D01*
X364563Y85718D01*
X364507Y85787D01*
X364454Y85859D01*
X364404Y85934D01*
X364358Y86010D01*
X364315Y86088D01*
X364276Y86168D01*
X364240Y86250D01*
X364207Y86333D01*
X364179Y86418D01*
X364154Y86503D01*
X364132Y86590D01*
X364115Y86678D01*
X364102Y86766D01*
X364092Y86855D01*
X364086Y86944D01*
X364084Y87033D01*
X364493Y90716D02*
X364495Y90795D01*
X364501Y90874D01*
X364510Y90953D01*
X364523Y91031D01*
X364541Y91108D01*
X364561Y91184D01*
X364586Y91259D01*
X364614Y91333D01*
X364645Y91406D01*
X364681Y91477D01*
X364719Y91546D01*
X364761Y91613D01*
X364806Y91678D01*
X364854Y91741D01*
X364905Y91802D01*
X364959Y91859D01*
X365015Y91915D01*
X365074Y91967D01*
X365136Y92017D01*
X365200Y92063D01*
X365266Y92107D01*
X365334Y92147D01*
X365404Y92183D01*
X365476Y92217D01*
X365550Y92247D01*
X365624Y92273D01*
X365700Y92296D01*
X365777Y92314D01*
X365854Y92330D01*
X365933Y92341D01*
X366011Y92349D01*
X366090Y92353D01*
X366170Y92353D01*
X366249Y92349D01*
X366327Y92341D01*
X366406Y92330D01*
X366483Y92314D01*
X366560Y92296D01*
X366636Y92273D01*
X366710Y92247D01*
X366784Y92217D01*
X366856Y92183D01*
X366926Y92147D01*
X366994Y92107D01*
X367060Y92063D01*
X367124Y92017D01*
X367186Y91967D01*
X367245Y91915D01*
X367301Y91859D01*
X367355Y91802D01*
X367406Y91741D01*
X367454Y91678D01*
X367499Y91613D01*
X367541Y91546D01*
X367579Y91477D01*
X367615Y91406D01*
X367646Y91333D01*
X367674Y91259D01*
X367699Y91184D01*
X367719Y91108D01*
X367737Y91031D01*
X367750Y90953D01*
X367759Y90874D01*
X367765Y90795D01*
X367767Y90716D01*
X367765Y90637D01*
X367759Y90558D01*
X367750Y90479D01*
X367737Y90401D01*
X367719Y90324D01*
X367699Y90248D01*
X367674Y90173D01*
X367646Y90099D01*
X367615Y90026D01*
X367579Y89955D01*
X367541Y89886D01*
X367499Y89819D01*
X367454Y89754D01*
X367406Y89691D01*
X367355Y89630D01*
X367301Y89573D01*
X367245Y89517D01*
X367186Y89465D01*
X367124Y89415D01*
X367060Y89369D01*
X366994Y89325D01*
X366926Y89285D01*
X366856Y89249D01*
X366784Y89215D01*
X366710Y89185D01*
X366636Y89159D01*
X366560Y89136D01*
X366483Y89118D01*
X366406Y89102D01*
X366327Y89091D01*
X366249Y89083D01*
X366170Y89079D01*
X366090Y89079D01*
X366011Y89083D01*
X365933Y89091D01*
X365854Y89102D01*
X365777Y89118D01*
X365700Y89136D01*
X365624Y89159D01*
X365550Y89185D01*
X365476Y89215D01*
X365404Y89249D01*
X365334Y89285D01*
X365266Y89325D01*
X365200Y89369D01*
X365136Y89415D01*
X365074Y89465D01*
X365015Y89517D01*
X364959Y89573D01*
X364905Y89630D01*
X364854Y89691D01*
X364806Y89754D01*
X364761Y89819D01*
X364719Y89886D01*
X364681Y89955D01*
X364645Y90026D01*
X364614Y90099D01*
X364586Y90173D01*
X364561Y90248D01*
X364541Y90324D01*
X364523Y90401D01*
X364510Y90479D01*
X364501Y90558D01*
X364495Y90637D01*
X364493Y90716D01*
D10*
X379095Y47625D02*
X347345Y47625D01*
X347345Y64135D01*
X379095Y64135D01*
X379095Y47625D01*
D11*
X389613Y43658D02*
X389613Y42021D01*
X389611Y41943D01*
X389606Y41865D01*
X389596Y41788D01*
X389583Y41711D01*
X389567Y41635D01*
X389547Y41560D01*
X389523Y41486D01*
X389496Y41413D01*
X389465Y41341D01*
X389431Y41271D01*
X389394Y41203D01*
X389353Y41136D01*
X389309Y41071D01*
X389263Y41009D01*
X389213Y40949D01*
X389161Y40891D01*
X389106Y40836D01*
X389048Y40784D01*
X388988Y40734D01*
X388926Y40688D01*
X388861Y40644D01*
X388795Y40603D01*
X388726Y40566D01*
X388656Y40532D01*
X388584Y40501D01*
X388511Y40474D01*
X388437Y40450D01*
X388362Y40430D01*
X388286Y40414D01*
X388209Y40401D01*
X388132Y40391D01*
X388054Y40386D01*
X387976Y40384D01*
X383884Y40384D01*
X383804Y40386D01*
X383724Y40392D01*
X383644Y40402D01*
X383565Y40415D01*
X383486Y40433D01*
X383409Y40454D01*
X383333Y40480D01*
X383258Y40509D01*
X383184Y40541D01*
X383112Y40577D01*
X383042Y40617D01*
X382975Y40660D01*
X382909Y40706D01*
X382846Y40756D01*
X382785Y40808D01*
X382726Y40863D01*
X382671Y40922D01*
X382619Y40982D01*
X382569Y41046D01*
X382523Y41111D01*
X382480Y41179D01*
X382440Y41249D01*
X382404Y41321D01*
X382372Y41395D01*
X382343Y41469D01*
X382318Y41546D01*
X382296Y41623D01*
X382278Y41702D01*
X382265Y41781D01*
X382255Y41860D01*
X382249Y41941D01*
X382247Y42021D01*
X382247Y43658D01*
X386339Y48140D02*
X386339Y50596D01*
X386339Y48140D02*
X386337Y48062D01*
X386332Y47984D01*
X386322Y47907D01*
X386309Y47830D01*
X386293Y47754D01*
X386273Y47679D01*
X386249Y47605D01*
X386222Y47532D01*
X386191Y47460D01*
X386157Y47390D01*
X386120Y47322D01*
X386079Y47255D01*
X386035Y47190D01*
X385989Y47128D01*
X385939Y47068D01*
X385887Y47010D01*
X385832Y46955D01*
X385774Y46903D01*
X385714Y46853D01*
X385652Y46807D01*
X385587Y46763D01*
X385521Y46722D01*
X385452Y46685D01*
X385382Y46651D01*
X385310Y46620D01*
X385237Y46593D01*
X385163Y46569D01*
X385088Y46549D01*
X385012Y46533D01*
X384935Y46520D01*
X384858Y46510D01*
X384780Y46505D01*
X384702Y46503D01*
X384293Y46503D01*
X384293Y46504D02*
X384204Y46506D01*
X384115Y46512D01*
X384026Y46522D01*
X383938Y46535D01*
X383850Y46552D01*
X383763Y46574D01*
X383678Y46599D01*
X383593Y46627D01*
X383510Y46660D01*
X383428Y46696D01*
X383348Y46735D01*
X383270Y46778D01*
X383194Y46824D01*
X383119Y46874D01*
X383047Y46927D01*
X382978Y46983D01*
X382911Y47042D01*
X382846Y47103D01*
X382785Y47168D01*
X382726Y47235D01*
X382670Y47304D01*
X382617Y47376D01*
X382567Y47451D01*
X382521Y47527D01*
X382478Y47605D01*
X382439Y47685D01*
X382403Y47767D01*
X382370Y47850D01*
X382342Y47935D01*
X382317Y48020D01*
X382295Y48107D01*
X382278Y48195D01*
X382265Y48283D01*
X382255Y48372D01*
X382249Y48461D01*
X382247Y48550D01*
X382249Y48639D01*
X382255Y48728D01*
X382265Y48817D01*
X382278Y48905D01*
X382295Y48993D01*
X382317Y49080D01*
X382342Y49165D01*
X382370Y49250D01*
X382403Y49333D01*
X382439Y49415D01*
X382478Y49495D01*
X382521Y49573D01*
X382567Y49649D01*
X382617Y49724D01*
X382670Y49796D01*
X382726Y49865D01*
X382785Y49932D01*
X382846Y49997D01*
X382911Y50058D01*
X382978Y50117D01*
X383047Y50173D01*
X383119Y50226D01*
X383194Y50276D01*
X383270Y50322D01*
X383348Y50365D01*
X383428Y50404D01*
X383510Y50440D01*
X383593Y50473D01*
X383678Y50501D01*
X383763Y50526D01*
X383850Y50548D01*
X383938Y50565D01*
X384026Y50578D01*
X384115Y50588D01*
X384204Y50594D01*
X384293Y50596D01*
X386339Y50596D01*
X386451Y50594D01*
X386562Y50588D01*
X386674Y50579D01*
X386785Y50566D01*
X386895Y50548D01*
X387005Y50528D01*
X387114Y50503D01*
X387222Y50475D01*
X387329Y50443D01*
X387435Y50407D01*
X387540Y50368D01*
X387643Y50325D01*
X387745Y50279D01*
X387845Y50229D01*
X387944Y50176D01*
X388040Y50119D01*
X388135Y50060D01*
X388227Y49997D01*
X388317Y49931D01*
X388405Y49862D01*
X388491Y49790D01*
X388574Y49715D01*
X388654Y49637D01*
X388732Y49557D01*
X388807Y49474D01*
X388879Y49388D01*
X388948Y49300D01*
X389014Y49210D01*
X389077Y49118D01*
X389136Y49023D01*
X389193Y48927D01*
X389246Y48828D01*
X389296Y48728D01*
X389342Y48626D01*
X389385Y48523D01*
X389424Y48418D01*
X389460Y48312D01*
X389492Y48205D01*
X389520Y48097D01*
X389545Y47988D01*
X389565Y47878D01*
X389583Y47768D01*
X389596Y47657D01*
X389605Y47545D01*
X389611Y47434D01*
X389613Y47322D01*
D10*
X381635Y82550D02*
X408305Y82550D01*
X408305Y69850D01*
X381635Y69850D01*
X381635Y82550D01*
D11*
X391654Y85217D02*
X393291Y85217D01*
X391654Y85217D02*
X391576Y85219D01*
X391498Y85224D01*
X391421Y85234D01*
X391344Y85247D01*
X391268Y85263D01*
X391193Y85283D01*
X391119Y85307D01*
X391046Y85334D01*
X390974Y85365D01*
X390904Y85399D01*
X390836Y85436D01*
X390769Y85477D01*
X390704Y85521D01*
X390642Y85567D01*
X390582Y85617D01*
X390524Y85669D01*
X390469Y85724D01*
X390417Y85782D01*
X390367Y85842D01*
X390321Y85904D01*
X390277Y85969D01*
X390236Y86036D01*
X390199Y86104D01*
X390165Y86174D01*
X390134Y86246D01*
X390107Y86319D01*
X390083Y86393D01*
X390063Y86468D01*
X390047Y86544D01*
X390034Y86621D01*
X390024Y86698D01*
X390019Y86776D01*
X390017Y86854D01*
X390017Y90946D01*
X390019Y91026D01*
X390025Y91106D01*
X390035Y91186D01*
X390048Y91265D01*
X390066Y91344D01*
X390087Y91421D01*
X390113Y91497D01*
X390142Y91572D01*
X390174Y91646D01*
X390210Y91718D01*
X390250Y91788D01*
X390293Y91855D01*
X390339Y91921D01*
X390389Y91984D01*
X390441Y92045D01*
X390496Y92104D01*
X390555Y92159D01*
X390615Y92211D01*
X390679Y92261D01*
X390745Y92307D01*
X390812Y92350D01*
X390882Y92390D01*
X390954Y92426D01*
X391028Y92458D01*
X391102Y92487D01*
X391179Y92513D01*
X391256Y92534D01*
X391335Y92552D01*
X391414Y92565D01*
X391494Y92575D01*
X391574Y92581D01*
X391654Y92583D01*
X393291Y92583D01*
X396136Y90946D02*
X398182Y92583D01*
X398182Y85217D01*
X396136Y85217D02*
X400228Y85217D01*
X403451Y88900D02*
X403453Y89053D01*
X403459Y89206D01*
X403468Y89358D01*
X403482Y89511D01*
X403499Y89663D01*
X403520Y89814D01*
X403545Y89965D01*
X403574Y90115D01*
X403606Y90265D01*
X403643Y90413D01*
X403683Y90561D01*
X403726Y90708D01*
X403774Y90853D01*
X403825Y90997D01*
X403879Y91140D01*
X403938Y91282D01*
X403999Y91421D01*
X404065Y91560D01*
X404091Y91630D01*
X404121Y91700D01*
X404154Y91767D01*
X404190Y91833D01*
X404229Y91897D01*
X404272Y91959D01*
X404318Y92018D01*
X404366Y92076D01*
X404417Y92130D01*
X404471Y92183D01*
X404528Y92232D01*
X404587Y92279D01*
X404648Y92322D01*
X404711Y92363D01*
X404776Y92400D01*
X404843Y92435D01*
X404912Y92465D01*
X404982Y92493D01*
X405053Y92516D01*
X405125Y92537D01*
X405198Y92553D01*
X405272Y92566D01*
X405347Y92576D01*
X405422Y92581D01*
X405497Y92583D01*
X405572Y92581D01*
X405647Y92576D01*
X405722Y92566D01*
X405796Y92553D01*
X405869Y92537D01*
X405941Y92516D01*
X406012Y92493D01*
X406082Y92465D01*
X406151Y92435D01*
X406218Y92400D01*
X406283Y92363D01*
X406346Y92322D01*
X406407Y92279D01*
X406466Y92232D01*
X406523Y92183D01*
X406577Y92130D01*
X406628Y92076D01*
X406677Y92018D01*
X406722Y91959D01*
X406765Y91897D01*
X406804Y91833D01*
X406841Y91767D01*
X406873Y91699D01*
X406903Y91630D01*
X406929Y91560D01*
X406994Y91422D01*
X407056Y91282D01*
X407114Y91140D01*
X407169Y90997D01*
X407220Y90853D01*
X407268Y90708D01*
X407311Y90561D01*
X407351Y90414D01*
X407388Y90265D01*
X407420Y90115D01*
X407449Y89965D01*
X407474Y89814D01*
X407495Y89663D01*
X407512Y89511D01*
X407526Y89358D01*
X407535Y89206D01*
X407541Y89053D01*
X407543Y88900D01*
X403451Y88900D02*
X403453Y88747D01*
X403459Y88594D01*
X403468Y88441D01*
X403482Y88289D01*
X403499Y88137D01*
X403520Y87986D01*
X403545Y87835D01*
X403574Y87684D01*
X403606Y87535D01*
X403643Y87386D01*
X403683Y87239D01*
X403726Y87092D01*
X403774Y86947D01*
X403825Y86802D01*
X403880Y86660D01*
X403938Y86518D01*
X404000Y86378D01*
X404065Y86240D01*
X404091Y86169D01*
X404121Y86100D01*
X404154Y86033D01*
X404190Y85967D01*
X404229Y85903D01*
X404272Y85841D01*
X404318Y85782D01*
X404366Y85724D01*
X404417Y85670D01*
X404471Y85617D01*
X404528Y85568D01*
X404587Y85521D01*
X404648Y85478D01*
X404711Y85437D01*
X404776Y85400D01*
X404843Y85365D01*
X404912Y85335D01*
X404982Y85307D01*
X405053Y85284D01*
X405125Y85263D01*
X405198Y85247D01*
X405272Y85234D01*
X405347Y85224D01*
X405422Y85219D01*
X405497Y85217D01*
X406929Y86240D02*
X406994Y86378D01*
X407056Y86518D01*
X407114Y86660D01*
X407169Y86803D01*
X407220Y86947D01*
X407268Y87092D01*
X407311Y87239D01*
X407351Y87387D01*
X407388Y87535D01*
X407420Y87685D01*
X407449Y87835D01*
X407474Y87986D01*
X407495Y88137D01*
X407512Y88289D01*
X407526Y88442D01*
X407535Y88594D01*
X407541Y88747D01*
X407543Y88900D01*
X406929Y86240D02*
X406903Y86170D01*
X406873Y86100D01*
X406841Y86033D01*
X406804Y85967D01*
X406765Y85903D01*
X406722Y85841D01*
X406676Y85782D01*
X406628Y85724D01*
X406577Y85670D01*
X406523Y85617D01*
X406466Y85568D01*
X406407Y85521D01*
X406346Y85478D01*
X406283Y85437D01*
X406218Y85400D01*
X406151Y85365D01*
X406082Y85335D01*
X406012Y85307D01*
X405941Y85284D01*
X405869Y85263D01*
X405796Y85247D01*
X405722Y85234D01*
X405647Y85224D01*
X405572Y85219D01*
X405497Y85217D01*
X403860Y86854D02*
X407134Y90946D01*
D10*
X408305Y67310D02*
X381635Y67310D01*
X408305Y67310D02*
X408305Y54610D01*
X381635Y54610D01*
X381635Y67310D01*
D11*
X392924Y45847D02*
X394561Y45847D01*
X392924Y45847D02*
X392846Y45849D01*
X392768Y45854D01*
X392691Y45864D01*
X392614Y45877D01*
X392538Y45893D01*
X392463Y45913D01*
X392389Y45937D01*
X392316Y45964D01*
X392244Y45995D01*
X392174Y46029D01*
X392106Y46066D01*
X392039Y46107D01*
X391974Y46151D01*
X391912Y46197D01*
X391852Y46247D01*
X391794Y46299D01*
X391739Y46354D01*
X391687Y46412D01*
X391637Y46472D01*
X391591Y46534D01*
X391547Y46599D01*
X391506Y46666D01*
X391469Y46734D01*
X391435Y46804D01*
X391404Y46876D01*
X391377Y46949D01*
X391353Y47023D01*
X391333Y47098D01*
X391317Y47174D01*
X391304Y47251D01*
X391294Y47328D01*
X391289Y47406D01*
X391287Y47484D01*
X391287Y51576D01*
X391289Y51656D01*
X391295Y51736D01*
X391305Y51816D01*
X391318Y51895D01*
X391336Y51974D01*
X391357Y52051D01*
X391383Y52127D01*
X391412Y52202D01*
X391444Y52276D01*
X391480Y52348D01*
X391520Y52418D01*
X391563Y52485D01*
X391609Y52551D01*
X391659Y52614D01*
X391711Y52675D01*
X391766Y52734D01*
X391825Y52789D01*
X391885Y52841D01*
X391949Y52891D01*
X392015Y52937D01*
X392082Y52980D01*
X392152Y53020D01*
X392224Y53056D01*
X392298Y53088D01*
X392372Y53117D01*
X392449Y53143D01*
X392526Y53164D01*
X392605Y53182D01*
X392684Y53195D01*
X392764Y53205D01*
X392844Y53211D01*
X392924Y53213D01*
X394561Y53213D01*
X397406Y51576D02*
X399452Y53213D01*
X399452Y45847D01*
X397406Y45847D02*
X401498Y45847D01*
X404721Y51576D02*
X406767Y53213D01*
X406767Y45847D01*
X404721Y45847D02*
X408813Y45847D01*
D10*
X125095Y311150D02*
X98425Y311150D01*
X125095Y311150D02*
X125095Y298450D01*
X98425Y298450D01*
X98425Y311150D01*
D11*
X88338Y301117D02*
X86701Y301117D01*
X86623Y301119D01*
X86545Y301124D01*
X86468Y301134D01*
X86391Y301147D01*
X86315Y301163D01*
X86240Y301183D01*
X86166Y301207D01*
X86093Y301234D01*
X86021Y301265D01*
X85951Y301299D01*
X85883Y301336D01*
X85816Y301377D01*
X85751Y301421D01*
X85689Y301467D01*
X85629Y301517D01*
X85571Y301569D01*
X85516Y301624D01*
X85464Y301682D01*
X85414Y301742D01*
X85368Y301804D01*
X85324Y301869D01*
X85283Y301936D01*
X85246Y302004D01*
X85212Y302074D01*
X85181Y302146D01*
X85154Y302219D01*
X85130Y302293D01*
X85110Y302368D01*
X85094Y302444D01*
X85081Y302521D01*
X85071Y302598D01*
X85066Y302676D01*
X85064Y302754D01*
X85064Y306846D01*
X85066Y306926D01*
X85072Y307006D01*
X85082Y307086D01*
X85095Y307165D01*
X85113Y307244D01*
X85134Y307321D01*
X85160Y307397D01*
X85189Y307472D01*
X85221Y307546D01*
X85257Y307618D01*
X85297Y307688D01*
X85340Y307755D01*
X85386Y307821D01*
X85436Y307884D01*
X85488Y307945D01*
X85543Y308004D01*
X85602Y308059D01*
X85662Y308111D01*
X85726Y308161D01*
X85792Y308207D01*
X85859Y308250D01*
X85929Y308290D01*
X86001Y308326D01*
X86075Y308358D01*
X86149Y308387D01*
X86226Y308413D01*
X86303Y308434D01*
X86382Y308452D01*
X86461Y308465D01*
X86541Y308475D01*
X86621Y308481D01*
X86701Y308483D01*
X88338Y308483D01*
X93434Y308484D02*
X93519Y308482D01*
X93604Y308476D01*
X93688Y308466D01*
X93772Y308453D01*
X93856Y308435D01*
X93938Y308414D01*
X94019Y308389D01*
X94099Y308360D01*
X94178Y308327D01*
X94255Y308291D01*
X94330Y308251D01*
X94404Y308208D01*
X94475Y308162D01*
X94544Y308112D01*
X94611Y308059D01*
X94675Y308003D01*
X94736Y307944D01*
X94795Y307883D01*
X94851Y307819D01*
X94904Y307752D01*
X94954Y307683D01*
X95000Y307612D01*
X95043Y307538D01*
X95083Y307463D01*
X95119Y307386D01*
X95152Y307307D01*
X95181Y307227D01*
X95206Y307146D01*
X95227Y307064D01*
X95245Y306980D01*
X95258Y306896D01*
X95268Y306812D01*
X95274Y306727D01*
X95276Y306642D01*
X93434Y308483D02*
X93338Y308481D01*
X93242Y308475D01*
X93147Y308465D01*
X93052Y308452D01*
X92957Y308434D01*
X92864Y308413D01*
X92771Y308388D01*
X92680Y308359D01*
X92589Y308327D01*
X92500Y308291D01*
X92413Y308251D01*
X92327Y308208D01*
X92243Y308162D01*
X92161Y308112D01*
X92081Y308058D01*
X92004Y308002D01*
X91929Y307942D01*
X91856Y307880D01*
X91786Y307814D01*
X91718Y307746D01*
X91653Y307675D01*
X91592Y307602D01*
X91533Y307526D01*
X91477Y307447D01*
X91425Y307367D01*
X91376Y307284D01*
X91330Y307200D01*
X91288Y307114D01*
X91250Y307026D01*
X91215Y306937D01*
X91183Y306846D01*
X94662Y305210D02*
X94722Y305269D01*
X94779Y305331D01*
X94834Y305395D01*
X94885Y305462D01*
X94934Y305531D01*
X94980Y305601D01*
X95023Y305674D01*
X95063Y305748D01*
X95099Y305824D01*
X95132Y305902D01*
X95162Y305981D01*
X95189Y306061D01*
X95212Y306142D01*
X95231Y306224D01*
X95247Y306306D01*
X95260Y306390D01*
X95269Y306474D01*
X95274Y306558D01*
X95276Y306642D01*
X94662Y305209D02*
X91183Y301117D01*
X95276Y301117D01*
D10*
X156845Y257810D02*
X183515Y257810D01*
X183515Y245110D01*
X156845Y245110D01*
X156845Y257810D01*
D11*
X146758Y247777D02*
X145121Y247777D01*
X145043Y247779D01*
X144965Y247784D01*
X144888Y247794D01*
X144811Y247807D01*
X144735Y247823D01*
X144660Y247843D01*
X144586Y247867D01*
X144513Y247894D01*
X144441Y247925D01*
X144371Y247959D01*
X144303Y247996D01*
X144236Y248037D01*
X144171Y248081D01*
X144109Y248127D01*
X144049Y248177D01*
X143991Y248229D01*
X143936Y248284D01*
X143884Y248342D01*
X143834Y248402D01*
X143788Y248464D01*
X143744Y248529D01*
X143703Y248596D01*
X143666Y248664D01*
X143632Y248734D01*
X143601Y248806D01*
X143574Y248879D01*
X143550Y248953D01*
X143530Y249028D01*
X143514Y249104D01*
X143501Y249181D01*
X143491Y249258D01*
X143486Y249336D01*
X143484Y249414D01*
X143484Y253506D01*
X143486Y253586D01*
X143492Y253666D01*
X143502Y253746D01*
X143515Y253825D01*
X143533Y253904D01*
X143554Y253981D01*
X143580Y254057D01*
X143609Y254132D01*
X143641Y254206D01*
X143677Y254278D01*
X143717Y254348D01*
X143760Y254415D01*
X143806Y254481D01*
X143856Y254544D01*
X143908Y254605D01*
X143963Y254664D01*
X144022Y254719D01*
X144082Y254771D01*
X144146Y254821D01*
X144212Y254867D01*
X144279Y254910D01*
X144349Y254950D01*
X144421Y254986D01*
X144495Y255018D01*
X144569Y255047D01*
X144646Y255073D01*
X144723Y255094D01*
X144802Y255112D01*
X144881Y255125D01*
X144961Y255135D01*
X145041Y255141D01*
X145121Y255143D01*
X146758Y255143D01*
X149603Y247777D02*
X151650Y247777D01*
X151739Y247779D01*
X151828Y247785D01*
X151917Y247795D01*
X152005Y247808D01*
X152093Y247825D01*
X152180Y247847D01*
X152265Y247872D01*
X152350Y247900D01*
X152433Y247933D01*
X152515Y247969D01*
X152595Y248008D01*
X152673Y248051D01*
X152749Y248097D01*
X152824Y248147D01*
X152896Y248200D01*
X152965Y248256D01*
X153032Y248315D01*
X153097Y248376D01*
X153158Y248441D01*
X153217Y248508D01*
X153273Y248577D01*
X153326Y248649D01*
X153376Y248724D01*
X153422Y248800D01*
X153465Y248878D01*
X153504Y248958D01*
X153540Y249040D01*
X153573Y249123D01*
X153601Y249208D01*
X153626Y249293D01*
X153648Y249380D01*
X153665Y249468D01*
X153678Y249556D01*
X153688Y249645D01*
X153694Y249734D01*
X153696Y249823D01*
X153694Y249912D01*
X153688Y250001D01*
X153678Y250090D01*
X153665Y250178D01*
X153648Y250266D01*
X153626Y250353D01*
X153601Y250438D01*
X153573Y250523D01*
X153540Y250606D01*
X153504Y250688D01*
X153465Y250768D01*
X153422Y250846D01*
X153376Y250922D01*
X153326Y250997D01*
X153273Y251069D01*
X153217Y251138D01*
X153158Y251205D01*
X153097Y251270D01*
X153032Y251331D01*
X152965Y251390D01*
X152896Y251446D01*
X152824Y251499D01*
X152749Y251549D01*
X152673Y251595D01*
X152595Y251638D01*
X152515Y251677D01*
X152433Y251713D01*
X152350Y251746D01*
X152265Y251774D01*
X152180Y251799D01*
X152093Y251821D01*
X152005Y251838D01*
X151917Y251851D01*
X151828Y251861D01*
X151739Y251867D01*
X151650Y251869D01*
X152059Y255143D02*
X149603Y255143D01*
X152059Y255143D02*
X152138Y255141D01*
X152217Y255135D01*
X152296Y255126D01*
X152374Y255113D01*
X152451Y255095D01*
X152527Y255075D01*
X152602Y255050D01*
X152676Y255022D01*
X152749Y254991D01*
X152820Y254955D01*
X152889Y254917D01*
X152956Y254875D01*
X153021Y254830D01*
X153084Y254782D01*
X153145Y254731D01*
X153202Y254677D01*
X153258Y254621D01*
X153310Y254562D01*
X153360Y254500D01*
X153406Y254436D01*
X153450Y254370D01*
X153490Y254302D01*
X153526Y254232D01*
X153560Y254160D01*
X153590Y254086D01*
X153616Y254012D01*
X153639Y253936D01*
X153657Y253859D01*
X153673Y253782D01*
X153684Y253703D01*
X153692Y253625D01*
X153696Y253546D01*
X153696Y253466D01*
X153692Y253387D01*
X153684Y253309D01*
X153673Y253230D01*
X153657Y253153D01*
X153639Y253076D01*
X153616Y253000D01*
X153590Y252926D01*
X153560Y252852D01*
X153526Y252780D01*
X153490Y252710D01*
X153450Y252642D01*
X153406Y252576D01*
X153360Y252512D01*
X153310Y252450D01*
X153258Y252391D01*
X153202Y252335D01*
X153145Y252281D01*
X153084Y252230D01*
X153021Y252182D01*
X152956Y252137D01*
X152889Y252095D01*
X152820Y252057D01*
X152749Y252021D01*
X152676Y251990D01*
X152602Y251962D01*
X152527Y251937D01*
X152451Y251917D01*
X152374Y251899D01*
X152296Y251886D01*
X152217Y251877D01*
X152138Y251871D01*
X152059Y251869D01*
X150422Y251869D01*
D10*
X192405Y245110D02*
X219075Y245110D01*
X192405Y245110D02*
X192405Y257810D01*
X219075Y257810D01*
X219075Y245110D01*
D11*
X223861Y247777D02*
X225498Y247777D01*
X223861Y247777D02*
X223783Y247779D01*
X223705Y247784D01*
X223628Y247794D01*
X223551Y247807D01*
X223475Y247823D01*
X223400Y247843D01*
X223326Y247867D01*
X223253Y247894D01*
X223181Y247925D01*
X223111Y247959D01*
X223043Y247996D01*
X222976Y248037D01*
X222911Y248081D01*
X222849Y248127D01*
X222789Y248177D01*
X222731Y248229D01*
X222676Y248284D01*
X222624Y248342D01*
X222574Y248402D01*
X222528Y248464D01*
X222484Y248529D01*
X222443Y248596D01*
X222406Y248664D01*
X222372Y248734D01*
X222341Y248806D01*
X222314Y248879D01*
X222290Y248953D01*
X222270Y249028D01*
X222254Y249104D01*
X222241Y249181D01*
X222231Y249258D01*
X222226Y249336D01*
X222224Y249414D01*
X222224Y253506D01*
X222226Y253586D01*
X222232Y253666D01*
X222242Y253746D01*
X222255Y253825D01*
X222273Y253904D01*
X222294Y253981D01*
X222320Y254057D01*
X222349Y254132D01*
X222381Y254206D01*
X222417Y254278D01*
X222457Y254348D01*
X222500Y254415D01*
X222546Y254481D01*
X222596Y254544D01*
X222648Y254605D01*
X222703Y254664D01*
X222762Y254719D01*
X222822Y254771D01*
X222886Y254821D01*
X222952Y254867D01*
X223019Y254910D01*
X223089Y254950D01*
X223161Y254986D01*
X223235Y255018D01*
X223309Y255047D01*
X223386Y255073D01*
X223463Y255094D01*
X223542Y255112D01*
X223621Y255125D01*
X223701Y255135D01*
X223781Y255141D01*
X223861Y255143D01*
X225498Y255143D01*
X229980Y255143D02*
X228343Y249414D01*
X232436Y249414D01*
X231208Y251051D02*
X231208Y247777D01*
D10*
X192405Y439420D02*
X165735Y439420D01*
X165735Y452120D01*
X192405Y452120D01*
X192405Y439420D01*
D11*
X155648Y442087D02*
X154011Y442087D01*
X153933Y442089D01*
X153855Y442094D01*
X153778Y442104D01*
X153701Y442117D01*
X153625Y442133D01*
X153550Y442153D01*
X153476Y442177D01*
X153403Y442204D01*
X153331Y442235D01*
X153261Y442269D01*
X153193Y442306D01*
X153126Y442347D01*
X153061Y442391D01*
X152999Y442437D01*
X152939Y442487D01*
X152881Y442539D01*
X152826Y442594D01*
X152774Y442652D01*
X152724Y442712D01*
X152678Y442774D01*
X152634Y442839D01*
X152593Y442906D01*
X152556Y442974D01*
X152522Y443044D01*
X152491Y443116D01*
X152464Y443189D01*
X152440Y443263D01*
X152420Y443338D01*
X152404Y443414D01*
X152391Y443491D01*
X152381Y443568D01*
X152376Y443646D01*
X152374Y443724D01*
X152374Y447816D01*
X152376Y447896D01*
X152382Y447976D01*
X152392Y448056D01*
X152405Y448135D01*
X152423Y448214D01*
X152444Y448291D01*
X152470Y448367D01*
X152499Y448442D01*
X152531Y448516D01*
X152567Y448588D01*
X152607Y448658D01*
X152650Y448725D01*
X152696Y448791D01*
X152746Y448854D01*
X152798Y448915D01*
X152853Y448974D01*
X152912Y449029D01*
X152972Y449081D01*
X153036Y449131D01*
X153102Y449177D01*
X153169Y449220D01*
X153239Y449260D01*
X153311Y449296D01*
X153385Y449328D01*
X153459Y449357D01*
X153536Y449383D01*
X153613Y449404D01*
X153692Y449422D01*
X153771Y449435D01*
X153851Y449445D01*
X153931Y449451D01*
X154011Y449453D01*
X155648Y449453D01*
X158493Y442087D02*
X160949Y442087D01*
X161027Y442089D01*
X161105Y442094D01*
X161182Y442104D01*
X161259Y442117D01*
X161335Y442133D01*
X161410Y442153D01*
X161484Y442177D01*
X161557Y442204D01*
X161629Y442235D01*
X161699Y442269D01*
X161768Y442306D01*
X161834Y442347D01*
X161899Y442391D01*
X161961Y442437D01*
X162021Y442487D01*
X162079Y442539D01*
X162134Y442594D01*
X162186Y442652D01*
X162236Y442712D01*
X162282Y442774D01*
X162326Y442839D01*
X162367Y442906D01*
X162404Y442974D01*
X162438Y443044D01*
X162469Y443116D01*
X162496Y443189D01*
X162520Y443263D01*
X162540Y443338D01*
X162556Y443414D01*
X162569Y443491D01*
X162579Y443568D01*
X162584Y443646D01*
X162586Y443724D01*
X162586Y444542D01*
X162584Y444620D01*
X162579Y444698D01*
X162569Y444775D01*
X162556Y444852D01*
X162540Y444928D01*
X162520Y445003D01*
X162496Y445077D01*
X162469Y445150D01*
X162438Y445222D01*
X162404Y445292D01*
X162367Y445361D01*
X162326Y445427D01*
X162282Y445492D01*
X162236Y445554D01*
X162186Y445614D01*
X162134Y445672D01*
X162079Y445727D01*
X162021Y445779D01*
X161961Y445829D01*
X161899Y445875D01*
X161834Y445919D01*
X161768Y445960D01*
X161699Y445997D01*
X161629Y446031D01*
X161557Y446062D01*
X161484Y446089D01*
X161410Y446113D01*
X161335Y446133D01*
X161259Y446149D01*
X161182Y446162D01*
X161105Y446172D01*
X161027Y446177D01*
X160949Y446179D01*
X158493Y446179D01*
X158493Y449453D01*
X162586Y449453D01*
D10*
X125095Y382270D02*
X98425Y382270D01*
X125095Y382270D02*
X125095Y369570D01*
X98425Y369570D01*
X98425Y382270D01*
D11*
X88338Y372237D02*
X86701Y372237D01*
X86623Y372239D01*
X86545Y372244D01*
X86468Y372254D01*
X86391Y372267D01*
X86315Y372283D01*
X86240Y372303D01*
X86166Y372327D01*
X86093Y372354D01*
X86021Y372385D01*
X85951Y372419D01*
X85883Y372456D01*
X85816Y372497D01*
X85751Y372541D01*
X85689Y372587D01*
X85629Y372637D01*
X85571Y372689D01*
X85516Y372744D01*
X85464Y372802D01*
X85414Y372862D01*
X85368Y372924D01*
X85324Y372989D01*
X85283Y373056D01*
X85246Y373124D01*
X85212Y373194D01*
X85181Y373266D01*
X85154Y373339D01*
X85130Y373413D01*
X85110Y373488D01*
X85094Y373564D01*
X85081Y373641D01*
X85071Y373718D01*
X85066Y373796D01*
X85064Y373874D01*
X85064Y377966D01*
X85066Y378046D01*
X85072Y378126D01*
X85082Y378206D01*
X85095Y378285D01*
X85113Y378364D01*
X85134Y378441D01*
X85160Y378517D01*
X85189Y378592D01*
X85221Y378666D01*
X85257Y378738D01*
X85297Y378808D01*
X85340Y378875D01*
X85386Y378941D01*
X85436Y379004D01*
X85488Y379065D01*
X85543Y379124D01*
X85602Y379179D01*
X85662Y379231D01*
X85726Y379281D01*
X85792Y379327D01*
X85859Y379370D01*
X85929Y379410D01*
X86001Y379446D01*
X86075Y379478D01*
X86149Y379507D01*
X86226Y379533D01*
X86303Y379554D01*
X86382Y379572D01*
X86461Y379585D01*
X86541Y379595D01*
X86621Y379601D01*
X86701Y379603D01*
X88338Y379603D01*
X91183Y376329D02*
X93639Y376329D01*
X93717Y376327D01*
X93795Y376322D01*
X93872Y376312D01*
X93949Y376299D01*
X94025Y376283D01*
X94100Y376263D01*
X94174Y376239D01*
X94247Y376212D01*
X94319Y376181D01*
X94389Y376147D01*
X94458Y376110D01*
X94524Y376069D01*
X94589Y376025D01*
X94651Y375979D01*
X94711Y375929D01*
X94769Y375877D01*
X94824Y375822D01*
X94876Y375764D01*
X94926Y375704D01*
X94972Y375642D01*
X95016Y375577D01*
X95057Y375511D01*
X95094Y375442D01*
X95128Y375372D01*
X95159Y375300D01*
X95186Y375227D01*
X95210Y375153D01*
X95230Y375078D01*
X95246Y375002D01*
X95259Y374925D01*
X95269Y374848D01*
X95274Y374770D01*
X95276Y374692D01*
X95276Y374283D01*
X95274Y374194D01*
X95268Y374105D01*
X95258Y374016D01*
X95245Y373928D01*
X95228Y373840D01*
X95206Y373753D01*
X95181Y373668D01*
X95153Y373583D01*
X95120Y373500D01*
X95084Y373418D01*
X95045Y373338D01*
X95002Y373260D01*
X94956Y373184D01*
X94906Y373109D01*
X94853Y373037D01*
X94797Y372968D01*
X94738Y372901D01*
X94677Y372836D01*
X94612Y372775D01*
X94545Y372716D01*
X94476Y372660D01*
X94404Y372607D01*
X94329Y372557D01*
X94253Y372511D01*
X94175Y372468D01*
X94095Y372429D01*
X94013Y372393D01*
X93930Y372360D01*
X93845Y372332D01*
X93760Y372307D01*
X93673Y372285D01*
X93585Y372268D01*
X93497Y372255D01*
X93408Y372245D01*
X93319Y372239D01*
X93230Y372237D01*
X93141Y372239D01*
X93052Y372245D01*
X92963Y372255D01*
X92875Y372268D01*
X92787Y372285D01*
X92700Y372307D01*
X92615Y372332D01*
X92530Y372360D01*
X92447Y372393D01*
X92365Y372429D01*
X92285Y372468D01*
X92207Y372511D01*
X92131Y372557D01*
X92056Y372607D01*
X91984Y372660D01*
X91915Y372716D01*
X91848Y372775D01*
X91783Y372836D01*
X91722Y372901D01*
X91663Y372968D01*
X91607Y373037D01*
X91554Y373109D01*
X91504Y373184D01*
X91458Y373260D01*
X91415Y373338D01*
X91376Y373418D01*
X91340Y373500D01*
X91307Y373583D01*
X91279Y373668D01*
X91254Y373753D01*
X91232Y373840D01*
X91215Y373928D01*
X91202Y374016D01*
X91192Y374105D01*
X91186Y374194D01*
X91184Y374283D01*
X91183Y374283D02*
X91183Y376329D01*
X91185Y376443D01*
X91191Y376557D01*
X91201Y376671D01*
X91215Y376785D01*
X91233Y376898D01*
X91255Y377010D01*
X91280Y377121D01*
X91310Y377231D01*
X91343Y377341D01*
X91380Y377449D01*
X91421Y377555D01*
X91466Y377661D01*
X91514Y377764D01*
X91566Y377866D01*
X91622Y377966D01*
X91680Y378064D01*
X91743Y378160D01*
X91808Y378253D01*
X91877Y378345D01*
X91949Y378433D01*
X92024Y378520D01*
X92102Y378603D01*
X92183Y378684D01*
X92266Y378762D01*
X92353Y378837D01*
X92441Y378909D01*
X92533Y378978D01*
X92626Y379043D01*
X92722Y379105D01*
X92820Y379164D01*
X92920Y379220D01*
X93022Y379272D01*
X93125Y379320D01*
X93231Y379365D01*
X93337Y379406D01*
X93445Y379443D01*
X93555Y379476D01*
X93665Y379506D01*
X93776Y379531D01*
X93888Y379553D01*
X94001Y379571D01*
X94115Y379585D01*
X94229Y379595D01*
X94343Y379601D01*
X94457Y379603D01*
D10*
X98425Y267970D02*
X125095Y267970D01*
X98425Y267970D02*
X98425Y280670D01*
X125095Y280670D01*
X125095Y267970D01*
D11*
X88338Y270637D02*
X86701Y270637D01*
X86623Y270639D01*
X86545Y270644D01*
X86468Y270654D01*
X86391Y270667D01*
X86315Y270683D01*
X86240Y270703D01*
X86166Y270727D01*
X86093Y270754D01*
X86021Y270785D01*
X85951Y270819D01*
X85883Y270856D01*
X85816Y270897D01*
X85751Y270941D01*
X85689Y270987D01*
X85629Y271037D01*
X85571Y271089D01*
X85516Y271144D01*
X85464Y271202D01*
X85414Y271262D01*
X85368Y271324D01*
X85324Y271389D01*
X85283Y271456D01*
X85246Y271524D01*
X85212Y271594D01*
X85181Y271666D01*
X85154Y271739D01*
X85130Y271813D01*
X85110Y271888D01*
X85094Y271964D01*
X85081Y272041D01*
X85071Y272118D01*
X85066Y272196D01*
X85064Y272274D01*
X85064Y276366D01*
X85066Y276446D01*
X85072Y276526D01*
X85082Y276606D01*
X85095Y276685D01*
X85113Y276764D01*
X85134Y276841D01*
X85160Y276917D01*
X85189Y276992D01*
X85221Y277066D01*
X85257Y277138D01*
X85297Y277208D01*
X85340Y277275D01*
X85386Y277341D01*
X85436Y277404D01*
X85488Y277465D01*
X85543Y277524D01*
X85602Y277579D01*
X85662Y277631D01*
X85726Y277681D01*
X85792Y277727D01*
X85859Y277770D01*
X85929Y277810D01*
X86001Y277846D01*
X86075Y277878D01*
X86149Y277907D01*
X86226Y277933D01*
X86303Y277954D01*
X86382Y277972D01*
X86461Y277985D01*
X86541Y277995D01*
X86621Y278001D01*
X86701Y278003D01*
X88338Y278003D01*
X91183Y278003D02*
X91183Y277185D01*
X91183Y278003D02*
X95276Y278003D01*
X93230Y270637D01*
D10*
X433705Y347980D02*
X460375Y347980D01*
X460375Y335280D01*
X433705Y335280D01*
X433705Y347980D01*
D11*
X444994Y349377D02*
X446631Y349377D01*
X444994Y349377D02*
X444916Y349379D01*
X444838Y349384D01*
X444761Y349394D01*
X444684Y349407D01*
X444608Y349423D01*
X444533Y349443D01*
X444459Y349467D01*
X444386Y349494D01*
X444314Y349525D01*
X444244Y349559D01*
X444176Y349596D01*
X444109Y349637D01*
X444044Y349681D01*
X443982Y349727D01*
X443922Y349777D01*
X443864Y349829D01*
X443809Y349884D01*
X443757Y349942D01*
X443707Y350002D01*
X443661Y350064D01*
X443617Y350129D01*
X443576Y350196D01*
X443539Y350264D01*
X443505Y350334D01*
X443474Y350406D01*
X443447Y350479D01*
X443423Y350553D01*
X443403Y350628D01*
X443387Y350704D01*
X443374Y350781D01*
X443364Y350858D01*
X443359Y350936D01*
X443357Y351014D01*
X443357Y355106D01*
X443359Y355186D01*
X443365Y355266D01*
X443375Y355346D01*
X443388Y355425D01*
X443406Y355504D01*
X443427Y355581D01*
X443453Y355657D01*
X443482Y355732D01*
X443514Y355806D01*
X443550Y355878D01*
X443590Y355948D01*
X443633Y356015D01*
X443679Y356081D01*
X443729Y356144D01*
X443781Y356205D01*
X443836Y356264D01*
X443895Y356319D01*
X443955Y356371D01*
X444019Y356421D01*
X444085Y356467D01*
X444152Y356510D01*
X444222Y356550D01*
X444294Y356586D01*
X444368Y356618D01*
X444442Y356647D01*
X444519Y356673D01*
X444596Y356694D01*
X444675Y356712D01*
X444754Y356725D01*
X444834Y356735D01*
X444914Y356741D01*
X444994Y356743D01*
X446631Y356743D01*
X449476Y355106D02*
X451522Y356743D01*
X451522Y349377D01*
X449476Y349377D02*
X453568Y349377D01*
X456791Y349377D02*
X458837Y349377D01*
X458926Y349379D01*
X459015Y349385D01*
X459104Y349395D01*
X459192Y349408D01*
X459280Y349425D01*
X459367Y349447D01*
X459452Y349472D01*
X459537Y349500D01*
X459620Y349533D01*
X459702Y349569D01*
X459782Y349608D01*
X459860Y349651D01*
X459936Y349697D01*
X460011Y349747D01*
X460083Y349800D01*
X460152Y349856D01*
X460219Y349915D01*
X460284Y349976D01*
X460345Y350041D01*
X460404Y350108D01*
X460460Y350177D01*
X460513Y350249D01*
X460563Y350324D01*
X460609Y350400D01*
X460652Y350478D01*
X460691Y350558D01*
X460727Y350640D01*
X460760Y350723D01*
X460788Y350808D01*
X460813Y350893D01*
X460835Y350980D01*
X460852Y351068D01*
X460865Y351156D01*
X460875Y351245D01*
X460881Y351334D01*
X460883Y351423D01*
X460881Y351512D01*
X460875Y351601D01*
X460865Y351690D01*
X460852Y351778D01*
X460835Y351866D01*
X460813Y351953D01*
X460788Y352038D01*
X460760Y352123D01*
X460727Y352206D01*
X460691Y352288D01*
X460652Y352368D01*
X460609Y352446D01*
X460563Y352522D01*
X460513Y352597D01*
X460460Y352669D01*
X460404Y352738D01*
X460345Y352805D01*
X460284Y352870D01*
X460219Y352931D01*
X460152Y352990D01*
X460083Y353046D01*
X460011Y353099D01*
X459936Y353149D01*
X459860Y353195D01*
X459782Y353238D01*
X459702Y353277D01*
X459620Y353313D01*
X459537Y353346D01*
X459452Y353374D01*
X459367Y353399D01*
X459280Y353421D01*
X459192Y353438D01*
X459104Y353451D01*
X459015Y353461D01*
X458926Y353467D01*
X458837Y353469D01*
X459246Y356743D02*
X456791Y356743D01*
X459246Y356743D02*
X459325Y356741D01*
X459404Y356735D01*
X459483Y356726D01*
X459561Y356713D01*
X459638Y356695D01*
X459714Y356675D01*
X459789Y356650D01*
X459863Y356622D01*
X459936Y356591D01*
X460007Y356555D01*
X460076Y356517D01*
X460143Y356475D01*
X460208Y356430D01*
X460271Y356382D01*
X460332Y356331D01*
X460389Y356277D01*
X460445Y356221D01*
X460497Y356162D01*
X460547Y356100D01*
X460593Y356036D01*
X460637Y355970D01*
X460677Y355902D01*
X460713Y355832D01*
X460747Y355760D01*
X460777Y355686D01*
X460803Y355612D01*
X460826Y355536D01*
X460844Y355459D01*
X460860Y355382D01*
X460871Y355303D01*
X460879Y355225D01*
X460883Y355146D01*
X460883Y355066D01*
X460879Y354987D01*
X460871Y354909D01*
X460860Y354830D01*
X460844Y354753D01*
X460826Y354676D01*
X460803Y354600D01*
X460777Y354526D01*
X460747Y354452D01*
X460713Y354380D01*
X460677Y354310D01*
X460637Y354242D01*
X460593Y354176D01*
X460547Y354112D01*
X460497Y354050D01*
X460445Y353991D01*
X460389Y353935D01*
X460332Y353881D01*
X460271Y353830D01*
X460208Y353782D01*
X460143Y353737D01*
X460076Y353695D01*
X460007Y353657D01*
X459936Y353621D01*
X459863Y353590D01*
X459789Y353562D01*
X459714Y353537D01*
X459638Y353517D01*
X459561Y353499D01*
X459483Y353486D01*
X459404Y353477D01*
X459325Y353471D01*
X459246Y353469D01*
X457609Y353469D01*
D10*
X380365Y24130D02*
X369570Y24130D01*
X330835Y24130D01*
X330835Y44450D01*
X369570Y44450D01*
X380365Y44450D01*
X380365Y24130D01*
X379730Y27940D02*
X369570Y27940D01*
X369570Y24130D01*
X369570Y40640D02*
X379730Y40640D01*
X369570Y40640D02*
X369570Y44450D01*
D11*
X316214Y38223D02*
X316214Y30857D01*
X316214Y38223D02*
X318260Y38223D01*
X318349Y38221D01*
X318438Y38215D01*
X318527Y38205D01*
X318615Y38192D01*
X318703Y38175D01*
X318790Y38153D01*
X318875Y38128D01*
X318960Y38100D01*
X319043Y38067D01*
X319125Y38031D01*
X319205Y37992D01*
X319283Y37949D01*
X319359Y37903D01*
X319434Y37853D01*
X319506Y37800D01*
X319575Y37744D01*
X319642Y37685D01*
X319707Y37624D01*
X319768Y37559D01*
X319827Y37492D01*
X319883Y37423D01*
X319936Y37351D01*
X319986Y37276D01*
X320032Y37200D01*
X320075Y37122D01*
X320114Y37042D01*
X320150Y36960D01*
X320183Y36877D01*
X320211Y36792D01*
X320236Y36707D01*
X320258Y36620D01*
X320275Y36532D01*
X320288Y36444D01*
X320298Y36355D01*
X320304Y36266D01*
X320306Y36177D01*
X320307Y36177D02*
X320307Y32903D01*
X320305Y32814D01*
X320299Y32725D01*
X320289Y32636D01*
X320276Y32548D01*
X320259Y32460D01*
X320237Y32373D01*
X320212Y32288D01*
X320184Y32203D01*
X320151Y32120D01*
X320115Y32038D01*
X320076Y31958D01*
X320033Y31880D01*
X319987Y31804D01*
X319937Y31729D01*
X319884Y31657D01*
X319828Y31588D01*
X319769Y31521D01*
X319708Y31456D01*
X319643Y31395D01*
X319576Y31336D01*
X319507Y31280D01*
X319435Y31227D01*
X319360Y31177D01*
X319284Y31131D01*
X319206Y31088D01*
X319126Y31049D01*
X319044Y31013D01*
X318961Y30980D01*
X318876Y30952D01*
X318791Y30927D01*
X318704Y30905D01*
X318616Y30888D01*
X318528Y30875D01*
X318439Y30865D01*
X318350Y30859D01*
X318261Y30857D01*
X318260Y30857D02*
X316214Y30857D01*
X323773Y36586D02*
X325820Y38223D01*
X325820Y30857D01*
X327866Y30857D02*
X323773Y30857D01*
D10*
X485140Y46355D02*
X485140Y83185D01*
X518160Y83185D01*
X518160Y46355D01*
X485140Y46355D01*
D11*
X496056Y87263D02*
X496056Y90537D01*
X496058Y90626D01*
X496064Y90715D01*
X496074Y90804D01*
X496087Y90892D01*
X496104Y90980D01*
X496126Y91067D01*
X496151Y91152D01*
X496179Y91237D01*
X496212Y91320D01*
X496248Y91402D01*
X496287Y91482D01*
X496330Y91560D01*
X496376Y91636D01*
X496426Y91711D01*
X496479Y91783D01*
X496535Y91852D01*
X496594Y91919D01*
X496655Y91984D01*
X496720Y92045D01*
X496787Y92104D01*
X496856Y92160D01*
X496928Y92213D01*
X497003Y92263D01*
X497079Y92309D01*
X497157Y92352D01*
X497237Y92391D01*
X497319Y92427D01*
X497402Y92460D01*
X497487Y92488D01*
X497572Y92513D01*
X497659Y92535D01*
X497747Y92552D01*
X497835Y92565D01*
X497924Y92575D01*
X498013Y92581D01*
X498102Y92583D01*
X498191Y92581D01*
X498280Y92575D01*
X498369Y92565D01*
X498457Y92552D01*
X498545Y92535D01*
X498632Y92513D01*
X498717Y92488D01*
X498802Y92460D01*
X498885Y92427D01*
X498967Y92391D01*
X499047Y92352D01*
X499125Y92309D01*
X499201Y92263D01*
X499276Y92213D01*
X499348Y92160D01*
X499417Y92104D01*
X499484Y92045D01*
X499549Y91984D01*
X499610Y91919D01*
X499669Y91852D01*
X499725Y91783D01*
X499778Y91711D01*
X499828Y91636D01*
X499874Y91560D01*
X499917Y91482D01*
X499956Y91402D01*
X499992Y91320D01*
X500025Y91237D01*
X500053Y91152D01*
X500078Y91067D01*
X500100Y90980D01*
X500117Y90892D01*
X500130Y90804D01*
X500140Y90715D01*
X500146Y90626D01*
X500148Y90537D01*
X500148Y87263D01*
X500146Y87174D01*
X500140Y87085D01*
X500130Y86996D01*
X500117Y86908D01*
X500100Y86820D01*
X500078Y86733D01*
X500053Y86648D01*
X500025Y86563D01*
X499992Y86480D01*
X499956Y86398D01*
X499917Y86318D01*
X499874Y86240D01*
X499828Y86164D01*
X499778Y86089D01*
X499725Y86017D01*
X499669Y85948D01*
X499610Y85881D01*
X499549Y85816D01*
X499484Y85755D01*
X499417Y85696D01*
X499348Y85640D01*
X499276Y85587D01*
X499201Y85537D01*
X499125Y85491D01*
X499047Y85448D01*
X498967Y85409D01*
X498885Y85373D01*
X498802Y85340D01*
X498717Y85312D01*
X498632Y85287D01*
X498545Y85265D01*
X498457Y85248D01*
X498369Y85235D01*
X498280Y85225D01*
X498191Y85219D01*
X498102Y85217D01*
X498013Y85219D01*
X497924Y85225D01*
X497835Y85235D01*
X497747Y85248D01*
X497659Y85265D01*
X497572Y85287D01*
X497487Y85312D01*
X497402Y85340D01*
X497319Y85373D01*
X497237Y85409D01*
X497157Y85448D01*
X497079Y85491D01*
X497003Y85537D01*
X496928Y85587D01*
X496856Y85640D01*
X496787Y85696D01*
X496720Y85755D01*
X496655Y85816D01*
X496594Y85881D01*
X496535Y85948D01*
X496479Y86017D01*
X496426Y86089D01*
X496376Y86164D01*
X496330Y86240D01*
X496287Y86318D01*
X496248Y86398D01*
X496212Y86480D01*
X496179Y86563D01*
X496151Y86648D01*
X496126Y86733D01*
X496104Y86820D01*
X496087Y86908D01*
X496074Y86996D01*
X496064Y87085D01*
X496058Y87174D01*
X496056Y87263D01*
X499330Y86854D02*
X500967Y85217D01*
X503152Y90946D02*
X505198Y92583D01*
X505198Y85217D01*
X503152Y85217D02*
X507244Y85217D01*
D10*
X431165Y335280D02*
X404495Y335280D01*
X404495Y347980D01*
X431165Y347980D01*
X431165Y335280D01*
D11*
X408494Y349377D02*
X408494Y356743D01*
X410540Y356743D01*
X410629Y356741D01*
X410718Y356735D01*
X410807Y356725D01*
X410895Y356712D01*
X410983Y356695D01*
X411070Y356673D01*
X411155Y356648D01*
X411240Y356620D01*
X411323Y356587D01*
X411405Y356551D01*
X411485Y356512D01*
X411563Y356469D01*
X411639Y356423D01*
X411714Y356373D01*
X411786Y356320D01*
X411855Y356264D01*
X411922Y356205D01*
X411987Y356144D01*
X412048Y356079D01*
X412107Y356012D01*
X412163Y355943D01*
X412216Y355871D01*
X412266Y355796D01*
X412312Y355720D01*
X412355Y355642D01*
X412394Y355562D01*
X412430Y355480D01*
X412463Y355397D01*
X412491Y355312D01*
X412516Y355227D01*
X412538Y355140D01*
X412555Y355052D01*
X412568Y354964D01*
X412578Y354875D01*
X412584Y354786D01*
X412586Y354697D01*
X412584Y354608D01*
X412578Y354519D01*
X412568Y354430D01*
X412555Y354342D01*
X412538Y354254D01*
X412516Y354167D01*
X412491Y354082D01*
X412463Y353997D01*
X412430Y353914D01*
X412394Y353832D01*
X412355Y353752D01*
X412312Y353674D01*
X412266Y353598D01*
X412216Y353523D01*
X412163Y353451D01*
X412107Y353382D01*
X412048Y353315D01*
X411987Y353250D01*
X411922Y353189D01*
X411855Y353130D01*
X411786Y353074D01*
X411714Y353021D01*
X411639Y352971D01*
X411563Y352925D01*
X411485Y352882D01*
X411405Y352843D01*
X411323Y352807D01*
X411240Y352774D01*
X411155Y352746D01*
X411070Y352721D01*
X410983Y352699D01*
X410895Y352682D01*
X410807Y352669D01*
X410718Y352659D01*
X410629Y352653D01*
X410540Y352651D01*
X408494Y352651D01*
X410950Y352651D02*
X412586Y349377D01*
X415758Y355106D02*
X417804Y356743D01*
X417804Y349377D01*
X415758Y349377D02*
X419851Y349377D01*
X423074Y353060D02*
X423076Y353213D01*
X423082Y353366D01*
X423091Y353518D01*
X423105Y353671D01*
X423122Y353823D01*
X423143Y353974D01*
X423168Y354125D01*
X423197Y354275D01*
X423229Y354425D01*
X423266Y354573D01*
X423306Y354721D01*
X423349Y354868D01*
X423397Y355013D01*
X423448Y355157D01*
X423502Y355300D01*
X423561Y355442D01*
X423622Y355581D01*
X423688Y355720D01*
X423714Y355790D01*
X423744Y355860D01*
X423777Y355927D01*
X423813Y355993D01*
X423852Y356057D01*
X423895Y356119D01*
X423941Y356178D01*
X423989Y356236D01*
X424040Y356290D01*
X424094Y356343D01*
X424151Y356392D01*
X424210Y356439D01*
X424271Y356482D01*
X424334Y356523D01*
X424399Y356560D01*
X424466Y356595D01*
X424535Y356625D01*
X424605Y356653D01*
X424676Y356676D01*
X424748Y356697D01*
X424821Y356713D01*
X424895Y356726D01*
X424970Y356736D01*
X425045Y356741D01*
X425120Y356743D01*
X425195Y356741D01*
X425270Y356736D01*
X425345Y356726D01*
X425419Y356713D01*
X425492Y356697D01*
X425564Y356676D01*
X425635Y356653D01*
X425705Y356625D01*
X425774Y356595D01*
X425841Y356560D01*
X425906Y356523D01*
X425969Y356482D01*
X426030Y356439D01*
X426089Y356392D01*
X426146Y356343D01*
X426200Y356290D01*
X426251Y356236D01*
X426300Y356178D01*
X426345Y356119D01*
X426388Y356057D01*
X426427Y355993D01*
X426464Y355927D01*
X426496Y355859D01*
X426526Y355790D01*
X426552Y355720D01*
X426617Y355582D01*
X426679Y355442D01*
X426737Y355300D01*
X426792Y355157D01*
X426843Y355013D01*
X426891Y354868D01*
X426934Y354721D01*
X426974Y354574D01*
X427011Y354425D01*
X427043Y354275D01*
X427072Y354125D01*
X427097Y353974D01*
X427118Y353823D01*
X427135Y353671D01*
X427149Y353518D01*
X427158Y353366D01*
X427164Y353213D01*
X427166Y353060D01*
X423073Y353060D02*
X423075Y352907D01*
X423081Y352754D01*
X423090Y352601D01*
X423104Y352449D01*
X423121Y352297D01*
X423142Y352146D01*
X423167Y351995D01*
X423196Y351844D01*
X423228Y351695D01*
X423265Y351546D01*
X423305Y351399D01*
X423348Y351252D01*
X423396Y351107D01*
X423447Y350962D01*
X423502Y350820D01*
X423560Y350678D01*
X423622Y350538D01*
X423687Y350400D01*
X423688Y350400D02*
X423714Y350329D01*
X423744Y350260D01*
X423777Y350193D01*
X423813Y350127D01*
X423852Y350063D01*
X423895Y350001D01*
X423941Y349942D01*
X423989Y349884D01*
X424040Y349830D01*
X424094Y349777D01*
X424151Y349728D01*
X424210Y349681D01*
X424271Y349638D01*
X424334Y349597D01*
X424399Y349560D01*
X424466Y349525D01*
X424535Y349495D01*
X424605Y349467D01*
X424676Y349444D01*
X424748Y349423D01*
X424821Y349407D01*
X424895Y349394D01*
X424970Y349384D01*
X425045Y349379D01*
X425120Y349377D01*
X426552Y350400D02*
X426617Y350538D01*
X426679Y350678D01*
X426737Y350820D01*
X426792Y350963D01*
X426843Y351107D01*
X426891Y351252D01*
X426934Y351399D01*
X426974Y351547D01*
X427011Y351695D01*
X427043Y351845D01*
X427072Y351995D01*
X427097Y352146D01*
X427118Y352297D01*
X427135Y352449D01*
X427149Y352602D01*
X427158Y352754D01*
X427164Y352907D01*
X427166Y353060D01*
X426552Y350400D02*
X426526Y350330D01*
X426496Y350260D01*
X426464Y350193D01*
X426427Y350127D01*
X426388Y350063D01*
X426345Y350001D01*
X426299Y349942D01*
X426251Y349884D01*
X426200Y349830D01*
X426146Y349777D01*
X426089Y349728D01*
X426030Y349681D01*
X425969Y349638D01*
X425906Y349597D01*
X425841Y349560D01*
X425774Y349525D01*
X425705Y349495D01*
X425635Y349467D01*
X425564Y349444D01*
X425492Y349423D01*
X425419Y349407D01*
X425345Y349394D01*
X425270Y349384D01*
X425195Y349379D01*
X425120Y349377D01*
X423483Y351014D02*
X426757Y355106D01*
D10*
X431165Y304800D02*
X404495Y304800D01*
X404495Y317500D01*
X431165Y317500D01*
X431165Y304800D01*
D11*
X412152Y303403D02*
X412152Y296037D01*
X412152Y303403D02*
X414198Y303403D01*
X414287Y303401D01*
X414376Y303395D01*
X414465Y303385D01*
X414553Y303372D01*
X414641Y303355D01*
X414728Y303333D01*
X414813Y303308D01*
X414898Y303280D01*
X414981Y303247D01*
X415063Y303211D01*
X415143Y303172D01*
X415221Y303129D01*
X415297Y303083D01*
X415372Y303033D01*
X415444Y302980D01*
X415513Y302924D01*
X415580Y302865D01*
X415645Y302804D01*
X415706Y302739D01*
X415765Y302672D01*
X415821Y302603D01*
X415874Y302531D01*
X415924Y302456D01*
X415970Y302380D01*
X416013Y302302D01*
X416052Y302222D01*
X416088Y302140D01*
X416121Y302057D01*
X416149Y301972D01*
X416174Y301887D01*
X416196Y301800D01*
X416213Y301712D01*
X416226Y301624D01*
X416236Y301535D01*
X416242Y301446D01*
X416244Y301357D01*
X416242Y301268D01*
X416236Y301179D01*
X416226Y301090D01*
X416213Y301002D01*
X416196Y300914D01*
X416174Y300827D01*
X416149Y300742D01*
X416121Y300657D01*
X416088Y300574D01*
X416052Y300492D01*
X416013Y300412D01*
X415970Y300334D01*
X415924Y300258D01*
X415874Y300183D01*
X415821Y300111D01*
X415765Y300042D01*
X415706Y299975D01*
X415645Y299910D01*
X415580Y299849D01*
X415513Y299790D01*
X415444Y299734D01*
X415372Y299681D01*
X415297Y299631D01*
X415221Y299585D01*
X415143Y299542D01*
X415063Y299503D01*
X414981Y299467D01*
X414898Y299434D01*
X414813Y299406D01*
X414728Y299381D01*
X414641Y299359D01*
X414553Y299342D01*
X414465Y299329D01*
X414376Y299319D01*
X414287Y299313D01*
X414198Y299311D01*
X412152Y299311D01*
X414607Y299311D02*
X416244Y296037D01*
X421053Y299311D02*
X423508Y299311D01*
X421053Y299311D02*
X420975Y299313D01*
X420897Y299318D01*
X420820Y299328D01*
X420743Y299341D01*
X420667Y299357D01*
X420592Y299377D01*
X420518Y299401D01*
X420445Y299428D01*
X420373Y299459D01*
X420303Y299493D01*
X420234Y299530D01*
X420168Y299571D01*
X420103Y299615D01*
X420041Y299661D01*
X419981Y299711D01*
X419923Y299763D01*
X419868Y299818D01*
X419816Y299876D01*
X419766Y299936D01*
X419720Y299998D01*
X419676Y300063D01*
X419635Y300130D01*
X419598Y300198D01*
X419564Y300268D01*
X419533Y300340D01*
X419506Y300413D01*
X419482Y300487D01*
X419462Y300562D01*
X419446Y300638D01*
X419433Y300715D01*
X419423Y300792D01*
X419418Y300870D01*
X419416Y300948D01*
X419416Y301357D01*
X419418Y301446D01*
X419424Y301535D01*
X419434Y301624D01*
X419447Y301712D01*
X419464Y301800D01*
X419486Y301887D01*
X419511Y301972D01*
X419539Y302057D01*
X419572Y302140D01*
X419608Y302222D01*
X419647Y302302D01*
X419690Y302380D01*
X419736Y302456D01*
X419786Y302531D01*
X419839Y302603D01*
X419895Y302672D01*
X419954Y302739D01*
X420015Y302804D01*
X420080Y302865D01*
X420147Y302924D01*
X420216Y302980D01*
X420288Y303033D01*
X420363Y303083D01*
X420439Y303129D01*
X420517Y303172D01*
X420597Y303211D01*
X420679Y303247D01*
X420762Y303280D01*
X420847Y303308D01*
X420932Y303333D01*
X421019Y303355D01*
X421107Y303372D01*
X421195Y303385D01*
X421284Y303395D01*
X421373Y303401D01*
X421462Y303403D01*
X421551Y303401D01*
X421640Y303395D01*
X421729Y303385D01*
X421817Y303372D01*
X421905Y303355D01*
X421992Y303333D01*
X422077Y303308D01*
X422162Y303280D01*
X422245Y303247D01*
X422327Y303211D01*
X422407Y303172D01*
X422485Y303129D01*
X422561Y303083D01*
X422636Y303033D01*
X422708Y302980D01*
X422777Y302924D01*
X422844Y302865D01*
X422909Y302804D01*
X422970Y302739D01*
X423029Y302672D01*
X423085Y302603D01*
X423138Y302531D01*
X423188Y302456D01*
X423234Y302380D01*
X423277Y302302D01*
X423316Y302222D01*
X423352Y302140D01*
X423385Y302057D01*
X423413Y301972D01*
X423438Y301887D01*
X423460Y301800D01*
X423477Y301712D01*
X423490Y301624D01*
X423500Y301535D01*
X423506Y301446D01*
X423508Y301357D01*
X423508Y299311D01*
X423506Y299199D01*
X423500Y299088D01*
X423491Y298976D01*
X423478Y298865D01*
X423460Y298755D01*
X423440Y298645D01*
X423415Y298536D01*
X423387Y298428D01*
X423355Y298321D01*
X423319Y298215D01*
X423280Y298110D01*
X423237Y298007D01*
X423191Y297905D01*
X423141Y297805D01*
X423088Y297706D01*
X423031Y297610D01*
X422972Y297515D01*
X422909Y297423D01*
X422843Y297333D01*
X422774Y297245D01*
X422702Y297159D01*
X422627Y297076D01*
X422549Y296996D01*
X422469Y296918D01*
X422386Y296843D01*
X422300Y296771D01*
X422212Y296702D01*
X422122Y296636D01*
X422030Y296573D01*
X421935Y296514D01*
X421839Y296457D01*
X421740Y296404D01*
X421640Y296354D01*
X421538Y296308D01*
X421435Y296265D01*
X421330Y296226D01*
X421224Y296190D01*
X421117Y296158D01*
X421009Y296130D01*
X420900Y296105D01*
X420790Y296085D01*
X420680Y296067D01*
X420569Y296054D01*
X420457Y296045D01*
X420346Y296039D01*
X420234Y296037D01*
D10*
X233045Y454660D02*
X206375Y454660D01*
X206375Y467360D01*
X233045Y467360D01*
X233045Y454660D01*
D11*
X237044Y457327D02*
X237044Y464693D01*
X239090Y464693D01*
X239179Y464691D01*
X239268Y464685D01*
X239357Y464675D01*
X239445Y464662D01*
X239533Y464645D01*
X239620Y464623D01*
X239705Y464598D01*
X239790Y464570D01*
X239873Y464537D01*
X239955Y464501D01*
X240035Y464462D01*
X240113Y464419D01*
X240189Y464373D01*
X240264Y464323D01*
X240336Y464270D01*
X240405Y464214D01*
X240472Y464155D01*
X240537Y464094D01*
X240598Y464029D01*
X240657Y463962D01*
X240713Y463893D01*
X240766Y463821D01*
X240816Y463746D01*
X240862Y463670D01*
X240905Y463592D01*
X240944Y463512D01*
X240980Y463430D01*
X241013Y463347D01*
X241041Y463262D01*
X241066Y463177D01*
X241088Y463090D01*
X241105Y463002D01*
X241118Y462914D01*
X241128Y462825D01*
X241134Y462736D01*
X241136Y462647D01*
X241134Y462558D01*
X241128Y462469D01*
X241118Y462380D01*
X241105Y462292D01*
X241088Y462204D01*
X241066Y462117D01*
X241041Y462032D01*
X241013Y461947D01*
X240980Y461864D01*
X240944Y461782D01*
X240905Y461702D01*
X240862Y461624D01*
X240816Y461548D01*
X240766Y461473D01*
X240713Y461401D01*
X240657Y461332D01*
X240598Y461265D01*
X240537Y461200D01*
X240472Y461139D01*
X240405Y461080D01*
X240336Y461024D01*
X240264Y460971D01*
X240189Y460921D01*
X240113Y460875D01*
X240035Y460832D01*
X239955Y460793D01*
X239873Y460757D01*
X239790Y460724D01*
X239705Y460696D01*
X239620Y460671D01*
X239533Y460649D01*
X239445Y460632D01*
X239357Y460619D01*
X239268Y460609D01*
X239179Y460603D01*
X239090Y460601D01*
X237044Y460601D01*
X239500Y460601D02*
X241136Y457327D01*
X244308Y463056D02*
X246354Y464693D01*
X246354Y457327D01*
X244308Y457327D02*
X248401Y457327D01*
X251624Y461419D02*
X254079Y461419D01*
X254157Y461417D01*
X254235Y461412D01*
X254312Y461402D01*
X254389Y461389D01*
X254465Y461373D01*
X254540Y461353D01*
X254614Y461329D01*
X254687Y461302D01*
X254759Y461271D01*
X254829Y461237D01*
X254898Y461200D01*
X254964Y461159D01*
X255029Y461115D01*
X255091Y461069D01*
X255151Y461019D01*
X255209Y460967D01*
X255264Y460912D01*
X255316Y460854D01*
X255366Y460794D01*
X255412Y460732D01*
X255456Y460667D01*
X255497Y460601D01*
X255534Y460532D01*
X255568Y460462D01*
X255599Y460390D01*
X255626Y460317D01*
X255650Y460243D01*
X255670Y460168D01*
X255686Y460092D01*
X255699Y460015D01*
X255709Y459938D01*
X255714Y459860D01*
X255716Y459782D01*
X255716Y459373D01*
X255714Y459284D01*
X255708Y459195D01*
X255698Y459106D01*
X255685Y459018D01*
X255668Y458930D01*
X255646Y458843D01*
X255621Y458758D01*
X255593Y458673D01*
X255560Y458590D01*
X255524Y458508D01*
X255485Y458428D01*
X255442Y458350D01*
X255396Y458274D01*
X255346Y458199D01*
X255293Y458127D01*
X255237Y458058D01*
X255178Y457991D01*
X255117Y457926D01*
X255052Y457865D01*
X254985Y457806D01*
X254916Y457750D01*
X254844Y457697D01*
X254769Y457647D01*
X254693Y457601D01*
X254615Y457558D01*
X254535Y457519D01*
X254453Y457483D01*
X254370Y457450D01*
X254285Y457422D01*
X254200Y457397D01*
X254113Y457375D01*
X254025Y457358D01*
X253937Y457345D01*
X253848Y457335D01*
X253759Y457329D01*
X253670Y457327D01*
X253581Y457329D01*
X253492Y457335D01*
X253403Y457345D01*
X253315Y457358D01*
X253227Y457375D01*
X253140Y457397D01*
X253055Y457422D01*
X252970Y457450D01*
X252887Y457483D01*
X252805Y457519D01*
X252725Y457558D01*
X252647Y457601D01*
X252571Y457647D01*
X252496Y457697D01*
X252424Y457750D01*
X252355Y457806D01*
X252288Y457865D01*
X252223Y457926D01*
X252162Y457991D01*
X252103Y458058D01*
X252047Y458127D01*
X251994Y458199D01*
X251944Y458274D01*
X251898Y458350D01*
X251855Y458428D01*
X251816Y458508D01*
X251780Y458590D01*
X251747Y458673D01*
X251719Y458758D01*
X251694Y458843D01*
X251672Y458930D01*
X251655Y459018D01*
X251642Y459106D01*
X251632Y459195D01*
X251626Y459284D01*
X251624Y459373D01*
X251624Y461419D01*
X251623Y461419D02*
X251625Y461533D01*
X251631Y461647D01*
X251641Y461761D01*
X251655Y461875D01*
X251673Y461988D01*
X251695Y462100D01*
X251720Y462211D01*
X251750Y462321D01*
X251783Y462431D01*
X251820Y462539D01*
X251861Y462645D01*
X251906Y462751D01*
X251954Y462854D01*
X252006Y462956D01*
X252062Y463056D01*
X252120Y463154D01*
X252183Y463250D01*
X252248Y463343D01*
X252317Y463435D01*
X252389Y463523D01*
X252464Y463610D01*
X252542Y463693D01*
X252623Y463774D01*
X252706Y463852D01*
X252793Y463927D01*
X252881Y463999D01*
X252973Y464068D01*
X253066Y464133D01*
X253162Y464195D01*
X253260Y464254D01*
X253360Y464310D01*
X253462Y464362D01*
X253565Y464410D01*
X253671Y464455D01*
X253777Y464496D01*
X253885Y464533D01*
X253995Y464566D01*
X254105Y464596D01*
X254216Y464621D01*
X254328Y464643D01*
X254441Y464661D01*
X254555Y464675D01*
X254669Y464685D01*
X254783Y464691D01*
X254897Y464693D01*
D10*
X192405Y454660D02*
X165735Y454660D01*
X165735Y467360D01*
X192405Y467360D01*
X192405Y454660D01*
D11*
X151802Y457327D02*
X151802Y464693D01*
X153848Y464693D01*
X153937Y464691D01*
X154026Y464685D01*
X154115Y464675D01*
X154203Y464662D01*
X154291Y464645D01*
X154378Y464623D01*
X154463Y464598D01*
X154548Y464570D01*
X154631Y464537D01*
X154713Y464501D01*
X154793Y464462D01*
X154871Y464419D01*
X154947Y464373D01*
X155022Y464323D01*
X155094Y464270D01*
X155163Y464214D01*
X155230Y464155D01*
X155295Y464094D01*
X155356Y464029D01*
X155415Y463962D01*
X155471Y463893D01*
X155524Y463821D01*
X155574Y463746D01*
X155620Y463670D01*
X155663Y463592D01*
X155702Y463512D01*
X155738Y463430D01*
X155771Y463347D01*
X155799Y463262D01*
X155824Y463177D01*
X155846Y463090D01*
X155863Y463002D01*
X155876Y462914D01*
X155886Y462825D01*
X155892Y462736D01*
X155894Y462647D01*
X155892Y462558D01*
X155886Y462469D01*
X155876Y462380D01*
X155863Y462292D01*
X155846Y462204D01*
X155824Y462117D01*
X155799Y462032D01*
X155771Y461947D01*
X155738Y461864D01*
X155702Y461782D01*
X155663Y461702D01*
X155620Y461624D01*
X155574Y461548D01*
X155524Y461473D01*
X155471Y461401D01*
X155415Y461332D01*
X155356Y461265D01*
X155295Y461200D01*
X155230Y461139D01*
X155163Y461080D01*
X155094Y461024D01*
X155022Y460971D01*
X154947Y460921D01*
X154871Y460875D01*
X154793Y460832D01*
X154713Y460793D01*
X154631Y460757D01*
X154548Y460724D01*
X154463Y460696D01*
X154378Y460671D01*
X154291Y460649D01*
X154203Y460632D01*
X154115Y460619D01*
X154026Y460609D01*
X153937Y460603D01*
X153848Y460601D01*
X151802Y460601D01*
X154257Y460601D02*
X155894Y457327D01*
X159066Y458964D02*
X160703Y464693D01*
X159066Y458964D02*
X163158Y458964D01*
X161930Y460601D02*
X161930Y457327D01*
D10*
X125095Y283210D02*
X98425Y283210D01*
X98425Y295910D01*
X125095Y295910D01*
X125095Y283210D01*
D11*
X84492Y285877D02*
X84492Y293243D01*
X86538Y293243D01*
X86627Y293241D01*
X86716Y293235D01*
X86805Y293225D01*
X86893Y293212D01*
X86981Y293195D01*
X87068Y293173D01*
X87153Y293148D01*
X87238Y293120D01*
X87321Y293087D01*
X87403Y293051D01*
X87483Y293012D01*
X87561Y292969D01*
X87637Y292923D01*
X87712Y292873D01*
X87784Y292820D01*
X87853Y292764D01*
X87920Y292705D01*
X87985Y292644D01*
X88046Y292579D01*
X88105Y292512D01*
X88161Y292443D01*
X88214Y292371D01*
X88264Y292296D01*
X88310Y292220D01*
X88353Y292142D01*
X88392Y292062D01*
X88428Y291980D01*
X88461Y291897D01*
X88489Y291812D01*
X88514Y291727D01*
X88536Y291640D01*
X88553Y291552D01*
X88566Y291464D01*
X88576Y291375D01*
X88582Y291286D01*
X88584Y291197D01*
X88582Y291108D01*
X88576Y291019D01*
X88566Y290930D01*
X88553Y290842D01*
X88536Y290754D01*
X88514Y290667D01*
X88489Y290582D01*
X88461Y290497D01*
X88428Y290414D01*
X88392Y290332D01*
X88353Y290252D01*
X88310Y290174D01*
X88264Y290098D01*
X88214Y290023D01*
X88161Y289951D01*
X88105Y289882D01*
X88046Y289815D01*
X87985Y289750D01*
X87920Y289689D01*
X87853Y289630D01*
X87784Y289574D01*
X87712Y289521D01*
X87637Y289471D01*
X87561Y289425D01*
X87483Y289382D01*
X87403Y289343D01*
X87321Y289307D01*
X87238Y289274D01*
X87153Y289246D01*
X87068Y289221D01*
X86981Y289199D01*
X86893Y289182D01*
X86805Y289169D01*
X86716Y289159D01*
X86627Y289153D01*
X86538Y289151D01*
X84492Y289151D01*
X86947Y289151D02*
X88584Y285877D01*
X91756Y285877D02*
X93802Y285877D01*
X93891Y285879D01*
X93980Y285885D01*
X94069Y285895D01*
X94157Y285908D01*
X94245Y285925D01*
X94332Y285947D01*
X94417Y285972D01*
X94502Y286000D01*
X94585Y286033D01*
X94667Y286069D01*
X94747Y286108D01*
X94825Y286151D01*
X94901Y286197D01*
X94976Y286247D01*
X95048Y286300D01*
X95117Y286356D01*
X95184Y286415D01*
X95249Y286476D01*
X95310Y286541D01*
X95369Y286608D01*
X95425Y286677D01*
X95478Y286749D01*
X95528Y286824D01*
X95574Y286900D01*
X95617Y286978D01*
X95656Y287058D01*
X95692Y287140D01*
X95725Y287223D01*
X95753Y287308D01*
X95778Y287393D01*
X95800Y287480D01*
X95817Y287568D01*
X95830Y287656D01*
X95840Y287745D01*
X95846Y287834D01*
X95848Y287923D01*
X95846Y288012D01*
X95840Y288101D01*
X95830Y288190D01*
X95817Y288278D01*
X95800Y288366D01*
X95778Y288453D01*
X95753Y288538D01*
X95725Y288623D01*
X95692Y288706D01*
X95656Y288788D01*
X95617Y288868D01*
X95574Y288946D01*
X95528Y289022D01*
X95478Y289097D01*
X95425Y289169D01*
X95369Y289238D01*
X95310Y289305D01*
X95249Y289370D01*
X95184Y289431D01*
X95117Y289490D01*
X95048Y289546D01*
X94976Y289599D01*
X94901Y289649D01*
X94825Y289695D01*
X94747Y289738D01*
X94667Y289777D01*
X94585Y289813D01*
X94502Y289846D01*
X94417Y289874D01*
X94332Y289899D01*
X94245Y289921D01*
X94157Y289938D01*
X94069Y289951D01*
X93980Y289961D01*
X93891Y289967D01*
X93802Y289969D01*
X94211Y293243D02*
X91756Y293243D01*
X94211Y293243D02*
X94290Y293241D01*
X94369Y293235D01*
X94448Y293226D01*
X94526Y293213D01*
X94603Y293195D01*
X94679Y293175D01*
X94754Y293150D01*
X94828Y293122D01*
X94901Y293091D01*
X94972Y293055D01*
X95041Y293017D01*
X95108Y292975D01*
X95173Y292930D01*
X95236Y292882D01*
X95297Y292831D01*
X95354Y292777D01*
X95410Y292721D01*
X95462Y292662D01*
X95512Y292600D01*
X95558Y292536D01*
X95602Y292470D01*
X95642Y292402D01*
X95678Y292332D01*
X95712Y292260D01*
X95742Y292186D01*
X95768Y292112D01*
X95791Y292036D01*
X95809Y291959D01*
X95825Y291882D01*
X95836Y291803D01*
X95844Y291725D01*
X95848Y291646D01*
X95848Y291566D01*
X95844Y291487D01*
X95836Y291409D01*
X95825Y291330D01*
X95809Y291253D01*
X95791Y291176D01*
X95768Y291100D01*
X95742Y291026D01*
X95712Y290952D01*
X95678Y290880D01*
X95642Y290810D01*
X95602Y290742D01*
X95558Y290676D01*
X95512Y290612D01*
X95462Y290550D01*
X95410Y290491D01*
X95354Y290435D01*
X95297Y290381D01*
X95236Y290330D01*
X95173Y290282D01*
X95108Y290237D01*
X95041Y290195D01*
X94972Y290157D01*
X94901Y290121D01*
X94828Y290090D01*
X94754Y290062D01*
X94679Y290037D01*
X94603Y290017D01*
X94526Y289999D01*
X94448Y289986D01*
X94369Y289977D01*
X94290Y289971D01*
X94211Y289969D01*
X92574Y289969D01*
D10*
X335915Y347980D02*
X362585Y347980D01*
X362585Y335280D01*
X335915Y335280D01*
X335915Y347980D01*
D11*
X321982Y345313D02*
X321982Y337947D01*
X321982Y345313D02*
X324028Y345313D01*
X324117Y345311D01*
X324206Y345305D01*
X324295Y345295D01*
X324383Y345282D01*
X324471Y345265D01*
X324558Y345243D01*
X324643Y345218D01*
X324728Y345190D01*
X324811Y345157D01*
X324893Y345121D01*
X324973Y345082D01*
X325051Y345039D01*
X325127Y344993D01*
X325202Y344943D01*
X325274Y344890D01*
X325343Y344834D01*
X325410Y344775D01*
X325475Y344714D01*
X325536Y344649D01*
X325595Y344582D01*
X325651Y344513D01*
X325704Y344441D01*
X325754Y344366D01*
X325800Y344290D01*
X325843Y344212D01*
X325882Y344132D01*
X325918Y344050D01*
X325951Y343967D01*
X325979Y343882D01*
X326004Y343797D01*
X326026Y343710D01*
X326043Y343622D01*
X326056Y343534D01*
X326066Y343445D01*
X326072Y343356D01*
X326074Y343267D01*
X326072Y343178D01*
X326066Y343089D01*
X326056Y343000D01*
X326043Y342912D01*
X326026Y342824D01*
X326004Y342737D01*
X325979Y342652D01*
X325951Y342567D01*
X325918Y342484D01*
X325882Y342402D01*
X325843Y342322D01*
X325800Y342244D01*
X325754Y342168D01*
X325704Y342093D01*
X325651Y342021D01*
X325595Y341952D01*
X325536Y341885D01*
X325475Y341820D01*
X325410Y341759D01*
X325343Y341700D01*
X325274Y341644D01*
X325202Y341591D01*
X325127Y341541D01*
X325051Y341495D01*
X324973Y341452D01*
X324893Y341413D01*
X324811Y341377D01*
X324728Y341344D01*
X324643Y341316D01*
X324558Y341291D01*
X324471Y341269D01*
X324383Y341252D01*
X324295Y341239D01*
X324206Y341229D01*
X324117Y341223D01*
X324028Y341221D01*
X321982Y341221D01*
X324437Y341221D02*
X326074Y337947D01*
X329246Y337947D02*
X331701Y337947D01*
X331779Y337949D01*
X331857Y337954D01*
X331934Y337964D01*
X332011Y337977D01*
X332087Y337993D01*
X332162Y338013D01*
X332236Y338037D01*
X332309Y338064D01*
X332381Y338095D01*
X332451Y338129D01*
X332520Y338166D01*
X332586Y338207D01*
X332651Y338251D01*
X332713Y338297D01*
X332773Y338347D01*
X332831Y338399D01*
X332886Y338454D01*
X332938Y338512D01*
X332988Y338572D01*
X333034Y338634D01*
X333078Y338699D01*
X333119Y338766D01*
X333156Y338834D01*
X333190Y338904D01*
X333221Y338976D01*
X333248Y339049D01*
X333272Y339123D01*
X333292Y339198D01*
X333308Y339274D01*
X333321Y339351D01*
X333331Y339428D01*
X333336Y339506D01*
X333338Y339584D01*
X333338Y340402D01*
X333336Y340480D01*
X333331Y340558D01*
X333321Y340635D01*
X333308Y340712D01*
X333292Y340788D01*
X333272Y340863D01*
X333248Y340937D01*
X333221Y341010D01*
X333190Y341082D01*
X333156Y341152D01*
X333119Y341221D01*
X333078Y341287D01*
X333034Y341352D01*
X332988Y341414D01*
X332938Y341474D01*
X332886Y341532D01*
X332831Y341587D01*
X332773Y341639D01*
X332713Y341689D01*
X332651Y341735D01*
X332586Y341779D01*
X332520Y341820D01*
X332451Y341857D01*
X332381Y341891D01*
X332309Y341922D01*
X332236Y341949D01*
X332162Y341973D01*
X332087Y341993D01*
X332011Y342009D01*
X331934Y342022D01*
X331857Y342032D01*
X331779Y342037D01*
X331701Y342039D01*
X329246Y342039D01*
X329246Y345313D01*
X333338Y345313D01*
D10*
X365125Y347980D02*
X391795Y347980D01*
X391795Y335280D01*
X365125Y335280D01*
X365125Y347980D01*
D11*
X376592Y349377D02*
X376592Y356743D01*
X378638Y356743D01*
X378727Y356741D01*
X378816Y356735D01*
X378905Y356725D01*
X378993Y356712D01*
X379081Y356695D01*
X379168Y356673D01*
X379253Y356648D01*
X379338Y356620D01*
X379421Y356587D01*
X379503Y356551D01*
X379583Y356512D01*
X379661Y356469D01*
X379737Y356423D01*
X379812Y356373D01*
X379884Y356320D01*
X379953Y356264D01*
X380020Y356205D01*
X380085Y356144D01*
X380146Y356079D01*
X380205Y356012D01*
X380261Y355943D01*
X380314Y355871D01*
X380364Y355796D01*
X380410Y355720D01*
X380453Y355642D01*
X380492Y355562D01*
X380528Y355480D01*
X380561Y355397D01*
X380589Y355312D01*
X380614Y355227D01*
X380636Y355140D01*
X380653Y355052D01*
X380666Y354964D01*
X380676Y354875D01*
X380682Y354786D01*
X380684Y354697D01*
X380682Y354608D01*
X380676Y354519D01*
X380666Y354430D01*
X380653Y354342D01*
X380636Y354254D01*
X380614Y354167D01*
X380589Y354082D01*
X380561Y353997D01*
X380528Y353914D01*
X380492Y353832D01*
X380453Y353752D01*
X380410Y353674D01*
X380364Y353598D01*
X380314Y353523D01*
X380261Y353451D01*
X380205Y353382D01*
X380146Y353315D01*
X380085Y353250D01*
X380020Y353189D01*
X379953Y353130D01*
X379884Y353074D01*
X379812Y353021D01*
X379737Y352971D01*
X379661Y352925D01*
X379583Y352882D01*
X379503Y352843D01*
X379421Y352807D01*
X379338Y352774D01*
X379253Y352746D01*
X379168Y352721D01*
X379081Y352699D01*
X378993Y352682D01*
X378905Y352669D01*
X378816Y352659D01*
X378727Y352653D01*
X378638Y352651D01*
X376592Y352651D01*
X379047Y352651D02*
X380684Y349377D01*
X383856Y353469D02*
X386311Y353469D01*
X386389Y353467D01*
X386467Y353462D01*
X386544Y353452D01*
X386621Y353439D01*
X386697Y353423D01*
X386772Y353403D01*
X386846Y353379D01*
X386919Y353352D01*
X386991Y353321D01*
X387061Y353287D01*
X387130Y353250D01*
X387196Y353209D01*
X387261Y353165D01*
X387323Y353119D01*
X387383Y353069D01*
X387441Y353017D01*
X387496Y352962D01*
X387548Y352904D01*
X387598Y352844D01*
X387644Y352782D01*
X387688Y352717D01*
X387729Y352651D01*
X387766Y352582D01*
X387800Y352512D01*
X387831Y352440D01*
X387858Y352367D01*
X387882Y352293D01*
X387902Y352218D01*
X387918Y352142D01*
X387931Y352065D01*
X387941Y351988D01*
X387946Y351910D01*
X387948Y351832D01*
X387948Y351423D01*
X387946Y351334D01*
X387940Y351245D01*
X387930Y351156D01*
X387917Y351068D01*
X387900Y350980D01*
X387878Y350893D01*
X387853Y350808D01*
X387825Y350723D01*
X387792Y350640D01*
X387756Y350558D01*
X387717Y350478D01*
X387674Y350400D01*
X387628Y350324D01*
X387578Y350249D01*
X387525Y350177D01*
X387469Y350108D01*
X387410Y350041D01*
X387349Y349976D01*
X387284Y349915D01*
X387217Y349856D01*
X387148Y349800D01*
X387076Y349747D01*
X387001Y349697D01*
X386925Y349651D01*
X386847Y349608D01*
X386767Y349569D01*
X386685Y349533D01*
X386602Y349500D01*
X386517Y349472D01*
X386432Y349447D01*
X386345Y349425D01*
X386257Y349408D01*
X386169Y349395D01*
X386080Y349385D01*
X385991Y349379D01*
X385902Y349377D01*
X385813Y349379D01*
X385724Y349385D01*
X385635Y349395D01*
X385547Y349408D01*
X385459Y349425D01*
X385372Y349447D01*
X385287Y349472D01*
X385202Y349500D01*
X385119Y349533D01*
X385037Y349569D01*
X384957Y349608D01*
X384879Y349651D01*
X384803Y349697D01*
X384728Y349747D01*
X384656Y349800D01*
X384587Y349856D01*
X384520Y349915D01*
X384455Y349976D01*
X384394Y350041D01*
X384335Y350108D01*
X384279Y350177D01*
X384226Y350249D01*
X384176Y350324D01*
X384130Y350400D01*
X384087Y350478D01*
X384048Y350558D01*
X384012Y350640D01*
X383979Y350723D01*
X383951Y350808D01*
X383926Y350893D01*
X383904Y350980D01*
X383887Y351068D01*
X383874Y351156D01*
X383864Y351245D01*
X383858Y351334D01*
X383856Y351423D01*
X383856Y353469D01*
X383858Y353583D01*
X383864Y353697D01*
X383874Y353811D01*
X383888Y353925D01*
X383906Y354038D01*
X383928Y354150D01*
X383953Y354261D01*
X383983Y354371D01*
X384016Y354481D01*
X384053Y354589D01*
X384094Y354695D01*
X384139Y354801D01*
X384187Y354904D01*
X384239Y355006D01*
X384295Y355106D01*
X384353Y355204D01*
X384416Y355300D01*
X384481Y355393D01*
X384550Y355485D01*
X384622Y355573D01*
X384697Y355660D01*
X384775Y355743D01*
X384856Y355824D01*
X384939Y355902D01*
X385026Y355977D01*
X385114Y356049D01*
X385206Y356118D01*
X385299Y356183D01*
X385395Y356245D01*
X385493Y356304D01*
X385593Y356360D01*
X385695Y356412D01*
X385798Y356460D01*
X385904Y356505D01*
X386010Y356546D01*
X386118Y356583D01*
X386228Y356616D01*
X386338Y356646D01*
X386449Y356671D01*
X386561Y356693D01*
X386674Y356711D01*
X386788Y356725D01*
X386902Y356735D01*
X387016Y356741D01*
X387130Y356743D01*
D10*
X362585Y332740D02*
X335915Y332740D01*
X362585Y332740D02*
X362585Y320040D01*
X335915Y320040D01*
X335915Y332740D01*
D11*
X321982Y330073D02*
X321982Y322707D01*
X321982Y330073D02*
X324028Y330073D01*
X324117Y330071D01*
X324206Y330065D01*
X324295Y330055D01*
X324383Y330042D01*
X324471Y330025D01*
X324558Y330003D01*
X324643Y329978D01*
X324728Y329950D01*
X324811Y329917D01*
X324893Y329881D01*
X324973Y329842D01*
X325051Y329799D01*
X325127Y329753D01*
X325202Y329703D01*
X325274Y329650D01*
X325343Y329594D01*
X325410Y329535D01*
X325475Y329474D01*
X325536Y329409D01*
X325595Y329342D01*
X325651Y329273D01*
X325704Y329201D01*
X325754Y329126D01*
X325800Y329050D01*
X325843Y328972D01*
X325882Y328892D01*
X325918Y328810D01*
X325951Y328727D01*
X325979Y328642D01*
X326004Y328557D01*
X326026Y328470D01*
X326043Y328382D01*
X326056Y328294D01*
X326066Y328205D01*
X326072Y328116D01*
X326074Y328027D01*
X326072Y327938D01*
X326066Y327849D01*
X326056Y327760D01*
X326043Y327672D01*
X326026Y327584D01*
X326004Y327497D01*
X325979Y327412D01*
X325951Y327327D01*
X325918Y327244D01*
X325882Y327162D01*
X325843Y327082D01*
X325800Y327004D01*
X325754Y326928D01*
X325704Y326853D01*
X325651Y326781D01*
X325595Y326712D01*
X325536Y326645D01*
X325475Y326580D01*
X325410Y326519D01*
X325343Y326460D01*
X325274Y326404D01*
X325202Y326351D01*
X325127Y326301D01*
X325051Y326255D01*
X324973Y326212D01*
X324893Y326173D01*
X324811Y326137D01*
X324728Y326104D01*
X324643Y326076D01*
X324558Y326051D01*
X324471Y326029D01*
X324383Y326012D01*
X324295Y325999D01*
X324206Y325989D01*
X324117Y325983D01*
X324028Y325981D01*
X321982Y325981D01*
X324437Y325981D02*
X326074Y322707D01*
X329246Y329255D02*
X329246Y330073D01*
X333338Y330073D01*
X331292Y322707D01*
D10*
X365125Y332740D02*
X391795Y332740D01*
X391795Y320040D01*
X365125Y320040D01*
X365125Y332740D01*
D11*
X375322Y318643D02*
X375322Y311277D01*
X375322Y318643D02*
X377368Y318643D01*
X377457Y318641D01*
X377546Y318635D01*
X377635Y318625D01*
X377723Y318612D01*
X377811Y318595D01*
X377898Y318573D01*
X377983Y318548D01*
X378068Y318520D01*
X378151Y318487D01*
X378233Y318451D01*
X378313Y318412D01*
X378391Y318369D01*
X378467Y318323D01*
X378542Y318273D01*
X378614Y318220D01*
X378683Y318164D01*
X378750Y318105D01*
X378815Y318044D01*
X378876Y317979D01*
X378935Y317912D01*
X378991Y317843D01*
X379044Y317771D01*
X379094Y317696D01*
X379140Y317620D01*
X379183Y317542D01*
X379222Y317462D01*
X379258Y317380D01*
X379291Y317297D01*
X379319Y317212D01*
X379344Y317127D01*
X379366Y317040D01*
X379383Y316952D01*
X379396Y316864D01*
X379406Y316775D01*
X379412Y316686D01*
X379414Y316597D01*
X379412Y316508D01*
X379406Y316419D01*
X379396Y316330D01*
X379383Y316242D01*
X379366Y316154D01*
X379344Y316067D01*
X379319Y315982D01*
X379291Y315897D01*
X379258Y315814D01*
X379222Y315732D01*
X379183Y315652D01*
X379140Y315574D01*
X379094Y315498D01*
X379044Y315423D01*
X378991Y315351D01*
X378935Y315282D01*
X378876Y315215D01*
X378815Y315150D01*
X378750Y315089D01*
X378683Y315030D01*
X378614Y314974D01*
X378542Y314921D01*
X378467Y314871D01*
X378391Y314825D01*
X378313Y314782D01*
X378233Y314743D01*
X378151Y314707D01*
X378068Y314674D01*
X377983Y314646D01*
X377898Y314621D01*
X377811Y314599D01*
X377723Y314582D01*
X377635Y314569D01*
X377546Y314559D01*
X377457Y314553D01*
X377368Y314551D01*
X375322Y314551D01*
X377777Y314551D02*
X379414Y311277D01*
X382586Y313323D02*
X382588Y313412D01*
X382594Y313501D01*
X382604Y313590D01*
X382617Y313678D01*
X382634Y313766D01*
X382656Y313853D01*
X382681Y313938D01*
X382709Y314023D01*
X382742Y314106D01*
X382778Y314188D01*
X382817Y314268D01*
X382860Y314346D01*
X382906Y314422D01*
X382956Y314497D01*
X383009Y314569D01*
X383065Y314638D01*
X383124Y314705D01*
X383185Y314770D01*
X383250Y314831D01*
X383317Y314890D01*
X383386Y314946D01*
X383458Y314999D01*
X383533Y315049D01*
X383609Y315095D01*
X383687Y315138D01*
X383767Y315177D01*
X383849Y315213D01*
X383932Y315246D01*
X384017Y315274D01*
X384102Y315299D01*
X384189Y315321D01*
X384277Y315338D01*
X384365Y315351D01*
X384454Y315361D01*
X384543Y315367D01*
X384632Y315369D01*
X384721Y315367D01*
X384810Y315361D01*
X384899Y315351D01*
X384987Y315338D01*
X385075Y315321D01*
X385162Y315299D01*
X385247Y315274D01*
X385332Y315246D01*
X385415Y315213D01*
X385497Y315177D01*
X385577Y315138D01*
X385655Y315095D01*
X385731Y315049D01*
X385806Y314999D01*
X385878Y314946D01*
X385947Y314890D01*
X386014Y314831D01*
X386079Y314770D01*
X386140Y314705D01*
X386199Y314638D01*
X386255Y314569D01*
X386308Y314497D01*
X386358Y314422D01*
X386404Y314346D01*
X386447Y314268D01*
X386486Y314188D01*
X386522Y314106D01*
X386555Y314023D01*
X386583Y313938D01*
X386608Y313853D01*
X386630Y313766D01*
X386647Y313678D01*
X386660Y313590D01*
X386670Y313501D01*
X386676Y313412D01*
X386678Y313323D01*
X386676Y313234D01*
X386670Y313145D01*
X386660Y313056D01*
X386647Y312968D01*
X386630Y312880D01*
X386608Y312793D01*
X386583Y312708D01*
X386555Y312623D01*
X386522Y312540D01*
X386486Y312458D01*
X386447Y312378D01*
X386404Y312300D01*
X386358Y312224D01*
X386308Y312149D01*
X386255Y312077D01*
X386199Y312008D01*
X386140Y311941D01*
X386079Y311876D01*
X386014Y311815D01*
X385947Y311756D01*
X385878Y311700D01*
X385806Y311647D01*
X385731Y311597D01*
X385655Y311551D01*
X385577Y311508D01*
X385497Y311469D01*
X385415Y311433D01*
X385332Y311400D01*
X385247Y311372D01*
X385162Y311347D01*
X385075Y311325D01*
X384987Y311308D01*
X384899Y311295D01*
X384810Y311285D01*
X384721Y311279D01*
X384632Y311277D01*
X384543Y311279D01*
X384454Y311285D01*
X384365Y311295D01*
X384277Y311308D01*
X384189Y311325D01*
X384102Y311347D01*
X384017Y311372D01*
X383932Y311400D01*
X383849Y311433D01*
X383767Y311469D01*
X383687Y311508D01*
X383609Y311551D01*
X383533Y311597D01*
X383458Y311647D01*
X383386Y311700D01*
X383317Y311756D01*
X383250Y311815D01*
X383185Y311876D01*
X383124Y311941D01*
X383065Y312008D01*
X383009Y312077D01*
X382956Y312149D01*
X382906Y312224D01*
X382860Y312300D01*
X382817Y312378D01*
X382778Y312458D01*
X382742Y312540D01*
X382709Y312623D01*
X382681Y312708D01*
X382656Y312793D01*
X382634Y312880D01*
X382617Y312968D01*
X382604Y313056D01*
X382594Y313145D01*
X382588Y313234D01*
X382586Y313323D01*
X382995Y317006D02*
X382997Y317085D01*
X383003Y317164D01*
X383012Y317243D01*
X383025Y317321D01*
X383043Y317398D01*
X383063Y317474D01*
X383088Y317549D01*
X383116Y317623D01*
X383147Y317696D01*
X383183Y317767D01*
X383221Y317836D01*
X383263Y317903D01*
X383308Y317968D01*
X383356Y318031D01*
X383407Y318092D01*
X383461Y318149D01*
X383517Y318205D01*
X383576Y318257D01*
X383638Y318307D01*
X383702Y318353D01*
X383768Y318397D01*
X383836Y318437D01*
X383906Y318473D01*
X383978Y318507D01*
X384052Y318537D01*
X384126Y318563D01*
X384202Y318586D01*
X384279Y318604D01*
X384356Y318620D01*
X384435Y318631D01*
X384513Y318639D01*
X384592Y318643D01*
X384672Y318643D01*
X384751Y318639D01*
X384829Y318631D01*
X384908Y318620D01*
X384985Y318604D01*
X385062Y318586D01*
X385138Y318563D01*
X385212Y318537D01*
X385286Y318507D01*
X385358Y318473D01*
X385428Y318437D01*
X385496Y318397D01*
X385562Y318353D01*
X385626Y318307D01*
X385688Y318257D01*
X385747Y318205D01*
X385803Y318149D01*
X385857Y318092D01*
X385908Y318031D01*
X385956Y317968D01*
X386001Y317903D01*
X386043Y317836D01*
X386081Y317767D01*
X386117Y317696D01*
X386148Y317623D01*
X386176Y317549D01*
X386201Y317474D01*
X386221Y317398D01*
X386239Y317321D01*
X386252Y317243D01*
X386261Y317164D01*
X386267Y317085D01*
X386269Y317006D01*
X386267Y316927D01*
X386261Y316848D01*
X386252Y316769D01*
X386239Y316691D01*
X386221Y316614D01*
X386201Y316538D01*
X386176Y316463D01*
X386148Y316389D01*
X386117Y316316D01*
X386081Y316245D01*
X386043Y316176D01*
X386001Y316109D01*
X385956Y316044D01*
X385908Y315981D01*
X385857Y315920D01*
X385803Y315863D01*
X385747Y315807D01*
X385688Y315755D01*
X385626Y315705D01*
X385562Y315659D01*
X385496Y315615D01*
X385428Y315575D01*
X385358Y315539D01*
X385286Y315505D01*
X385212Y315475D01*
X385138Y315449D01*
X385062Y315426D01*
X384985Y315408D01*
X384908Y315392D01*
X384829Y315381D01*
X384751Y315373D01*
X384672Y315369D01*
X384592Y315369D01*
X384513Y315373D01*
X384435Y315381D01*
X384356Y315392D01*
X384279Y315408D01*
X384202Y315426D01*
X384126Y315449D01*
X384052Y315475D01*
X383978Y315505D01*
X383906Y315539D01*
X383836Y315575D01*
X383768Y315615D01*
X383702Y315659D01*
X383638Y315705D01*
X383576Y315755D01*
X383517Y315807D01*
X383461Y315863D01*
X383407Y315920D01*
X383356Y315981D01*
X383308Y316044D01*
X383263Y316109D01*
X383221Y316176D01*
X383183Y316245D01*
X383147Y316316D01*
X383116Y316389D01*
X383088Y316463D01*
X383063Y316538D01*
X383043Y316614D01*
X383025Y316691D01*
X383012Y316769D01*
X383003Y316848D01*
X382997Y316927D01*
X382995Y317006D01*
D10*
X219075Y305435D02*
X156845Y305435D01*
X219075Y305435D02*
X219075Y260985D01*
X156845Y260985D01*
X156845Y305435D01*
D11*
X178431Y307911D02*
X183342Y315277D01*
X178431Y315277D02*
X183342Y307911D01*
X187714Y307911D02*
X187714Y315277D01*
X185668Y315277D02*
X189760Y315277D01*
X192495Y313640D02*
X194541Y315277D01*
X194541Y307911D01*
X192495Y307911D02*
X196587Y307911D01*
D10*
X231775Y414655D02*
X149225Y414655D01*
X231775Y414655D02*
X231775Y332105D01*
X149225Y332105D01*
X149225Y414655D01*
X151130Y411480D02*
X151132Y411551D01*
X151138Y411622D01*
X151148Y411693D01*
X151162Y411763D01*
X151180Y411832D01*
X151201Y411899D01*
X151227Y411966D01*
X151256Y412031D01*
X151288Y412094D01*
X151325Y412156D01*
X151364Y412215D01*
X151407Y412272D01*
X151453Y412326D01*
X151502Y412378D01*
X151554Y412427D01*
X151608Y412473D01*
X151665Y412516D01*
X151724Y412555D01*
X151786Y412592D01*
X151849Y412624D01*
X151914Y412653D01*
X151981Y412679D01*
X152048Y412700D01*
X152117Y412718D01*
X152187Y412732D01*
X152258Y412742D01*
X152329Y412748D01*
X152400Y412750D01*
X152471Y412748D01*
X152542Y412742D01*
X152613Y412732D01*
X152683Y412718D01*
X152752Y412700D01*
X152819Y412679D01*
X152886Y412653D01*
X152951Y412624D01*
X153014Y412592D01*
X153076Y412555D01*
X153135Y412516D01*
X153192Y412473D01*
X153246Y412427D01*
X153298Y412378D01*
X153347Y412326D01*
X153393Y412272D01*
X153436Y412215D01*
X153475Y412156D01*
X153512Y412094D01*
X153544Y412031D01*
X153573Y411966D01*
X153599Y411899D01*
X153620Y411832D01*
X153638Y411763D01*
X153652Y411693D01*
X153662Y411622D01*
X153668Y411551D01*
X153670Y411480D01*
X153668Y411409D01*
X153662Y411338D01*
X153652Y411267D01*
X153638Y411197D01*
X153620Y411128D01*
X153599Y411061D01*
X153573Y410994D01*
X153544Y410929D01*
X153512Y410866D01*
X153475Y410804D01*
X153436Y410745D01*
X153393Y410688D01*
X153347Y410634D01*
X153298Y410582D01*
X153246Y410533D01*
X153192Y410487D01*
X153135Y410444D01*
X153076Y410405D01*
X153014Y410368D01*
X152951Y410336D01*
X152886Y410307D01*
X152819Y410281D01*
X152752Y410260D01*
X152683Y410242D01*
X152613Y410228D01*
X152542Y410218D01*
X152471Y410212D01*
X152400Y410210D01*
X152329Y410212D01*
X152258Y410218D01*
X152187Y410228D01*
X152117Y410242D01*
X152048Y410260D01*
X151981Y410281D01*
X151914Y410307D01*
X151849Y410336D01*
X151786Y410368D01*
X151724Y410405D01*
X151665Y410444D01*
X151608Y410487D01*
X151554Y410533D01*
X151502Y410582D01*
X151453Y410634D01*
X151407Y410688D01*
X151364Y410745D01*
X151325Y410804D01*
X151288Y410866D01*
X151256Y410929D01*
X151227Y410994D01*
X151201Y411061D01*
X151180Y411128D01*
X151162Y411197D01*
X151148Y411267D01*
X151138Y411338D01*
X151132Y411409D01*
X151130Y411480D01*
D11*
X183912Y418297D02*
X183912Y425663D01*
X183094Y418297D02*
X184731Y418297D01*
X184731Y425663D02*
X183094Y425663D01*
X189332Y418297D02*
X190969Y418297D01*
X189332Y418297D02*
X189254Y418299D01*
X189176Y418304D01*
X189099Y418314D01*
X189022Y418327D01*
X188946Y418343D01*
X188871Y418363D01*
X188797Y418387D01*
X188724Y418414D01*
X188652Y418445D01*
X188582Y418479D01*
X188514Y418516D01*
X188447Y418557D01*
X188382Y418601D01*
X188320Y418647D01*
X188260Y418697D01*
X188202Y418749D01*
X188147Y418804D01*
X188095Y418862D01*
X188045Y418922D01*
X187999Y418984D01*
X187955Y419049D01*
X187914Y419116D01*
X187877Y419184D01*
X187843Y419254D01*
X187812Y419326D01*
X187785Y419399D01*
X187761Y419473D01*
X187741Y419548D01*
X187725Y419624D01*
X187712Y419701D01*
X187702Y419778D01*
X187697Y419856D01*
X187695Y419934D01*
X187695Y424026D01*
X187697Y424106D01*
X187703Y424186D01*
X187713Y424266D01*
X187726Y424345D01*
X187744Y424424D01*
X187765Y424501D01*
X187791Y424577D01*
X187820Y424652D01*
X187852Y424726D01*
X187888Y424798D01*
X187928Y424868D01*
X187971Y424935D01*
X188017Y425001D01*
X188067Y425064D01*
X188119Y425125D01*
X188174Y425184D01*
X188233Y425239D01*
X188293Y425291D01*
X188357Y425341D01*
X188423Y425387D01*
X188490Y425430D01*
X188560Y425470D01*
X188632Y425506D01*
X188706Y425538D01*
X188780Y425567D01*
X188857Y425593D01*
X188934Y425614D01*
X189013Y425632D01*
X189092Y425645D01*
X189172Y425655D01*
X189252Y425661D01*
X189332Y425663D01*
X190969Y425663D01*
X193814Y424026D02*
X195860Y425663D01*
X195860Y418297D01*
X193814Y418297D02*
X197906Y418297D01*
D10*
X192405Y470535D02*
X147955Y470535D01*
X147955Y492125D01*
X192405Y492125D01*
X192405Y470535D01*
D11*
X165997Y494403D02*
X165997Y501769D01*
X169270Y501769D01*
X169270Y498495D02*
X165997Y498495D01*
X172077Y500132D02*
X174123Y501769D01*
X174123Y494403D01*
X172077Y494403D02*
X176169Y494403D01*
D10*
X324485Y198120D02*
X351155Y198120D01*
X351155Y185420D01*
X324485Y185420D01*
X324485Y198120D01*
D11*
X353884Y195453D02*
X353884Y188087D01*
X353884Y195453D02*
X355930Y195453D01*
X356019Y195451D01*
X356108Y195445D01*
X356197Y195435D01*
X356285Y195422D01*
X356373Y195405D01*
X356460Y195383D01*
X356545Y195358D01*
X356630Y195330D01*
X356713Y195297D01*
X356795Y195261D01*
X356875Y195222D01*
X356953Y195179D01*
X357029Y195133D01*
X357104Y195083D01*
X357176Y195030D01*
X357245Y194974D01*
X357312Y194915D01*
X357377Y194854D01*
X357438Y194789D01*
X357497Y194722D01*
X357553Y194653D01*
X357606Y194581D01*
X357656Y194506D01*
X357702Y194430D01*
X357745Y194352D01*
X357784Y194272D01*
X357820Y194190D01*
X357853Y194107D01*
X357881Y194022D01*
X357906Y193937D01*
X357928Y193850D01*
X357945Y193762D01*
X357958Y193674D01*
X357968Y193585D01*
X357974Y193496D01*
X357976Y193407D01*
X357974Y193318D01*
X357968Y193229D01*
X357958Y193140D01*
X357945Y193052D01*
X357928Y192964D01*
X357906Y192877D01*
X357881Y192792D01*
X357853Y192707D01*
X357820Y192624D01*
X357784Y192542D01*
X357745Y192462D01*
X357702Y192384D01*
X357656Y192308D01*
X357606Y192233D01*
X357553Y192161D01*
X357497Y192092D01*
X357438Y192025D01*
X357377Y191960D01*
X357312Y191899D01*
X357245Y191840D01*
X357176Y191784D01*
X357104Y191731D01*
X357029Y191681D01*
X356953Y191635D01*
X356875Y191592D01*
X356795Y191553D01*
X356713Y191517D01*
X356630Y191484D01*
X356545Y191456D01*
X356460Y191431D01*
X356373Y191409D01*
X356285Y191392D01*
X356197Y191379D01*
X356108Y191369D01*
X356019Y191363D01*
X355930Y191361D01*
X353884Y191361D01*
X356340Y191361D02*
X357977Y188087D01*
X361148Y193816D02*
X363194Y195453D01*
X363194Y188087D01*
X361148Y188087D02*
X365241Y188087D01*
X368464Y193816D02*
X370510Y195453D01*
X370510Y188087D01*
X368464Y188087D02*
X372556Y188087D01*
D10*
X351155Y182880D02*
X324485Y182880D01*
X351155Y182880D02*
X351155Y170180D01*
X324485Y170180D01*
X324485Y182880D01*
D11*
X353884Y180213D02*
X353884Y172847D01*
X353884Y180213D02*
X355930Y180213D01*
X356019Y180211D01*
X356108Y180205D01*
X356197Y180195D01*
X356285Y180182D01*
X356373Y180165D01*
X356460Y180143D01*
X356545Y180118D01*
X356630Y180090D01*
X356713Y180057D01*
X356795Y180021D01*
X356875Y179982D01*
X356953Y179939D01*
X357029Y179893D01*
X357104Y179843D01*
X357176Y179790D01*
X357245Y179734D01*
X357312Y179675D01*
X357377Y179614D01*
X357438Y179549D01*
X357497Y179482D01*
X357553Y179413D01*
X357606Y179341D01*
X357656Y179266D01*
X357702Y179190D01*
X357745Y179112D01*
X357784Y179032D01*
X357820Y178950D01*
X357853Y178867D01*
X357881Y178782D01*
X357906Y178697D01*
X357928Y178610D01*
X357945Y178522D01*
X357958Y178434D01*
X357968Y178345D01*
X357974Y178256D01*
X357976Y178167D01*
X357974Y178078D01*
X357968Y177989D01*
X357958Y177900D01*
X357945Y177812D01*
X357928Y177724D01*
X357906Y177637D01*
X357881Y177552D01*
X357853Y177467D01*
X357820Y177384D01*
X357784Y177302D01*
X357745Y177222D01*
X357702Y177144D01*
X357656Y177068D01*
X357606Y176993D01*
X357553Y176921D01*
X357497Y176852D01*
X357438Y176785D01*
X357377Y176720D01*
X357312Y176659D01*
X357245Y176600D01*
X357176Y176544D01*
X357104Y176491D01*
X357029Y176441D01*
X356953Y176395D01*
X356875Y176352D01*
X356795Y176313D01*
X356713Y176277D01*
X356630Y176244D01*
X356545Y176216D01*
X356460Y176191D01*
X356373Y176169D01*
X356285Y176152D01*
X356197Y176139D01*
X356108Y176129D01*
X356019Y176123D01*
X355930Y176121D01*
X353884Y176121D01*
X356340Y176121D02*
X357977Y172847D01*
X361148Y178576D02*
X363194Y180213D01*
X363194Y172847D01*
X361148Y172847D02*
X365241Y172847D01*
X372556Y178372D02*
X372554Y178457D01*
X372548Y178542D01*
X372538Y178626D01*
X372525Y178710D01*
X372507Y178794D01*
X372486Y178876D01*
X372461Y178957D01*
X372432Y179037D01*
X372399Y179116D01*
X372363Y179193D01*
X372323Y179268D01*
X372280Y179342D01*
X372234Y179413D01*
X372184Y179482D01*
X372131Y179549D01*
X372075Y179613D01*
X372016Y179674D01*
X371955Y179733D01*
X371891Y179789D01*
X371824Y179842D01*
X371755Y179892D01*
X371684Y179938D01*
X371610Y179981D01*
X371535Y180021D01*
X371458Y180057D01*
X371379Y180090D01*
X371299Y180119D01*
X371218Y180144D01*
X371136Y180165D01*
X371052Y180183D01*
X370968Y180196D01*
X370884Y180206D01*
X370799Y180212D01*
X370714Y180214D01*
X370714Y180213D02*
X370618Y180211D01*
X370522Y180205D01*
X370427Y180195D01*
X370332Y180182D01*
X370237Y180164D01*
X370144Y180143D01*
X370051Y180118D01*
X369960Y180089D01*
X369869Y180057D01*
X369780Y180021D01*
X369693Y179981D01*
X369607Y179938D01*
X369523Y179892D01*
X369441Y179842D01*
X369361Y179788D01*
X369284Y179732D01*
X369209Y179672D01*
X369136Y179610D01*
X369066Y179544D01*
X368998Y179476D01*
X368933Y179405D01*
X368872Y179332D01*
X368813Y179256D01*
X368757Y179177D01*
X368705Y179097D01*
X368656Y179014D01*
X368610Y178930D01*
X368568Y178844D01*
X368530Y178756D01*
X368495Y178667D01*
X368463Y178576D01*
X371942Y176940D02*
X372002Y176999D01*
X372059Y177061D01*
X372114Y177125D01*
X372165Y177192D01*
X372214Y177261D01*
X372260Y177331D01*
X372303Y177404D01*
X372343Y177478D01*
X372379Y177554D01*
X372412Y177632D01*
X372442Y177711D01*
X372469Y177791D01*
X372492Y177872D01*
X372511Y177954D01*
X372527Y178036D01*
X372540Y178120D01*
X372549Y178204D01*
X372554Y178288D01*
X372556Y178372D01*
X371942Y176939D02*
X368464Y172847D01*
X372556Y172847D01*
D10*
X321945Y154940D02*
X295275Y154940D01*
X295275Y167640D01*
X321945Y167640D01*
X321945Y154940D01*
D11*
X273874Y157607D02*
X273874Y164973D01*
X275920Y164973D01*
X276009Y164971D01*
X276098Y164965D01*
X276187Y164955D01*
X276275Y164942D01*
X276363Y164925D01*
X276450Y164903D01*
X276535Y164878D01*
X276620Y164850D01*
X276703Y164817D01*
X276785Y164781D01*
X276865Y164742D01*
X276943Y164699D01*
X277019Y164653D01*
X277094Y164603D01*
X277166Y164550D01*
X277235Y164494D01*
X277302Y164435D01*
X277367Y164374D01*
X277428Y164309D01*
X277487Y164242D01*
X277543Y164173D01*
X277596Y164101D01*
X277646Y164026D01*
X277692Y163950D01*
X277735Y163872D01*
X277774Y163792D01*
X277810Y163710D01*
X277843Y163627D01*
X277871Y163542D01*
X277896Y163457D01*
X277918Y163370D01*
X277935Y163282D01*
X277948Y163194D01*
X277958Y163105D01*
X277964Y163016D01*
X277966Y162927D01*
X277964Y162838D01*
X277958Y162749D01*
X277948Y162660D01*
X277935Y162572D01*
X277918Y162484D01*
X277896Y162397D01*
X277871Y162312D01*
X277843Y162227D01*
X277810Y162144D01*
X277774Y162062D01*
X277735Y161982D01*
X277692Y161904D01*
X277646Y161828D01*
X277596Y161753D01*
X277543Y161681D01*
X277487Y161612D01*
X277428Y161545D01*
X277367Y161480D01*
X277302Y161419D01*
X277235Y161360D01*
X277166Y161304D01*
X277094Y161251D01*
X277019Y161201D01*
X276943Y161155D01*
X276865Y161112D01*
X276785Y161073D01*
X276703Y161037D01*
X276620Y161004D01*
X276535Y160976D01*
X276450Y160951D01*
X276363Y160929D01*
X276275Y160912D01*
X276187Y160899D01*
X276098Y160889D01*
X276009Y160883D01*
X275920Y160881D01*
X273874Y160881D01*
X276330Y160881D02*
X277966Y157607D01*
X281138Y163336D02*
X283184Y164973D01*
X283184Y157607D01*
X281138Y157607D02*
X285231Y157607D01*
X288454Y157607D02*
X290500Y157607D01*
X290589Y157609D01*
X290678Y157615D01*
X290767Y157625D01*
X290855Y157638D01*
X290943Y157655D01*
X291030Y157677D01*
X291115Y157702D01*
X291200Y157730D01*
X291283Y157763D01*
X291365Y157799D01*
X291445Y157838D01*
X291523Y157881D01*
X291599Y157927D01*
X291674Y157977D01*
X291746Y158030D01*
X291815Y158086D01*
X291882Y158145D01*
X291947Y158206D01*
X292008Y158271D01*
X292067Y158338D01*
X292123Y158407D01*
X292176Y158479D01*
X292226Y158554D01*
X292272Y158630D01*
X292315Y158708D01*
X292354Y158788D01*
X292390Y158870D01*
X292423Y158953D01*
X292451Y159038D01*
X292476Y159123D01*
X292498Y159210D01*
X292515Y159298D01*
X292528Y159386D01*
X292538Y159475D01*
X292544Y159564D01*
X292546Y159653D01*
X292544Y159742D01*
X292538Y159831D01*
X292528Y159920D01*
X292515Y160008D01*
X292498Y160096D01*
X292476Y160183D01*
X292451Y160268D01*
X292423Y160353D01*
X292390Y160436D01*
X292354Y160518D01*
X292315Y160598D01*
X292272Y160676D01*
X292226Y160752D01*
X292176Y160827D01*
X292123Y160899D01*
X292067Y160968D01*
X292008Y161035D01*
X291947Y161100D01*
X291882Y161161D01*
X291815Y161220D01*
X291746Y161276D01*
X291674Y161329D01*
X291599Y161379D01*
X291523Y161425D01*
X291445Y161468D01*
X291365Y161507D01*
X291283Y161543D01*
X291200Y161576D01*
X291115Y161604D01*
X291030Y161629D01*
X290943Y161651D01*
X290855Y161668D01*
X290767Y161681D01*
X290678Y161691D01*
X290589Y161697D01*
X290500Y161699D01*
X290909Y164973D02*
X288454Y164973D01*
X290909Y164973D02*
X290988Y164971D01*
X291067Y164965D01*
X291146Y164956D01*
X291224Y164943D01*
X291301Y164925D01*
X291377Y164905D01*
X291452Y164880D01*
X291526Y164852D01*
X291599Y164821D01*
X291670Y164785D01*
X291739Y164747D01*
X291806Y164705D01*
X291871Y164660D01*
X291934Y164612D01*
X291995Y164561D01*
X292052Y164507D01*
X292108Y164451D01*
X292160Y164392D01*
X292210Y164330D01*
X292256Y164266D01*
X292300Y164200D01*
X292340Y164132D01*
X292376Y164062D01*
X292410Y163990D01*
X292440Y163916D01*
X292466Y163842D01*
X292489Y163766D01*
X292507Y163689D01*
X292523Y163612D01*
X292534Y163533D01*
X292542Y163455D01*
X292546Y163376D01*
X292546Y163296D01*
X292542Y163217D01*
X292534Y163139D01*
X292523Y163060D01*
X292507Y162983D01*
X292489Y162906D01*
X292466Y162830D01*
X292440Y162756D01*
X292410Y162682D01*
X292376Y162610D01*
X292340Y162540D01*
X292300Y162472D01*
X292256Y162406D01*
X292210Y162342D01*
X292160Y162280D01*
X292108Y162221D01*
X292052Y162165D01*
X291995Y162111D01*
X291934Y162060D01*
X291871Y162012D01*
X291806Y161967D01*
X291739Y161925D01*
X291670Y161887D01*
X291599Y161851D01*
X291526Y161820D01*
X291452Y161792D01*
X291377Y161767D01*
X291301Y161747D01*
X291224Y161729D01*
X291146Y161716D01*
X291067Y161707D01*
X290988Y161701D01*
X290909Y161699D01*
X289272Y161699D01*
D10*
X295275Y185420D02*
X321945Y185420D01*
X295275Y185420D02*
X295275Y198120D01*
X321945Y198120D01*
X321945Y185420D01*
D11*
X273874Y188087D02*
X273874Y195453D01*
X275920Y195453D01*
X276009Y195451D01*
X276098Y195445D01*
X276187Y195435D01*
X276275Y195422D01*
X276363Y195405D01*
X276450Y195383D01*
X276535Y195358D01*
X276620Y195330D01*
X276703Y195297D01*
X276785Y195261D01*
X276865Y195222D01*
X276943Y195179D01*
X277019Y195133D01*
X277094Y195083D01*
X277166Y195030D01*
X277235Y194974D01*
X277302Y194915D01*
X277367Y194854D01*
X277428Y194789D01*
X277487Y194722D01*
X277543Y194653D01*
X277596Y194581D01*
X277646Y194506D01*
X277692Y194430D01*
X277735Y194352D01*
X277774Y194272D01*
X277810Y194190D01*
X277843Y194107D01*
X277871Y194022D01*
X277896Y193937D01*
X277918Y193850D01*
X277935Y193762D01*
X277948Y193674D01*
X277958Y193585D01*
X277964Y193496D01*
X277966Y193407D01*
X277964Y193318D01*
X277958Y193229D01*
X277948Y193140D01*
X277935Y193052D01*
X277918Y192964D01*
X277896Y192877D01*
X277871Y192792D01*
X277843Y192707D01*
X277810Y192624D01*
X277774Y192542D01*
X277735Y192462D01*
X277692Y192384D01*
X277646Y192308D01*
X277596Y192233D01*
X277543Y192161D01*
X277487Y192092D01*
X277428Y192025D01*
X277367Y191960D01*
X277302Y191899D01*
X277235Y191840D01*
X277166Y191784D01*
X277094Y191731D01*
X277019Y191681D01*
X276943Y191635D01*
X276865Y191592D01*
X276785Y191553D01*
X276703Y191517D01*
X276620Y191484D01*
X276535Y191456D01*
X276450Y191431D01*
X276363Y191409D01*
X276275Y191392D01*
X276187Y191379D01*
X276098Y191369D01*
X276009Y191363D01*
X275920Y191361D01*
X273874Y191361D01*
X276330Y191361D02*
X277966Y188087D01*
X281138Y193816D02*
X283184Y195453D01*
X283184Y188087D01*
X281138Y188087D02*
X285231Y188087D01*
X288454Y189724D02*
X290090Y195453D01*
X288454Y189724D02*
X292546Y189724D01*
X291318Y191361D02*
X291318Y188087D01*
D10*
X295275Y170180D02*
X321945Y170180D01*
X295275Y170180D02*
X295275Y182880D01*
X321945Y182880D01*
X321945Y170180D01*
D11*
X277721Y172847D02*
X276084Y172847D01*
X276006Y172849D01*
X275928Y172854D01*
X275851Y172864D01*
X275774Y172877D01*
X275698Y172893D01*
X275623Y172913D01*
X275549Y172937D01*
X275476Y172964D01*
X275404Y172995D01*
X275334Y173029D01*
X275266Y173066D01*
X275199Y173107D01*
X275134Y173151D01*
X275072Y173197D01*
X275012Y173247D01*
X274954Y173299D01*
X274899Y173354D01*
X274847Y173412D01*
X274797Y173472D01*
X274751Y173534D01*
X274707Y173599D01*
X274666Y173666D01*
X274629Y173734D01*
X274595Y173804D01*
X274564Y173876D01*
X274537Y173949D01*
X274513Y174023D01*
X274493Y174098D01*
X274477Y174174D01*
X274464Y174251D01*
X274454Y174328D01*
X274449Y174406D01*
X274447Y174484D01*
X274447Y178576D01*
X274449Y178656D01*
X274455Y178736D01*
X274465Y178816D01*
X274478Y178895D01*
X274496Y178974D01*
X274517Y179051D01*
X274543Y179127D01*
X274572Y179202D01*
X274604Y179276D01*
X274640Y179348D01*
X274680Y179418D01*
X274723Y179485D01*
X274769Y179551D01*
X274819Y179614D01*
X274871Y179675D01*
X274926Y179734D01*
X274985Y179789D01*
X275045Y179841D01*
X275109Y179891D01*
X275175Y179937D01*
X275242Y179980D01*
X275312Y180020D01*
X275384Y180056D01*
X275458Y180088D01*
X275532Y180117D01*
X275609Y180143D01*
X275686Y180164D01*
X275765Y180182D01*
X275844Y180195D01*
X275924Y180205D01*
X276004Y180211D01*
X276084Y180213D01*
X277721Y180213D01*
X280566Y178576D02*
X282612Y180213D01*
X282612Y172847D01*
X280566Y172847D02*
X284658Y172847D01*
X289518Y176121D02*
X291973Y176121D01*
X289518Y176121D02*
X289440Y176123D01*
X289362Y176128D01*
X289285Y176138D01*
X289208Y176151D01*
X289132Y176167D01*
X289057Y176187D01*
X288983Y176211D01*
X288910Y176238D01*
X288838Y176269D01*
X288768Y176303D01*
X288699Y176340D01*
X288633Y176381D01*
X288568Y176425D01*
X288506Y176471D01*
X288446Y176521D01*
X288388Y176573D01*
X288333Y176628D01*
X288281Y176686D01*
X288231Y176746D01*
X288185Y176808D01*
X288141Y176873D01*
X288100Y176940D01*
X288063Y177008D01*
X288029Y177078D01*
X287998Y177150D01*
X287971Y177223D01*
X287947Y177297D01*
X287927Y177372D01*
X287911Y177448D01*
X287898Y177525D01*
X287888Y177602D01*
X287883Y177680D01*
X287881Y177758D01*
X287881Y178167D01*
X287883Y178256D01*
X287889Y178345D01*
X287899Y178434D01*
X287912Y178522D01*
X287929Y178610D01*
X287951Y178697D01*
X287976Y178782D01*
X288004Y178867D01*
X288037Y178950D01*
X288073Y179032D01*
X288112Y179112D01*
X288155Y179190D01*
X288201Y179266D01*
X288251Y179341D01*
X288304Y179413D01*
X288360Y179482D01*
X288419Y179549D01*
X288480Y179614D01*
X288545Y179675D01*
X288612Y179734D01*
X288681Y179790D01*
X288753Y179843D01*
X288828Y179893D01*
X288904Y179939D01*
X288982Y179982D01*
X289062Y180021D01*
X289144Y180057D01*
X289227Y180090D01*
X289312Y180118D01*
X289397Y180143D01*
X289484Y180165D01*
X289572Y180182D01*
X289660Y180195D01*
X289749Y180205D01*
X289838Y180211D01*
X289927Y180213D01*
X290016Y180211D01*
X290105Y180205D01*
X290194Y180195D01*
X290282Y180182D01*
X290370Y180165D01*
X290457Y180143D01*
X290542Y180118D01*
X290627Y180090D01*
X290710Y180057D01*
X290792Y180021D01*
X290872Y179982D01*
X290950Y179939D01*
X291026Y179893D01*
X291101Y179843D01*
X291173Y179790D01*
X291242Y179734D01*
X291309Y179675D01*
X291374Y179614D01*
X291435Y179549D01*
X291494Y179482D01*
X291550Y179413D01*
X291603Y179341D01*
X291653Y179266D01*
X291699Y179190D01*
X291742Y179112D01*
X291781Y179032D01*
X291817Y178950D01*
X291850Y178867D01*
X291878Y178782D01*
X291903Y178697D01*
X291925Y178610D01*
X291942Y178522D01*
X291955Y178434D01*
X291965Y178345D01*
X291971Y178256D01*
X291973Y178167D01*
X291973Y176121D01*
X291971Y176009D01*
X291965Y175898D01*
X291956Y175786D01*
X291943Y175675D01*
X291925Y175565D01*
X291905Y175455D01*
X291880Y175346D01*
X291852Y175238D01*
X291820Y175131D01*
X291784Y175025D01*
X291745Y174920D01*
X291702Y174817D01*
X291656Y174715D01*
X291606Y174615D01*
X291553Y174516D01*
X291496Y174420D01*
X291437Y174325D01*
X291374Y174233D01*
X291308Y174143D01*
X291239Y174055D01*
X291167Y173969D01*
X291092Y173886D01*
X291014Y173806D01*
X290934Y173728D01*
X290851Y173653D01*
X290765Y173581D01*
X290677Y173512D01*
X290587Y173446D01*
X290495Y173383D01*
X290400Y173324D01*
X290304Y173267D01*
X290205Y173214D01*
X290105Y173164D01*
X290003Y173118D01*
X289900Y173075D01*
X289795Y173036D01*
X289689Y173000D01*
X289582Y172968D01*
X289474Y172940D01*
X289365Y172915D01*
X289255Y172895D01*
X289145Y172877D01*
X289034Y172864D01*
X288922Y172855D01*
X288811Y172849D01*
X288699Y172847D01*
D10*
X295275Y139700D02*
X321945Y139700D01*
X295275Y139700D02*
X295275Y152400D01*
X321945Y152400D01*
X321945Y139700D01*
D11*
X277721Y142367D02*
X276084Y142367D01*
X276006Y142369D01*
X275928Y142374D01*
X275851Y142384D01*
X275774Y142397D01*
X275698Y142413D01*
X275623Y142433D01*
X275549Y142457D01*
X275476Y142484D01*
X275404Y142515D01*
X275334Y142549D01*
X275266Y142586D01*
X275199Y142627D01*
X275134Y142671D01*
X275072Y142717D01*
X275012Y142767D01*
X274954Y142819D01*
X274899Y142874D01*
X274847Y142932D01*
X274797Y142992D01*
X274751Y143054D01*
X274707Y143119D01*
X274666Y143186D01*
X274629Y143254D01*
X274595Y143324D01*
X274564Y143396D01*
X274537Y143469D01*
X274513Y143543D01*
X274493Y143618D01*
X274477Y143694D01*
X274464Y143771D01*
X274454Y143848D01*
X274449Y143926D01*
X274447Y144004D01*
X274447Y148096D01*
X274449Y148176D01*
X274455Y148256D01*
X274465Y148336D01*
X274478Y148415D01*
X274496Y148494D01*
X274517Y148571D01*
X274543Y148647D01*
X274572Y148722D01*
X274604Y148796D01*
X274640Y148868D01*
X274680Y148938D01*
X274723Y149005D01*
X274769Y149071D01*
X274819Y149134D01*
X274871Y149195D01*
X274926Y149254D01*
X274985Y149309D01*
X275045Y149361D01*
X275109Y149411D01*
X275175Y149457D01*
X275242Y149500D01*
X275312Y149540D01*
X275384Y149576D01*
X275458Y149608D01*
X275532Y149637D01*
X275609Y149663D01*
X275686Y149684D01*
X275765Y149702D01*
X275844Y149715D01*
X275924Y149725D01*
X276004Y149731D01*
X276084Y149733D01*
X277721Y149733D01*
X282817Y149734D02*
X282902Y149732D01*
X282987Y149726D01*
X283071Y149716D01*
X283155Y149703D01*
X283239Y149685D01*
X283321Y149664D01*
X283402Y149639D01*
X283482Y149610D01*
X283561Y149577D01*
X283638Y149541D01*
X283713Y149501D01*
X283787Y149458D01*
X283858Y149412D01*
X283927Y149362D01*
X283994Y149309D01*
X284058Y149253D01*
X284119Y149194D01*
X284178Y149133D01*
X284234Y149069D01*
X284287Y149002D01*
X284337Y148933D01*
X284383Y148862D01*
X284426Y148788D01*
X284466Y148713D01*
X284502Y148636D01*
X284535Y148557D01*
X284564Y148477D01*
X284589Y148396D01*
X284610Y148314D01*
X284628Y148230D01*
X284641Y148146D01*
X284651Y148062D01*
X284657Y147977D01*
X284659Y147892D01*
X282817Y149733D02*
X282721Y149731D01*
X282625Y149725D01*
X282530Y149715D01*
X282435Y149702D01*
X282340Y149684D01*
X282247Y149663D01*
X282154Y149638D01*
X282063Y149609D01*
X281972Y149577D01*
X281883Y149541D01*
X281796Y149501D01*
X281710Y149458D01*
X281626Y149412D01*
X281544Y149362D01*
X281464Y149308D01*
X281387Y149252D01*
X281312Y149192D01*
X281239Y149130D01*
X281169Y149064D01*
X281101Y148996D01*
X281036Y148925D01*
X280975Y148852D01*
X280916Y148776D01*
X280860Y148697D01*
X280808Y148617D01*
X280759Y148534D01*
X280713Y148450D01*
X280671Y148364D01*
X280633Y148276D01*
X280598Y148187D01*
X280566Y148096D01*
X284044Y146460D02*
X284104Y146519D01*
X284161Y146581D01*
X284216Y146645D01*
X284267Y146712D01*
X284316Y146781D01*
X284362Y146851D01*
X284405Y146924D01*
X284445Y146998D01*
X284481Y147074D01*
X284514Y147152D01*
X284544Y147231D01*
X284571Y147311D01*
X284594Y147392D01*
X284613Y147474D01*
X284629Y147556D01*
X284642Y147640D01*
X284651Y147724D01*
X284656Y147808D01*
X284658Y147892D01*
X284044Y146459D02*
X280566Y142367D01*
X284658Y142367D01*
X287881Y146050D02*
X287883Y146203D01*
X287889Y146356D01*
X287898Y146508D01*
X287912Y146661D01*
X287929Y146813D01*
X287950Y146964D01*
X287975Y147115D01*
X288004Y147265D01*
X288036Y147415D01*
X288073Y147563D01*
X288113Y147711D01*
X288156Y147858D01*
X288204Y148003D01*
X288255Y148147D01*
X288309Y148290D01*
X288368Y148432D01*
X288429Y148571D01*
X288495Y148710D01*
X288521Y148780D01*
X288551Y148850D01*
X288584Y148917D01*
X288620Y148983D01*
X288659Y149047D01*
X288702Y149109D01*
X288748Y149168D01*
X288796Y149226D01*
X288847Y149280D01*
X288901Y149333D01*
X288958Y149382D01*
X289017Y149429D01*
X289078Y149472D01*
X289141Y149513D01*
X289206Y149550D01*
X289273Y149585D01*
X289342Y149615D01*
X289412Y149643D01*
X289483Y149666D01*
X289555Y149687D01*
X289628Y149703D01*
X289702Y149716D01*
X289777Y149726D01*
X289852Y149731D01*
X289927Y149733D01*
X290002Y149731D01*
X290077Y149726D01*
X290152Y149716D01*
X290226Y149703D01*
X290299Y149687D01*
X290371Y149666D01*
X290442Y149643D01*
X290512Y149615D01*
X290581Y149585D01*
X290648Y149550D01*
X290713Y149513D01*
X290776Y149472D01*
X290837Y149429D01*
X290896Y149382D01*
X290953Y149333D01*
X291007Y149280D01*
X291058Y149226D01*
X291107Y149168D01*
X291152Y149109D01*
X291195Y149047D01*
X291234Y148983D01*
X291271Y148917D01*
X291303Y148849D01*
X291333Y148780D01*
X291359Y148710D01*
X291424Y148572D01*
X291486Y148432D01*
X291544Y148290D01*
X291599Y148147D01*
X291650Y148003D01*
X291698Y147858D01*
X291741Y147711D01*
X291781Y147564D01*
X291818Y147415D01*
X291850Y147265D01*
X291879Y147115D01*
X291904Y146964D01*
X291925Y146813D01*
X291942Y146661D01*
X291956Y146508D01*
X291965Y146356D01*
X291971Y146203D01*
X291973Y146050D01*
X287881Y146050D02*
X287883Y145897D01*
X287889Y145744D01*
X287898Y145591D01*
X287912Y145439D01*
X287929Y145287D01*
X287950Y145136D01*
X287975Y144985D01*
X288004Y144834D01*
X288036Y144685D01*
X288073Y144536D01*
X288113Y144389D01*
X288156Y144242D01*
X288204Y144097D01*
X288255Y143952D01*
X288310Y143810D01*
X288368Y143668D01*
X288430Y143528D01*
X288495Y143390D01*
X288521Y143319D01*
X288551Y143250D01*
X288584Y143183D01*
X288620Y143117D01*
X288659Y143053D01*
X288702Y142991D01*
X288748Y142932D01*
X288796Y142874D01*
X288847Y142820D01*
X288901Y142767D01*
X288958Y142718D01*
X289017Y142671D01*
X289078Y142628D01*
X289141Y142587D01*
X289206Y142550D01*
X289273Y142515D01*
X289342Y142485D01*
X289412Y142457D01*
X289483Y142434D01*
X289555Y142413D01*
X289628Y142397D01*
X289702Y142384D01*
X289777Y142374D01*
X289852Y142369D01*
X289927Y142367D01*
X291359Y143390D02*
X291424Y143528D01*
X291486Y143668D01*
X291544Y143810D01*
X291599Y143953D01*
X291650Y144097D01*
X291698Y144242D01*
X291741Y144389D01*
X291781Y144537D01*
X291818Y144685D01*
X291850Y144835D01*
X291879Y144985D01*
X291904Y145136D01*
X291925Y145287D01*
X291942Y145439D01*
X291956Y145592D01*
X291965Y145744D01*
X291971Y145897D01*
X291973Y146050D01*
X291359Y143390D02*
X291333Y143320D01*
X291303Y143250D01*
X291271Y143183D01*
X291234Y143117D01*
X291195Y143053D01*
X291152Y142991D01*
X291106Y142932D01*
X291058Y142874D01*
X291007Y142820D01*
X290953Y142767D01*
X290896Y142718D01*
X290837Y142671D01*
X290776Y142628D01*
X290713Y142587D01*
X290648Y142550D01*
X290581Y142515D01*
X290512Y142485D01*
X290442Y142457D01*
X290371Y142434D01*
X290299Y142413D01*
X290226Y142397D01*
X290152Y142384D01*
X290077Y142374D01*
X290002Y142369D01*
X289927Y142367D01*
X288290Y144004D02*
X291564Y148096D01*
D10*
X471170Y361315D02*
X471170Y525145D01*
X471170Y361315D02*
X311150Y361315D01*
X311150Y525145D01*
X471170Y525145D01*
D11*
X477266Y431058D02*
X484632Y431058D01*
X481358Y433513D02*
X477266Y431058D01*
X481358Y433513D02*
X477266Y435968D01*
X484632Y435968D01*
X482586Y439514D02*
X479312Y439514D01*
X479223Y439516D01*
X479134Y439522D01*
X479045Y439532D01*
X478957Y439545D01*
X478869Y439562D01*
X478782Y439584D01*
X478697Y439609D01*
X478612Y439637D01*
X478529Y439670D01*
X478447Y439706D01*
X478367Y439745D01*
X478289Y439788D01*
X478213Y439834D01*
X478138Y439884D01*
X478066Y439937D01*
X477997Y439993D01*
X477930Y440052D01*
X477865Y440113D01*
X477804Y440178D01*
X477745Y440245D01*
X477689Y440314D01*
X477636Y440386D01*
X477586Y440461D01*
X477540Y440537D01*
X477497Y440615D01*
X477458Y440695D01*
X477422Y440777D01*
X477389Y440860D01*
X477361Y440945D01*
X477336Y441030D01*
X477314Y441117D01*
X477297Y441205D01*
X477284Y441293D01*
X477274Y441382D01*
X477268Y441471D01*
X477266Y441560D01*
X477268Y441649D01*
X477274Y441738D01*
X477284Y441827D01*
X477297Y441915D01*
X477314Y442003D01*
X477336Y442090D01*
X477361Y442175D01*
X477389Y442260D01*
X477422Y442343D01*
X477458Y442425D01*
X477497Y442505D01*
X477540Y442583D01*
X477586Y442659D01*
X477636Y442734D01*
X477689Y442806D01*
X477745Y442875D01*
X477804Y442942D01*
X477865Y443007D01*
X477930Y443068D01*
X477997Y443127D01*
X478066Y443183D01*
X478138Y443236D01*
X478213Y443286D01*
X478289Y443332D01*
X478367Y443375D01*
X478447Y443414D01*
X478529Y443450D01*
X478612Y443483D01*
X478697Y443511D01*
X478782Y443536D01*
X478869Y443558D01*
X478957Y443575D01*
X479045Y443588D01*
X479134Y443598D01*
X479223Y443604D01*
X479312Y443606D01*
X482586Y443606D01*
X482675Y443604D01*
X482764Y443598D01*
X482853Y443588D01*
X482941Y443575D01*
X483029Y443558D01*
X483116Y443536D01*
X483201Y443511D01*
X483286Y443483D01*
X483369Y443450D01*
X483451Y443414D01*
X483531Y443375D01*
X483609Y443332D01*
X483685Y443286D01*
X483760Y443236D01*
X483832Y443183D01*
X483901Y443127D01*
X483968Y443068D01*
X484033Y443007D01*
X484094Y442942D01*
X484153Y442875D01*
X484209Y442806D01*
X484262Y442734D01*
X484312Y442659D01*
X484358Y442583D01*
X484401Y442505D01*
X484440Y442425D01*
X484476Y442343D01*
X484509Y442260D01*
X484537Y442175D01*
X484562Y442090D01*
X484584Y442003D01*
X484601Y441915D01*
X484614Y441827D01*
X484624Y441738D01*
X484630Y441649D01*
X484632Y441560D01*
X484630Y441471D01*
X484624Y441382D01*
X484614Y441293D01*
X484601Y441205D01*
X484584Y441117D01*
X484562Y441030D01*
X484537Y440945D01*
X484509Y440860D01*
X484476Y440777D01*
X484440Y440695D01*
X484401Y440615D01*
X484358Y440537D01*
X484312Y440461D01*
X484262Y440386D01*
X484209Y440314D01*
X484153Y440245D01*
X484094Y440178D01*
X484033Y440113D01*
X483968Y440052D01*
X483901Y439993D01*
X483832Y439937D01*
X483760Y439884D01*
X483685Y439834D01*
X483609Y439788D01*
X483531Y439745D01*
X483451Y439706D01*
X483369Y439670D01*
X483286Y439637D01*
X483201Y439609D01*
X483116Y439584D01*
X483029Y439562D01*
X482941Y439545D01*
X482853Y439532D01*
X482764Y439522D01*
X482675Y439516D01*
X482586Y439514D01*
X484632Y447073D02*
X477266Y447073D01*
X477266Y449119D01*
X477268Y449208D01*
X477274Y449297D01*
X477284Y449386D01*
X477297Y449474D01*
X477314Y449562D01*
X477336Y449649D01*
X477361Y449734D01*
X477389Y449819D01*
X477422Y449902D01*
X477458Y449984D01*
X477497Y450064D01*
X477540Y450142D01*
X477586Y450218D01*
X477636Y450293D01*
X477689Y450365D01*
X477745Y450434D01*
X477804Y450501D01*
X477865Y450566D01*
X477930Y450627D01*
X477997Y450686D01*
X478066Y450742D01*
X478138Y450795D01*
X478213Y450845D01*
X478289Y450891D01*
X478367Y450934D01*
X478447Y450973D01*
X478529Y451009D01*
X478612Y451042D01*
X478697Y451070D01*
X478782Y451095D01*
X478869Y451117D01*
X478957Y451134D01*
X479045Y451147D01*
X479134Y451157D01*
X479223Y451163D01*
X479312Y451165D01*
X482586Y451165D01*
X482675Y451163D01*
X482764Y451157D01*
X482853Y451147D01*
X482941Y451134D01*
X483029Y451117D01*
X483116Y451095D01*
X483201Y451070D01*
X483286Y451042D01*
X483369Y451009D01*
X483451Y450973D01*
X483531Y450934D01*
X483609Y450891D01*
X483685Y450845D01*
X483760Y450795D01*
X483832Y450742D01*
X483901Y450686D01*
X483968Y450627D01*
X484033Y450566D01*
X484094Y450501D01*
X484153Y450434D01*
X484209Y450365D01*
X484262Y450293D01*
X484312Y450218D01*
X484358Y450142D01*
X484401Y450064D01*
X484440Y449984D01*
X484476Y449902D01*
X484509Y449819D01*
X484537Y449734D01*
X484562Y449649D01*
X484584Y449562D01*
X484601Y449474D01*
X484614Y449386D01*
X484624Y449297D01*
X484630Y449208D01*
X484632Y449119D01*
X484632Y447073D01*
X478903Y454632D02*
X477266Y456678D01*
X484632Y456678D01*
X484632Y454632D02*
X484632Y458724D01*
D10*
X233045Y439420D02*
X206375Y439420D01*
X206375Y452120D01*
X233045Y452120D01*
X233045Y439420D01*
D11*
X235774Y442087D02*
X235774Y449453D01*
X237820Y449453D01*
X237909Y449451D01*
X237998Y449445D01*
X238087Y449435D01*
X238175Y449422D01*
X238263Y449405D01*
X238350Y449383D01*
X238435Y449358D01*
X238520Y449330D01*
X238603Y449297D01*
X238685Y449261D01*
X238765Y449222D01*
X238843Y449179D01*
X238919Y449133D01*
X238994Y449083D01*
X239066Y449030D01*
X239135Y448974D01*
X239202Y448915D01*
X239267Y448854D01*
X239328Y448789D01*
X239387Y448722D01*
X239443Y448653D01*
X239496Y448581D01*
X239546Y448506D01*
X239592Y448430D01*
X239635Y448352D01*
X239674Y448272D01*
X239710Y448190D01*
X239743Y448107D01*
X239771Y448022D01*
X239796Y447937D01*
X239818Y447850D01*
X239835Y447762D01*
X239848Y447674D01*
X239858Y447585D01*
X239864Y447496D01*
X239866Y447407D01*
X239864Y447318D01*
X239858Y447229D01*
X239848Y447140D01*
X239835Y447052D01*
X239818Y446964D01*
X239796Y446877D01*
X239771Y446792D01*
X239743Y446707D01*
X239710Y446624D01*
X239674Y446542D01*
X239635Y446462D01*
X239592Y446384D01*
X239546Y446308D01*
X239496Y446233D01*
X239443Y446161D01*
X239387Y446092D01*
X239328Y446025D01*
X239267Y445960D01*
X239202Y445899D01*
X239135Y445840D01*
X239066Y445784D01*
X238994Y445731D01*
X238919Y445681D01*
X238843Y445635D01*
X238765Y445592D01*
X238685Y445553D01*
X238603Y445517D01*
X238520Y445484D01*
X238435Y445456D01*
X238350Y445431D01*
X238263Y445409D01*
X238175Y445392D01*
X238087Y445379D01*
X237998Y445369D01*
X237909Y445363D01*
X237820Y445361D01*
X235774Y445361D01*
X238230Y445361D02*
X239866Y442087D01*
X243038Y447816D02*
X245084Y449453D01*
X245084Y442087D01*
X243038Y442087D02*
X247131Y442087D01*
X250354Y442087D02*
X252809Y442087D01*
X252887Y442089D01*
X252965Y442094D01*
X253042Y442104D01*
X253119Y442117D01*
X253195Y442133D01*
X253270Y442153D01*
X253344Y442177D01*
X253417Y442204D01*
X253489Y442235D01*
X253559Y442269D01*
X253628Y442306D01*
X253694Y442347D01*
X253759Y442391D01*
X253821Y442437D01*
X253881Y442487D01*
X253939Y442539D01*
X253994Y442594D01*
X254046Y442652D01*
X254096Y442712D01*
X254142Y442774D01*
X254186Y442839D01*
X254227Y442906D01*
X254264Y442974D01*
X254298Y443044D01*
X254329Y443116D01*
X254356Y443189D01*
X254380Y443263D01*
X254400Y443338D01*
X254416Y443414D01*
X254429Y443491D01*
X254439Y443568D01*
X254444Y443646D01*
X254446Y443724D01*
X254446Y444542D01*
X254444Y444620D01*
X254439Y444698D01*
X254429Y444775D01*
X254416Y444852D01*
X254400Y444928D01*
X254380Y445003D01*
X254356Y445077D01*
X254329Y445150D01*
X254298Y445222D01*
X254264Y445292D01*
X254227Y445361D01*
X254186Y445427D01*
X254142Y445492D01*
X254096Y445554D01*
X254046Y445614D01*
X253994Y445672D01*
X253939Y445727D01*
X253881Y445779D01*
X253821Y445829D01*
X253759Y445875D01*
X253694Y445919D01*
X253628Y445960D01*
X253559Y445997D01*
X253489Y446031D01*
X253417Y446062D01*
X253344Y446089D01*
X253270Y446113D01*
X253195Y446133D01*
X253119Y446149D01*
X253042Y446162D01*
X252965Y446172D01*
X252887Y446177D01*
X252809Y446179D01*
X250354Y446179D01*
X250354Y449453D01*
X254446Y449453D01*
D10*
X311150Y83185D02*
X311150Y46355D01*
X311150Y83185D02*
X344170Y83185D01*
X344170Y46355D01*
X311150Y46355D01*
D11*
X321072Y85217D02*
X321072Y92583D01*
X320254Y85217D02*
X321891Y85217D01*
X321891Y92583D02*
X320254Y92583D01*
X326492Y85217D02*
X328129Y85217D01*
X326492Y85217D02*
X326414Y85219D01*
X326336Y85224D01*
X326259Y85234D01*
X326182Y85247D01*
X326106Y85263D01*
X326031Y85283D01*
X325957Y85307D01*
X325884Y85334D01*
X325812Y85365D01*
X325742Y85399D01*
X325674Y85436D01*
X325607Y85477D01*
X325542Y85521D01*
X325480Y85567D01*
X325420Y85617D01*
X325362Y85669D01*
X325307Y85724D01*
X325255Y85782D01*
X325205Y85842D01*
X325159Y85904D01*
X325115Y85969D01*
X325074Y86036D01*
X325037Y86104D01*
X325003Y86174D01*
X324972Y86246D01*
X324945Y86319D01*
X324921Y86393D01*
X324901Y86468D01*
X324885Y86544D01*
X324872Y86621D01*
X324862Y86698D01*
X324857Y86776D01*
X324855Y86854D01*
X324855Y90946D01*
X324857Y91026D01*
X324863Y91106D01*
X324873Y91186D01*
X324886Y91265D01*
X324904Y91344D01*
X324925Y91421D01*
X324951Y91497D01*
X324980Y91572D01*
X325012Y91646D01*
X325048Y91718D01*
X325088Y91788D01*
X325131Y91855D01*
X325177Y91921D01*
X325227Y91984D01*
X325279Y92045D01*
X325334Y92104D01*
X325393Y92159D01*
X325453Y92211D01*
X325517Y92261D01*
X325583Y92307D01*
X325650Y92350D01*
X325720Y92390D01*
X325792Y92426D01*
X325866Y92458D01*
X325940Y92487D01*
X326017Y92513D01*
X326094Y92534D01*
X326173Y92552D01*
X326252Y92565D01*
X326332Y92575D01*
X326412Y92581D01*
X326492Y92583D01*
X328129Y92583D01*
X333225Y92584D02*
X333310Y92582D01*
X333395Y92576D01*
X333479Y92566D01*
X333563Y92553D01*
X333647Y92535D01*
X333729Y92514D01*
X333810Y92489D01*
X333890Y92460D01*
X333969Y92427D01*
X334046Y92391D01*
X334121Y92351D01*
X334195Y92308D01*
X334266Y92262D01*
X334335Y92212D01*
X334402Y92159D01*
X334466Y92103D01*
X334527Y92044D01*
X334586Y91983D01*
X334642Y91919D01*
X334695Y91852D01*
X334745Y91783D01*
X334791Y91712D01*
X334834Y91638D01*
X334874Y91563D01*
X334910Y91486D01*
X334943Y91407D01*
X334972Y91327D01*
X334997Y91246D01*
X335018Y91164D01*
X335036Y91080D01*
X335049Y90996D01*
X335059Y90912D01*
X335065Y90827D01*
X335067Y90742D01*
X333225Y92583D02*
X333129Y92581D01*
X333033Y92575D01*
X332938Y92565D01*
X332843Y92552D01*
X332748Y92534D01*
X332655Y92513D01*
X332562Y92488D01*
X332471Y92459D01*
X332380Y92427D01*
X332291Y92391D01*
X332204Y92351D01*
X332118Y92308D01*
X332034Y92262D01*
X331952Y92212D01*
X331872Y92158D01*
X331795Y92102D01*
X331720Y92042D01*
X331647Y91980D01*
X331577Y91914D01*
X331509Y91846D01*
X331444Y91775D01*
X331383Y91702D01*
X331324Y91626D01*
X331268Y91547D01*
X331216Y91467D01*
X331167Y91384D01*
X331121Y91300D01*
X331079Y91214D01*
X331041Y91126D01*
X331006Y91037D01*
X330974Y90946D01*
X334452Y89310D02*
X334512Y89369D01*
X334569Y89431D01*
X334624Y89495D01*
X334675Y89562D01*
X334724Y89631D01*
X334770Y89701D01*
X334813Y89774D01*
X334853Y89848D01*
X334889Y89924D01*
X334922Y90002D01*
X334952Y90081D01*
X334979Y90161D01*
X335002Y90242D01*
X335021Y90324D01*
X335037Y90406D01*
X335050Y90490D01*
X335059Y90574D01*
X335064Y90658D01*
X335066Y90742D01*
X334453Y89309D02*
X330974Y85217D01*
X335066Y85217D01*
D10*
X125095Y412750D02*
X98425Y412750D01*
X125095Y412750D02*
X125095Y400050D01*
X98425Y400050D01*
X98425Y412750D01*
D11*
X84492Y410083D02*
X84492Y402717D01*
X84492Y410083D02*
X86538Y410083D01*
X86627Y410081D01*
X86716Y410075D01*
X86805Y410065D01*
X86893Y410052D01*
X86981Y410035D01*
X87068Y410013D01*
X87153Y409988D01*
X87238Y409960D01*
X87321Y409927D01*
X87403Y409891D01*
X87483Y409852D01*
X87561Y409809D01*
X87637Y409763D01*
X87712Y409713D01*
X87784Y409660D01*
X87853Y409604D01*
X87920Y409545D01*
X87985Y409484D01*
X88046Y409419D01*
X88105Y409352D01*
X88161Y409283D01*
X88214Y409211D01*
X88264Y409136D01*
X88310Y409060D01*
X88353Y408982D01*
X88392Y408902D01*
X88428Y408820D01*
X88461Y408737D01*
X88489Y408652D01*
X88514Y408567D01*
X88536Y408480D01*
X88553Y408392D01*
X88566Y408304D01*
X88576Y408215D01*
X88582Y408126D01*
X88584Y408037D01*
X88582Y407948D01*
X88576Y407859D01*
X88566Y407770D01*
X88553Y407682D01*
X88536Y407594D01*
X88514Y407507D01*
X88489Y407422D01*
X88461Y407337D01*
X88428Y407254D01*
X88392Y407172D01*
X88353Y407092D01*
X88310Y407014D01*
X88264Y406938D01*
X88214Y406863D01*
X88161Y406791D01*
X88105Y406722D01*
X88046Y406655D01*
X87985Y406590D01*
X87920Y406529D01*
X87853Y406470D01*
X87784Y406414D01*
X87712Y406361D01*
X87637Y406311D01*
X87561Y406265D01*
X87483Y406222D01*
X87403Y406183D01*
X87321Y406147D01*
X87238Y406114D01*
X87153Y406086D01*
X87068Y406061D01*
X86981Y406039D01*
X86893Y406022D01*
X86805Y406009D01*
X86716Y405999D01*
X86627Y405993D01*
X86538Y405991D01*
X84492Y405991D01*
X86947Y405991D02*
X88584Y402717D01*
X91756Y408446D02*
X93802Y410083D01*
X93802Y402717D01*
X91756Y402717D02*
X95848Y402717D01*
D10*
X98425Y397510D02*
X125095Y397510D01*
X125095Y384810D01*
X98425Y384810D01*
X98425Y397510D01*
D11*
X84492Y394843D02*
X84492Y387477D01*
X84492Y394843D02*
X86538Y394843D01*
X86627Y394841D01*
X86716Y394835D01*
X86805Y394825D01*
X86893Y394812D01*
X86981Y394795D01*
X87068Y394773D01*
X87153Y394748D01*
X87238Y394720D01*
X87321Y394687D01*
X87403Y394651D01*
X87483Y394612D01*
X87561Y394569D01*
X87637Y394523D01*
X87712Y394473D01*
X87784Y394420D01*
X87853Y394364D01*
X87920Y394305D01*
X87985Y394244D01*
X88046Y394179D01*
X88105Y394112D01*
X88161Y394043D01*
X88214Y393971D01*
X88264Y393896D01*
X88310Y393820D01*
X88353Y393742D01*
X88392Y393662D01*
X88428Y393580D01*
X88461Y393497D01*
X88489Y393412D01*
X88514Y393327D01*
X88536Y393240D01*
X88553Y393152D01*
X88566Y393064D01*
X88576Y392975D01*
X88582Y392886D01*
X88584Y392797D01*
X88582Y392708D01*
X88576Y392619D01*
X88566Y392530D01*
X88553Y392442D01*
X88536Y392354D01*
X88514Y392267D01*
X88489Y392182D01*
X88461Y392097D01*
X88428Y392014D01*
X88392Y391932D01*
X88353Y391852D01*
X88310Y391774D01*
X88264Y391698D01*
X88214Y391623D01*
X88161Y391551D01*
X88105Y391482D01*
X88046Y391415D01*
X87985Y391350D01*
X87920Y391289D01*
X87853Y391230D01*
X87784Y391174D01*
X87712Y391121D01*
X87637Y391071D01*
X87561Y391025D01*
X87483Y390982D01*
X87403Y390943D01*
X87321Y390907D01*
X87238Y390874D01*
X87153Y390846D01*
X87068Y390821D01*
X86981Y390799D01*
X86893Y390782D01*
X86805Y390769D01*
X86716Y390759D01*
X86627Y390753D01*
X86538Y390751D01*
X84492Y390751D01*
X86947Y390751D02*
X88584Y387477D01*
X95849Y393002D02*
X95847Y393087D01*
X95841Y393172D01*
X95831Y393256D01*
X95818Y393340D01*
X95800Y393424D01*
X95779Y393506D01*
X95754Y393587D01*
X95725Y393667D01*
X95692Y393746D01*
X95656Y393823D01*
X95616Y393898D01*
X95573Y393972D01*
X95527Y394043D01*
X95477Y394112D01*
X95424Y394179D01*
X95368Y394243D01*
X95309Y394304D01*
X95248Y394363D01*
X95184Y394419D01*
X95117Y394472D01*
X95048Y394522D01*
X94977Y394568D01*
X94903Y394611D01*
X94828Y394651D01*
X94751Y394687D01*
X94672Y394720D01*
X94592Y394749D01*
X94511Y394774D01*
X94429Y394795D01*
X94345Y394813D01*
X94261Y394826D01*
X94177Y394836D01*
X94092Y394842D01*
X94007Y394844D01*
X94007Y394843D02*
X93911Y394841D01*
X93815Y394835D01*
X93720Y394825D01*
X93625Y394812D01*
X93530Y394794D01*
X93437Y394773D01*
X93344Y394748D01*
X93253Y394719D01*
X93162Y394687D01*
X93073Y394651D01*
X92986Y394611D01*
X92900Y394568D01*
X92816Y394522D01*
X92734Y394472D01*
X92654Y394418D01*
X92577Y394362D01*
X92502Y394302D01*
X92429Y394240D01*
X92359Y394174D01*
X92291Y394106D01*
X92226Y394035D01*
X92165Y393962D01*
X92106Y393886D01*
X92050Y393807D01*
X91998Y393727D01*
X91949Y393644D01*
X91903Y393560D01*
X91861Y393474D01*
X91823Y393386D01*
X91788Y393297D01*
X91756Y393206D01*
X95234Y391570D02*
X95294Y391629D01*
X95351Y391691D01*
X95406Y391755D01*
X95457Y391822D01*
X95506Y391891D01*
X95552Y391961D01*
X95595Y392034D01*
X95635Y392108D01*
X95671Y392184D01*
X95704Y392262D01*
X95734Y392341D01*
X95761Y392421D01*
X95784Y392502D01*
X95803Y392584D01*
X95819Y392666D01*
X95832Y392750D01*
X95841Y392834D01*
X95846Y392918D01*
X95848Y393002D01*
X95234Y391569D02*
X91756Y387477D01*
X95848Y387477D01*
D10*
X433705Y317500D02*
X460375Y317500D01*
X460375Y304800D01*
X433705Y304800D01*
X433705Y317500D01*
D11*
X465314Y307467D02*
X466951Y307467D01*
X465314Y307467D02*
X465236Y307469D01*
X465158Y307474D01*
X465081Y307484D01*
X465004Y307497D01*
X464928Y307513D01*
X464853Y307533D01*
X464779Y307557D01*
X464706Y307584D01*
X464634Y307615D01*
X464564Y307649D01*
X464496Y307686D01*
X464429Y307727D01*
X464364Y307771D01*
X464302Y307817D01*
X464242Y307867D01*
X464184Y307919D01*
X464129Y307974D01*
X464077Y308032D01*
X464027Y308092D01*
X463981Y308154D01*
X463937Y308219D01*
X463896Y308286D01*
X463859Y308354D01*
X463825Y308424D01*
X463794Y308496D01*
X463767Y308569D01*
X463743Y308643D01*
X463723Y308718D01*
X463707Y308794D01*
X463694Y308871D01*
X463684Y308948D01*
X463679Y309026D01*
X463677Y309104D01*
X463677Y313196D01*
X463679Y313276D01*
X463685Y313356D01*
X463695Y313436D01*
X463708Y313515D01*
X463726Y313594D01*
X463747Y313671D01*
X463773Y313747D01*
X463802Y313822D01*
X463834Y313896D01*
X463870Y313968D01*
X463910Y314038D01*
X463953Y314105D01*
X463999Y314171D01*
X464049Y314234D01*
X464101Y314295D01*
X464156Y314354D01*
X464215Y314409D01*
X464275Y314461D01*
X464339Y314511D01*
X464405Y314557D01*
X464472Y314600D01*
X464542Y314640D01*
X464614Y314676D01*
X464688Y314708D01*
X464762Y314737D01*
X464839Y314763D01*
X464916Y314784D01*
X464995Y314802D01*
X465074Y314815D01*
X465154Y314825D01*
X465234Y314831D01*
X465314Y314833D01*
X466951Y314833D01*
X469796Y313196D02*
X471842Y314833D01*
X471842Y307467D01*
X469796Y307467D02*
X473888Y307467D01*
X477111Y309104D02*
X478748Y314833D01*
X477111Y309104D02*
X481203Y309104D01*
X479976Y310741D02*
X479976Y307467D01*
D10*
X460375Y302260D02*
X433705Y302260D01*
X460375Y302260D02*
X460375Y289560D01*
X433705Y289560D01*
X433705Y302260D01*
D11*
X465314Y292227D02*
X466951Y292227D01*
X465314Y292227D02*
X465236Y292229D01*
X465158Y292234D01*
X465081Y292244D01*
X465004Y292257D01*
X464928Y292273D01*
X464853Y292293D01*
X464779Y292317D01*
X464706Y292344D01*
X464634Y292375D01*
X464564Y292409D01*
X464496Y292446D01*
X464429Y292487D01*
X464364Y292531D01*
X464302Y292577D01*
X464242Y292627D01*
X464184Y292679D01*
X464129Y292734D01*
X464077Y292792D01*
X464027Y292852D01*
X463981Y292914D01*
X463937Y292979D01*
X463896Y293046D01*
X463859Y293114D01*
X463825Y293184D01*
X463794Y293256D01*
X463767Y293329D01*
X463743Y293403D01*
X463723Y293478D01*
X463707Y293554D01*
X463694Y293631D01*
X463684Y293708D01*
X463679Y293786D01*
X463677Y293864D01*
X463677Y297956D01*
X463679Y298036D01*
X463685Y298116D01*
X463695Y298196D01*
X463708Y298275D01*
X463726Y298354D01*
X463747Y298431D01*
X463773Y298507D01*
X463802Y298582D01*
X463834Y298656D01*
X463870Y298728D01*
X463910Y298798D01*
X463953Y298865D01*
X463999Y298931D01*
X464049Y298994D01*
X464101Y299055D01*
X464156Y299114D01*
X464215Y299169D01*
X464275Y299221D01*
X464339Y299271D01*
X464405Y299317D01*
X464472Y299360D01*
X464542Y299400D01*
X464614Y299436D01*
X464688Y299468D01*
X464762Y299497D01*
X464839Y299523D01*
X464916Y299544D01*
X464995Y299562D01*
X465074Y299575D01*
X465154Y299585D01*
X465234Y299591D01*
X465314Y299593D01*
X466951Y299593D01*
X469796Y297956D02*
X471842Y299593D01*
X471842Y292227D01*
X469796Y292227D02*
X473888Y292227D01*
X477111Y292227D02*
X479566Y292227D01*
X479644Y292229D01*
X479722Y292234D01*
X479799Y292244D01*
X479876Y292257D01*
X479952Y292273D01*
X480027Y292293D01*
X480101Y292317D01*
X480174Y292344D01*
X480246Y292375D01*
X480316Y292409D01*
X480385Y292446D01*
X480451Y292487D01*
X480516Y292531D01*
X480578Y292577D01*
X480638Y292627D01*
X480696Y292679D01*
X480751Y292734D01*
X480803Y292792D01*
X480853Y292852D01*
X480899Y292914D01*
X480943Y292979D01*
X480984Y293046D01*
X481021Y293114D01*
X481055Y293184D01*
X481086Y293256D01*
X481113Y293329D01*
X481137Y293403D01*
X481157Y293478D01*
X481173Y293554D01*
X481186Y293631D01*
X481196Y293708D01*
X481201Y293786D01*
X481203Y293864D01*
X481203Y294682D01*
X481201Y294760D01*
X481196Y294838D01*
X481186Y294915D01*
X481173Y294992D01*
X481157Y295068D01*
X481137Y295143D01*
X481113Y295217D01*
X481086Y295290D01*
X481055Y295362D01*
X481021Y295432D01*
X480984Y295501D01*
X480943Y295567D01*
X480899Y295632D01*
X480853Y295694D01*
X480803Y295754D01*
X480751Y295812D01*
X480696Y295867D01*
X480638Y295919D01*
X480578Y295969D01*
X480516Y296015D01*
X480451Y296059D01*
X480385Y296100D01*
X480316Y296137D01*
X480246Y296171D01*
X480174Y296202D01*
X480101Y296229D01*
X480027Y296253D01*
X479952Y296273D01*
X479876Y296289D01*
X479799Y296302D01*
X479722Y296312D01*
X479644Y296317D01*
X479566Y296319D01*
X477111Y296319D01*
X477111Y299593D01*
X481203Y299593D01*
D10*
X464185Y15240D02*
X437515Y15240D01*
X437515Y27940D01*
X464185Y27940D01*
X464185Y15240D01*
D11*
X466914Y17907D02*
X466914Y25273D01*
X468960Y25273D01*
X469049Y25271D01*
X469138Y25265D01*
X469227Y25255D01*
X469315Y25242D01*
X469403Y25225D01*
X469490Y25203D01*
X469575Y25178D01*
X469660Y25150D01*
X469743Y25117D01*
X469825Y25081D01*
X469905Y25042D01*
X469983Y24999D01*
X470059Y24953D01*
X470134Y24903D01*
X470206Y24850D01*
X470275Y24794D01*
X470342Y24735D01*
X470407Y24674D01*
X470468Y24609D01*
X470527Y24542D01*
X470583Y24473D01*
X470636Y24401D01*
X470686Y24326D01*
X470732Y24250D01*
X470775Y24172D01*
X470814Y24092D01*
X470850Y24010D01*
X470883Y23927D01*
X470911Y23842D01*
X470936Y23757D01*
X470958Y23670D01*
X470975Y23582D01*
X470988Y23494D01*
X470998Y23405D01*
X471004Y23316D01*
X471006Y23227D01*
X471004Y23138D01*
X470998Y23049D01*
X470988Y22960D01*
X470975Y22872D01*
X470958Y22784D01*
X470936Y22697D01*
X470911Y22612D01*
X470883Y22527D01*
X470850Y22444D01*
X470814Y22362D01*
X470775Y22282D01*
X470732Y22204D01*
X470686Y22128D01*
X470636Y22053D01*
X470583Y21981D01*
X470527Y21912D01*
X470468Y21845D01*
X470407Y21780D01*
X470342Y21719D01*
X470275Y21660D01*
X470206Y21604D01*
X470134Y21551D01*
X470059Y21501D01*
X469983Y21455D01*
X469905Y21412D01*
X469825Y21373D01*
X469743Y21337D01*
X469660Y21304D01*
X469575Y21276D01*
X469490Y21251D01*
X469403Y21229D01*
X469315Y21212D01*
X469227Y21199D01*
X469138Y21189D01*
X469049Y21183D01*
X468960Y21181D01*
X466914Y21181D01*
X469370Y21181D02*
X471006Y17907D01*
X474178Y23636D02*
X476224Y25273D01*
X476224Y17907D01*
X474178Y17907D02*
X478271Y17907D01*
X481494Y24455D02*
X481494Y25273D01*
X485586Y25273D01*
X483540Y17907D01*
D10*
X464185Y30480D02*
X437515Y30480D01*
X437515Y43180D01*
X464185Y43180D01*
X464185Y30480D01*
D11*
X466914Y33147D02*
X466914Y40513D01*
X468960Y40513D01*
X469049Y40511D01*
X469138Y40505D01*
X469227Y40495D01*
X469315Y40482D01*
X469403Y40465D01*
X469490Y40443D01*
X469575Y40418D01*
X469660Y40390D01*
X469743Y40357D01*
X469825Y40321D01*
X469905Y40282D01*
X469983Y40239D01*
X470059Y40193D01*
X470134Y40143D01*
X470206Y40090D01*
X470275Y40034D01*
X470342Y39975D01*
X470407Y39914D01*
X470468Y39849D01*
X470527Y39782D01*
X470583Y39713D01*
X470636Y39641D01*
X470686Y39566D01*
X470732Y39490D01*
X470775Y39412D01*
X470814Y39332D01*
X470850Y39250D01*
X470883Y39167D01*
X470911Y39082D01*
X470936Y38997D01*
X470958Y38910D01*
X470975Y38822D01*
X470988Y38734D01*
X470998Y38645D01*
X471004Y38556D01*
X471006Y38467D01*
X471004Y38378D01*
X470998Y38289D01*
X470988Y38200D01*
X470975Y38112D01*
X470958Y38024D01*
X470936Y37937D01*
X470911Y37852D01*
X470883Y37767D01*
X470850Y37684D01*
X470814Y37602D01*
X470775Y37522D01*
X470732Y37444D01*
X470686Y37368D01*
X470636Y37293D01*
X470583Y37221D01*
X470527Y37152D01*
X470468Y37085D01*
X470407Y37020D01*
X470342Y36959D01*
X470275Y36900D01*
X470206Y36844D01*
X470134Y36791D01*
X470059Y36741D01*
X469983Y36695D01*
X469905Y36652D01*
X469825Y36613D01*
X469743Y36577D01*
X469660Y36544D01*
X469575Y36516D01*
X469490Y36491D01*
X469403Y36469D01*
X469315Y36452D01*
X469227Y36439D01*
X469138Y36429D01*
X469049Y36423D01*
X468960Y36421D01*
X466914Y36421D01*
X469370Y36421D02*
X471006Y33147D01*
X474178Y38876D02*
X476224Y40513D01*
X476224Y33147D01*
X474178Y33147D02*
X478271Y33147D01*
X481494Y35193D02*
X481496Y35282D01*
X481502Y35371D01*
X481512Y35460D01*
X481525Y35548D01*
X481542Y35636D01*
X481564Y35723D01*
X481589Y35808D01*
X481617Y35893D01*
X481650Y35976D01*
X481686Y36058D01*
X481725Y36138D01*
X481768Y36216D01*
X481814Y36292D01*
X481864Y36367D01*
X481917Y36439D01*
X481973Y36508D01*
X482032Y36575D01*
X482093Y36640D01*
X482158Y36701D01*
X482225Y36760D01*
X482294Y36816D01*
X482366Y36869D01*
X482441Y36919D01*
X482517Y36965D01*
X482595Y37008D01*
X482675Y37047D01*
X482757Y37083D01*
X482840Y37116D01*
X482925Y37144D01*
X483010Y37169D01*
X483097Y37191D01*
X483185Y37208D01*
X483273Y37221D01*
X483362Y37231D01*
X483451Y37237D01*
X483540Y37239D01*
X483629Y37237D01*
X483718Y37231D01*
X483807Y37221D01*
X483895Y37208D01*
X483983Y37191D01*
X484070Y37169D01*
X484155Y37144D01*
X484240Y37116D01*
X484323Y37083D01*
X484405Y37047D01*
X484485Y37008D01*
X484563Y36965D01*
X484639Y36919D01*
X484714Y36869D01*
X484786Y36816D01*
X484855Y36760D01*
X484922Y36701D01*
X484987Y36640D01*
X485048Y36575D01*
X485107Y36508D01*
X485163Y36439D01*
X485216Y36367D01*
X485266Y36292D01*
X485312Y36216D01*
X485355Y36138D01*
X485394Y36058D01*
X485430Y35976D01*
X485463Y35893D01*
X485491Y35808D01*
X485516Y35723D01*
X485538Y35636D01*
X485555Y35548D01*
X485568Y35460D01*
X485578Y35371D01*
X485584Y35282D01*
X485586Y35193D01*
X485584Y35104D01*
X485578Y35015D01*
X485568Y34926D01*
X485555Y34838D01*
X485538Y34750D01*
X485516Y34663D01*
X485491Y34578D01*
X485463Y34493D01*
X485430Y34410D01*
X485394Y34328D01*
X485355Y34248D01*
X485312Y34170D01*
X485266Y34094D01*
X485216Y34019D01*
X485163Y33947D01*
X485107Y33878D01*
X485048Y33811D01*
X484987Y33746D01*
X484922Y33685D01*
X484855Y33626D01*
X484786Y33570D01*
X484714Y33517D01*
X484639Y33467D01*
X484563Y33421D01*
X484485Y33378D01*
X484405Y33339D01*
X484323Y33303D01*
X484240Y33270D01*
X484155Y33242D01*
X484070Y33217D01*
X483983Y33195D01*
X483895Y33178D01*
X483807Y33165D01*
X483718Y33155D01*
X483629Y33149D01*
X483540Y33147D01*
X483451Y33149D01*
X483362Y33155D01*
X483273Y33165D01*
X483185Y33178D01*
X483097Y33195D01*
X483010Y33217D01*
X482925Y33242D01*
X482840Y33270D01*
X482757Y33303D01*
X482675Y33339D01*
X482595Y33378D01*
X482517Y33421D01*
X482441Y33467D01*
X482366Y33517D01*
X482294Y33570D01*
X482225Y33626D01*
X482158Y33685D01*
X482093Y33746D01*
X482032Y33811D01*
X481973Y33878D01*
X481917Y33947D01*
X481864Y34019D01*
X481814Y34094D01*
X481768Y34170D01*
X481725Y34248D01*
X481686Y34328D01*
X481650Y34410D01*
X481617Y34493D01*
X481589Y34578D01*
X481564Y34663D01*
X481542Y34750D01*
X481525Y34838D01*
X481512Y34926D01*
X481502Y35015D01*
X481496Y35104D01*
X481494Y35193D01*
X481903Y38876D02*
X481905Y38955D01*
X481911Y39034D01*
X481920Y39113D01*
X481933Y39191D01*
X481951Y39268D01*
X481971Y39344D01*
X481996Y39419D01*
X482024Y39493D01*
X482055Y39566D01*
X482091Y39637D01*
X482129Y39706D01*
X482171Y39773D01*
X482216Y39838D01*
X482264Y39901D01*
X482315Y39962D01*
X482369Y40019D01*
X482425Y40075D01*
X482484Y40127D01*
X482546Y40177D01*
X482610Y40223D01*
X482676Y40267D01*
X482744Y40307D01*
X482814Y40343D01*
X482886Y40377D01*
X482960Y40407D01*
X483034Y40433D01*
X483110Y40456D01*
X483187Y40474D01*
X483264Y40490D01*
X483343Y40501D01*
X483421Y40509D01*
X483500Y40513D01*
X483580Y40513D01*
X483659Y40509D01*
X483737Y40501D01*
X483816Y40490D01*
X483893Y40474D01*
X483970Y40456D01*
X484046Y40433D01*
X484120Y40407D01*
X484194Y40377D01*
X484266Y40343D01*
X484336Y40307D01*
X484404Y40267D01*
X484470Y40223D01*
X484534Y40177D01*
X484596Y40127D01*
X484655Y40075D01*
X484711Y40019D01*
X484765Y39962D01*
X484816Y39901D01*
X484864Y39838D01*
X484909Y39773D01*
X484951Y39706D01*
X484989Y39637D01*
X485025Y39566D01*
X485056Y39493D01*
X485084Y39419D01*
X485109Y39344D01*
X485129Y39268D01*
X485147Y39191D01*
X485160Y39113D01*
X485169Y39034D01*
X485175Y38955D01*
X485177Y38876D01*
X485175Y38797D01*
X485169Y38718D01*
X485160Y38639D01*
X485147Y38561D01*
X485129Y38484D01*
X485109Y38408D01*
X485084Y38333D01*
X485056Y38259D01*
X485025Y38186D01*
X484989Y38115D01*
X484951Y38046D01*
X484909Y37979D01*
X484864Y37914D01*
X484816Y37851D01*
X484765Y37790D01*
X484711Y37733D01*
X484655Y37677D01*
X484596Y37625D01*
X484534Y37575D01*
X484470Y37529D01*
X484404Y37485D01*
X484336Y37445D01*
X484266Y37409D01*
X484194Y37375D01*
X484120Y37345D01*
X484046Y37319D01*
X483970Y37296D01*
X483893Y37278D01*
X483816Y37262D01*
X483737Y37251D01*
X483659Y37243D01*
X483580Y37239D01*
X483500Y37239D01*
X483421Y37243D01*
X483343Y37251D01*
X483264Y37262D01*
X483187Y37278D01*
X483110Y37296D01*
X483034Y37319D01*
X482960Y37345D01*
X482886Y37375D01*
X482814Y37409D01*
X482744Y37445D01*
X482676Y37485D01*
X482610Y37529D01*
X482546Y37575D01*
X482484Y37625D01*
X482425Y37677D01*
X482369Y37733D01*
X482315Y37790D01*
X482264Y37851D01*
X482216Y37914D01*
X482171Y37979D01*
X482129Y38046D01*
X482091Y38115D01*
X482055Y38186D01*
X482024Y38259D01*
X481996Y38333D01*
X481971Y38408D01*
X481951Y38484D01*
X481933Y38561D01*
X481920Y38639D01*
X481911Y38718D01*
X481905Y38797D01*
X481903Y38876D01*
D10*
X434340Y46355D02*
X434340Y83185D01*
X467360Y83185D01*
X467360Y46355D01*
X434340Y46355D01*
D11*
X445256Y87263D02*
X445256Y90537D01*
X445258Y90626D01*
X445264Y90715D01*
X445274Y90804D01*
X445287Y90892D01*
X445304Y90980D01*
X445326Y91067D01*
X445351Y91152D01*
X445379Y91237D01*
X445412Y91320D01*
X445448Y91402D01*
X445487Y91482D01*
X445530Y91560D01*
X445576Y91636D01*
X445626Y91711D01*
X445679Y91783D01*
X445735Y91852D01*
X445794Y91919D01*
X445855Y91984D01*
X445920Y92045D01*
X445987Y92104D01*
X446056Y92160D01*
X446128Y92213D01*
X446203Y92263D01*
X446279Y92309D01*
X446357Y92352D01*
X446437Y92391D01*
X446519Y92427D01*
X446602Y92460D01*
X446687Y92488D01*
X446772Y92513D01*
X446859Y92535D01*
X446947Y92552D01*
X447035Y92565D01*
X447124Y92575D01*
X447213Y92581D01*
X447302Y92583D01*
X447391Y92581D01*
X447480Y92575D01*
X447569Y92565D01*
X447657Y92552D01*
X447745Y92535D01*
X447832Y92513D01*
X447917Y92488D01*
X448002Y92460D01*
X448085Y92427D01*
X448167Y92391D01*
X448247Y92352D01*
X448325Y92309D01*
X448401Y92263D01*
X448476Y92213D01*
X448548Y92160D01*
X448617Y92104D01*
X448684Y92045D01*
X448749Y91984D01*
X448810Y91919D01*
X448869Y91852D01*
X448925Y91783D01*
X448978Y91711D01*
X449028Y91636D01*
X449074Y91560D01*
X449117Y91482D01*
X449156Y91402D01*
X449192Y91320D01*
X449225Y91237D01*
X449253Y91152D01*
X449278Y91067D01*
X449300Y90980D01*
X449317Y90892D01*
X449330Y90804D01*
X449340Y90715D01*
X449346Y90626D01*
X449348Y90537D01*
X449348Y87263D01*
X449346Y87174D01*
X449340Y87085D01*
X449330Y86996D01*
X449317Y86908D01*
X449300Y86820D01*
X449278Y86733D01*
X449253Y86648D01*
X449225Y86563D01*
X449192Y86480D01*
X449156Y86398D01*
X449117Y86318D01*
X449074Y86240D01*
X449028Y86164D01*
X448978Y86089D01*
X448925Y86017D01*
X448869Y85948D01*
X448810Y85881D01*
X448749Y85816D01*
X448684Y85755D01*
X448617Y85696D01*
X448548Y85640D01*
X448476Y85587D01*
X448401Y85537D01*
X448325Y85491D01*
X448247Y85448D01*
X448167Y85409D01*
X448085Y85373D01*
X448002Y85340D01*
X447917Y85312D01*
X447832Y85287D01*
X447745Y85265D01*
X447657Y85248D01*
X447569Y85235D01*
X447480Y85225D01*
X447391Y85219D01*
X447302Y85217D01*
X447213Y85219D01*
X447124Y85225D01*
X447035Y85235D01*
X446947Y85248D01*
X446859Y85265D01*
X446772Y85287D01*
X446687Y85312D01*
X446602Y85340D01*
X446519Y85373D01*
X446437Y85409D01*
X446357Y85448D01*
X446279Y85491D01*
X446203Y85537D01*
X446128Y85587D01*
X446056Y85640D01*
X445987Y85696D01*
X445920Y85755D01*
X445855Y85816D01*
X445794Y85881D01*
X445735Y85948D01*
X445679Y86017D01*
X445626Y86089D01*
X445576Y86164D01*
X445530Y86240D01*
X445487Y86318D01*
X445448Y86398D01*
X445412Y86480D01*
X445379Y86563D01*
X445351Y86648D01*
X445326Y86733D01*
X445304Y86820D01*
X445287Y86908D01*
X445274Y86996D01*
X445264Y87085D01*
X445258Y87174D01*
X445256Y87263D01*
X448530Y86854D02*
X450167Y85217D01*
X456444Y90742D02*
X456442Y90827D01*
X456436Y90912D01*
X456426Y90996D01*
X456413Y91080D01*
X456395Y91164D01*
X456374Y91246D01*
X456349Y91327D01*
X456320Y91407D01*
X456287Y91486D01*
X456251Y91563D01*
X456211Y91638D01*
X456168Y91712D01*
X456122Y91783D01*
X456072Y91852D01*
X456019Y91919D01*
X455963Y91983D01*
X455904Y92044D01*
X455843Y92103D01*
X455779Y92159D01*
X455712Y92212D01*
X455643Y92262D01*
X455572Y92308D01*
X455498Y92351D01*
X455423Y92391D01*
X455346Y92427D01*
X455267Y92460D01*
X455187Y92489D01*
X455106Y92514D01*
X455024Y92535D01*
X454940Y92553D01*
X454856Y92566D01*
X454772Y92576D01*
X454687Y92582D01*
X454602Y92584D01*
X454602Y92583D02*
X454506Y92581D01*
X454410Y92575D01*
X454315Y92565D01*
X454220Y92552D01*
X454125Y92534D01*
X454032Y92513D01*
X453939Y92488D01*
X453848Y92459D01*
X453757Y92427D01*
X453668Y92391D01*
X453581Y92351D01*
X453495Y92308D01*
X453411Y92262D01*
X453329Y92212D01*
X453249Y92158D01*
X453172Y92102D01*
X453097Y92042D01*
X453024Y91980D01*
X452954Y91914D01*
X452886Y91846D01*
X452821Y91775D01*
X452760Y91702D01*
X452701Y91626D01*
X452645Y91547D01*
X452593Y91467D01*
X452544Y91384D01*
X452498Y91300D01*
X452456Y91214D01*
X452418Y91126D01*
X452383Y91037D01*
X452351Y90946D01*
X455830Y89310D02*
X455890Y89369D01*
X455947Y89431D01*
X456002Y89495D01*
X456053Y89562D01*
X456102Y89631D01*
X456148Y89701D01*
X456191Y89774D01*
X456231Y89848D01*
X456267Y89924D01*
X456300Y90002D01*
X456330Y90081D01*
X456357Y90161D01*
X456380Y90242D01*
X456399Y90324D01*
X456415Y90406D01*
X456428Y90490D01*
X456437Y90574D01*
X456442Y90658D01*
X456444Y90742D01*
X455830Y89309D02*
X452352Y85217D01*
X456444Y85217D01*
D10*
X411480Y44450D02*
X411480Y33655D01*
X411480Y44450D02*
X411480Y83185D01*
X431800Y83185D01*
X431800Y44450D01*
X431800Y33655D01*
X411480Y33655D01*
X415290Y34290D02*
X415290Y44450D01*
X411480Y44450D01*
X427990Y44450D02*
X427990Y34290D01*
X427990Y44450D02*
X431800Y44450D01*
D11*
X415429Y85122D02*
X415429Y92488D01*
X417475Y92488D01*
X417564Y92486D01*
X417653Y92480D01*
X417742Y92470D01*
X417830Y92457D01*
X417918Y92440D01*
X418005Y92418D01*
X418090Y92393D01*
X418175Y92365D01*
X418258Y92332D01*
X418340Y92296D01*
X418420Y92257D01*
X418498Y92214D01*
X418574Y92168D01*
X418649Y92118D01*
X418721Y92065D01*
X418790Y92009D01*
X418857Y91950D01*
X418922Y91889D01*
X418983Y91824D01*
X419042Y91757D01*
X419098Y91688D01*
X419151Y91616D01*
X419201Y91541D01*
X419247Y91465D01*
X419290Y91387D01*
X419329Y91307D01*
X419365Y91225D01*
X419398Y91142D01*
X419426Y91057D01*
X419451Y90972D01*
X419473Y90885D01*
X419490Y90797D01*
X419503Y90709D01*
X419513Y90620D01*
X419519Y90531D01*
X419521Y90442D01*
X419522Y90442D02*
X419522Y87168D01*
X419520Y87079D01*
X419514Y86990D01*
X419504Y86901D01*
X419491Y86813D01*
X419474Y86725D01*
X419452Y86638D01*
X419427Y86553D01*
X419399Y86468D01*
X419366Y86385D01*
X419330Y86303D01*
X419291Y86223D01*
X419248Y86145D01*
X419202Y86069D01*
X419152Y85994D01*
X419099Y85922D01*
X419043Y85853D01*
X418984Y85786D01*
X418923Y85721D01*
X418858Y85660D01*
X418791Y85601D01*
X418722Y85545D01*
X418650Y85492D01*
X418575Y85442D01*
X418499Y85396D01*
X418421Y85353D01*
X418341Y85314D01*
X418259Y85278D01*
X418176Y85245D01*
X418091Y85217D01*
X418006Y85192D01*
X417919Y85170D01*
X417831Y85153D01*
X417743Y85140D01*
X417654Y85130D01*
X417565Y85124D01*
X417476Y85122D01*
X417475Y85122D02*
X415429Y85122D01*
X425239Y92489D02*
X425324Y92487D01*
X425409Y92481D01*
X425493Y92471D01*
X425577Y92458D01*
X425661Y92440D01*
X425743Y92419D01*
X425824Y92394D01*
X425904Y92365D01*
X425983Y92332D01*
X426060Y92296D01*
X426135Y92256D01*
X426209Y92213D01*
X426280Y92167D01*
X426349Y92117D01*
X426416Y92064D01*
X426480Y92008D01*
X426541Y91949D01*
X426600Y91888D01*
X426656Y91824D01*
X426709Y91757D01*
X426759Y91688D01*
X426805Y91617D01*
X426848Y91543D01*
X426888Y91468D01*
X426924Y91391D01*
X426957Y91312D01*
X426986Y91232D01*
X427011Y91151D01*
X427032Y91069D01*
X427050Y90985D01*
X427063Y90901D01*
X427073Y90817D01*
X427079Y90732D01*
X427081Y90647D01*
X425239Y92488D02*
X425143Y92486D01*
X425047Y92480D01*
X424952Y92470D01*
X424857Y92457D01*
X424762Y92439D01*
X424669Y92418D01*
X424576Y92393D01*
X424485Y92364D01*
X424394Y92332D01*
X424305Y92296D01*
X424218Y92256D01*
X424132Y92213D01*
X424048Y92167D01*
X423966Y92117D01*
X423886Y92063D01*
X423809Y92007D01*
X423734Y91947D01*
X423661Y91885D01*
X423591Y91819D01*
X423523Y91751D01*
X423458Y91680D01*
X423397Y91607D01*
X423338Y91531D01*
X423282Y91452D01*
X423230Y91372D01*
X423181Y91289D01*
X423135Y91205D01*
X423093Y91119D01*
X423055Y91031D01*
X423020Y90942D01*
X422988Y90851D01*
X426467Y89215D02*
X426527Y89274D01*
X426584Y89336D01*
X426639Y89400D01*
X426690Y89467D01*
X426739Y89536D01*
X426785Y89606D01*
X426828Y89679D01*
X426868Y89753D01*
X426904Y89829D01*
X426937Y89907D01*
X426967Y89986D01*
X426994Y90066D01*
X427017Y90147D01*
X427036Y90229D01*
X427052Y90311D01*
X427065Y90395D01*
X427074Y90479D01*
X427079Y90563D01*
X427081Y90647D01*
X426467Y89214D02*
X422988Y85122D01*
X427081Y85122D01*
D10*
X482600Y83185D02*
X482600Y56515D01*
X469900Y56515D01*
X469900Y83185D01*
X482600Y83185D01*
D11*
X479933Y85914D02*
X472567Y85914D01*
X472567Y87960D01*
X472569Y88049D01*
X472575Y88138D01*
X472585Y88227D01*
X472598Y88315D01*
X472615Y88403D01*
X472637Y88490D01*
X472662Y88575D01*
X472690Y88660D01*
X472723Y88743D01*
X472759Y88825D01*
X472798Y88905D01*
X472841Y88983D01*
X472887Y89059D01*
X472937Y89134D01*
X472990Y89206D01*
X473046Y89275D01*
X473105Y89342D01*
X473166Y89407D01*
X473231Y89468D01*
X473298Y89527D01*
X473367Y89583D01*
X473439Y89636D01*
X473514Y89686D01*
X473590Y89732D01*
X473668Y89775D01*
X473748Y89814D01*
X473830Y89850D01*
X473913Y89883D01*
X473998Y89911D01*
X474083Y89936D01*
X474170Y89958D01*
X474258Y89975D01*
X474346Y89988D01*
X474435Y89998D01*
X474524Y90004D01*
X474613Y90006D01*
X474702Y90004D01*
X474791Y89998D01*
X474880Y89988D01*
X474968Y89975D01*
X475056Y89958D01*
X475143Y89936D01*
X475228Y89911D01*
X475313Y89883D01*
X475396Y89850D01*
X475478Y89814D01*
X475558Y89775D01*
X475636Y89732D01*
X475712Y89686D01*
X475787Y89636D01*
X475859Y89583D01*
X475928Y89527D01*
X475995Y89468D01*
X476060Y89407D01*
X476121Y89342D01*
X476180Y89275D01*
X476236Y89206D01*
X476289Y89134D01*
X476339Y89059D01*
X476385Y88983D01*
X476428Y88905D01*
X476467Y88825D01*
X476503Y88743D01*
X476536Y88660D01*
X476564Y88575D01*
X476589Y88490D01*
X476611Y88403D01*
X476628Y88315D01*
X476641Y88227D01*
X476651Y88138D01*
X476657Y88049D01*
X476659Y87960D01*
X476659Y85914D01*
X476659Y88370D02*
X479933Y90006D01*
X474204Y93178D02*
X472567Y95224D01*
X479933Y95224D01*
X479933Y93178D02*
X479933Y97271D01*
X476659Y102130D02*
X476659Y104586D01*
X476659Y102130D02*
X476657Y102052D01*
X476652Y101974D01*
X476642Y101897D01*
X476629Y101820D01*
X476613Y101744D01*
X476593Y101669D01*
X476569Y101595D01*
X476542Y101522D01*
X476511Y101450D01*
X476477Y101380D01*
X476440Y101312D01*
X476399Y101245D01*
X476355Y101180D01*
X476309Y101118D01*
X476259Y101058D01*
X476207Y101000D01*
X476152Y100945D01*
X476094Y100893D01*
X476034Y100843D01*
X475972Y100797D01*
X475907Y100753D01*
X475841Y100712D01*
X475772Y100675D01*
X475702Y100641D01*
X475630Y100610D01*
X475557Y100583D01*
X475483Y100559D01*
X475408Y100539D01*
X475332Y100523D01*
X475255Y100510D01*
X475178Y100500D01*
X475100Y100495D01*
X475022Y100493D01*
X475022Y100494D02*
X474613Y100494D01*
X474524Y100496D01*
X474435Y100502D01*
X474346Y100512D01*
X474258Y100525D01*
X474170Y100542D01*
X474083Y100564D01*
X473998Y100589D01*
X473913Y100617D01*
X473830Y100650D01*
X473748Y100686D01*
X473668Y100725D01*
X473590Y100768D01*
X473514Y100814D01*
X473439Y100864D01*
X473367Y100917D01*
X473298Y100973D01*
X473231Y101032D01*
X473166Y101093D01*
X473105Y101158D01*
X473046Y101225D01*
X472990Y101294D01*
X472937Y101366D01*
X472887Y101441D01*
X472841Y101517D01*
X472798Y101595D01*
X472759Y101675D01*
X472723Y101757D01*
X472690Y101840D01*
X472662Y101925D01*
X472637Y102010D01*
X472615Y102097D01*
X472598Y102185D01*
X472585Y102273D01*
X472575Y102362D01*
X472569Y102451D01*
X472567Y102540D01*
X472569Y102629D01*
X472575Y102718D01*
X472585Y102807D01*
X472598Y102895D01*
X472615Y102983D01*
X472637Y103070D01*
X472662Y103155D01*
X472690Y103240D01*
X472723Y103323D01*
X472759Y103405D01*
X472798Y103485D01*
X472841Y103563D01*
X472887Y103639D01*
X472937Y103714D01*
X472990Y103786D01*
X473046Y103855D01*
X473105Y103922D01*
X473166Y103987D01*
X473231Y104048D01*
X473298Y104107D01*
X473367Y104163D01*
X473439Y104216D01*
X473514Y104266D01*
X473590Y104312D01*
X473668Y104355D01*
X473748Y104394D01*
X473830Y104430D01*
X473913Y104463D01*
X473998Y104491D01*
X474083Y104516D01*
X474170Y104538D01*
X474258Y104555D01*
X474346Y104568D01*
X474435Y104578D01*
X474524Y104584D01*
X474613Y104586D01*
X476659Y104586D01*
X476771Y104584D01*
X476882Y104578D01*
X476994Y104569D01*
X477105Y104556D01*
X477215Y104538D01*
X477325Y104518D01*
X477434Y104493D01*
X477542Y104465D01*
X477649Y104433D01*
X477755Y104397D01*
X477860Y104358D01*
X477963Y104315D01*
X478065Y104269D01*
X478165Y104219D01*
X478264Y104166D01*
X478360Y104109D01*
X478455Y104050D01*
X478547Y103987D01*
X478637Y103921D01*
X478725Y103852D01*
X478811Y103780D01*
X478894Y103705D01*
X478974Y103627D01*
X479052Y103547D01*
X479127Y103464D01*
X479199Y103378D01*
X479268Y103290D01*
X479334Y103200D01*
X479397Y103108D01*
X479456Y103013D01*
X479513Y102917D01*
X479566Y102818D01*
X479616Y102718D01*
X479662Y102616D01*
X479705Y102513D01*
X479744Y102408D01*
X479780Y102302D01*
X479812Y102195D01*
X479840Y102087D01*
X479865Y101978D01*
X479885Y101868D01*
X479903Y101758D01*
X479916Y101647D01*
X479925Y101535D01*
X479931Y101424D01*
X479933Y101312D01*
D12*
X0Y78740D02*
X77Y76969D01*
X309Y75211D01*
X692Y73481D01*
X1225Y71790D01*
X1904Y70152D01*
X2722Y68580D01*
X3675Y67085D01*
X4754Y65679D01*
X5952Y64372D01*
X7259Y63174D01*
X8665Y62095D01*
X10160Y61142D01*
X11732Y60324D01*
X13370Y59645D01*
X15061Y59112D01*
X16791Y58729D01*
X18549Y58497D01*
X20320Y58420D01*
X27940Y58420D01*
X30597Y58304D01*
X33233Y57957D01*
X35829Y57381D01*
X38365Y56582D01*
X40821Y55564D01*
X43180Y54336D01*
X45423Y52908D01*
X47532Y51289D01*
X49493Y49493D01*
X51289Y47532D01*
X52908Y45423D01*
X54336Y43180D01*
X55564Y40821D01*
X56582Y38365D01*
X57381Y35829D01*
X57957Y33233D01*
X58304Y30597D01*
X58420Y27940D01*
X58420Y20320D01*
X58497Y18549D01*
X58729Y16791D01*
X59112Y15061D01*
X59645Y13370D01*
X60324Y11732D01*
X61142Y10160D01*
X62095Y8665D01*
X63174Y7259D01*
X64372Y5952D01*
X65679Y4754D01*
X67085Y3675D01*
X68580Y2722D01*
X70152Y1904D01*
X71790Y1225D01*
X73481Y692D01*
X75211Y309D01*
X76969Y77D01*
X78740Y0D01*
X599440Y0D01*
X601211Y77D01*
X602969Y309D01*
X604699Y692D01*
X606390Y1225D01*
X608028Y1904D01*
X609600Y2722D01*
X611095Y3675D01*
X612501Y4754D01*
X613808Y5952D01*
X615006Y7259D01*
X616085Y8665D01*
X617038Y10160D01*
X617856Y11732D01*
X618535Y13370D01*
X619068Y15061D01*
X619451Y16791D01*
X619683Y18549D01*
X619760Y20320D01*
X619760Y27940D01*
X619876Y30597D01*
X620223Y33233D01*
X620799Y35829D01*
X621598Y38365D01*
X622616Y40821D01*
X623844Y43180D01*
X625272Y45423D01*
X626891Y47532D01*
X628687Y49493D01*
X630648Y51289D01*
X632757Y52908D01*
X635000Y54336D01*
X637359Y55564D01*
X639815Y56582D01*
X642351Y57381D01*
X644947Y57957D01*
X647584Y58304D01*
X650240Y58420D01*
X657860Y58420D01*
X659631Y58497D01*
X661389Y58729D01*
X663119Y59112D01*
X664810Y59645D01*
X666448Y60324D01*
X668020Y61142D01*
X669515Y62095D01*
X670921Y63174D01*
X672228Y64372D01*
X673426Y65679D01*
X674505Y67085D01*
X675458Y68580D01*
X676276Y70152D01*
X676955Y71790D01*
X677488Y73481D01*
X677871Y75211D01*
X678103Y76969D01*
X678180Y78740D01*
X678180Y538480D01*
X678103Y540251D01*
X677871Y542009D01*
X677488Y543739D01*
X676955Y545430D01*
X676276Y547068D01*
X675458Y548640D01*
X674505Y550135D01*
X673426Y551541D01*
X672228Y552848D01*
X670921Y554046D01*
X669515Y555125D01*
X668020Y556078D01*
X666448Y556896D01*
X664810Y557575D01*
X663119Y558108D01*
X661389Y558491D01*
X659631Y558723D01*
X657860Y558800D01*
X650240Y558800D01*
X647584Y558916D01*
X644947Y559263D01*
X642351Y559839D01*
X639815Y560638D01*
X637359Y561656D01*
X635000Y562884D01*
X632757Y564312D01*
X630648Y565931D01*
X628687Y567727D01*
X626891Y569688D01*
X625272Y571797D01*
X623844Y574040D01*
X622616Y576399D01*
X621598Y578855D01*
X620799Y581391D01*
X620223Y583987D01*
X619876Y586624D01*
X619760Y589280D01*
X619760Y596900D01*
X619683Y598671D01*
X619451Y600429D01*
X619068Y602159D01*
X618535Y603850D01*
X617856Y605488D01*
X617038Y607060D01*
X616085Y608555D01*
X615006Y609961D01*
X613808Y611268D01*
X612501Y612466D01*
X611095Y613545D01*
X609600Y614498D01*
X608028Y615316D01*
X606390Y615995D01*
X604699Y616528D01*
X602969Y616911D01*
X601211Y617143D01*
X599440Y617220D01*
X78740Y617220D01*
X76969Y617143D01*
X75211Y616911D01*
X73481Y616528D01*
X71790Y615995D01*
X70152Y615316D01*
X68580Y614498D01*
X67085Y613545D01*
X65679Y612466D01*
X64372Y611268D01*
X63174Y609961D01*
X62095Y608555D01*
X61142Y607060D01*
X60324Y605488D01*
X59645Y603850D01*
X59112Y602159D01*
X58729Y600429D01*
X58497Y598671D01*
X58420Y596900D01*
X58420Y589280D01*
X58304Y586624D01*
X57957Y583987D01*
X57381Y581391D01*
X56582Y578855D01*
X55564Y576399D01*
X54336Y574040D01*
X52908Y571797D01*
X51289Y569688D01*
X49493Y567727D01*
X47532Y565931D01*
X45423Y564312D01*
X43180Y562884D01*
X40821Y561656D01*
X38365Y560638D01*
X35829Y559839D01*
X33233Y559263D01*
X30597Y558916D01*
X27940Y558800D01*
X20320Y558800D01*
X18549Y558723D01*
X16791Y558491D01*
X15061Y558108D01*
X13370Y557575D01*
X11732Y556896D01*
X10160Y556078D01*
X8665Y555125D01*
X7259Y554046D01*
X5952Y552848D01*
X4754Y551541D01*
X3675Y550135D01*
X2722Y548640D01*
X1904Y547068D01*
X1225Y545430D01*
X692Y543739D01*
X309Y542009D01*
X77Y540251D01*
X0Y538480D01*
X0Y78740D01*
X132080Y532818D02*
X132004Y531656D01*
X131852Y530502D01*
X131625Y529360D01*
X131324Y528236D01*
X130949Y527134D01*
X130504Y526058D01*
X129989Y525014D01*
X129407Y524006D01*
X128760Y523038D01*
X128052Y522114D01*
X127284Y521239D01*
X126461Y520416D01*
X125586Y519649D01*
X124662Y518940D01*
X123694Y518293D01*
X122686Y517711D01*
X121642Y517196D01*
X120566Y516751D01*
X119464Y516377D01*
X118340Y516075D01*
X117198Y515848D01*
X116044Y515696D01*
X114882Y515620D01*
X113718Y515620D01*
X112556Y515696D01*
X111402Y515848D01*
X110260Y516075D01*
X109136Y516377D01*
X108034Y516751D01*
X106958Y517196D01*
X105914Y517711D01*
X104906Y518293D01*
X103938Y518940D01*
X103014Y519649D01*
X102139Y520416D01*
X101316Y521239D01*
X100549Y522114D01*
X99840Y523038D01*
X99193Y524006D01*
X98611Y525014D01*
X98096Y526058D01*
X97651Y527134D01*
X97277Y528236D01*
X96975Y529360D01*
X96748Y530502D01*
X96596Y531656D01*
X96520Y532818D01*
X96520Y533982D01*
X96596Y535144D01*
X96748Y536298D01*
X96975Y537440D01*
X97277Y538564D01*
X97651Y539666D01*
X98096Y540742D01*
X98611Y541786D01*
X99193Y542794D01*
X99840Y543762D01*
X100549Y544686D01*
X101316Y545561D01*
X102139Y546384D01*
X103014Y547152D01*
X103938Y547860D01*
X104906Y548507D01*
X105914Y549089D01*
X106958Y549604D01*
X108034Y550049D01*
X109136Y550424D01*
X110260Y550725D01*
X111402Y550952D01*
X112556Y551104D01*
X113718Y551180D01*
X114882Y551180D01*
X116044Y551104D01*
X117198Y550952D01*
X118340Y550725D01*
X119464Y550424D01*
X120566Y550049D01*
X121642Y549604D01*
X122686Y549089D01*
X123694Y548507D01*
X124662Y547860D01*
X125586Y547152D01*
X126461Y546384D01*
X127284Y545561D01*
X128052Y544686D01*
X128760Y543762D01*
X129407Y542794D01*
X129989Y541786D01*
X130504Y540742D01*
X130949Y539666D01*
X131324Y538564D01*
X131625Y537440D01*
X131852Y536298D01*
X132004Y535144D01*
X132080Y533982D01*
X132080Y532818D01*
X581660Y532818D02*
X581584Y531656D01*
X581432Y530502D01*
X581205Y529360D01*
X580904Y528236D01*
X580529Y527134D01*
X580084Y526058D01*
X579569Y525014D01*
X578987Y524006D01*
X578340Y523038D01*
X577632Y522114D01*
X576864Y521239D01*
X576041Y520416D01*
X575166Y519649D01*
X574242Y518940D01*
X573274Y518293D01*
X572266Y517711D01*
X571222Y517196D01*
X570146Y516751D01*
X569044Y516377D01*
X567920Y516075D01*
X566778Y515848D01*
X565624Y515696D01*
X564462Y515620D01*
X563298Y515620D01*
X562136Y515696D01*
X560982Y515848D01*
X559840Y516075D01*
X558716Y516377D01*
X557614Y516751D01*
X556538Y517196D01*
X555494Y517711D01*
X554486Y518293D01*
X553518Y518940D01*
X552594Y519649D01*
X551719Y520416D01*
X550896Y521239D01*
X550129Y522114D01*
X549420Y523038D01*
X548773Y524006D01*
X548191Y525014D01*
X547676Y526058D01*
X547231Y527134D01*
X546857Y528236D01*
X546555Y529360D01*
X546328Y530502D01*
X546176Y531656D01*
X546100Y532818D01*
X546100Y533982D01*
X546176Y535144D01*
X546328Y536298D01*
X546555Y537440D01*
X546857Y538564D01*
X547231Y539666D01*
X547676Y540742D01*
X548191Y541786D01*
X548773Y542794D01*
X549420Y543762D01*
X550129Y544686D01*
X550896Y545561D01*
X551719Y546384D01*
X552594Y547152D01*
X553518Y547860D01*
X554486Y548507D01*
X555494Y549089D01*
X556538Y549604D01*
X557614Y550049D01*
X558716Y550424D01*
X559840Y550725D01*
X560982Y550952D01*
X562136Y551104D01*
X563298Y551180D01*
X564462Y551180D01*
X565624Y551104D01*
X566778Y550952D01*
X567920Y550725D01*
X569044Y550424D01*
X570146Y550049D01*
X571222Y549604D01*
X572266Y549089D01*
X573274Y548507D01*
X574242Y547860D01*
X575166Y547152D01*
X576041Y546384D01*
X576864Y545561D01*
X577632Y544686D01*
X578340Y543762D01*
X578987Y542794D01*
X579569Y541786D01*
X580084Y540742D01*
X580529Y539666D01*
X580904Y538564D01*
X581205Y537440D01*
X581432Y536298D01*
X581584Y535144D01*
X581660Y533982D01*
X581660Y532818D01*
X581660Y83238D02*
X581584Y82076D01*
X581432Y80922D01*
X581205Y79780D01*
X580904Y78656D01*
X580529Y77554D01*
X580084Y76478D01*
X579569Y75434D01*
X578987Y74426D01*
X578340Y73458D01*
X577632Y72534D01*
X576864Y71659D01*
X576041Y70836D01*
X575166Y70069D01*
X574242Y69360D01*
X573274Y68713D01*
X572266Y68131D01*
X571222Y67616D01*
X570146Y67171D01*
X569044Y66797D01*
X567920Y66495D01*
X566778Y66268D01*
X565624Y66116D01*
X564462Y66040D01*
X563298Y66040D01*
X562136Y66116D01*
X560982Y66268D01*
X559840Y66495D01*
X558716Y66797D01*
X557614Y67171D01*
X556538Y67616D01*
X555494Y68131D01*
X554486Y68713D01*
X553518Y69360D01*
X552594Y70069D01*
X551719Y70836D01*
X550896Y71659D01*
X550129Y72534D01*
X549420Y73458D01*
X548773Y74426D01*
X548191Y75434D01*
X547676Y76478D01*
X547231Y77554D01*
X546857Y78656D01*
X546555Y79780D01*
X546328Y80922D01*
X546176Y82076D01*
X546100Y83238D01*
X546100Y84402D01*
X546176Y85564D01*
X546328Y86718D01*
X546555Y87860D01*
X546857Y88984D01*
X547231Y90086D01*
X547676Y91162D01*
X548191Y92206D01*
X548773Y93214D01*
X549420Y94182D01*
X550129Y95106D01*
X550896Y95981D01*
X551719Y96804D01*
X552594Y97572D01*
X553518Y98280D01*
X554486Y98927D01*
X555494Y99509D01*
X556538Y100024D01*
X557614Y100469D01*
X558716Y100844D01*
X559840Y101145D01*
X560982Y101372D01*
X562136Y101524D01*
X563298Y101600D01*
X564462Y101600D01*
X565624Y101524D01*
X566778Y101372D01*
X567920Y101145D01*
X569044Y100844D01*
X570146Y100469D01*
X571222Y100024D01*
X572266Y99509D01*
X573274Y98927D01*
X574242Y98280D01*
X575166Y97572D01*
X576041Y96804D01*
X576864Y95981D01*
X577632Y95106D01*
X578340Y94182D01*
X578987Y93214D01*
X579569Y92206D01*
X580084Y91162D01*
X580529Y90086D01*
X580904Y88984D01*
X581205Y87860D01*
X581432Y86718D01*
X581584Y85564D01*
X581660Y84402D01*
X581660Y83238D01*
X132080Y83238D02*
X132004Y82076D01*
X131852Y80922D01*
X131625Y79780D01*
X131324Y78656D01*
X130949Y77554D01*
X130504Y76478D01*
X129989Y75434D01*
X129407Y74426D01*
X128760Y73458D01*
X128052Y72534D01*
X127284Y71659D01*
X126461Y70836D01*
X125586Y70069D01*
X124662Y69360D01*
X123694Y68713D01*
X122686Y68131D01*
X121642Y67616D01*
X120566Y67171D01*
X119464Y66797D01*
X118340Y66495D01*
X117198Y66268D01*
X116044Y66116D01*
X114882Y66040D01*
X113718Y66040D01*
X112556Y66116D01*
X111402Y66268D01*
X110260Y66495D01*
X109136Y66797D01*
X108034Y67171D01*
X106958Y67616D01*
X105914Y68131D01*
X104906Y68713D01*
X103938Y69360D01*
X103014Y70069D01*
X102139Y70836D01*
X101316Y71659D01*
X100549Y72534D01*
X99840Y73458D01*
X99193Y74426D01*
X98611Y75434D01*
X98096Y76478D01*
X97651Y77554D01*
X97277Y78656D01*
X96975Y79780D01*
X96748Y80922D01*
X96596Y82076D01*
X96520Y83238D01*
X96520Y84402D01*
X96596Y85564D01*
X96748Y86718D01*
X96975Y87860D01*
X97277Y88984D01*
X97651Y90086D01*
X98096Y91162D01*
X98611Y92206D01*
X99193Y93214D01*
X99840Y94182D01*
X100549Y95106D01*
X101316Y95981D01*
X102139Y96804D01*
X103014Y97572D01*
X103938Y98280D01*
X104906Y98927D01*
X105914Y99509D01*
X106958Y100024D01*
X108034Y100469D01*
X109136Y100844D01*
X110260Y101145D01*
X111402Y101372D01*
X112556Y101524D01*
X113718Y101600D01*
X114882Y101600D01*
X116044Y101524D01*
X117198Y101372D01*
X118340Y101145D01*
X119464Y100844D01*
X120566Y100469D01*
X121642Y100024D01*
X122686Y99509D01*
X123694Y98927D01*
X124662Y98280D01*
X125586Y97572D01*
X126461Y96804D01*
X127284Y95981D01*
X128052Y95106D01*
X128760Y94182D01*
X129407Y93214D01*
X129989Y92206D01*
X130504Y91162D01*
X130949Y90086D01*
X131324Y88984D01*
X131625Y87860D01*
X131852Y86718D01*
X132004Y85564D01*
X132080Y84402D01*
X132080Y83238D01*
M02*
