G04 EAGLE Gerber RS-274X export*
G75*
%MOMM*%
%FSLAX34Y34*%
%LPD*%
%INSilkscreen Top*%
%IPPOS*%
%AMOC8*
5,1,8,0,0,1.08239X$1,22.5*%
G01*
%ADD10C,0.127000*%
%ADD11C,0.076200*%
%ADD12C,0.254000*%


D10*
X98425Y326390D02*
X125095Y326390D01*
X125095Y313690D01*
X98425Y313690D01*
X98425Y326390D01*
D11*
X108291Y327787D02*
X109928Y327787D01*
X108291Y327787D02*
X108213Y327789D01*
X108135Y327794D01*
X108058Y327804D01*
X107981Y327817D01*
X107905Y327833D01*
X107830Y327853D01*
X107756Y327877D01*
X107683Y327904D01*
X107611Y327935D01*
X107541Y327969D01*
X107473Y328006D01*
X107406Y328047D01*
X107341Y328091D01*
X107279Y328137D01*
X107219Y328187D01*
X107161Y328239D01*
X107106Y328294D01*
X107054Y328352D01*
X107004Y328412D01*
X106958Y328474D01*
X106914Y328539D01*
X106873Y328606D01*
X106836Y328674D01*
X106802Y328744D01*
X106771Y328816D01*
X106744Y328889D01*
X106720Y328963D01*
X106700Y329038D01*
X106684Y329114D01*
X106671Y329191D01*
X106661Y329268D01*
X106656Y329346D01*
X106654Y329424D01*
X106654Y333516D01*
X106656Y333596D01*
X106662Y333676D01*
X106672Y333756D01*
X106685Y333835D01*
X106703Y333914D01*
X106724Y333991D01*
X106750Y334067D01*
X106779Y334142D01*
X106811Y334216D01*
X106847Y334288D01*
X106887Y334358D01*
X106930Y334425D01*
X106976Y334491D01*
X107026Y334554D01*
X107078Y334615D01*
X107133Y334674D01*
X107192Y334729D01*
X107252Y334781D01*
X107316Y334831D01*
X107382Y334877D01*
X107449Y334920D01*
X107519Y334960D01*
X107591Y334996D01*
X107665Y335028D01*
X107739Y335057D01*
X107816Y335083D01*
X107893Y335104D01*
X107972Y335122D01*
X108051Y335135D01*
X108131Y335145D01*
X108211Y335151D01*
X108291Y335153D01*
X109928Y335153D01*
X112773Y333516D02*
X114820Y335153D01*
X114820Y327787D01*
X116866Y327787D02*
X112773Y327787D01*
D10*
X433705Y332740D02*
X460375Y332740D01*
X460375Y320040D01*
X433705Y320040D01*
X433705Y332740D01*
D11*
X465314Y322707D02*
X466951Y322707D01*
X465314Y322707D02*
X465236Y322709D01*
X465158Y322714D01*
X465081Y322724D01*
X465004Y322737D01*
X464928Y322753D01*
X464853Y322773D01*
X464779Y322797D01*
X464706Y322824D01*
X464634Y322855D01*
X464564Y322889D01*
X464496Y322926D01*
X464429Y322967D01*
X464364Y323011D01*
X464302Y323057D01*
X464242Y323107D01*
X464184Y323159D01*
X464129Y323214D01*
X464077Y323272D01*
X464027Y323332D01*
X463981Y323394D01*
X463937Y323459D01*
X463896Y323526D01*
X463859Y323594D01*
X463825Y323664D01*
X463794Y323736D01*
X463767Y323809D01*
X463743Y323883D01*
X463723Y323958D01*
X463707Y324034D01*
X463694Y324111D01*
X463684Y324188D01*
X463679Y324266D01*
X463677Y324344D01*
X463677Y328436D01*
X463679Y328516D01*
X463685Y328596D01*
X463695Y328676D01*
X463708Y328755D01*
X463726Y328834D01*
X463747Y328911D01*
X463773Y328987D01*
X463802Y329062D01*
X463834Y329136D01*
X463870Y329208D01*
X463910Y329278D01*
X463953Y329345D01*
X463999Y329411D01*
X464049Y329474D01*
X464101Y329535D01*
X464156Y329594D01*
X464215Y329649D01*
X464275Y329701D01*
X464339Y329751D01*
X464405Y329797D01*
X464472Y329840D01*
X464542Y329880D01*
X464614Y329916D01*
X464688Y329948D01*
X464762Y329977D01*
X464839Y330003D01*
X464916Y330024D01*
X464995Y330042D01*
X465074Y330055D01*
X465154Y330065D01*
X465234Y330071D01*
X465314Y330073D01*
X466951Y330073D01*
X469796Y328436D02*
X471842Y330073D01*
X471842Y322707D01*
X469796Y322707D02*
X473888Y322707D01*
X481204Y328232D02*
X481202Y328317D01*
X481196Y328402D01*
X481186Y328486D01*
X481173Y328570D01*
X481155Y328654D01*
X481134Y328736D01*
X481109Y328817D01*
X481080Y328897D01*
X481047Y328976D01*
X481011Y329053D01*
X480971Y329128D01*
X480928Y329202D01*
X480882Y329273D01*
X480832Y329342D01*
X480779Y329409D01*
X480723Y329473D01*
X480664Y329534D01*
X480603Y329593D01*
X480539Y329649D01*
X480472Y329702D01*
X480403Y329752D01*
X480332Y329798D01*
X480258Y329841D01*
X480183Y329881D01*
X480106Y329917D01*
X480027Y329950D01*
X479947Y329979D01*
X479866Y330004D01*
X479784Y330025D01*
X479700Y330043D01*
X479616Y330056D01*
X479532Y330066D01*
X479447Y330072D01*
X479362Y330074D01*
X479362Y330073D02*
X479266Y330071D01*
X479170Y330065D01*
X479075Y330055D01*
X478980Y330042D01*
X478885Y330024D01*
X478792Y330003D01*
X478699Y329978D01*
X478608Y329949D01*
X478517Y329917D01*
X478428Y329881D01*
X478341Y329841D01*
X478255Y329798D01*
X478171Y329752D01*
X478089Y329702D01*
X478009Y329648D01*
X477932Y329592D01*
X477857Y329532D01*
X477784Y329470D01*
X477714Y329404D01*
X477646Y329336D01*
X477581Y329265D01*
X477520Y329192D01*
X477461Y329116D01*
X477405Y329037D01*
X477353Y328957D01*
X477304Y328874D01*
X477258Y328790D01*
X477216Y328704D01*
X477178Y328616D01*
X477143Y328527D01*
X477111Y328436D01*
X480589Y326800D02*
X480649Y326859D01*
X480706Y326921D01*
X480761Y326985D01*
X480812Y327052D01*
X480861Y327121D01*
X480907Y327191D01*
X480950Y327264D01*
X480990Y327338D01*
X481026Y327414D01*
X481059Y327492D01*
X481089Y327571D01*
X481116Y327651D01*
X481139Y327732D01*
X481158Y327814D01*
X481174Y327896D01*
X481187Y327980D01*
X481196Y328064D01*
X481201Y328148D01*
X481203Y328232D01*
X480589Y326799D02*
X477111Y322707D01*
X481203Y322707D01*
D10*
X431165Y332740D02*
X404495Y332740D01*
X431165Y332740D02*
X431165Y320040D01*
X404495Y320040D01*
X404495Y332740D01*
D11*
X403733Y322171D02*
X403733Y320534D01*
X403731Y320456D01*
X403726Y320378D01*
X403716Y320301D01*
X403703Y320224D01*
X403687Y320148D01*
X403667Y320073D01*
X403643Y319999D01*
X403616Y319926D01*
X403585Y319854D01*
X403551Y319784D01*
X403514Y319716D01*
X403473Y319649D01*
X403429Y319584D01*
X403383Y319522D01*
X403333Y319462D01*
X403281Y319404D01*
X403226Y319349D01*
X403168Y319297D01*
X403108Y319247D01*
X403046Y319201D01*
X402981Y319157D01*
X402915Y319116D01*
X402846Y319079D01*
X402776Y319045D01*
X402704Y319014D01*
X402631Y318987D01*
X402557Y318963D01*
X402482Y318943D01*
X402406Y318927D01*
X402329Y318914D01*
X402252Y318904D01*
X402174Y318899D01*
X402096Y318897D01*
X398004Y318897D01*
X397924Y318899D01*
X397844Y318905D01*
X397764Y318915D01*
X397685Y318928D01*
X397606Y318946D01*
X397529Y318967D01*
X397453Y318993D01*
X397378Y319022D01*
X397304Y319054D01*
X397232Y319090D01*
X397162Y319130D01*
X397095Y319173D01*
X397029Y319219D01*
X396966Y319269D01*
X396905Y319321D01*
X396846Y319376D01*
X396791Y319435D01*
X396739Y319495D01*
X396689Y319559D01*
X396643Y319624D01*
X396600Y319692D01*
X396560Y319762D01*
X396524Y319834D01*
X396492Y319908D01*
X396463Y319982D01*
X396438Y320059D01*
X396416Y320136D01*
X396398Y320215D01*
X396385Y320294D01*
X396375Y320373D01*
X396369Y320454D01*
X396367Y320534D01*
X396367Y322171D01*
X398004Y325016D02*
X396367Y327062D01*
X403733Y327062D01*
X403733Y325016D02*
X403733Y329108D01*
X401687Y332331D02*
X401598Y332333D01*
X401509Y332339D01*
X401420Y332349D01*
X401332Y332362D01*
X401244Y332379D01*
X401157Y332401D01*
X401072Y332426D01*
X400987Y332454D01*
X400904Y332487D01*
X400822Y332523D01*
X400742Y332562D01*
X400664Y332605D01*
X400588Y332651D01*
X400513Y332701D01*
X400441Y332754D01*
X400372Y332810D01*
X400305Y332869D01*
X400240Y332930D01*
X400179Y332995D01*
X400120Y333062D01*
X400064Y333131D01*
X400011Y333203D01*
X399961Y333278D01*
X399915Y333354D01*
X399872Y333432D01*
X399833Y333512D01*
X399797Y333594D01*
X399764Y333677D01*
X399736Y333762D01*
X399711Y333847D01*
X399689Y333934D01*
X399672Y334022D01*
X399659Y334110D01*
X399649Y334199D01*
X399643Y334288D01*
X399641Y334377D01*
X399643Y334466D01*
X399649Y334555D01*
X399659Y334644D01*
X399672Y334732D01*
X399689Y334820D01*
X399711Y334907D01*
X399736Y334992D01*
X399764Y335077D01*
X399797Y335160D01*
X399833Y335242D01*
X399872Y335322D01*
X399915Y335400D01*
X399961Y335476D01*
X400011Y335551D01*
X400064Y335623D01*
X400120Y335692D01*
X400179Y335759D01*
X400240Y335824D01*
X400305Y335885D01*
X400372Y335944D01*
X400441Y336000D01*
X400513Y336053D01*
X400588Y336103D01*
X400664Y336149D01*
X400742Y336192D01*
X400822Y336231D01*
X400904Y336267D01*
X400987Y336300D01*
X401072Y336328D01*
X401157Y336353D01*
X401244Y336375D01*
X401332Y336392D01*
X401420Y336405D01*
X401509Y336415D01*
X401598Y336421D01*
X401687Y336423D01*
X401776Y336421D01*
X401865Y336415D01*
X401954Y336405D01*
X402042Y336392D01*
X402130Y336375D01*
X402217Y336353D01*
X402302Y336328D01*
X402387Y336300D01*
X402470Y336267D01*
X402552Y336231D01*
X402632Y336192D01*
X402710Y336149D01*
X402786Y336103D01*
X402861Y336053D01*
X402933Y336000D01*
X403002Y335944D01*
X403069Y335885D01*
X403134Y335824D01*
X403195Y335759D01*
X403254Y335692D01*
X403310Y335623D01*
X403363Y335551D01*
X403413Y335476D01*
X403459Y335400D01*
X403502Y335322D01*
X403541Y335242D01*
X403577Y335160D01*
X403610Y335077D01*
X403638Y334992D01*
X403663Y334907D01*
X403685Y334820D01*
X403702Y334732D01*
X403715Y334644D01*
X403725Y334555D01*
X403731Y334466D01*
X403733Y334377D01*
X403731Y334288D01*
X403725Y334199D01*
X403715Y334110D01*
X403702Y334022D01*
X403685Y333934D01*
X403663Y333847D01*
X403638Y333762D01*
X403610Y333677D01*
X403577Y333594D01*
X403541Y333512D01*
X403502Y333432D01*
X403459Y333354D01*
X403413Y333278D01*
X403363Y333203D01*
X403310Y333131D01*
X403254Y333062D01*
X403195Y332995D01*
X403134Y332930D01*
X403069Y332869D01*
X403002Y332810D01*
X402933Y332754D01*
X402861Y332701D01*
X402786Y332651D01*
X402710Y332605D01*
X402632Y332562D01*
X402552Y332523D01*
X402470Y332487D01*
X402387Y332454D01*
X402302Y332426D01*
X402217Y332401D01*
X402130Y332379D01*
X402042Y332362D01*
X401954Y332349D01*
X401865Y332339D01*
X401776Y332333D01*
X401687Y332331D01*
X398004Y332740D02*
X397925Y332742D01*
X397846Y332748D01*
X397767Y332757D01*
X397689Y332770D01*
X397612Y332788D01*
X397536Y332808D01*
X397461Y332833D01*
X397387Y332861D01*
X397314Y332892D01*
X397243Y332928D01*
X397174Y332966D01*
X397107Y333008D01*
X397042Y333053D01*
X396979Y333101D01*
X396918Y333152D01*
X396861Y333206D01*
X396805Y333262D01*
X396753Y333321D01*
X396703Y333383D01*
X396657Y333447D01*
X396613Y333513D01*
X396573Y333581D01*
X396537Y333651D01*
X396503Y333723D01*
X396473Y333797D01*
X396447Y333871D01*
X396424Y333947D01*
X396406Y334024D01*
X396390Y334101D01*
X396379Y334180D01*
X396371Y334258D01*
X396367Y334337D01*
X396367Y334417D01*
X396371Y334496D01*
X396379Y334574D01*
X396390Y334653D01*
X396406Y334730D01*
X396424Y334807D01*
X396447Y334883D01*
X396473Y334957D01*
X396503Y335031D01*
X396537Y335103D01*
X396573Y335173D01*
X396613Y335241D01*
X396657Y335307D01*
X396703Y335371D01*
X396753Y335433D01*
X396805Y335492D01*
X396861Y335548D01*
X396918Y335602D01*
X396979Y335653D01*
X397042Y335701D01*
X397107Y335746D01*
X397174Y335788D01*
X397243Y335826D01*
X397314Y335862D01*
X397387Y335893D01*
X397461Y335921D01*
X397536Y335946D01*
X397612Y335966D01*
X397689Y335984D01*
X397767Y335997D01*
X397846Y336006D01*
X397925Y336012D01*
X398004Y336014D01*
X398083Y336012D01*
X398162Y336006D01*
X398241Y335997D01*
X398319Y335984D01*
X398396Y335966D01*
X398472Y335946D01*
X398547Y335921D01*
X398621Y335893D01*
X398694Y335862D01*
X398765Y335826D01*
X398834Y335788D01*
X398901Y335746D01*
X398966Y335701D01*
X399029Y335653D01*
X399090Y335602D01*
X399147Y335548D01*
X399203Y335492D01*
X399255Y335433D01*
X399305Y335371D01*
X399351Y335307D01*
X399395Y335241D01*
X399435Y335173D01*
X399471Y335103D01*
X399505Y335031D01*
X399535Y334957D01*
X399561Y334883D01*
X399584Y334807D01*
X399602Y334730D01*
X399618Y334653D01*
X399629Y334574D01*
X399637Y334496D01*
X399641Y334417D01*
X399641Y334337D01*
X399637Y334258D01*
X399629Y334180D01*
X399618Y334101D01*
X399602Y334024D01*
X399584Y333947D01*
X399561Y333871D01*
X399535Y333797D01*
X399505Y333723D01*
X399471Y333651D01*
X399435Y333581D01*
X399395Y333513D01*
X399351Y333447D01*
X399305Y333383D01*
X399255Y333321D01*
X399203Y333262D01*
X399147Y333206D01*
X399090Y333152D01*
X399029Y333101D01*
X398966Y333053D01*
X398901Y333008D01*
X398834Y332966D01*
X398765Y332928D01*
X398694Y332892D01*
X398621Y332861D01*
X398547Y332833D01*
X398472Y332808D01*
X398396Y332788D01*
X398319Y332770D01*
X398241Y332757D01*
X398162Y332748D01*
X398083Y332742D01*
X398004Y332740D01*
D10*
X233045Y469900D02*
X206375Y469900D01*
X206375Y482600D01*
X233045Y482600D01*
X233045Y469900D01*
D11*
X237984Y472567D02*
X239621Y472567D01*
X237984Y472567D02*
X237906Y472569D01*
X237828Y472574D01*
X237751Y472584D01*
X237674Y472597D01*
X237598Y472613D01*
X237523Y472633D01*
X237449Y472657D01*
X237376Y472684D01*
X237304Y472715D01*
X237234Y472749D01*
X237166Y472786D01*
X237099Y472827D01*
X237034Y472871D01*
X236972Y472917D01*
X236912Y472967D01*
X236854Y473019D01*
X236799Y473074D01*
X236747Y473132D01*
X236697Y473192D01*
X236651Y473254D01*
X236607Y473319D01*
X236566Y473386D01*
X236529Y473454D01*
X236495Y473524D01*
X236464Y473596D01*
X236437Y473669D01*
X236413Y473743D01*
X236393Y473818D01*
X236377Y473894D01*
X236364Y473971D01*
X236354Y474048D01*
X236349Y474126D01*
X236347Y474204D01*
X236347Y478296D01*
X236349Y478376D01*
X236355Y478456D01*
X236365Y478536D01*
X236378Y478615D01*
X236396Y478694D01*
X236417Y478771D01*
X236443Y478847D01*
X236472Y478922D01*
X236504Y478996D01*
X236540Y479068D01*
X236580Y479138D01*
X236623Y479205D01*
X236669Y479271D01*
X236719Y479334D01*
X236771Y479395D01*
X236826Y479454D01*
X236885Y479509D01*
X236945Y479561D01*
X237009Y479611D01*
X237075Y479657D01*
X237142Y479700D01*
X237212Y479740D01*
X237284Y479776D01*
X237358Y479808D01*
X237432Y479837D01*
X237509Y479863D01*
X237586Y479884D01*
X237665Y479902D01*
X237744Y479915D01*
X237824Y479925D01*
X237904Y479931D01*
X237984Y479933D01*
X239621Y479933D01*
X242466Y478296D02*
X244512Y479933D01*
X244512Y472567D01*
X242466Y472567D02*
X246558Y472567D01*
X251418Y475841D02*
X253873Y475841D01*
X251418Y475841D02*
X251340Y475843D01*
X251262Y475848D01*
X251185Y475858D01*
X251108Y475871D01*
X251032Y475887D01*
X250957Y475907D01*
X250883Y475931D01*
X250810Y475958D01*
X250738Y475989D01*
X250668Y476023D01*
X250599Y476060D01*
X250533Y476101D01*
X250468Y476145D01*
X250406Y476191D01*
X250346Y476241D01*
X250288Y476293D01*
X250233Y476348D01*
X250181Y476406D01*
X250131Y476466D01*
X250085Y476528D01*
X250041Y476593D01*
X250000Y476660D01*
X249963Y476728D01*
X249929Y476798D01*
X249898Y476870D01*
X249871Y476943D01*
X249847Y477017D01*
X249827Y477092D01*
X249811Y477168D01*
X249798Y477245D01*
X249788Y477322D01*
X249783Y477400D01*
X249781Y477478D01*
X249781Y477887D01*
X249783Y477976D01*
X249789Y478065D01*
X249799Y478154D01*
X249812Y478242D01*
X249829Y478330D01*
X249851Y478417D01*
X249876Y478502D01*
X249904Y478587D01*
X249937Y478670D01*
X249973Y478752D01*
X250012Y478832D01*
X250055Y478910D01*
X250101Y478986D01*
X250151Y479061D01*
X250204Y479133D01*
X250260Y479202D01*
X250319Y479269D01*
X250380Y479334D01*
X250445Y479395D01*
X250512Y479454D01*
X250581Y479510D01*
X250653Y479563D01*
X250728Y479613D01*
X250804Y479659D01*
X250882Y479702D01*
X250962Y479741D01*
X251044Y479777D01*
X251127Y479810D01*
X251212Y479838D01*
X251297Y479863D01*
X251384Y479885D01*
X251472Y479902D01*
X251560Y479915D01*
X251649Y479925D01*
X251738Y479931D01*
X251827Y479933D01*
X251916Y479931D01*
X252005Y479925D01*
X252094Y479915D01*
X252182Y479902D01*
X252270Y479885D01*
X252357Y479863D01*
X252442Y479838D01*
X252527Y479810D01*
X252610Y479777D01*
X252692Y479741D01*
X252772Y479702D01*
X252850Y479659D01*
X252926Y479613D01*
X253001Y479563D01*
X253073Y479510D01*
X253142Y479454D01*
X253209Y479395D01*
X253274Y479334D01*
X253335Y479269D01*
X253394Y479202D01*
X253450Y479133D01*
X253503Y479061D01*
X253553Y478986D01*
X253599Y478910D01*
X253642Y478832D01*
X253681Y478752D01*
X253717Y478670D01*
X253750Y478587D01*
X253778Y478502D01*
X253803Y478417D01*
X253825Y478330D01*
X253842Y478242D01*
X253855Y478154D01*
X253865Y478065D01*
X253871Y477976D01*
X253873Y477887D01*
X253873Y475841D01*
X253871Y475729D01*
X253865Y475618D01*
X253856Y475506D01*
X253843Y475395D01*
X253825Y475285D01*
X253805Y475175D01*
X253780Y475066D01*
X253752Y474958D01*
X253720Y474851D01*
X253684Y474745D01*
X253645Y474640D01*
X253602Y474537D01*
X253556Y474435D01*
X253506Y474335D01*
X253453Y474236D01*
X253396Y474140D01*
X253337Y474045D01*
X253274Y473953D01*
X253208Y473863D01*
X253139Y473775D01*
X253067Y473689D01*
X252992Y473606D01*
X252914Y473526D01*
X252834Y473448D01*
X252751Y473373D01*
X252665Y473301D01*
X252577Y473232D01*
X252487Y473166D01*
X252395Y473103D01*
X252300Y473044D01*
X252204Y472987D01*
X252105Y472934D01*
X252005Y472884D01*
X251903Y472838D01*
X251800Y472795D01*
X251695Y472756D01*
X251589Y472720D01*
X251482Y472688D01*
X251374Y472660D01*
X251265Y472635D01*
X251155Y472615D01*
X251045Y472597D01*
X250934Y472584D01*
X250822Y472575D01*
X250711Y472569D01*
X250599Y472567D01*
D10*
X347345Y66675D02*
X379095Y66675D01*
X347345Y66675D02*
X347345Y83185D01*
X379095Y83185D01*
X379095Y66675D01*
D11*
X361238Y84987D02*
X359601Y84987D01*
X359523Y84989D01*
X359445Y84994D01*
X359368Y85004D01*
X359291Y85017D01*
X359215Y85033D01*
X359140Y85053D01*
X359066Y85077D01*
X358993Y85104D01*
X358921Y85135D01*
X358851Y85169D01*
X358783Y85206D01*
X358716Y85247D01*
X358651Y85291D01*
X358589Y85337D01*
X358529Y85387D01*
X358471Y85439D01*
X358416Y85494D01*
X358364Y85552D01*
X358314Y85612D01*
X358268Y85674D01*
X358224Y85739D01*
X358183Y85806D01*
X358146Y85874D01*
X358112Y85944D01*
X358081Y86016D01*
X358054Y86089D01*
X358030Y86163D01*
X358010Y86238D01*
X357994Y86314D01*
X357981Y86391D01*
X357971Y86468D01*
X357966Y86546D01*
X357964Y86624D01*
X357964Y90716D01*
X357966Y90796D01*
X357972Y90876D01*
X357982Y90956D01*
X357995Y91035D01*
X358013Y91114D01*
X358034Y91191D01*
X358060Y91267D01*
X358089Y91342D01*
X358121Y91416D01*
X358157Y91488D01*
X358197Y91558D01*
X358240Y91625D01*
X358286Y91691D01*
X358336Y91754D01*
X358388Y91815D01*
X358443Y91874D01*
X358502Y91929D01*
X358562Y91981D01*
X358626Y92031D01*
X358692Y92077D01*
X358759Y92120D01*
X358829Y92160D01*
X358901Y92196D01*
X358975Y92228D01*
X359049Y92257D01*
X359126Y92283D01*
X359203Y92304D01*
X359282Y92322D01*
X359361Y92335D01*
X359441Y92345D01*
X359521Y92351D01*
X359601Y92353D01*
X361238Y92353D01*
X364084Y87033D02*
X364086Y87122D01*
X364092Y87211D01*
X364102Y87300D01*
X364115Y87388D01*
X364132Y87476D01*
X364154Y87563D01*
X364179Y87648D01*
X364207Y87733D01*
X364240Y87816D01*
X364276Y87898D01*
X364315Y87978D01*
X364358Y88056D01*
X364404Y88132D01*
X364454Y88207D01*
X364507Y88279D01*
X364563Y88348D01*
X364622Y88415D01*
X364683Y88480D01*
X364748Y88541D01*
X364815Y88600D01*
X364884Y88656D01*
X364956Y88709D01*
X365031Y88759D01*
X365107Y88805D01*
X365185Y88848D01*
X365265Y88887D01*
X365347Y88923D01*
X365430Y88956D01*
X365515Y88984D01*
X365600Y89009D01*
X365687Y89031D01*
X365775Y89048D01*
X365863Y89061D01*
X365952Y89071D01*
X366041Y89077D01*
X366130Y89079D01*
X366219Y89077D01*
X366308Y89071D01*
X366397Y89061D01*
X366485Y89048D01*
X366573Y89031D01*
X366660Y89009D01*
X366745Y88984D01*
X366830Y88956D01*
X366913Y88923D01*
X366995Y88887D01*
X367075Y88848D01*
X367153Y88805D01*
X367229Y88759D01*
X367304Y88709D01*
X367376Y88656D01*
X367445Y88600D01*
X367512Y88541D01*
X367577Y88480D01*
X367638Y88415D01*
X367697Y88348D01*
X367753Y88279D01*
X367806Y88207D01*
X367856Y88132D01*
X367902Y88056D01*
X367945Y87978D01*
X367984Y87898D01*
X368020Y87816D01*
X368053Y87733D01*
X368081Y87648D01*
X368106Y87563D01*
X368128Y87476D01*
X368145Y87388D01*
X368158Y87300D01*
X368168Y87211D01*
X368174Y87122D01*
X368176Y87033D01*
X368174Y86944D01*
X368168Y86855D01*
X368158Y86766D01*
X368145Y86678D01*
X368128Y86590D01*
X368106Y86503D01*
X368081Y86418D01*
X368053Y86333D01*
X368020Y86250D01*
X367984Y86168D01*
X367945Y86088D01*
X367902Y86010D01*
X367856Y85934D01*
X367806Y85859D01*
X367753Y85787D01*
X367697Y85718D01*
X367638Y85651D01*
X367577Y85586D01*
X367512Y85525D01*
X367445Y85466D01*
X367376Y85410D01*
X367304Y85357D01*
X367229Y85307D01*
X367153Y85261D01*
X367075Y85218D01*
X366995Y85179D01*
X366913Y85143D01*
X366830Y85110D01*
X366745Y85082D01*
X366660Y85057D01*
X366573Y85035D01*
X366485Y85018D01*
X366397Y85005D01*
X366308Y84995D01*
X366219Y84989D01*
X366130Y84987D01*
X366041Y84989D01*
X365952Y84995D01*
X365863Y85005D01*
X365775Y85018D01*
X365687Y85035D01*
X365600Y85057D01*
X365515Y85082D01*
X365430Y85110D01*
X365347Y85143D01*
X365265Y85179D01*
X365185Y85218D01*
X365107Y85261D01*
X365031Y85307D01*
X364956Y85357D01*
X364884Y85410D01*
X364815Y85466D01*
X364748Y85525D01*
X364683Y85586D01*
X364622Y85651D01*
X364563Y85718D01*
X364507Y85787D01*
X364454Y85859D01*
X364404Y85934D01*
X364358Y86010D01*
X364315Y86088D01*
X364276Y86168D01*
X364240Y86250D01*
X364207Y86333D01*
X364179Y86418D01*
X364154Y86503D01*
X364132Y86590D01*
X364115Y86678D01*
X364102Y86766D01*
X364092Y86855D01*
X364086Y86944D01*
X364084Y87033D01*
X364493Y90716D02*
X364495Y90795D01*
X364501Y90874D01*
X364510Y90953D01*
X364523Y91031D01*
X364541Y91108D01*
X364561Y91184D01*
X364586Y91259D01*
X364614Y91333D01*
X364645Y91406D01*
X364681Y91477D01*
X364719Y91546D01*
X364761Y91613D01*
X364806Y91678D01*
X364854Y91741D01*
X364905Y91802D01*
X364959Y91859D01*
X365015Y91915D01*
X365074Y91967D01*
X365136Y92017D01*
X365200Y92063D01*
X365266Y92107D01*
X365334Y92147D01*
X365404Y92183D01*
X365476Y92217D01*
X365550Y92247D01*
X365624Y92273D01*
X365700Y92296D01*
X365777Y92314D01*
X365854Y92330D01*
X365933Y92341D01*
X366011Y92349D01*
X366090Y92353D01*
X366170Y92353D01*
X366249Y92349D01*
X366327Y92341D01*
X366406Y92330D01*
X366483Y92314D01*
X366560Y92296D01*
X366636Y92273D01*
X366710Y92247D01*
X366784Y92217D01*
X366856Y92183D01*
X366926Y92147D01*
X366994Y92107D01*
X367060Y92063D01*
X367124Y92017D01*
X367186Y91967D01*
X367245Y91915D01*
X367301Y91859D01*
X367355Y91802D01*
X367406Y91741D01*
X367454Y91678D01*
X367499Y91613D01*
X367541Y91546D01*
X367579Y91477D01*
X367615Y91406D01*
X367646Y91333D01*
X367674Y91259D01*
X367699Y91184D01*
X367719Y91108D01*
X367737Y91031D01*
X367750Y90953D01*
X367759Y90874D01*
X367765Y90795D01*
X367767Y90716D01*
X367765Y90637D01*
X367759Y90558D01*
X367750Y90479D01*
X367737Y90401D01*
X367719Y90324D01*
X367699Y90248D01*
X367674Y90173D01*
X367646Y90099D01*
X367615Y90026D01*
X367579Y89955D01*
X367541Y89886D01*
X367499Y89819D01*
X367454Y89754D01*
X367406Y89691D01*
X367355Y89630D01*
X367301Y89573D01*
X367245Y89517D01*
X367186Y89465D01*
X367124Y89415D01*
X367060Y89369D01*
X366994Y89325D01*
X366926Y89285D01*
X366856Y89249D01*
X366784Y89215D01*
X366710Y89185D01*
X366636Y89159D01*
X366560Y89136D01*
X366483Y89118D01*
X366406Y89102D01*
X366327Y89091D01*
X366249Y89083D01*
X366170Y89079D01*
X366090Y89079D01*
X366011Y89083D01*
X365933Y89091D01*
X365854Y89102D01*
X365777Y89118D01*
X365700Y89136D01*
X365624Y89159D01*
X365550Y89185D01*
X365476Y89215D01*
X365404Y89249D01*
X365334Y89285D01*
X365266Y89325D01*
X365200Y89369D01*
X365136Y89415D01*
X365074Y89465D01*
X365015Y89517D01*
X364959Y89573D01*
X364905Y89630D01*
X364854Y89691D01*
X364806Y89754D01*
X364761Y89819D01*
X364719Y89886D01*
X364681Y89955D01*
X364645Y90026D01*
X364614Y90099D01*
X364586Y90173D01*
X364561Y90248D01*
X364541Y90324D01*
X364523Y90401D01*
X364510Y90479D01*
X364501Y90558D01*
X364495Y90637D01*
X364493Y90716D01*
D10*
X379095Y47625D02*
X347345Y47625D01*
X347345Y64135D01*
X379095Y64135D01*
X379095Y47625D01*
D11*
X385001Y45617D02*
X386638Y45617D01*
X385001Y45617D02*
X384923Y45619D01*
X384845Y45624D01*
X384768Y45634D01*
X384691Y45647D01*
X384615Y45663D01*
X384540Y45683D01*
X384466Y45707D01*
X384393Y45734D01*
X384321Y45765D01*
X384251Y45799D01*
X384183Y45836D01*
X384116Y45877D01*
X384051Y45921D01*
X383989Y45967D01*
X383929Y46017D01*
X383871Y46069D01*
X383816Y46124D01*
X383764Y46182D01*
X383714Y46242D01*
X383668Y46304D01*
X383624Y46369D01*
X383583Y46436D01*
X383546Y46504D01*
X383512Y46574D01*
X383481Y46646D01*
X383454Y46719D01*
X383430Y46793D01*
X383410Y46868D01*
X383394Y46944D01*
X383381Y47021D01*
X383371Y47098D01*
X383366Y47176D01*
X383364Y47254D01*
X383364Y51346D01*
X383366Y51426D01*
X383372Y51506D01*
X383382Y51586D01*
X383395Y51665D01*
X383413Y51744D01*
X383434Y51821D01*
X383460Y51897D01*
X383489Y51972D01*
X383521Y52046D01*
X383557Y52118D01*
X383597Y52188D01*
X383640Y52255D01*
X383686Y52321D01*
X383736Y52384D01*
X383788Y52445D01*
X383843Y52504D01*
X383902Y52559D01*
X383962Y52611D01*
X384026Y52661D01*
X384092Y52707D01*
X384159Y52750D01*
X384229Y52790D01*
X384301Y52826D01*
X384375Y52858D01*
X384449Y52887D01*
X384526Y52913D01*
X384603Y52934D01*
X384682Y52952D01*
X384761Y52965D01*
X384841Y52975D01*
X384921Y52981D01*
X385001Y52983D01*
X386638Y52983D01*
X391120Y48891D02*
X393576Y48891D01*
X391120Y48891D02*
X391042Y48893D01*
X390964Y48898D01*
X390887Y48908D01*
X390810Y48921D01*
X390734Y48937D01*
X390659Y48957D01*
X390585Y48981D01*
X390512Y49008D01*
X390440Y49039D01*
X390370Y49073D01*
X390301Y49110D01*
X390235Y49151D01*
X390170Y49195D01*
X390108Y49241D01*
X390048Y49291D01*
X389990Y49343D01*
X389935Y49398D01*
X389883Y49456D01*
X389833Y49516D01*
X389787Y49578D01*
X389743Y49643D01*
X389702Y49710D01*
X389665Y49778D01*
X389631Y49848D01*
X389600Y49920D01*
X389573Y49993D01*
X389549Y50067D01*
X389529Y50142D01*
X389513Y50218D01*
X389500Y50295D01*
X389490Y50372D01*
X389485Y50450D01*
X389483Y50528D01*
X389483Y50937D01*
X389484Y50937D02*
X389486Y51026D01*
X389492Y51115D01*
X389502Y51204D01*
X389515Y51292D01*
X389532Y51380D01*
X389554Y51467D01*
X389579Y51552D01*
X389607Y51637D01*
X389640Y51720D01*
X389676Y51802D01*
X389715Y51882D01*
X389758Y51960D01*
X389804Y52036D01*
X389854Y52111D01*
X389907Y52183D01*
X389963Y52252D01*
X390022Y52319D01*
X390083Y52384D01*
X390148Y52445D01*
X390215Y52504D01*
X390284Y52560D01*
X390356Y52613D01*
X390431Y52663D01*
X390507Y52709D01*
X390585Y52752D01*
X390665Y52791D01*
X390747Y52827D01*
X390830Y52860D01*
X390915Y52888D01*
X391000Y52913D01*
X391087Y52935D01*
X391175Y52952D01*
X391263Y52965D01*
X391352Y52975D01*
X391441Y52981D01*
X391530Y52983D01*
X391619Y52981D01*
X391708Y52975D01*
X391797Y52965D01*
X391885Y52952D01*
X391973Y52935D01*
X392060Y52913D01*
X392145Y52888D01*
X392230Y52860D01*
X392313Y52827D01*
X392395Y52791D01*
X392475Y52752D01*
X392553Y52709D01*
X392629Y52663D01*
X392704Y52613D01*
X392776Y52560D01*
X392845Y52504D01*
X392912Y52445D01*
X392977Y52384D01*
X393038Y52319D01*
X393097Y52252D01*
X393153Y52183D01*
X393206Y52111D01*
X393256Y52036D01*
X393302Y51960D01*
X393345Y51882D01*
X393384Y51802D01*
X393420Y51720D01*
X393453Y51637D01*
X393481Y51552D01*
X393506Y51467D01*
X393528Y51380D01*
X393545Y51292D01*
X393558Y51204D01*
X393568Y51115D01*
X393574Y51026D01*
X393576Y50937D01*
X393576Y48891D01*
X393574Y48779D01*
X393568Y48668D01*
X393559Y48556D01*
X393546Y48445D01*
X393528Y48335D01*
X393508Y48225D01*
X393483Y48116D01*
X393455Y48008D01*
X393423Y47901D01*
X393387Y47795D01*
X393348Y47690D01*
X393305Y47587D01*
X393259Y47485D01*
X393209Y47385D01*
X393156Y47286D01*
X393099Y47190D01*
X393040Y47095D01*
X392977Y47003D01*
X392911Y46913D01*
X392842Y46825D01*
X392770Y46739D01*
X392695Y46656D01*
X392617Y46576D01*
X392537Y46498D01*
X392454Y46423D01*
X392368Y46351D01*
X392280Y46282D01*
X392190Y46216D01*
X392098Y46153D01*
X392003Y46094D01*
X391907Y46037D01*
X391808Y45984D01*
X391708Y45934D01*
X391606Y45888D01*
X391503Y45845D01*
X391398Y45806D01*
X391292Y45770D01*
X391185Y45738D01*
X391077Y45710D01*
X390968Y45685D01*
X390858Y45665D01*
X390748Y45647D01*
X390637Y45634D01*
X390525Y45625D01*
X390414Y45619D01*
X390302Y45617D01*
D10*
X381635Y82550D02*
X408305Y82550D01*
X408305Y69850D01*
X381635Y69850D01*
X381635Y82550D01*
D11*
X413244Y72517D02*
X414881Y72517D01*
X413244Y72517D02*
X413166Y72519D01*
X413088Y72524D01*
X413011Y72534D01*
X412934Y72547D01*
X412858Y72563D01*
X412783Y72583D01*
X412709Y72607D01*
X412636Y72634D01*
X412564Y72665D01*
X412494Y72699D01*
X412426Y72736D01*
X412359Y72777D01*
X412294Y72821D01*
X412232Y72867D01*
X412172Y72917D01*
X412114Y72969D01*
X412059Y73024D01*
X412007Y73082D01*
X411957Y73142D01*
X411911Y73204D01*
X411867Y73269D01*
X411826Y73336D01*
X411789Y73404D01*
X411755Y73474D01*
X411724Y73546D01*
X411697Y73619D01*
X411673Y73693D01*
X411653Y73768D01*
X411637Y73844D01*
X411624Y73921D01*
X411614Y73998D01*
X411609Y74076D01*
X411607Y74154D01*
X411607Y78246D01*
X411609Y78326D01*
X411615Y78406D01*
X411625Y78486D01*
X411638Y78565D01*
X411656Y78644D01*
X411677Y78721D01*
X411703Y78797D01*
X411732Y78872D01*
X411764Y78946D01*
X411800Y79018D01*
X411840Y79088D01*
X411883Y79155D01*
X411929Y79221D01*
X411979Y79284D01*
X412031Y79345D01*
X412086Y79404D01*
X412145Y79459D01*
X412205Y79511D01*
X412269Y79561D01*
X412335Y79607D01*
X412402Y79650D01*
X412472Y79690D01*
X412544Y79726D01*
X412618Y79758D01*
X412692Y79787D01*
X412769Y79813D01*
X412846Y79834D01*
X412925Y79852D01*
X413004Y79865D01*
X413084Y79875D01*
X413164Y79881D01*
X413244Y79883D01*
X414881Y79883D01*
X417726Y78246D02*
X419772Y79883D01*
X419772Y72517D01*
X417726Y72517D02*
X421818Y72517D01*
X425041Y76200D02*
X425043Y76353D01*
X425049Y76506D01*
X425058Y76658D01*
X425072Y76811D01*
X425089Y76963D01*
X425110Y77114D01*
X425135Y77265D01*
X425164Y77415D01*
X425196Y77565D01*
X425233Y77713D01*
X425273Y77861D01*
X425316Y78008D01*
X425364Y78153D01*
X425415Y78297D01*
X425469Y78440D01*
X425528Y78582D01*
X425589Y78721D01*
X425655Y78860D01*
X425681Y78930D01*
X425711Y79000D01*
X425744Y79067D01*
X425780Y79133D01*
X425819Y79197D01*
X425862Y79259D01*
X425908Y79318D01*
X425956Y79376D01*
X426007Y79430D01*
X426061Y79483D01*
X426118Y79532D01*
X426177Y79579D01*
X426238Y79622D01*
X426301Y79663D01*
X426366Y79700D01*
X426433Y79735D01*
X426502Y79765D01*
X426572Y79793D01*
X426643Y79816D01*
X426715Y79837D01*
X426788Y79853D01*
X426862Y79866D01*
X426937Y79876D01*
X427012Y79881D01*
X427087Y79883D01*
X427162Y79881D01*
X427237Y79876D01*
X427312Y79866D01*
X427386Y79853D01*
X427459Y79837D01*
X427531Y79816D01*
X427602Y79793D01*
X427672Y79765D01*
X427741Y79735D01*
X427808Y79700D01*
X427873Y79663D01*
X427936Y79622D01*
X427997Y79579D01*
X428056Y79532D01*
X428113Y79483D01*
X428167Y79430D01*
X428218Y79376D01*
X428267Y79318D01*
X428312Y79259D01*
X428355Y79197D01*
X428394Y79133D01*
X428431Y79067D01*
X428463Y78999D01*
X428493Y78930D01*
X428519Y78860D01*
X428584Y78722D01*
X428646Y78582D01*
X428704Y78440D01*
X428759Y78297D01*
X428810Y78153D01*
X428858Y78008D01*
X428901Y77861D01*
X428941Y77714D01*
X428978Y77565D01*
X429010Y77415D01*
X429039Y77265D01*
X429064Y77114D01*
X429085Y76963D01*
X429102Y76811D01*
X429116Y76658D01*
X429125Y76506D01*
X429131Y76353D01*
X429133Y76200D01*
X425041Y76200D02*
X425043Y76047D01*
X425049Y75894D01*
X425058Y75741D01*
X425072Y75589D01*
X425089Y75437D01*
X425110Y75286D01*
X425135Y75135D01*
X425164Y74984D01*
X425196Y74835D01*
X425233Y74686D01*
X425273Y74539D01*
X425316Y74392D01*
X425364Y74247D01*
X425415Y74102D01*
X425470Y73960D01*
X425528Y73818D01*
X425590Y73678D01*
X425655Y73540D01*
X425681Y73469D01*
X425711Y73400D01*
X425744Y73333D01*
X425780Y73267D01*
X425819Y73203D01*
X425862Y73141D01*
X425908Y73082D01*
X425956Y73024D01*
X426007Y72970D01*
X426061Y72917D01*
X426118Y72868D01*
X426177Y72821D01*
X426238Y72778D01*
X426301Y72737D01*
X426366Y72700D01*
X426433Y72665D01*
X426502Y72635D01*
X426572Y72607D01*
X426643Y72584D01*
X426715Y72563D01*
X426788Y72547D01*
X426862Y72534D01*
X426937Y72524D01*
X427012Y72519D01*
X427087Y72517D01*
X428519Y73540D02*
X428584Y73678D01*
X428646Y73818D01*
X428704Y73960D01*
X428759Y74103D01*
X428810Y74247D01*
X428858Y74392D01*
X428901Y74539D01*
X428941Y74687D01*
X428978Y74835D01*
X429010Y74985D01*
X429039Y75135D01*
X429064Y75286D01*
X429085Y75437D01*
X429102Y75589D01*
X429116Y75742D01*
X429125Y75894D01*
X429131Y76047D01*
X429133Y76200D01*
X428519Y73540D02*
X428493Y73470D01*
X428463Y73400D01*
X428431Y73333D01*
X428394Y73267D01*
X428355Y73203D01*
X428312Y73141D01*
X428266Y73082D01*
X428218Y73024D01*
X428167Y72970D01*
X428113Y72917D01*
X428056Y72868D01*
X427997Y72821D01*
X427936Y72778D01*
X427873Y72737D01*
X427808Y72700D01*
X427741Y72665D01*
X427672Y72635D01*
X427602Y72607D01*
X427531Y72584D01*
X427459Y72563D01*
X427386Y72547D01*
X427312Y72534D01*
X427237Y72524D01*
X427162Y72519D01*
X427087Y72517D01*
X425450Y74154D02*
X428724Y78246D01*
D10*
X408305Y67310D02*
X381635Y67310D01*
X408305Y67310D02*
X408305Y54610D01*
X381635Y54610D01*
X381635Y67310D01*
D11*
X413244Y57277D02*
X414881Y57277D01*
X413244Y57277D02*
X413166Y57279D01*
X413088Y57284D01*
X413011Y57294D01*
X412934Y57307D01*
X412858Y57323D01*
X412783Y57343D01*
X412709Y57367D01*
X412636Y57394D01*
X412564Y57425D01*
X412494Y57459D01*
X412426Y57496D01*
X412359Y57537D01*
X412294Y57581D01*
X412232Y57627D01*
X412172Y57677D01*
X412114Y57729D01*
X412059Y57784D01*
X412007Y57842D01*
X411957Y57902D01*
X411911Y57964D01*
X411867Y58029D01*
X411826Y58096D01*
X411789Y58164D01*
X411755Y58234D01*
X411724Y58306D01*
X411697Y58379D01*
X411673Y58453D01*
X411653Y58528D01*
X411637Y58604D01*
X411624Y58681D01*
X411614Y58758D01*
X411609Y58836D01*
X411607Y58914D01*
X411607Y63006D01*
X411609Y63086D01*
X411615Y63166D01*
X411625Y63246D01*
X411638Y63325D01*
X411656Y63404D01*
X411677Y63481D01*
X411703Y63557D01*
X411732Y63632D01*
X411764Y63706D01*
X411800Y63778D01*
X411840Y63848D01*
X411883Y63915D01*
X411929Y63981D01*
X411979Y64044D01*
X412031Y64105D01*
X412086Y64164D01*
X412145Y64219D01*
X412205Y64271D01*
X412269Y64321D01*
X412335Y64367D01*
X412402Y64410D01*
X412472Y64450D01*
X412544Y64486D01*
X412618Y64518D01*
X412692Y64547D01*
X412769Y64573D01*
X412846Y64594D01*
X412925Y64612D01*
X413004Y64625D01*
X413084Y64635D01*
X413164Y64641D01*
X413244Y64643D01*
X414881Y64643D01*
X417726Y63006D02*
X419772Y64643D01*
X419772Y57277D01*
X417726Y57277D02*
X421818Y57277D01*
X425041Y63006D02*
X427087Y64643D01*
X427087Y57277D01*
X425041Y57277D02*
X429133Y57277D01*
D10*
X125095Y311150D02*
X98425Y311150D01*
X125095Y311150D02*
X125095Y298450D01*
X98425Y298450D01*
X98425Y311150D01*
D11*
X88338Y301117D02*
X86701Y301117D01*
X86623Y301119D01*
X86545Y301124D01*
X86468Y301134D01*
X86391Y301147D01*
X86315Y301163D01*
X86240Y301183D01*
X86166Y301207D01*
X86093Y301234D01*
X86021Y301265D01*
X85951Y301299D01*
X85883Y301336D01*
X85816Y301377D01*
X85751Y301421D01*
X85689Y301467D01*
X85629Y301517D01*
X85571Y301569D01*
X85516Y301624D01*
X85464Y301682D01*
X85414Y301742D01*
X85368Y301804D01*
X85324Y301869D01*
X85283Y301936D01*
X85246Y302004D01*
X85212Y302074D01*
X85181Y302146D01*
X85154Y302219D01*
X85130Y302293D01*
X85110Y302368D01*
X85094Y302444D01*
X85081Y302521D01*
X85071Y302598D01*
X85066Y302676D01*
X85064Y302754D01*
X85064Y306846D01*
X85066Y306926D01*
X85072Y307006D01*
X85082Y307086D01*
X85095Y307165D01*
X85113Y307244D01*
X85134Y307321D01*
X85160Y307397D01*
X85189Y307472D01*
X85221Y307546D01*
X85257Y307618D01*
X85297Y307688D01*
X85340Y307755D01*
X85386Y307821D01*
X85436Y307884D01*
X85488Y307945D01*
X85543Y308004D01*
X85602Y308059D01*
X85662Y308111D01*
X85726Y308161D01*
X85792Y308207D01*
X85859Y308250D01*
X85929Y308290D01*
X86001Y308326D01*
X86075Y308358D01*
X86149Y308387D01*
X86226Y308413D01*
X86303Y308434D01*
X86382Y308452D01*
X86461Y308465D01*
X86541Y308475D01*
X86621Y308481D01*
X86701Y308483D01*
X88338Y308483D01*
X93434Y308484D02*
X93519Y308482D01*
X93604Y308476D01*
X93688Y308466D01*
X93772Y308453D01*
X93856Y308435D01*
X93938Y308414D01*
X94019Y308389D01*
X94099Y308360D01*
X94178Y308327D01*
X94255Y308291D01*
X94330Y308251D01*
X94404Y308208D01*
X94475Y308162D01*
X94544Y308112D01*
X94611Y308059D01*
X94675Y308003D01*
X94736Y307944D01*
X94795Y307883D01*
X94851Y307819D01*
X94904Y307752D01*
X94954Y307683D01*
X95000Y307612D01*
X95043Y307538D01*
X95083Y307463D01*
X95119Y307386D01*
X95152Y307307D01*
X95181Y307227D01*
X95206Y307146D01*
X95227Y307064D01*
X95245Y306980D01*
X95258Y306896D01*
X95268Y306812D01*
X95274Y306727D01*
X95276Y306642D01*
X93434Y308483D02*
X93338Y308481D01*
X93242Y308475D01*
X93147Y308465D01*
X93052Y308452D01*
X92957Y308434D01*
X92864Y308413D01*
X92771Y308388D01*
X92680Y308359D01*
X92589Y308327D01*
X92500Y308291D01*
X92413Y308251D01*
X92327Y308208D01*
X92243Y308162D01*
X92161Y308112D01*
X92081Y308058D01*
X92004Y308002D01*
X91929Y307942D01*
X91856Y307880D01*
X91786Y307814D01*
X91718Y307746D01*
X91653Y307675D01*
X91592Y307602D01*
X91533Y307526D01*
X91477Y307447D01*
X91425Y307367D01*
X91376Y307284D01*
X91330Y307200D01*
X91288Y307114D01*
X91250Y307026D01*
X91215Y306937D01*
X91183Y306846D01*
X94662Y305210D02*
X94722Y305269D01*
X94779Y305331D01*
X94834Y305395D01*
X94885Y305462D01*
X94934Y305531D01*
X94980Y305601D01*
X95023Y305674D01*
X95063Y305748D01*
X95099Y305824D01*
X95132Y305902D01*
X95162Y305981D01*
X95189Y306061D01*
X95212Y306142D01*
X95231Y306224D01*
X95247Y306306D01*
X95260Y306390D01*
X95269Y306474D01*
X95274Y306558D01*
X95276Y306642D01*
X94662Y305209D02*
X91183Y301117D01*
X95276Y301117D01*
D10*
X156845Y257810D02*
X183515Y257810D01*
X183515Y245110D01*
X156845Y245110D01*
X156845Y257810D01*
D11*
X146758Y247777D02*
X145121Y247777D01*
X145043Y247779D01*
X144965Y247784D01*
X144888Y247794D01*
X144811Y247807D01*
X144735Y247823D01*
X144660Y247843D01*
X144586Y247867D01*
X144513Y247894D01*
X144441Y247925D01*
X144371Y247959D01*
X144303Y247996D01*
X144236Y248037D01*
X144171Y248081D01*
X144109Y248127D01*
X144049Y248177D01*
X143991Y248229D01*
X143936Y248284D01*
X143884Y248342D01*
X143834Y248402D01*
X143788Y248464D01*
X143744Y248529D01*
X143703Y248596D01*
X143666Y248664D01*
X143632Y248734D01*
X143601Y248806D01*
X143574Y248879D01*
X143550Y248953D01*
X143530Y249028D01*
X143514Y249104D01*
X143501Y249181D01*
X143491Y249258D01*
X143486Y249336D01*
X143484Y249414D01*
X143484Y253506D01*
X143486Y253586D01*
X143492Y253666D01*
X143502Y253746D01*
X143515Y253825D01*
X143533Y253904D01*
X143554Y253981D01*
X143580Y254057D01*
X143609Y254132D01*
X143641Y254206D01*
X143677Y254278D01*
X143717Y254348D01*
X143760Y254415D01*
X143806Y254481D01*
X143856Y254544D01*
X143908Y254605D01*
X143963Y254664D01*
X144022Y254719D01*
X144082Y254771D01*
X144146Y254821D01*
X144212Y254867D01*
X144279Y254910D01*
X144349Y254950D01*
X144421Y254986D01*
X144495Y255018D01*
X144569Y255047D01*
X144646Y255073D01*
X144723Y255094D01*
X144802Y255112D01*
X144881Y255125D01*
X144961Y255135D01*
X145041Y255141D01*
X145121Y255143D01*
X146758Y255143D01*
X149603Y247777D02*
X151650Y247777D01*
X151739Y247779D01*
X151828Y247785D01*
X151917Y247795D01*
X152005Y247808D01*
X152093Y247825D01*
X152180Y247847D01*
X152265Y247872D01*
X152350Y247900D01*
X152433Y247933D01*
X152515Y247969D01*
X152595Y248008D01*
X152673Y248051D01*
X152749Y248097D01*
X152824Y248147D01*
X152896Y248200D01*
X152965Y248256D01*
X153032Y248315D01*
X153097Y248376D01*
X153158Y248441D01*
X153217Y248508D01*
X153273Y248577D01*
X153326Y248649D01*
X153376Y248724D01*
X153422Y248800D01*
X153465Y248878D01*
X153504Y248958D01*
X153540Y249040D01*
X153573Y249123D01*
X153601Y249208D01*
X153626Y249293D01*
X153648Y249380D01*
X153665Y249468D01*
X153678Y249556D01*
X153688Y249645D01*
X153694Y249734D01*
X153696Y249823D01*
X153694Y249912D01*
X153688Y250001D01*
X153678Y250090D01*
X153665Y250178D01*
X153648Y250266D01*
X153626Y250353D01*
X153601Y250438D01*
X153573Y250523D01*
X153540Y250606D01*
X153504Y250688D01*
X153465Y250768D01*
X153422Y250846D01*
X153376Y250922D01*
X153326Y250997D01*
X153273Y251069D01*
X153217Y251138D01*
X153158Y251205D01*
X153097Y251270D01*
X153032Y251331D01*
X152965Y251390D01*
X152896Y251446D01*
X152824Y251499D01*
X152749Y251549D01*
X152673Y251595D01*
X152595Y251638D01*
X152515Y251677D01*
X152433Y251713D01*
X152350Y251746D01*
X152265Y251774D01*
X152180Y251799D01*
X152093Y251821D01*
X152005Y251838D01*
X151917Y251851D01*
X151828Y251861D01*
X151739Y251867D01*
X151650Y251869D01*
X152059Y255143D02*
X149603Y255143D01*
X152059Y255143D02*
X152138Y255141D01*
X152217Y255135D01*
X152296Y255126D01*
X152374Y255113D01*
X152451Y255095D01*
X152527Y255075D01*
X152602Y255050D01*
X152676Y255022D01*
X152749Y254991D01*
X152820Y254955D01*
X152889Y254917D01*
X152956Y254875D01*
X153021Y254830D01*
X153084Y254782D01*
X153145Y254731D01*
X153202Y254677D01*
X153258Y254621D01*
X153310Y254562D01*
X153360Y254500D01*
X153406Y254436D01*
X153450Y254370D01*
X153490Y254302D01*
X153526Y254232D01*
X153560Y254160D01*
X153590Y254086D01*
X153616Y254012D01*
X153639Y253936D01*
X153657Y253859D01*
X153673Y253782D01*
X153684Y253703D01*
X153692Y253625D01*
X153696Y253546D01*
X153696Y253466D01*
X153692Y253387D01*
X153684Y253309D01*
X153673Y253230D01*
X153657Y253153D01*
X153639Y253076D01*
X153616Y253000D01*
X153590Y252926D01*
X153560Y252852D01*
X153526Y252780D01*
X153490Y252710D01*
X153450Y252642D01*
X153406Y252576D01*
X153360Y252512D01*
X153310Y252450D01*
X153258Y252391D01*
X153202Y252335D01*
X153145Y252281D01*
X153084Y252230D01*
X153021Y252182D01*
X152956Y252137D01*
X152889Y252095D01*
X152820Y252057D01*
X152749Y252021D01*
X152676Y251990D01*
X152602Y251962D01*
X152527Y251937D01*
X152451Y251917D01*
X152374Y251899D01*
X152296Y251886D01*
X152217Y251877D01*
X152138Y251871D01*
X152059Y251869D01*
X150422Y251869D01*
D10*
X192405Y245110D02*
X219075Y245110D01*
X192405Y245110D02*
X192405Y257810D01*
X219075Y257810D01*
X219075Y245110D01*
D11*
X223861Y247777D02*
X225498Y247777D01*
X223861Y247777D02*
X223783Y247779D01*
X223705Y247784D01*
X223628Y247794D01*
X223551Y247807D01*
X223475Y247823D01*
X223400Y247843D01*
X223326Y247867D01*
X223253Y247894D01*
X223181Y247925D01*
X223111Y247959D01*
X223043Y247996D01*
X222976Y248037D01*
X222911Y248081D01*
X222849Y248127D01*
X222789Y248177D01*
X222731Y248229D01*
X222676Y248284D01*
X222624Y248342D01*
X222574Y248402D01*
X222528Y248464D01*
X222484Y248529D01*
X222443Y248596D01*
X222406Y248664D01*
X222372Y248734D01*
X222341Y248806D01*
X222314Y248879D01*
X222290Y248953D01*
X222270Y249028D01*
X222254Y249104D01*
X222241Y249181D01*
X222231Y249258D01*
X222226Y249336D01*
X222224Y249414D01*
X222224Y253506D01*
X222226Y253586D01*
X222232Y253666D01*
X222242Y253746D01*
X222255Y253825D01*
X222273Y253904D01*
X222294Y253981D01*
X222320Y254057D01*
X222349Y254132D01*
X222381Y254206D01*
X222417Y254278D01*
X222457Y254348D01*
X222500Y254415D01*
X222546Y254481D01*
X222596Y254544D01*
X222648Y254605D01*
X222703Y254664D01*
X222762Y254719D01*
X222822Y254771D01*
X222886Y254821D01*
X222952Y254867D01*
X223019Y254910D01*
X223089Y254950D01*
X223161Y254986D01*
X223235Y255018D01*
X223309Y255047D01*
X223386Y255073D01*
X223463Y255094D01*
X223542Y255112D01*
X223621Y255125D01*
X223701Y255135D01*
X223781Y255141D01*
X223861Y255143D01*
X225498Y255143D01*
X229980Y255143D02*
X228343Y249414D01*
X232436Y249414D01*
X231208Y251051D02*
X231208Y247777D01*
D10*
X192405Y439420D02*
X165735Y439420D01*
X165735Y452120D01*
X192405Y452120D01*
X192405Y439420D01*
D11*
X155648Y442087D02*
X154011Y442087D01*
X153933Y442089D01*
X153855Y442094D01*
X153778Y442104D01*
X153701Y442117D01*
X153625Y442133D01*
X153550Y442153D01*
X153476Y442177D01*
X153403Y442204D01*
X153331Y442235D01*
X153261Y442269D01*
X153193Y442306D01*
X153126Y442347D01*
X153061Y442391D01*
X152999Y442437D01*
X152939Y442487D01*
X152881Y442539D01*
X152826Y442594D01*
X152774Y442652D01*
X152724Y442712D01*
X152678Y442774D01*
X152634Y442839D01*
X152593Y442906D01*
X152556Y442974D01*
X152522Y443044D01*
X152491Y443116D01*
X152464Y443189D01*
X152440Y443263D01*
X152420Y443338D01*
X152404Y443414D01*
X152391Y443491D01*
X152381Y443568D01*
X152376Y443646D01*
X152374Y443724D01*
X152374Y447816D01*
X152376Y447896D01*
X152382Y447976D01*
X152392Y448056D01*
X152405Y448135D01*
X152423Y448214D01*
X152444Y448291D01*
X152470Y448367D01*
X152499Y448442D01*
X152531Y448516D01*
X152567Y448588D01*
X152607Y448658D01*
X152650Y448725D01*
X152696Y448791D01*
X152746Y448854D01*
X152798Y448915D01*
X152853Y448974D01*
X152912Y449029D01*
X152972Y449081D01*
X153036Y449131D01*
X153102Y449177D01*
X153169Y449220D01*
X153239Y449260D01*
X153311Y449296D01*
X153385Y449328D01*
X153459Y449357D01*
X153536Y449383D01*
X153613Y449404D01*
X153692Y449422D01*
X153771Y449435D01*
X153851Y449445D01*
X153931Y449451D01*
X154011Y449453D01*
X155648Y449453D01*
X158493Y442087D02*
X160949Y442087D01*
X161027Y442089D01*
X161105Y442094D01*
X161182Y442104D01*
X161259Y442117D01*
X161335Y442133D01*
X161410Y442153D01*
X161484Y442177D01*
X161557Y442204D01*
X161629Y442235D01*
X161699Y442269D01*
X161768Y442306D01*
X161834Y442347D01*
X161899Y442391D01*
X161961Y442437D01*
X162021Y442487D01*
X162079Y442539D01*
X162134Y442594D01*
X162186Y442652D01*
X162236Y442712D01*
X162282Y442774D01*
X162326Y442839D01*
X162367Y442906D01*
X162404Y442974D01*
X162438Y443044D01*
X162469Y443116D01*
X162496Y443189D01*
X162520Y443263D01*
X162540Y443338D01*
X162556Y443414D01*
X162569Y443491D01*
X162579Y443568D01*
X162584Y443646D01*
X162586Y443724D01*
X162586Y444542D01*
X162584Y444620D01*
X162579Y444698D01*
X162569Y444775D01*
X162556Y444852D01*
X162540Y444928D01*
X162520Y445003D01*
X162496Y445077D01*
X162469Y445150D01*
X162438Y445222D01*
X162404Y445292D01*
X162367Y445361D01*
X162326Y445427D01*
X162282Y445492D01*
X162236Y445554D01*
X162186Y445614D01*
X162134Y445672D01*
X162079Y445727D01*
X162021Y445779D01*
X161961Y445829D01*
X161899Y445875D01*
X161834Y445919D01*
X161768Y445960D01*
X161699Y445997D01*
X161629Y446031D01*
X161557Y446062D01*
X161484Y446089D01*
X161410Y446113D01*
X161335Y446133D01*
X161259Y446149D01*
X161182Y446162D01*
X161105Y446172D01*
X161027Y446177D01*
X160949Y446179D01*
X158493Y446179D01*
X158493Y449453D01*
X162586Y449453D01*
D10*
X125095Y382270D02*
X98425Y382270D01*
X125095Y382270D02*
X125095Y369570D01*
X98425Y369570D01*
X98425Y382270D01*
D11*
X88338Y372237D02*
X86701Y372237D01*
X86623Y372239D01*
X86545Y372244D01*
X86468Y372254D01*
X86391Y372267D01*
X86315Y372283D01*
X86240Y372303D01*
X86166Y372327D01*
X86093Y372354D01*
X86021Y372385D01*
X85951Y372419D01*
X85883Y372456D01*
X85816Y372497D01*
X85751Y372541D01*
X85689Y372587D01*
X85629Y372637D01*
X85571Y372689D01*
X85516Y372744D01*
X85464Y372802D01*
X85414Y372862D01*
X85368Y372924D01*
X85324Y372989D01*
X85283Y373056D01*
X85246Y373124D01*
X85212Y373194D01*
X85181Y373266D01*
X85154Y373339D01*
X85130Y373413D01*
X85110Y373488D01*
X85094Y373564D01*
X85081Y373641D01*
X85071Y373718D01*
X85066Y373796D01*
X85064Y373874D01*
X85064Y377966D01*
X85066Y378046D01*
X85072Y378126D01*
X85082Y378206D01*
X85095Y378285D01*
X85113Y378364D01*
X85134Y378441D01*
X85160Y378517D01*
X85189Y378592D01*
X85221Y378666D01*
X85257Y378738D01*
X85297Y378808D01*
X85340Y378875D01*
X85386Y378941D01*
X85436Y379004D01*
X85488Y379065D01*
X85543Y379124D01*
X85602Y379179D01*
X85662Y379231D01*
X85726Y379281D01*
X85792Y379327D01*
X85859Y379370D01*
X85929Y379410D01*
X86001Y379446D01*
X86075Y379478D01*
X86149Y379507D01*
X86226Y379533D01*
X86303Y379554D01*
X86382Y379572D01*
X86461Y379585D01*
X86541Y379595D01*
X86621Y379601D01*
X86701Y379603D01*
X88338Y379603D01*
X91183Y376329D02*
X93639Y376329D01*
X93717Y376327D01*
X93795Y376322D01*
X93872Y376312D01*
X93949Y376299D01*
X94025Y376283D01*
X94100Y376263D01*
X94174Y376239D01*
X94247Y376212D01*
X94319Y376181D01*
X94389Y376147D01*
X94458Y376110D01*
X94524Y376069D01*
X94589Y376025D01*
X94651Y375979D01*
X94711Y375929D01*
X94769Y375877D01*
X94824Y375822D01*
X94876Y375764D01*
X94926Y375704D01*
X94972Y375642D01*
X95016Y375577D01*
X95057Y375511D01*
X95094Y375442D01*
X95128Y375372D01*
X95159Y375300D01*
X95186Y375227D01*
X95210Y375153D01*
X95230Y375078D01*
X95246Y375002D01*
X95259Y374925D01*
X95269Y374848D01*
X95274Y374770D01*
X95276Y374692D01*
X95276Y374283D01*
X95274Y374194D01*
X95268Y374105D01*
X95258Y374016D01*
X95245Y373928D01*
X95228Y373840D01*
X95206Y373753D01*
X95181Y373668D01*
X95153Y373583D01*
X95120Y373500D01*
X95084Y373418D01*
X95045Y373338D01*
X95002Y373260D01*
X94956Y373184D01*
X94906Y373109D01*
X94853Y373037D01*
X94797Y372968D01*
X94738Y372901D01*
X94677Y372836D01*
X94612Y372775D01*
X94545Y372716D01*
X94476Y372660D01*
X94404Y372607D01*
X94329Y372557D01*
X94253Y372511D01*
X94175Y372468D01*
X94095Y372429D01*
X94013Y372393D01*
X93930Y372360D01*
X93845Y372332D01*
X93760Y372307D01*
X93673Y372285D01*
X93585Y372268D01*
X93497Y372255D01*
X93408Y372245D01*
X93319Y372239D01*
X93230Y372237D01*
X93141Y372239D01*
X93052Y372245D01*
X92963Y372255D01*
X92875Y372268D01*
X92787Y372285D01*
X92700Y372307D01*
X92615Y372332D01*
X92530Y372360D01*
X92447Y372393D01*
X92365Y372429D01*
X92285Y372468D01*
X92207Y372511D01*
X92131Y372557D01*
X92056Y372607D01*
X91984Y372660D01*
X91915Y372716D01*
X91848Y372775D01*
X91783Y372836D01*
X91722Y372901D01*
X91663Y372968D01*
X91607Y373037D01*
X91554Y373109D01*
X91504Y373184D01*
X91458Y373260D01*
X91415Y373338D01*
X91376Y373418D01*
X91340Y373500D01*
X91307Y373583D01*
X91279Y373668D01*
X91254Y373753D01*
X91232Y373840D01*
X91215Y373928D01*
X91202Y374016D01*
X91192Y374105D01*
X91186Y374194D01*
X91184Y374283D01*
X91183Y374283D02*
X91183Y376329D01*
X91185Y376443D01*
X91191Y376557D01*
X91201Y376671D01*
X91215Y376785D01*
X91233Y376898D01*
X91255Y377010D01*
X91280Y377121D01*
X91310Y377231D01*
X91343Y377341D01*
X91380Y377449D01*
X91421Y377555D01*
X91466Y377661D01*
X91514Y377764D01*
X91566Y377866D01*
X91622Y377966D01*
X91680Y378064D01*
X91743Y378160D01*
X91808Y378253D01*
X91877Y378345D01*
X91949Y378433D01*
X92024Y378520D01*
X92102Y378603D01*
X92183Y378684D01*
X92266Y378762D01*
X92353Y378837D01*
X92441Y378909D01*
X92533Y378978D01*
X92626Y379043D01*
X92722Y379105D01*
X92820Y379164D01*
X92920Y379220D01*
X93022Y379272D01*
X93125Y379320D01*
X93231Y379365D01*
X93337Y379406D01*
X93445Y379443D01*
X93555Y379476D01*
X93665Y379506D01*
X93776Y379531D01*
X93888Y379553D01*
X94001Y379571D01*
X94115Y379585D01*
X94229Y379595D01*
X94343Y379601D01*
X94457Y379603D01*
D10*
X98425Y267970D02*
X125095Y267970D01*
X98425Y267970D02*
X98425Y280670D01*
X125095Y280670D01*
X125095Y267970D01*
D11*
X88338Y270637D02*
X86701Y270637D01*
X86623Y270639D01*
X86545Y270644D01*
X86468Y270654D01*
X86391Y270667D01*
X86315Y270683D01*
X86240Y270703D01*
X86166Y270727D01*
X86093Y270754D01*
X86021Y270785D01*
X85951Y270819D01*
X85883Y270856D01*
X85816Y270897D01*
X85751Y270941D01*
X85689Y270987D01*
X85629Y271037D01*
X85571Y271089D01*
X85516Y271144D01*
X85464Y271202D01*
X85414Y271262D01*
X85368Y271324D01*
X85324Y271389D01*
X85283Y271456D01*
X85246Y271524D01*
X85212Y271594D01*
X85181Y271666D01*
X85154Y271739D01*
X85130Y271813D01*
X85110Y271888D01*
X85094Y271964D01*
X85081Y272041D01*
X85071Y272118D01*
X85066Y272196D01*
X85064Y272274D01*
X85064Y276366D01*
X85066Y276446D01*
X85072Y276526D01*
X85082Y276606D01*
X85095Y276685D01*
X85113Y276764D01*
X85134Y276841D01*
X85160Y276917D01*
X85189Y276992D01*
X85221Y277066D01*
X85257Y277138D01*
X85297Y277208D01*
X85340Y277275D01*
X85386Y277341D01*
X85436Y277404D01*
X85488Y277465D01*
X85543Y277524D01*
X85602Y277579D01*
X85662Y277631D01*
X85726Y277681D01*
X85792Y277727D01*
X85859Y277770D01*
X85929Y277810D01*
X86001Y277846D01*
X86075Y277878D01*
X86149Y277907D01*
X86226Y277933D01*
X86303Y277954D01*
X86382Y277972D01*
X86461Y277985D01*
X86541Y277995D01*
X86621Y278001D01*
X86701Y278003D01*
X88338Y278003D01*
X91183Y278003D02*
X91183Y277185D01*
X91183Y278003D02*
X95276Y278003D01*
X93230Y270637D01*
D10*
X433705Y347980D02*
X460375Y347980D01*
X460375Y335280D01*
X433705Y335280D01*
X433705Y347980D01*
D11*
X444994Y349377D02*
X446631Y349377D01*
X444994Y349377D02*
X444916Y349379D01*
X444838Y349384D01*
X444761Y349394D01*
X444684Y349407D01*
X444608Y349423D01*
X444533Y349443D01*
X444459Y349467D01*
X444386Y349494D01*
X444314Y349525D01*
X444244Y349559D01*
X444176Y349596D01*
X444109Y349637D01*
X444044Y349681D01*
X443982Y349727D01*
X443922Y349777D01*
X443864Y349829D01*
X443809Y349884D01*
X443757Y349942D01*
X443707Y350002D01*
X443661Y350064D01*
X443617Y350129D01*
X443576Y350196D01*
X443539Y350264D01*
X443505Y350334D01*
X443474Y350406D01*
X443447Y350479D01*
X443423Y350553D01*
X443403Y350628D01*
X443387Y350704D01*
X443374Y350781D01*
X443364Y350858D01*
X443359Y350936D01*
X443357Y351014D01*
X443357Y355106D01*
X443359Y355186D01*
X443365Y355266D01*
X443375Y355346D01*
X443388Y355425D01*
X443406Y355504D01*
X443427Y355581D01*
X443453Y355657D01*
X443482Y355732D01*
X443514Y355806D01*
X443550Y355878D01*
X443590Y355948D01*
X443633Y356015D01*
X443679Y356081D01*
X443729Y356144D01*
X443781Y356205D01*
X443836Y356264D01*
X443895Y356319D01*
X443955Y356371D01*
X444019Y356421D01*
X444085Y356467D01*
X444152Y356510D01*
X444222Y356550D01*
X444294Y356586D01*
X444368Y356618D01*
X444442Y356647D01*
X444519Y356673D01*
X444596Y356694D01*
X444675Y356712D01*
X444754Y356725D01*
X444834Y356735D01*
X444914Y356741D01*
X444994Y356743D01*
X446631Y356743D01*
X449476Y355106D02*
X451522Y356743D01*
X451522Y349377D01*
X449476Y349377D02*
X453568Y349377D01*
X456791Y349377D02*
X458837Y349377D01*
X458926Y349379D01*
X459015Y349385D01*
X459104Y349395D01*
X459192Y349408D01*
X459280Y349425D01*
X459367Y349447D01*
X459452Y349472D01*
X459537Y349500D01*
X459620Y349533D01*
X459702Y349569D01*
X459782Y349608D01*
X459860Y349651D01*
X459936Y349697D01*
X460011Y349747D01*
X460083Y349800D01*
X460152Y349856D01*
X460219Y349915D01*
X460284Y349976D01*
X460345Y350041D01*
X460404Y350108D01*
X460460Y350177D01*
X460513Y350249D01*
X460563Y350324D01*
X460609Y350400D01*
X460652Y350478D01*
X460691Y350558D01*
X460727Y350640D01*
X460760Y350723D01*
X460788Y350808D01*
X460813Y350893D01*
X460835Y350980D01*
X460852Y351068D01*
X460865Y351156D01*
X460875Y351245D01*
X460881Y351334D01*
X460883Y351423D01*
X460881Y351512D01*
X460875Y351601D01*
X460865Y351690D01*
X460852Y351778D01*
X460835Y351866D01*
X460813Y351953D01*
X460788Y352038D01*
X460760Y352123D01*
X460727Y352206D01*
X460691Y352288D01*
X460652Y352368D01*
X460609Y352446D01*
X460563Y352522D01*
X460513Y352597D01*
X460460Y352669D01*
X460404Y352738D01*
X460345Y352805D01*
X460284Y352870D01*
X460219Y352931D01*
X460152Y352990D01*
X460083Y353046D01*
X460011Y353099D01*
X459936Y353149D01*
X459860Y353195D01*
X459782Y353238D01*
X459702Y353277D01*
X459620Y353313D01*
X459537Y353346D01*
X459452Y353374D01*
X459367Y353399D01*
X459280Y353421D01*
X459192Y353438D01*
X459104Y353451D01*
X459015Y353461D01*
X458926Y353467D01*
X458837Y353469D01*
X459246Y356743D02*
X456791Y356743D01*
X459246Y356743D02*
X459325Y356741D01*
X459404Y356735D01*
X459483Y356726D01*
X459561Y356713D01*
X459638Y356695D01*
X459714Y356675D01*
X459789Y356650D01*
X459863Y356622D01*
X459936Y356591D01*
X460007Y356555D01*
X460076Y356517D01*
X460143Y356475D01*
X460208Y356430D01*
X460271Y356382D01*
X460332Y356331D01*
X460389Y356277D01*
X460445Y356221D01*
X460497Y356162D01*
X460547Y356100D01*
X460593Y356036D01*
X460637Y355970D01*
X460677Y355902D01*
X460713Y355832D01*
X460747Y355760D01*
X460777Y355686D01*
X460803Y355612D01*
X460826Y355536D01*
X460844Y355459D01*
X460860Y355382D01*
X460871Y355303D01*
X460879Y355225D01*
X460883Y355146D01*
X460883Y355066D01*
X460879Y354987D01*
X460871Y354909D01*
X460860Y354830D01*
X460844Y354753D01*
X460826Y354676D01*
X460803Y354600D01*
X460777Y354526D01*
X460747Y354452D01*
X460713Y354380D01*
X460677Y354310D01*
X460637Y354242D01*
X460593Y354176D01*
X460547Y354112D01*
X460497Y354050D01*
X460445Y353991D01*
X460389Y353935D01*
X460332Y353881D01*
X460271Y353830D01*
X460208Y353782D01*
X460143Y353737D01*
X460076Y353695D01*
X460007Y353657D01*
X459936Y353621D01*
X459863Y353590D01*
X459789Y353562D01*
X459714Y353537D01*
X459638Y353517D01*
X459561Y353499D01*
X459483Y353486D01*
X459404Y353477D01*
X459325Y353471D01*
X459246Y353469D01*
X457609Y353469D01*
D10*
X380365Y24130D02*
X369570Y24130D01*
X330835Y24130D01*
X330835Y44450D01*
X369570Y44450D01*
X380365Y44450D01*
X380365Y24130D01*
X379730Y27940D02*
X369570Y27940D01*
X369570Y24130D01*
X369570Y40640D02*
X379730Y40640D01*
X369570Y40640D02*
X369570Y44450D01*
D11*
X316214Y38223D02*
X316214Y30857D01*
X316214Y38223D02*
X318260Y38223D01*
X318349Y38221D01*
X318438Y38215D01*
X318527Y38205D01*
X318615Y38192D01*
X318703Y38175D01*
X318790Y38153D01*
X318875Y38128D01*
X318960Y38100D01*
X319043Y38067D01*
X319125Y38031D01*
X319205Y37992D01*
X319283Y37949D01*
X319359Y37903D01*
X319434Y37853D01*
X319506Y37800D01*
X319575Y37744D01*
X319642Y37685D01*
X319707Y37624D01*
X319768Y37559D01*
X319827Y37492D01*
X319883Y37423D01*
X319936Y37351D01*
X319986Y37276D01*
X320032Y37200D01*
X320075Y37122D01*
X320114Y37042D01*
X320150Y36960D01*
X320183Y36877D01*
X320211Y36792D01*
X320236Y36707D01*
X320258Y36620D01*
X320275Y36532D01*
X320288Y36444D01*
X320298Y36355D01*
X320304Y36266D01*
X320306Y36177D01*
X320307Y36177D02*
X320307Y32903D01*
X320305Y32814D01*
X320299Y32725D01*
X320289Y32636D01*
X320276Y32548D01*
X320259Y32460D01*
X320237Y32373D01*
X320212Y32288D01*
X320184Y32203D01*
X320151Y32120D01*
X320115Y32038D01*
X320076Y31958D01*
X320033Y31880D01*
X319987Y31804D01*
X319937Y31729D01*
X319884Y31657D01*
X319828Y31588D01*
X319769Y31521D01*
X319708Y31456D01*
X319643Y31395D01*
X319576Y31336D01*
X319507Y31280D01*
X319435Y31227D01*
X319360Y31177D01*
X319284Y31131D01*
X319206Y31088D01*
X319126Y31049D01*
X319044Y31013D01*
X318961Y30980D01*
X318876Y30952D01*
X318791Y30927D01*
X318704Y30905D01*
X318616Y30888D01*
X318528Y30875D01*
X318439Y30865D01*
X318350Y30859D01*
X318261Y30857D01*
X318260Y30857D02*
X316214Y30857D01*
X323773Y36586D02*
X325820Y38223D01*
X325820Y30857D01*
X327866Y30857D02*
X323773Y30857D01*
D10*
X436880Y46355D02*
X436880Y83185D01*
X469900Y83185D01*
X469900Y46355D01*
X436880Y46355D01*
D11*
X447796Y87263D02*
X447796Y90537D01*
X447798Y90626D01*
X447804Y90715D01*
X447814Y90804D01*
X447827Y90892D01*
X447844Y90980D01*
X447866Y91067D01*
X447891Y91152D01*
X447919Y91237D01*
X447952Y91320D01*
X447988Y91402D01*
X448027Y91482D01*
X448070Y91560D01*
X448116Y91636D01*
X448166Y91711D01*
X448219Y91783D01*
X448275Y91852D01*
X448334Y91919D01*
X448395Y91984D01*
X448460Y92045D01*
X448527Y92104D01*
X448596Y92160D01*
X448668Y92213D01*
X448743Y92263D01*
X448819Y92309D01*
X448897Y92352D01*
X448977Y92391D01*
X449059Y92427D01*
X449142Y92460D01*
X449227Y92488D01*
X449312Y92513D01*
X449399Y92535D01*
X449487Y92552D01*
X449575Y92565D01*
X449664Y92575D01*
X449753Y92581D01*
X449842Y92583D01*
X449931Y92581D01*
X450020Y92575D01*
X450109Y92565D01*
X450197Y92552D01*
X450285Y92535D01*
X450372Y92513D01*
X450457Y92488D01*
X450542Y92460D01*
X450625Y92427D01*
X450707Y92391D01*
X450787Y92352D01*
X450865Y92309D01*
X450941Y92263D01*
X451016Y92213D01*
X451088Y92160D01*
X451157Y92104D01*
X451224Y92045D01*
X451289Y91984D01*
X451350Y91919D01*
X451409Y91852D01*
X451465Y91783D01*
X451518Y91711D01*
X451568Y91636D01*
X451614Y91560D01*
X451657Y91482D01*
X451696Y91402D01*
X451732Y91320D01*
X451765Y91237D01*
X451793Y91152D01*
X451818Y91067D01*
X451840Y90980D01*
X451857Y90892D01*
X451870Y90804D01*
X451880Y90715D01*
X451886Y90626D01*
X451888Y90537D01*
X451888Y87263D01*
X451886Y87174D01*
X451880Y87085D01*
X451870Y86996D01*
X451857Y86908D01*
X451840Y86820D01*
X451818Y86733D01*
X451793Y86648D01*
X451765Y86563D01*
X451732Y86480D01*
X451696Y86398D01*
X451657Y86318D01*
X451614Y86240D01*
X451568Y86164D01*
X451518Y86089D01*
X451465Y86017D01*
X451409Y85948D01*
X451350Y85881D01*
X451289Y85816D01*
X451224Y85755D01*
X451157Y85696D01*
X451088Y85640D01*
X451016Y85587D01*
X450941Y85537D01*
X450865Y85491D01*
X450787Y85448D01*
X450707Y85409D01*
X450625Y85373D01*
X450542Y85340D01*
X450457Y85312D01*
X450372Y85287D01*
X450285Y85265D01*
X450197Y85248D01*
X450109Y85235D01*
X450020Y85225D01*
X449931Y85219D01*
X449842Y85217D01*
X449753Y85219D01*
X449664Y85225D01*
X449575Y85235D01*
X449487Y85248D01*
X449399Y85265D01*
X449312Y85287D01*
X449227Y85312D01*
X449142Y85340D01*
X449059Y85373D01*
X448977Y85409D01*
X448897Y85448D01*
X448819Y85491D01*
X448743Y85537D01*
X448668Y85587D01*
X448596Y85640D01*
X448527Y85696D01*
X448460Y85755D01*
X448395Y85816D01*
X448334Y85881D01*
X448275Y85948D01*
X448219Y86017D01*
X448166Y86089D01*
X448116Y86164D01*
X448070Y86240D01*
X448027Y86318D01*
X447988Y86398D01*
X447952Y86480D01*
X447919Y86563D01*
X447891Y86648D01*
X447866Y86733D01*
X447844Y86820D01*
X447827Y86908D01*
X447814Y86996D01*
X447804Y87085D01*
X447798Y87174D01*
X447796Y87263D01*
X451070Y86854D02*
X452707Y85217D01*
X454892Y90946D02*
X456938Y92583D01*
X456938Y85217D01*
X454892Y85217D02*
X458984Y85217D01*
D10*
X431165Y335280D02*
X404495Y335280D01*
X404495Y347980D01*
X431165Y347980D01*
X431165Y335280D01*
D11*
X408494Y349377D02*
X408494Y356743D01*
X410540Y356743D01*
X410629Y356741D01*
X410718Y356735D01*
X410807Y356725D01*
X410895Y356712D01*
X410983Y356695D01*
X411070Y356673D01*
X411155Y356648D01*
X411240Y356620D01*
X411323Y356587D01*
X411405Y356551D01*
X411485Y356512D01*
X411563Y356469D01*
X411639Y356423D01*
X411714Y356373D01*
X411786Y356320D01*
X411855Y356264D01*
X411922Y356205D01*
X411987Y356144D01*
X412048Y356079D01*
X412107Y356012D01*
X412163Y355943D01*
X412216Y355871D01*
X412266Y355796D01*
X412312Y355720D01*
X412355Y355642D01*
X412394Y355562D01*
X412430Y355480D01*
X412463Y355397D01*
X412491Y355312D01*
X412516Y355227D01*
X412538Y355140D01*
X412555Y355052D01*
X412568Y354964D01*
X412578Y354875D01*
X412584Y354786D01*
X412586Y354697D01*
X412584Y354608D01*
X412578Y354519D01*
X412568Y354430D01*
X412555Y354342D01*
X412538Y354254D01*
X412516Y354167D01*
X412491Y354082D01*
X412463Y353997D01*
X412430Y353914D01*
X412394Y353832D01*
X412355Y353752D01*
X412312Y353674D01*
X412266Y353598D01*
X412216Y353523D01*
X412163Y353451D01*
X412107Y353382D01*
X412048Y353315D01*
X411987Y353250D01*
X411922Y353189D01*
X411855Y353130D01*
X411786Y353074D01*
X411714Y353021D01*
X411639Y352971D01*
X411563Y352925D01*
X411485Y352882D01*
X411405Y352843D01*
X411323Y352807D01*
X411240Y352774D01*
X411155Y352746D01*
X411070Y352721D01*
X410983Y352699D01*
X410895Y352682D01*
X410807Y352669D01*
X410718Y352659D01*
X410629Y352653D01*
X410540Y352651D01*
X408494Y352651D01*
X410950Y352651D02*
X412586Y349377D01*
X415758Y355106D02*
X417804Y356743D01*
X417804Y349377D01*
X415758Y349377D02*
X419851Y349377D01*
X423074Y353060D02*
X423076Y353213D01*
X423082Y353366D01*
X423091Y353518D01*
X423105Y353671D01*
X423122Y353823D01*
X423143Y353974D01*
X423168Y354125D01*
X423197Y354275D01*
X423229Y354425D01*
X423266Y354573D01*
X423306Y354721D01*
X423349Y354868D01*
X423397Y355013D01*
X423448Y355157D01*
X423502Y355300D01*
X423561Y355442D01*
X423622Y355581D01*
X423688Y355720D01*
X423714Y355790D01*
X423744Y355860D01*
X423777Y355927D01*
X423813Y355993D01*
X423852Y356057D01*
X423895Y356119D01*
X423941Y356178D01*
X423989Y356236D01*
X424040Y356290D01*
X424094Y356343D01*
X424151Y356392D01*
X424210Y356439D01*
X424271Y356482D01*
X424334Y356523D01*
X424399Y356560D01*
X424466Y356595D01*
X424535Y356625D01*
X424605Y356653D01*
X424676Y356676D01*
X424748Y356697D01*
X424821Y356713D01*
X424895Y356726D01*
X424970Y356736D01*
X425045Y356741D01*
X425120Y356743D01*
X425195Y356741D01*
X425270Y356736D01*
X425345Y356726D01*
X425419Y356713D01*
X425492Y356697D01*
X425564Y356676D01*
X425635Y356653D01*
X425705Y356625D01*
X425774Y356595D01*
X425841Y356560D01*
X425906Y356523D01*
X425969Y356482D01*
X426030Y356439D01*
X426089Y356392D01*
X426146Y356343D01*
X426200Y356290D01*
X426251Y356236D01*
X426300Y356178D01*
X426345Y356119D01*
X426388Y356057D01*
X426427Y355993D01*
X426464Y355927D01*
X426496Y355859D01*
X426526Y355790D01*
X426552Y355720D01*
X426617Y355582D01*
X426679Y355442D01*
X426737Y355300D01*
X426792Y355157D01*
X426843Y355013D01*
X426891Y354868D01*
X426934Y354721D01*
X426974Y354574D01*
X427011Y354425D01*
X427043Y354275D01*
X427072Y354125D01*
X427097Y353974D01*
X427118Y353823D01*
X427135Y353671D01*
X427149Y353518D01*
X427158Y353366D01*
X427164Y353213D01*
X427166Y353060D01*
X423073Y353060D02*
X423075Y352907D01*
X423081Y352754D01*
X423090Y352601D01*
X423104Y352449D01*
X423121Y352297D01*
X423142Y352146D01*
X423167Y351995D01*
X423196Y351844D01*
X423228Y351695D01*
X423265Y351546D01*
X423305Y351399D01*
X423348Y351252D01*
X423396Y351107D01*
X423447Y350962D01*
X423502Y350820D01*
X423560Y350678D01*
X423622Y350538D01*
X423687Y350400D01*
X423688Y350400D02*
X423714Y350329D01*
X423744Y350260D01*
X423777Y350193D01*
X423813Y350127D01*
X423852Y350063D01*
X423895Y350001D01*
X423941Y349942D01*
X423989Y349884D01*
X424040Y349830D01*
X424094Y349777D01*
X424151Y349728D01*
X424210Y349681D01*
X424271Y349638D01*
X424334Y349597D01*
X424399Y349560D01*
X424466Y349525D01*
X424535Y349495D01*
X424605Y349467D01*
X424676Y349444D01*
X424748Y349423D01*
X424821Y349407D01*
X424895Y349394D01*
X424970Y349384D01*
X425045Y349379D01*
X425120Y349377D01*
X426552Y350400D02*
X426617Y350538D01*
X426679Y350678D01*
X426737Y350820D01*
X426792Y350963D01*
X426843Y351107D01*
X426891Y351252D01*
X426934Y351399D01*
X426974Y351547D01*
X427011Y351695D01*
X427043Y351845D01*
X427072Y351995D01*
X427097Y352146D01*
X427118Y352297D01*
X427135Y352449D01*
X427149Y352602D01*
X427158Y352754D01*
X427164Y352907D01*
X427166Y353060D01*
X426552Y350400D02*
X426526Y350330D01*
X426496Y350260D01*
X426464Y350193D01*
X426427Y350127D01*
X426388Y350063D01*
X426345Y350001D01*
X426299Y349942D01*
X426251Y349884D01*
X426200Y349830D01*
X426146Y349777D01*
X426089Y349728D01*
X426030Y349681D01*
X425969Y349638D01*
X425906Y349597D01*
X425841Y349560D01*
X425774Y349525D01*
X425705Y349495D01*
X425635Y349467D01*
X425564Y349444D01*
X425492Y349423D01*
X425419Y349407D01*
X425345Y349394D01*
X425270Y349384D01*
X425195Y349379D01*
X425120Y349377D01*
X423483Y351014D02*
X426757Y355106D01*
D10*
X431165Y304800D02*
X404495Y304800D01*
X404495Y317500D01*
X431165Y317500D01*
X431165Y304800D01*
D11*
X412152Y303403D02*
X412152Y296037D01*
X412152Y303403D02*
X414198Y303403D01*
X414287Y303401D01*
X414376Y303395D01*
X414465Y303385D01*
X414553Y303372D01*
X414641Y303355D01*
X414728Y303333D01*
X414813Y303308D01*
X414898Y303280D01*
X414981Y303247D01*
X415063Y303211D01*
X415143Y303172D01*
X415221Y303129D01*
X415297Y303083D01*
X415372Y303033D01*
X415444Y302980D01*
X415513Y302924D01*
X415580Y302865D01*
X415645Y302804D01*
X415706Y302739D01*
X415765Y302672D01*
X415821Y302603D01*
X415874Y302531D01*
X415924Y302456D01*
X415970Y302380D01*
X416013Y302302D01*
X416052Y302222D01*
X416088Y302140D01*
X416121Y302057D01*
X416149Y301972D01*
X416174Y301887D01*
X416196Y301800D01*
X416213Y301712D01*
X416226Y301624D01*
X416236Y301535D01*
X416242Y301446D01*
X416244Y301357D01*
X416242Y301268D01*
X416236Y301179D01*
X416226Y301090D01*
X416213Y301002D01*
X416196Y300914D01*
X416174Y300827D01*
X416149Y300742D01*
X416121Y300657D01*
X416088Y300574D01*
X416052Y300492D01*
X416013Y300412D01*
X415970Y300334D01*
X415924Y300258D01*
X415874Y300183D01*
X415821Y300111D01*
X415765Y300042D01*
X415706Y299975D01*
X415645Y299910D01*
X415580Y299849D01*
X415513Y299790D01*
X415444Y299734D01*
X415372Y299681D01*
X415297Y299631D01*
X415221Y299585D01*
X415143Y299542D01*
X415063Y299503D01*
X414981Y299467D01*
X414898Y299434D01*
X414813Y299406D01*
X414728Y299381D01*
X414641Y299359D01*
X414553Y299342D01*
X414465Y299329D01*
X414376Y299319D01*
X414287Y299313D01*
X414198Y299311D01*
X412152Y299311D01*
X414607Y299311D02*
X416244Y296037D01*
X421053Y299311D02*
X423508Y299311D01*
X421053Y299311D02*
X420975Y299313D01*
X420897Y299318D01*
X420820Y299328D01*
X420743Y299341D01*
X420667Y299357D01*
X420592Y299377D01*
X420518Y299401D01*
X420445Y299428D01*
X420373Y299459D01*
X420303Y299493D01*
X420234Y299530D01*
X420168Y299571D01*
X420103Y299615D01*
X420041Y299661D01*
X419981Y299711D01*
X419923Y299763D01*
X419868Y299818D01*
X419816Y299876D01*
X419766Y299936D01*
X419720Y299998D01*
X419676Y300063D01*
X419635Y300130D01*
X419598Y300198D01*
X419564Y300268D01*
X419533Y300340D01*
X419506Y300413D01*
X419482Y300487D01*
X419462Y300562D01*
X419446Y300638D01*
X419433Y300715D01*
X419423Y300792D01*
X419418Y300870D01*
X419416Y300948D01*
X419416Y301357D01*
X419418Y301446D01*
X419424Y301535D01*
X419434Y301624D01*
X419447Y301712D01*
X419464Y301800D01*
X419486Y301887D01*
X419511Y301972D01*
X419539Y302057D01*
X419572Y302140D01*
X419608Y302222D01*
X419647Y302302D01*
X419690Y302380D01*
X419736Y302456D01*
X419786Y302531D01*
X419839Y302603D01*
X419895Y302672D01*
X419954Y302739D01*
X420015Y302804D01*
X420080Y302865D01*
X420147Y302924D01*
X420216Y302980D01*
X420288Y303033D01*
X420363Y303083D01*
X420439Y303129D01*
X420517Y303172D01*
X420597Y303211D01*
X420679Y303247D01*
X420762Y303280D01*
X420847Y303308D01*
X420932Y303333D01*
X421019Y303355D01*
X421107Y303372D01*
X421195Y303385D01*
X421284Y303395D01*
X421373Y303401D01*
X421462Y303403D01*
X421551Y303401D01*
X421640Y303395D01*
X421729Y303385D01*
X421817Y303372D01*
X421905Y303355D01*
X421992Y303333D01*
X422077Y303308D01*
X422162Y303280D01*
X422245Y303247D01*
X422327Y303211D01*
X422407Y303172D01*
X422485Y303129D01*
X422561Y303083D01*
X422636Y303033D01*
X422708Y302980D01*
X422777Y302924D01*
X422844Y302865D01*
X422909Y302804D01*
X422970Y302739D01*
X423029Y302672D01*
X423085Y302603D01*
X423138Y302531D01*
X423188Y302456D01*
X423234Y302380D01*
X423277Y302302D01*
X423316Y302222D01*
X423352Y302140D01*
X423385Y302057D01*
X423413Y301972D01*
X423438Y301887D01*
X423460Y301800D01*
X423477Y301712D01*
X423490Y301624D01*
X423500Y301535D01*
X423506Y301446D01*
X423508Y301357D01*
X423508Y299311D01*
X423506Y299199D01*
X423500Y299088D01*
X423491Y298976D01*
X423478Y298865D01*
X423460Y298755D01*
X423440Y298645D01*
X423415Y298536D01*
X423387Y298428D01*
X423355Y298321D01*
X423319Y298215D01*
X423280Y298110D01*
X423237Y298007D01*
X423191Y297905D01*
X423141Y297805D01*
X423088Y297706D01*
X423031Y297610D01*
X422972Y297515D01*
X422909Y297423D01*
X422843Y297333D01*
X422774Y297245D01*
X422702Y297159D01*
X422627Y297076D01*
X422549Y296996D01*
X422469Y296918D01*
X422386Y296843D01*
X422300Y296771D01*
X422212Y296702D01*
X422122Y296636D01*
X422030Y296573D01*
X421935Y296514D01*
X421839Y296457D01*
X421740Y296404D01*
X421640Y296354D01*
X421538Y296308D01*
X421435Y296265D01*
X421330Y296226D01*
X421224Y296190D01*
X421117Y296158D01*
X421009Y296130D01*
X420900Y296105D01*
X420790Y296085D01*
X420680Y296067D01*
X420569Y296054D01*
X420457Y296045D01*
X420346Y296039D01*
X420234Y296037D01*
D10*
X233045Y454660D02*
X206375Y454660D01*
X206375Y467360D01*
X233045Y467360D01*
X233045Y454660D01*
D11*
X237044Y457327D02*
X237044Y464693D01*
X239090Y464693D01*
X239179Y464691D01*
X239268Y464685D01*
X239357Y464675D01*
X239445Y464662D01*
X239533Y464645D01*
X239620Y464623D01*
X239705Y464598D01*
X239790Y464570D01*
X239873Y464537D01*
X239955Y464501D01*
X240035Y464462D01*
X240113Y464419D01*
X240189Y464373D01*
X240264Y464323D01*
X240336Y464270D01*
X240405Y464214D01*
X240472Y464155D01*
X240537Y464094D01*
X240598Y464029D01*
X240657Y463962D01*
X240713Y463893D01*
X240766Y463821D01*
X240816Y463746D01*
X240862Y463670D01*
X240905Y463592D01*
X240944Y463512D01*
X240980Y463430D01*
X241013Y463347D01*
X241041Y463262D01*
X241066Y463177D01*
X241088Y463090D01*
X241105Y463002D01*
X241118Y462914D01*
X241128Y462825D01*
X241134Y462736D01*
X241136Y462647D01*
X241134Y462558D01*
X241128Y462469D01*
X241118Y462380D01*
X241105Y462292D01*
X241088Y462204D01*
X241066Y462117D01*
X241041Y462032D01*
X241013Y461947D01*
X240980Y461864D01*
X240944Y461782D01*
X240905Y461702D01*
X240862Y461624D01*
X240816Y461548D01*
X240766Y461473D01*
X240713Y461401D01*
X240657Y461332D01*
X240598Y461265D01*
X240537Y461200D01*
X240472Y461139D01*
X240405Y461080D01*
X240336Y461024D01*
X240264Y460971D01*
X240189Y460921D01*
X240113Y460875D01*
X240035Y460832D01*
X239955Y460793D01*
X239873Y460757D01*
X239790Y460724D01*
X239705Y460696D01*
X239620Y460671D01*
X239533Y460649D01*
X239445Y460632D01*
X239357Y460619D01*
X239268Y460609D01*
X239179Y460603D01*
X239090Y460601D01*
X237044Y460601D01*
X239500Y460601D02*
X241136Y457327D01*
X244308Y463056D02*
X246354Y464693D01*
X246354Y457327D01*
X244308Y457327D02*
X248401Y457327D01*
X251624Y461419D02*
X254079Y461419D01*
X254157Y461417D01*
X254235Y461412D01*
X254312Y461402D01*
X254389Y461389D01*
X254465Y461373D01*
X254540Y461353D01*
X254614Y461329D01*
X254687Y461302D01*
X254759Y461271D01*
X254829Y461237D01*
X254898Y461200D01*
X254964Y461159D01*
X255029Y461115D01*
X255091Y461069D01*
X255151Y461019D01*
X255209Y460967D01*
X255264Y460912D01*
X255316Y460854D01*
X255366Y460794D01*
X255412Y460732D01*
X255456Y460667D01*
X255497Y460601D01*
X255534Y460532D01*
X255568Y460462D01*
X255599Y460390D01*
X255626Y460317D01*
X255650Y460243D01*
X255670Y460168D01*
X255686Y460092D01*
X255699Y460015D01*
X255709Y459938D01*
X255714Y459860D01*
X255716Y459782D01*
X255716Y459373D01*
X255714Y459284D01*
X255708Y459195D01*
X255698Y459106D01*
X255685Y459018D01*
X255668Y458930D01*
X255646Y458843D01*
X255621Y458758D01*
X255593Y458673D01*
X255560Y458590D01*
X255524Y458508D01*
X255485Y458428D01*
X255442Y458350D01*
X255396Y458274D01*
X255346Y458199D01*
X255293Y458127D01*
X255237Y458058D01*
X255178Y457991D01*
X255117Y457926D01*
X255052Y457865D01*
X254985Y457806D01*
X254916Y457750D01*
X254844Y457697D01*
X254769Y457647D01*
X254693Y457601D01*
X254615Y457558D01*
X254535Y457519D01*
X254453Y457483D01*
X254370Y457450D01*
X254285Y457422D01*
X254200Y457397D01*
X254113Y457375D01*
X254025Y457358D01*
X253937Y457345D01*
X253848Y457335D01*
X253759Y457329D01*
X253670Y457327D01*
X253581Y457329D01*
X253492Y457335D01*
X253403Y457345D01*
X253315Y457358D01*
X253227Y457375D01*
X253140Y457397D01*
X253055Y457422D01*
X252970Y457450D01*
X252887Y457483D01*
X252805Y457519D01*
X252725Y457558D01*
X252647Y457601D01*
X252571Y457647D01*
X252496Y457697D01*
X252424Y457750D01*
X252355Y457806D01*
X252288Y457865D01*
X252223Y457926D01*
X252162Y457991D01*
X252103Y458058D01*
X252047Y458127D01*
X251994Y458199D01*
X251944Y458274D01*
X251898Y458350D01*
X251855Y458428D01*
X251816Y458508D01*
X251780Y458590D01*
X251747Y458673D01*
X251719Y458758D01*
X251694Y458843D01*
X251672Y458930D01*
X251655Y459018D01*
X251642Y459106D01*
X251632Y459195D01*
X251626Y459284D01*
X251624Y459373D01*
X251624Y461419D01*
X251623Y461419D02*
X251625Y461533D01*
X251631Y461647D01*
X251641Y461761D01*
X251655Y461875D01*
X251673Y461988D01*
X251695Y462100D01*
X251720Y462211D01*
X251750Y462321D01*
X251783Y462431D01*
X251820Y462539D01*
X251861Y462645D01*
X251906Y462751D01*
X251954Y462854D01*
X252006Y462956D01*
X252062Y463056D01*
X252120Y463154D01*
X252183Y463250D01*
X252248Y463343D01*
X252317Y463435D01*
X252389Y463523D01*
X252464Y463610D01*
X252542Y463693D01*
X252623Y463774D01*
X252706Y463852D01*
X252793Y463927D01*
X252881Y463999D01*
X252973Y464068D01*
X253066Y464133D01*
X253162Y464195D01*
X253260Y464254D01*
X253360Y464310D01*
X253462Y464362D01*
X253565Y464410D01*
X253671Y464455D01*
X253777Y464496D01*
X253885Y464533D01*
X253995Y464566D01*
X254105Y464596D01*
X254216Y464621D01*
X254328Y464643D01*
X254441Y464661D01*
X254555Y464675D01*
X254669Y464685D01*
X254783Y464691D01*
X254897Y464693D01*
D10*
X192405Y454660D02*
X165735Y454660D01*
X165735Y467360D01*
X192405Y467360D01*
X192405Y454660D01*
D11*
X151802Y457327D02*
X151802Y464693D01*
X153848Y464693D01*
X153937Y464691D01*
X154026Y464685D01*
X154115Y464675D01*
X154203Y464662D01*
X154291Y464645D01*
X154378Y464623D01*
X154463Y464598D01*
X154548Y464570D01*
X154631Y464537D01*
X154713Y464501D01*
X154793Y464462D01*
X154871Y464419D01*
X154947Y464373D01*
X155022Y464323D01*
X155094Y464270D01*
X155163Y464214D01*
X155230Y464155D01*
X155295Y464094D01*
X155356Y464029D01*
X155415Y463962D01*
X155471Y463893D01*
X155524Y463821D01*
X155574Y463746D01*
X155620Y463670D01*
X155663Y463592D01*
X155702Y463512D01*
X155738Y463430D01*
X155771Y463347D01*
X155799Y463262D01*
X155824Y463177D01*
X155846Y463090D01*
X155863Y463002D01*
X155876Y462914D01*
X155886Y462825D01*
X155892Y462736D01*
X155894Y462647D01*
X155892Y462558D01*
X155886Y462469D01*
X155876Y462380D01*
X155863Y462292D01*
X155846Y462204D01*
X155824Y462117D01*
X155799Y462032D01*
X155771Y461947D01*
X155738Y461864D01*
X155702Y461782D01*
X155663Y461702D01*
X155620Y461624D01*
X155574Y461548D01*
X155524Y461473D01*
X155471Y461401D01*
X155415Y461332D01*
X155356Y461265D01*
X155295Y461200D01*
X155230Y461139D01*
X155163Y461080D01*
X155094Y461024D01*
X155022Y460971D01*
X154947Y460921D01*
X154871Y460875D01*
X154793Y460832D01*
X154713Y460793D01*
X154631Y460757D01*
X154548Y460724D01*
X154463Y460696D01*
X154378Y460671D01*
X154291Y460649D01*
X154203Y460632D01*
X154115Y460619D01*
X154026Y460609D01*
X153937Y460603D01*
X153848Y460601D01*
X151802Y460601D01*
X154257Y460601D02*
X155894Y457327D01*
X159066Y458964D02*
X160703Y464693D01*
X159066Y458964D02*
X163158Y458964D01*
X161930Y460601D02*
X161930Y457327D01*
D10*
X125095Y283210D02*
X98425Y283210D01*
X98425Y295910D01*
X125095Y295910D01*
X125095Y283210D01*
D11*
X84492Y285877D02*
X84492Y293243D01*
X86538Y293243D01*
X86627Y293241D01*
X86716Y293235D01*
X86805Y293225D01*
X86893Y293212D01*
X86981Y293195D01*
X87068Y293173D01*
X87153Y293148D01*
X87238Y293120D01*
X87321Y293087D01*
X87403Y293051D01*
X87483Y293012D01*
X87561Y292969D01*
X87637Y292923D01*
X87712Y292873D01*
X87784Y292820D01*
X87853Y292764D01*
X87920Y292705D01*
X87985Y292644D01*
X88046Y292579D01*
X88105Y292512D01*
X88161Y292443D01*
X88214Y292371D01*
X88264Y292296D01*
X88310Y292220D01*
X88353Y292142D01*
X88392Y292062D01*
X88428Y291980D01*
X88461Y291897D01*
X88489Y291812D01*
X88514Y291727D01*
X88536Y291640D01*
X88553Y291552D01*
X88566Y291464D01*
X88576Y291375D01*
X88582Y291286D01*
X88584Y291197D01*
X88582Y291108D01*
X88576Y291019D01*
X88566Y290930D01*
X88553Y290842D01*
X88536Y290754D01*
X88514Y290667D01*
X88489Y290582D01*
X88461Y290497D01*
X88428Y290414D01*
X88392Y290332D01*
X88353Y290252D01*
X88310Y290174D01*
X88264Y290098D01*
X88214Y290023D01*
X88161Y289951D01*
X88105Y289882D01*
X88046Y289815D01*
X87985Y289750D01*
X87920Y289689D01*
X87853Y289630D01*
X87784Y289574D01*
X87712Y289521D01*
X87637Y289471D01*
X87561Y289425D01*
X87483Y289382D01*
X87403Y289343D01*
X87321Y289307D01*
X87238Y289274D01*
X87153Y289246D01*
X87068Y289221D01*
X86981Y289199D01*
X86893Y289182D01*
X86805Y289169D01*
X86716Y289159D01*
X86627Y289153D01*
X86538Y289151D01*
X84492Y289151D01*
X86947Y289151D02*
X88584Y285877D01*
X91756Y285877D02*
X93802Y285877D01*
X93891Y285879D01*
X93980Y285885D01*
X94069Y285895D01*
X94157Y285908D01*
X94245Y285925D01*
X94332Y285947D01*
X94417Y285972D01*
X94502Y286000D01*
X94585Y286033D01*
X94667Y286069D01*
X94747Y286108D01*
X94825Y286151D01*
X94901Y286197D01*
X94976Y286247D01*
X95048Y286300D01*
X95117Y286356D01*
X95184Y286415D01*
X95249Y286476D01*
X95310Y286541D01*
X95369Y286608D01*
X95425Y286677D01*
X95478Y286749D01*
X95528Y286824D01*
X95574Y286900D01*
X95617Y286978D01*
X95656Y287058D01*
X95692Y287140D01*
X95725Y287223D01*
X95753Y287308D01*
X95778Y287393D01*
X95800Y287480D01*
X95817Y287568D01*
X95830Y287656D01*
X95840Y287745D01*
X95846Y287834D01*
X95848Y287923D01*
X95846Y288012D01*
X95840Y288101D01*
X95830Y288190D01*
X95817Y288278D01*
X95800Y288366D01*
X95778Y288453D01*
X95753Y288538D01*
X95725Y288623D01*
X95692Y288706D01*
X95656Y288788D01*
X95617Y288868D01*
X95574Y288946D01*
X95528Y289022D01*
X95478Y289097D01*
X95425Y289169D01*
X95369Y289238D01*
X95310Y289305D01*
X95249Y289370D01*
X95184Y289431D01*
X95117Y289490D01*
X95048Y289546D01*
X94976Y289599D01*
X94901Y289649D01*
X94825Y289695D01*
X94747Y289738D01*
X94667Y289777D01*
X94585Y289813D01*
X94502Y289846D01*
X94417Y289874D01*
X94332Y289899D01*
X94245Y289921D01*
X94157Y289938D01*
X94069Y289951D01*
X93980Y289961D01*
X93891Y289967D01*
X93802Y289969D01*
X94211Y293243D02*
X91756Y293243D01*
X94211Y293243D02*
X94290Y293241D01*
X94369Y293235D01*
X94448Y293226D01*
X94526Y293213D01*
X94603Y293195D01*
X94679Y293175D01*
X94754Y293150D01*
X94828Y293122D01*
X94901Y293091D01*
X94972Y293055D01*
X95041Y293017D01*
X95108Y292975D01*
X95173Y292930D01*
X95236Y292882D01*
X95297Y292831D01*
X95354Y292777D01*
X95410Y292721D01*
X95462Y292662D01*
X95512Y292600D01*
X95558Y292536D01*
X95602Y292470D01*
X95642Y292402D01*
X95678Y292332D01*
X95712Y292260D01*
X95742Y292186D01*
X95768Y292112D01*
X95791Y292036D01*
X95809Y291959D01*
X95825Y291882D01*
X95836Y291803D01*
X95844Y291725D01*
X95848Y291646D01*
X95848Y291566D01*
X95844Y291487D01*
X95836Y291409D01*
X95825Y291330D01*
X95809Y291253D01*
X95791Y291176D01*
X95768Y291100D01*
X95742Y291026D01*
X95712Y290952D01*
X95678Y290880D01*
X95642Y290810D01*
X95602Y290742D01*
X95558Y290676D01*
X95512Y290612D01*
X95462Y290550D01*
X95410Y290491D01*
X95354Y290435D01*
X95297Y290381D01*
X95236Y290330D01*
X95173Y290282D01*
X95108Y290237D01*
X95041Y290195D01*
X94972Y290157D01*
X94901Y290121D01*
X94828Y290090D01*
X94754Y290062D01*
X94679Y290037D01*
X94603Y290017D01*
X94526Y289999D01*
X94448Y289986D01*
X94369Y289977D01*
X94290Y289971D01*
X94211Y289969D01*
X92574Y289969D01*
D10*
X335915Y347980D02*
X362585Y347980D01*
X362585Y335280D01*
X335915Y335280D01*
X335915Y347980D01*
D11*
X321982Y345313D02*
X321982Y337947D01*
X321982Y345313D02*
X324028Y345313D01*
X324117Y345311D01*
X324206Y345305D01*
X324295Y345295D01*
X324383Y345282D01*
X324471Y345265D01*
X324558Y345243D01*
X324643Y345218D01*
X324728Y345190D01*
X324811Y345157D01*
X324893Y345121D01*
X324973Y345082D01*
X325051Y345039D01*
X325127Y344993D01*
X325202Y344943D01*
X325274Y344890D01*
X325343Y344834D01*
X325410Y344775D01*
X325475Y344714D01*
X325536Y344649D01*
X325595Y344582D01*
X325651Y344513D01*
X325704Y344441D01*
X325754Y344366D01*
X325800Y344290D01*
X325843Y344212D01*
X325882Y344132D01*
X325918Y344050D01*
X325951Y343967D01*
X325979Y343882D01*
X326004Y343797D01*
X326026Y343710D01*
X326043Y343622D01*
X326056Y343534D01*
X326066Y343445D01*
X326072Y343356D01*
X326074Y343267D01*
X326072Y343178D01*
X326066Y343089D01*
X326056Y343000D01*
X326043Y342912D01*
X326026Y342824D01*
X326004Y342737D01*
X325979Y342652D01*
X325951Y342567D01*
X325918Y342484D01*
X325882Y342402D01*
X325843Y342322D01*
X325800Y342244D01*
X325754Y342168D01*
X325704Y342093D01*
X325651Y342021D01*
X325595Y341952D01*
X325536Y341885D01*
X325475Y341820D01*
X325410Y341759D01*
X325343Y341700D01*
X325274Y341644D01*
X325202Y341591D01*
X325127Y341541D01*
X325051Y341495D01*
X324973Y341452D01*
X324893Y341413D01*
X324811Y341377D01*
X324728Y341344D01*
X324643Y341316D01*
X324558Y341291D01*
X324471Y341269D01*
X324383Y341252D01*
X324295Y341239D01*
X324206Y341229D01*
X324117Y341223D01*
X324028Y341221D01*
X321982Y341221D01*
X324437Y341221D02*
X326074Y337947D01*
X329246Y337947D02*
X331701Y337947D01*
X331779Y337949D01*
X331857Y337954D01*
X331934Y337964D01*
X332011Y337977D01*
X332087Y337993D01*
X332162Y338013D01*
X332236Y338037D01*
X332309Y338064D01*
X332381Y338095D01*
X332451Y338129D01*
X332520Y338166D01*
X332586Y338207D01*
X332651Y338251D01*
X332713Y338297D01*
X332773Y338347D01*
X332831Y338399D01*
X332886Y338454D01*
X332938Y338512D01*
X332988Y338572D01*
X333034Y338634D01*
X333078Y338699D01*
X333119Y338766D01*
X333156Y338834D01*
X333190Y338904D01*
X333221Y338976D01*
X333248Y339049D01*
X333272Y339123D01*
X333292Y339198D01*
X333308Y339274D01*
X333321Y339351D01*
X333331Y339428D01*
X333336Y339506D01*
X333338Y339584D01*
X333338Y340402D01*
X333336Y340480D01*
X333331Y340558D01*
X333321Y340635D01*
X333308Y340712D01*
X333292Y340788D01*
X333272Y340863D01*
X333248Y340937D01*
X333221Y341010D01*
X333190Y341082D01*
X333156Y341152D01*
X333119Y341221D01*
X333078Y341287D01*
X333034Y341352D01*
X332988Y341414D01*
X332938Y341474D01*
X332886Y341532D01*
X332831Y341587D01*
X332773Y341639D01*
X332713Y341689D01*
X332651Y341735D01*
X332586Y341779D01*
X332520Y341820D01*
X332451Y341857D01*
X332381Y341891D01*
X332309Y341922D01*
X332236Y341949D01*
X332162Y341973D01*
X332087Y341993D01*
X332011Y342009D01*
X331934Y342022D01*
X331857Y342032D01*
X331779Y342037D01*
X331701Y342039D01*
X329246Y342039D01*
X329246Y345313D01*
X333338Y345313D01*
D10*
X365125Y347980D02*
X391795Y347980D01*
X391795Y335280D01*
X365125Y335280D01*
X365125Y347980D01*
D11*
X376592Y349377D02*
X376592Y356743D01*
X378638Y356743D01*
X378727Y356741D01*
X378816Y356735D01*
X378905Y356725D01*
X378993Y356712D01*
X379081Y356695D01*
X379168Y356673D01*
X379253Y356648D01*
X379338Y356620D01*
X379421Y356587D01*
X379503Y356551D01*
X379583Y356512D01*
X379661Y356469D01*
X379737Y356423D01*
X379812Y356373D01*
X379884Y356320D01*
X379953Y356264D01*
X380020Y356205D01*
X380085Y356144D01*
X380146Y356079D01*
X380205Y356012D01*
X380261Y355943D01*
X380314Y355871D01*
X380364Y355796D01*
X380410Y355720D01*
X380453Y355642D01*
X380492Y355562D01*
X380528Y355480D01*
X380561Y355397D01*
X380589Y355312D01*
X380614Y355227D01*
X380636Y355140D01*
X380653Y355052D01*
X380666Y354964D01*
X380676Y354875D01*
X380682Y354786D01*
X380684Y354697D01*
X380682Y354608D01*
X380676Y354519D01*
X380666Y354430D01*
X380653Y354342D01*
X380636Y354254D01*
X380614Y354167D01*
X380589Y354082D01*
X380561Y353997D01*
X380528Y353914D01*
X380492Y353832D01*
X380453Y353752D01*
X380410Y353674D01*
X380364Y353598D01*
X380314Y353523D01*
X380261Y353451D01*
X380205Y353382D01*
X380146Y353315D01*
X380085Y353250D01*
X380020Y353189D01*
X379953Y353130D01*
X379884Y353074D01*
X379812Y353021D01*
X379737Y352971D01*
X379661Y352925D01*
X379583Y352882D01*
X379503Y352843D01*
X379421Y352807D01*
X379338Y352774D01*
X379253Y352746D01*
X379168Y352721D01*
X379081Y352699D01*
X378993Y352682D01*
X378905Y352669D01*
X378816Y352659D01*
X378727Y352653D01*
X378638Y352651D01*
X376592Y352651D01*
X379047Y352651D02*
X380684Y349377D01*
X383856Y353469D02*
X386311Y353469D01*
X386389Y353467D01*
X386467Y353462D01*
X386544Y353452D01*
X386621Y353439D01*
X386697Y353423D01*
X386772Y353403D01*
X386846Y353379D01*
X386919Y353352D01*
X386991Y353321D01*
X387061Y353287D01*
X387130Y353250D01*
X387196Y353209D01*
X387261Y353165D01*
X387323Y353119D01*
X387383Y353069D01*
X387441Y353017D01*
X387496Y352962D01*
X387548Y352904D01*
X387598Y352844D01*
X387644Y352782D01*
X387688Y352717D01*
X387729Y352651D01*
X387766Y352582D01*
X387800Y352512D01*
X387831Y352440D01*
X387858Y352367D01*
X387882Y352293D01*
X387902Y352218D01*
X387918Y352142D01*
X387931Y352065D01*
X387941Y351988D01*
X387946Y351910D01*
X387948Y351832D01*
X387948Y351423D01*
X387946Y351334D01*
X387940Y351245D01*
X387930Y351156D01*
X387917Y351068D01*
X387900Y350980D01*
X387878Y350893D01*
X387853Y350808D01*
X387825Y350723D01*
X387792Y350640D01*
X387756Y350558D01*
X387717Y350478D01*
X387674Y350400D01*
X387628Y350324D01*
X387578Y350249D01*
X387525Y350177D01*
X387469Y350108D01*
X387410Y350041D01*
X387349Y349976D01*
X387284Y349915D01*
X387217Y349856D01*
X387148Y349800D01*
X387076Y349747D01*
X387001Y349697D01*
X386925Y349651D01*
X386847Y349608D01*
X386767Y349569D01*
X386685Y349533D01*
X386602Y349500D01*
X386517Y349472D01*
X386432Y349447D01*
X386345Y349425D01*
X386257Y349408D01*
X386169Y349395D01*
X386080Y349385D01*
X385991Y349379D01*
X385902Y349377D01*
X385813Y349379D01*
X385724Y349385D01*
X385635Y349395D01*
X385547Y349408D01*
X385459Y349425D01*
X385372Y349447D01*
X385287Y349472D01*
X385202Y349500D01*
X385119Y349533D01*
X385037Y349569D01*
X384957Y349608D01*
X384879Y349651D01*
X384803Y349697D01*
X384728Y349747D01*
X384656Y349800D01*
X384587Y349856D01*
X384520Y349915D01*
X384455Y349976D01*
X384394Y350041D01*
X384335Y350108D01*
X384279Y350177D01*
X384226Y350249D01*
X384176Y350324D01*
X384130Y350400D01*
X384087Y350478D01*
X384048Y350558D01*
X384012Y350640D01*
X383979Y350723D01*
X383951Y350808D01*
X383926Y350893D01*
X383904Y350980D01*
X383887Y351068D01*
X383874Y351156D01*
X383864Y351245D01*
X383858Y351334D01*
X383856Y351423D01*
X383856Y353469D01*
X383858Y353583D01*
X383864Y353697D01*
X383874Y353811D01*
X383888Y353925D01*
X383906Y354038D01*
X383928Y354150D01*
X383953Y354261D01*
X383983Y354371D01*
X384016Y354481D01*
X384053Y354589D01*
X384094Y354695D01*
X384139Y354801D01*
X384187Y354904D01*
X384239Y355006D01*
X384295Y355106D01*
X384353Y355204D01*
X384416Y355300D01*
X384481Y355393D01*
X384550Y355485D01*
X384622Y355573D01*
X384697Y355660D01*
X384775Y355743D01*
X384856Y355824D01*
X384939Y355902D01*
X385026Y355977D01*
X385114Y356049D01*
X385206Y356118D01*
X385299Y356183D01*
X385395Y356245D01*
X385493Y356304D01*
X385593Y356360D01*
X385695Y356412D01*
X385798Y356460D01*
X385904Y356505D01*
X386010Y356546D01*
X386118Y356583D01*
X386228Y356616D01*
X386338Y356646D01*
X386449Y356671D01*
X386561Y356693D01*
X386674Y356711D01*
X386788Y356725D01*
X386902Y356735D01*
X387016Y356741D01*
X387130Y356743D01*
D10*
X362585Y332740D02*
X335915Y332740D01*
X362585Y332740D02*
X362585Y320040D01*
X335915Y320040D01*
X335915Y332740D01*
D11*
X321982Y330073D02*
X321982Y322707D01*
X321982Y330073D02*
X324028Y330073D01*
X324117Y330071D01*
X324206Y330065D01*
X324295Y330055D01*
X324383Y330042D01*
X324471Y330025D01*
X324558Y330003D01*
X324643Y329978D01*
X324728Y329950D01*
X324811Y329917D01*
X324893Y329881D01*
X324973Y329842D01*
X325051Y329799D01*
X325127Y329753D01*
X325202Y329703D01*
X325274Y329650D01*
X325343Y329594D01*
X325410Y329535D01*
X325475Y329474D01*
X325536Y329409D01*
X325595Y329342D01*
X325651Y329273D01*
X325704Y329201D01*
X325754Y329126D01*
X325800Y329050D01*
X325843Y328972D01*
X325882Y328892D01*
X325918Y328810D01*
X325951Y328727D01*
X325979Y328642D01*
X326004Y328557D01*
X326026Y328470D01*
X326043Y328382D01*
X326056Y328294D01*
X326066Y328205D01*
X326072Y328116D01*
X326074Y328027D01*
X326072Y327938D01*
X326066Y327849D01*
X326056Y327760D01*
X326043Y327672D01*
X326026Y327584D01*
X326004Y327497D01*
X325979Y327412D01*
X325951Y327327D01*
X325918Y327244D01*
X325882Y327162D01*
X325843Y327082D01*
X325800Y327004D01*
X325754Y326928D01*
X325704Y326853D01*
X325651Y326781D01*
X325595Y326712D01*
X325536Y326645D01*
X325475Y326580D01*
X325410Y326519D01*
X325343Y326460D01*
X325274Y326404D01*
X325202Y326351D01*
X325127Y326301D01*
X325051Y326255D01*
X324973Y326212D01*
X324893Y326173D01*
X324811Y326137D01*
X324728Y326104D01*
X324643Y326076D01*
X324558Y326051D01*
X324471Y326029D01*
X324383Y326012D01*
X324295Y325999D01*
X324206Y325989D01*
X324117Y325983D01*
X324028Y325981D01*
X321982Y325981D01*
X324437Y325981D02*
X326074Y322707D01*
X329246Y329255D02*
X329246Y330073D01*
X333338Y330073D01*
X331292Y322707D01*
D10*
X365125Y332740D02*
X391795Y332740D01*
X391795Y320040D01*
X365125Y320040D01*
X365125Y332740D01*
D11*
X375322Y318643D02*
X375322Y311277D01*
X375322Y318643D02*
X377368Y318643D01*
X377457Y318641D01*
X377546Y318635D01*
X377635Y318625D01*
X377723Y318612D01*
X377811Y318595D01*
X377898Y318573D01*
X377983Y318548D01*
X378068Y318520D01*
X378151Y318487D01*
X378233Y318451D01*
X378313Y318412D01*
X378391Y318369D01*
X378467Y318323D01*
X378542Y318273D01*
X378614Y318220D01*
X378683Y318164D01*
X378750Y318105D01*
X378815Y318044D01*
X378876Y317979D01*
X378935Y317912D01*
X378991Y317843D01*
X379044Y317771D01*
X379094Y317696D01*
X379140Y317620D01*
X379183Y317542D01*
X379222Y317462D01*
X379258Y317380D01*
X379291Y317297D01*
X379319Y317212D01*
X379344Y317127D01*
X379366Y317040D01*
X379383Y316952D01*
X379396Y316864D01*
X379406Y316775D01*
X379412Y316686D01*
X379414Y316597D01*
X379412Y316508D01*
X379406Y316419D01*
X379396Y316330D01*
X379383Y316242D01*
X379366Y316154D01*
X379344Y316067D01*
X379319Y315982D01*
X379291Y315897D01*
X379258Y315814D01*
X379222Y315732D01*
X379183Y315652D01*
X379140Y315574D01*
X379094Y315498D01*
X379044Y315423D01*
X378991Y315351D01*
X378935Y315282D01*
X378876Y315215D01*
X378815Y315150D01*
X378750Y315089D01*
X378683Y315030D01*
X378614Y314974D01*
X378542Y314921D01*
X378467Y314871D01*
X378391Y314825D01*
X378313Y314782D01*
X378233Y314743D01*
X378151Y314707D01*
X378068Y314674D01*
X377983Y314646D01*
X377898Y314621D01*
X377811Y314599D01*
X377723Y314582D01*
X377635Y314569D01*
X377546Y314559D01*
X377457Y314553D01*
X377368Y314551D01*
X375322Y314551D01*
X377777Y314551D02*
X379414Y311277D01*
X382586Y313323D02*
X382588Y313412D01*
X382594Y313501D01*
X382604Y313590D01*
X382617Y313678D01*
X382634Y313766D01*
X382656Y313853D01*
X382681Y313938D01*
X382709Y314023D01*
X382742Y314106D01*
X382778Y314188D01*
X382817Y314268D01*
X382860Y314346D01*
X382906Y314422D01*
X382956Y314497D01*
X383009Y314569D01*
X383065Y314638D01*
X383124Y314705D01*
X383185Y314770D01*
X383250Y314831D01*
X383317Y314890D01*
X383386Y314946D01*
X383458Y314999D01*
X383533Y315049D01*
X383609Y315095D01*
X383687Y315138D01*
X383767Y315177D01*
X383849Y315213D01*
X383932Y315246D01*
X384017Y315274D01*
X384102Y315299D01*
X384189Y315321D01*
X384277Y315338D01*
X384365Y315351D01*
X384454Y315361D01*
X384543Y315367D01*
X384632Y315369D01*
X384721Y315367D01*
X384810Y315361D01*
X384899Y315351D01*
X384987Y315338D01*
X385075Y315321D01*
X385162Y315299D01*
X385247Y315274D01*
X385332Y315246D01*
X385415Y315213D01*
X385497Y315177D01*
X385577Y315138D01*
X385655Y315095D01*
X385731Y315049D01*
X385806Y314999D01*
X385878Y314946D01*
X385947Y314890D01*
X386014Y314831D01*
X386079Y314770D01*
X386140Y314705D01*
X386199Y314638D01*
X386255Y314569D01*
X386308Y314497D01*
X386358Y314422D01*
X386404Y314346D01*
X386447Y314268D01*
X386486Y314188D01*
X386522Y314106D01*
X386555Y314023D01*
X386583Y313938D01*
X386608Y313853D01*
X386630Y313766D01*
X386647Y313678D01*
X386660Y313590D01*
X386670Y313501D01*
X386676Y313412D01*
X386678Y313323D01*
X386676Y313234D01*
X386670Y313145D01*
X386660Y313056D01*
X386647Y312968D01*
X386630Y312880D01*
X386608Y312793D01*
X386583Y312708D01*
X386555Y312623D01*
X386522Y312540D01*
X386486Y312458D01*
X386447Y312378D01*
X386404Y312300D01*
X386358Y312224D01*
X386308Y312149D01*
X386255Y312077D01*
X386199Y312008D01*
X386140Y311941D01*
X386079Y311876D01*
X386014Y311815D01*
X385947Y311756D01*
X385878Y311700D01*
X385806Y311647D01*
X385731Y311597D01*
X385655Y311551D01*
X385577Y311508D01*
X385497Y311469D01*
X385415Y311433D01*
X385332Y311400D01*
X385247Y311372D01*
X385162Y311347D01*
X385075Y311325D01*
X384987Y311308D01*
X384899Y311295D01*
X384810Y311285D01*
X384721Y311279D01*
X384632Y311277D01*
X384543Y311279D01*
X384454Y311285D01*
X384365Y311295D01*
X384277Y311308D01*
X384189Y311325D01*
X384102Y311347D01*
X384017Y311372D01*
X383932Y311400D01*
X383849Y311433D01*
X383767Y311469D01*
X383687Y311508D01*
X383609Y311551D01*
X383533Y311597D01*
X383458Y311647D01*
X383386Y311700D01*
X383317Y311756D01*
X383250Y311815D01*
X383185Y311876D01*
X383124Y311941D01*
X383065Y312008D01*
X383009Y312077D01*
X382956Y312149D01*
X382906Y312224D01*
X382860Y312300D01*
X382817Y312378D01*
X382778Y312458D01*
X382742Y312540D01*
X382709Y312623D01*
X382681Y312708D01*
X382656Y312793D01*
X382634Y312880D01*
X382617Y312968D01*
X382604Y313056D01*
X382594Y313145D01*
X382588Y313234D01*
X382586Y313323D01*
X382995Y317006D02*
X382997Y317085D01*
X383003Y317164D01*
X383012Y317243D01*
X383025Y317321D01*
X383043Y317398D01*
X383063Y317474D01*
X383088Y317549D01*
X383116Y317623D01*
X383147Y317696D01*
X383183Y317767D01*
X383221Y317836D01*
X383263Y317903D01*
X383308Y317968D01*
X383356Y318031D01*
X383407Y318092D01*
X383461Y318149D01*
X383517Y318205D01*
X383576Y318257D01*
X383638Y318307D01*
X383702Y318353D01*
X383768Y318397D01*
X383836Y318437D01*
X383906Y318473D01*
X383978Y318507D01*
X384052Y318537D01*
X384126Y318563D01*
X384202Y318586D01*
X384279Y318604D01*
X384356Y318620D01*
X384435Y318631D01*
X384513Y318639D01*
X384592Y318643D01*
X384672Y318643D01*
X384751Y318639D01*
X384829Y318631D01*
X384908Y318620D01*
X384985Y318604D01*
X385062Y318586D01*
X385138Y318563D01*
X385212Y318537D01*
X385286Y318507D01*
X385358Y318473D01*
X385428Y318437D01*
X385496Y318397D01*
X385562Y318353D01*
X385626Y318307D01*
X385688Y318257D01*
X385747Y318205D01*
X385803Y318149D01*
X385857Y318092D01*
X385908Y318031D01*
X385956Y317968D01*
X386001Y317903D01*
X386043Y317836D01*
X386081Y317767D01*
X386117Y317696D01*
X386148Y317623D01*
X386176Y317549D01*
X386201Y317474D01*
X386221Y317398D01*
X386239Y317321D01*
X386252Y317243D01*
X386261Y317164D01*
X386267Y317085D01*
X386269Y317006D01*
X386267Y316927D01*
X386261Y316848D01*
X386252Y316769D01*
X386239Y316691D01*
X386221Y316614D01*
X386201Y316538D01*
X386176Y316463D01*
X386148Y316389D01*
X386117Y316316D01*
X386081Y316245D01*
X386043Y316176D01*
X386001Y316109D01*
X385956Y316044D01*
X385908Y315981D01*
X385857Y315920D01*
X385803Y315863D01*
X385747Y315807D01*
X385688Y315755D01*
X385626Y315705D01*
X385562Y315659D01*
X385496Y315615D01*
X385428Y315575D01*
X385358Y315539D01*
X385286Y315505D01*
X385212Y315475D01*
X385138Y315449D01*
X385062Y315426D01*
X384985Y315408D01*
X384908Y315392D01*
X384829Y315381D01*
X384751Y315373D01*
X384672Y315369D01*
X384592Y315369D01*
X384513Y315373D01*
X384435Y315381D01*
X384356Y315392D01*
X384279Y315408D01*
X384202Y315426D01*
X384126Y315449D01*
X384052Y315475D01*
X383978Y315505D01*
X383906Y315539D01*
X383836Y315575D01*
X383768Y315615D01*
X383702Y315659D01*
X383638Y315705D01*
X383576Y315755D01*
X383517Y315807D01*
X383461Y315863D01*
X383407Y315920D01*
X383356Y315981D01*
X383308Y316044D01*
X383263Y316109D01*
X383221Y316176D01*
X383183Y316245D01*
X383147Y316316D01*
X383116Y316389D01*
X383088Y316463D01*
X383063Y316538D01*
X383043Y316614D01*
X383025Y316691D01*
X383012Y316769D01*
X383003Y316848D01*
X382997Y316927D01*
X382995Y317006D01*
D10*
X219075Y305435D02*
X156845Y305435D01*
X219075Y305435D02*
X219075Y260985D01*
X156845Y260985D01*
X156845Y305435D01*
D11*
X178431Y307911D02*
X183342Y315277D01*
X178431Y315277D02*
X183342Y307911D01*
X187714Y307911D02*
X187714Y315277D01*
X185668Y315277D02*
X189760Y315277D01*
X192495Y313640D02*
X194541Y315277D01*
X194541Y307911D01*
X192495Y307911D02*
X196587Y307911D01*
D10*
X231775Y414655D02*
X149225Y414655D01*
X231775Y414655D02*
X231775Y332105D01*
X149225Y332105D01*
X149225Y414655D01*
X151130Y411480D02*
X151132Y411551D01*
X151138Y411622D01*
X151148Y411693D01*
X151162Y411763D01*
X151180Y411832D01*
X151201Y411899D01*
X151227Y411966D01*
X151256Y412031D01*
X151288Y412094D01*
X151325Y412156D01*
X151364Y412215D01*
X151407Y412272D01*
X151453Y412326D01*
X151502Y412378D01*
X151554Y412427D01*
X151608Y412473D01*
X151665Y412516D01*
X151724Y412555D01*
X151786Y412592D01*
X151849Y412624D01*
X151914Y412653D01*
X151981Y412679D01*
X152048Y412700D01*
X152117Y412718D01*
X152187Y412732D01*
X152258Y412742D01*
X152329Y412748D01*
X152400Y412750D01*
X152471Y412748D01*
X152542Y412742D01*
X152613Y412732D01*
X152683Y412718D01*
X152752Y412700D01*
X152819Y412679D01*
X152886Y412653D01*
X152951Y412624D01*
X153014Y412592D01*
X153076Y412555D01*
X153135Y412516D01*
X153192Y412473D01*
X153246Y412427D01*
X153298Y412378D01*
X153347Y412326D01*
X153393Y412272D01*
X153436Y412215D01*
X153475Y412156D01*
X153512Y412094D01*
X153544Y412031D01*
X153573Y411966D01*
X153599Y411899D01*
X153620Y411832D01*
X153638Y411763D01*
X153652Y411693D01*
X153662Y411622D01*
X153668Y411551D01*
X153670Y411480D01*
X153668Y411409D01*
X153662Y411338D01*
X153652Y411267D01*
X153638Y411197D01*
X153620Y411128D01*
X153599Y411061D01*
X153573Y410994D01*
X153544Y410929D01*
X153512Y410866D01*
X153475Y410804D01*
X153436Y410745D01*
X153393Y410688D01*
X153347Y410634D01*
X153298Y410582D01*
X153246Y410533D01*
X153192Y410487D01*
X153135Y410444D01*
X153076Y410405D01*
X153014Y410368D01*
X152951Y410336D01*
X152886Y410307D01*
X152819Y410281D01*
X152752Y410260D01*
X152683Y410242D01*
X152613Y410228D01*
X152542Y410218D01*
X152471Y410212D01*
X152400Y410210D01*
X152329Y410212D01*
X152258Y410218D01*
X152187Y410228D01*
X152117Y410242D01*
X152048Y410260D01*
X151981Y410281D01*
X151914Y410307D01*
X151849Y410336D01*
X151786Y410368D01*
X151724Y410405D01*
X151665Y410444D01*
X151608Y410487D01*
X151554Y410533D01*
X151502Y410582D01*
X151453Y410634D01*
X151407Y410688D01*
X151364Y410745D01*
X151325Y410804D01*
X151288Y410866D01*
X151256Y410929D01*
X151227Y410994D01*
X151201Y411061D01*
X151180Y411128D01*
X151162Y411197D01*
X151148Y411267D01*
X151138Y411338D01*
X151132Y411409D01*
X151130Y411480D01*
D11*
X183912Y418297D02*
X183912Y425663D01*
X183094Y418297D02*
X184731Y418297D01*
X184731Y425663D02*
X183094Y425663D01*
X189332Y418297D02*
X190969Y418297D01*
X189332Y418297D02*
X189254Y418299D01*
X189176Y418304D01*
X189099Y418314D01*
X189022Y418327D01*
X188946Y418343D01*
X188871Y418363D01*
X188797Y418387D01*
X188724Y418414D01*
X188652Y418445D01*
X188582Y418479D01*
X188514Y418516D01*
X188447Y418557D01*
X188382Y418601D01*
X188320Y418647D01*
X188260Y418697D01*
X188202Y418749D01*
X188147Y418804D01*
X188095Y418862D01*
X188045Y418922D01*
X187999Y418984D01*
X187955Y419049D01*
X187914Y419116D01*
X187877Y419184D01*
X187843Y419254D01*
X187812Y419326D01*
X187785Y419399D01*
X187761Y419473D01*
X187741Y419548D01*
X187725Y419624D01*
X187712Y419701D01*
X187702Y419778D01*
X187697Y419856D01*
X187695Y419934D01*
X187695Y424026D01*
X187697Y424106D01*
X187703Y424186D01*
X187713Y424266D01*
X187726Y424345D01*
X187744Y424424D01*
X187765Y424501D01*
X187791Y424577D01*
X187820Y424652D01*
X187852Y424726D01*
X187888Y424798D01*
X187928Y424868D01*
X187971Y424935D01*
X188017Y425001D01*
X188067Y425064D01*
X188119Y425125D01*
X188174Y425184D01*
X188233Y425239D01*
X188293Y425291D01*
X188357Y425341D01*
X188423Y425387D01*
X188490Y425430D01*
X188560Y425470D01*
X188632Y425506D01*
X188706Y425538D01*
X188780Y425567D01*
X188857Y425593D01*
X188934Y425614D01*
X189013Y425632D01*
X189092Y425645D01*
X189172Y425655D01*
X189252Y425661D01*
X189332Y425663D01*
X190969Y425663D01*
X193814Y424026D02*
X195860Y425663D01*
X195860Y418297D01*
X193814Y418297D02*
X197906Y418297D01*
D10*
X192405Y470535D02*
X147955Y470535D01*
X147955Y492125D01*
X192405Y492125D01*
X192405Y470535D01*
D11*
X165997Y494403D02*
X165997Y501769D01*
X169270Y501769D01*
X169270Y498495D02*
X165997Y498495D01*
X172077Y500132D02*
X174123Y501769D01*
X174123Y494403D01*
X172077Y494403D02*
X176169Y494403D01*
D10*
X324485Y198120D02*
X351155Y198120D01*
X351155Y185420D01*
X324485Y185420D01*
X324485Y198120D01*
D11*
X353884Y195453D02*
X353884Y188087D01*
X353884Y195453D02*
X355930Y195453D01*
X356019Y195451D01*
X356108Y195445D01*
X356197Y195435D01*
X356285Y195422D01*
X356373Y195405D01*
X356460Y195383D01*
X356545Y195358D01*
X356630Y195330D01*
X356713Y195297D01*
X356795Y195261D01*
X356875Y195222D01*
X356953Y195179D01*
X357029Y195133D01*
X357104Y195083D01*
X357176Y195030D01*
X357245Y194974D01*
X357312Y194915D01*
X357377Y194854D01*
X357438Y194789D01*
X357497Y194722D01*
X357553Y194653D01*
X357606Y194581D01*
X357656Y194506D01*
X357702Y194430D01*
X357745Y194352D01*
X357784Y194272D01*
X357820Y194190D01*
X357853Y194107D01*
X357881Y194022D01*
X357906Y193937D01*
X357928Y193850D01*
X357945Y193762D01*
X357958Y193674D01*
X357968Y193585D01*
X357974Y193496D01*
X357976Y193407D01*
X357974Y193318D01*
X357968Y193229D01*
X357958Y193140D01*
X357945Y193052D01*
X357928Y192964D01*
X357906Y192877D01*
X357881Y192792D01*
X357853Y192707D01*
X357820Y192624D01*
X357784Y192542D01*
X357745Y192462D01*
X357702Y192384D01*
X357656Y192308D01*
X357606Y192233D01*
X357553Y192161D01*
X357497Y192092D01*
X357438Y192025D01*
X357377Y191960D01*
X357312Y191899D01*
X357245Y191840D01*
X357176Y191784D01*
X357104Y191731D01*
X357029Y191681D01*
X356953Y191635D01*
X356875Y191592D01*
X356795Y191553D01*
X356713Y191517D01*
X356630Y191484D01*
X356545Y191456D01*
X356460Y191431D01*
X356373Y191409D01*
X356285Y191392D01*
X356197Y191379D01*
X356108Y191369D01*
X356019Y191363D01*
X355930Y191361D01*
X353884Y191361D01*
X356340Y191361D02*
X357977Y188087D01*
X361148Y193816D02*
X363194Y195453D01*
X363194Y188087D01*
X361148Y188087D02*
X365241Y188087D01*
X368464Y193816D02*
X370510Y195453D01*
X370510Y188087D01*
X368464Y188087D02*
X372556Y188087D01*
D10*
X351155Y182880D02*
X324485Y182880D01*
X351155Y182880D02*
X351155Y170180D01*
X324485Y170180D01*
X324485Y182880D01*
D11*
X353884Y180213D02*
X353884Y172847D01*
X353884Y180213D02*
X355930Y180213D01*
X356019Y180211D01*
X356108Y180205D01*
X356197Y180195D01*
X356285Y180182D01*
X356373Y180165D01*
X356460Y180143D01*
X356545Y180118D01*
X356630Y180090D01*
X356713Y180057D01*
X356795Y180021D01*
X356875Y179982D01*
X356953Y179939D01*
X357029Y179893D01*
X357104Y179843D01*
X357176Y179790D01*
X357245Y179734D01*
X357312Y179675D01*
X357377Y179614D01*
X357438Y179549D01*
X357497Y179482D01*
X357553Y179413D01*
X357606Y179341D01*
X357656Y179266D01*
X357702Y179190D01*
X357745Y179112D01*
X357784Y179032D01*
X357820Y178950D01*
X357853Y178867D01*
X357881Y178782D01*
X357906Y178697D01*
X357928Y178610D01*
X357945Y178522D01*
X357958Y178434D01*
X357968Y178345D01*
X357974Y178256D01*
X357976Y178167D01*
X357974Y178078D01*
X357968Y177989D01*
X357958Y177900D01*
X357945Y177812D01*
X357928Y177724D01*
X357906Y177637D01*
X357881Y177552D01*
X357853Y177467D01*
X357820Y177384D01*
X357784Y177302D01*
X357745Y177222D01*
X357702Y177144D01*
X357656Y177068D01*
X357606Y176993D01*
X357553Y176921D01*
X357497Y176852D01*
X357438Y176785D01*
X357377Y176720D01*
X357312Y176659D01*
X357245Y176600D01*
X357176Y176544D01*
X357104Y176491D01*
X357029Y176441D01*
X356953Y176395D01*
X356875Y176352D01*
X356795Y176313D01*
X356713Y176277D01*
X356630Y176244D01*
X356545Y176216D01*
X356460Y176191D01*
X356373Y176169D01*
X356285Y176152D01*
X356197Y176139D01*
X356108Y176129D01*
X356019Y176123D01*
X355930Y176121D01*
X353884Y176121D01*
X356340Y176121D02*
X357977Y172847D01*
X361148Y178576D02*
X363194Y180213D01*
X363194Y172847D01*
X361148Y172847D02*
X365241Y172847D01*
X372556Y178372D02*
X372554Y178457D01*
X372548Y178542D01*
X372538Y178626D01*
X372525Y178710D01*
X372507Y178794D01*
X372486Y178876D01*
X372461Y178957D01*
X372432Y179037D01*
X372399Y179116D01*
X372363Y179193D01*
X372323Y179268D01*
X372280Y179342D01*
X372234Y179413D01*
X372184Y179482D01*
X372131Y179549D01*
X372075Y179613D01*
X372016Y179674D01*
X371955Y179733D01*
X371891Y179789D01*
X371824Y179842D01*
X371755Y179892D01*
X371684Y179938D01*
X371610Y179981D01*
X371535Y180021D01*
X371458Y180057D01*
X371379Y180090D01*
X371299Y180119D01*
X371218Y180144D01*
X371136Y180165D01*
X371052Y180183D01*
X370968Y180196D01*
X370884Y180206D01*
X370799Y180212D01*
X370714Y180214D01*
X370714Y180213D02*
X370618Y180211D01*
X370522Y180205D01*
X370427Y180195D01*
X370332Y180182D01*
X370237Y180164D01*
X370144Y180143D01*
X370051Y180118D01*
X369960Y180089D01*
X369869Y180057D01*
X369780Y180021D01*
X369693Y179981D01*
X369607Y179938D01*
X369523Y179892D01*
X369441Y179842D01*
X369361Y179788D01*
X369284Y179732D01*
X369209Y179672D01*
X369136Y179610D01*
X369066Y179544D01*
X368998Y179476D01*
X368933Y179405D01*
X368872Y179332D01*
X368813Y179256D01*
X368757Y179177D01*
X368705Y179097D01*
X368656Y179014D01*
X368610Y178930D01*
X368568Y178844D01*
X368530Y178756D01*
X368495Y178667D01*
X368463Y178576D01*
X371942Y176940D02*
X372002Y176999D01*
X372059Y177061D01*
X372114Y177125D01*
X372165Y177192D01*
X372214Y177261D01*
X372260Y177331D01*
X372303Y177404D01*
X372343Y177478D01*
X372379Y177554D01*
X372412Y177632D01*
X372442Y177711D01*
X372469Y177791D01*
X372492Y177872D01*
X372511Y177954D01*
X372527Y178036D01*
X372540Y178120D01*
X372549Y178204D01*
X372554Y178288D01*
X372556Y178372D01*
X371942Y176939D02*
X368464Y172847D01*
X372556Y172847D01*
D10*
X321945Y154940D02*
X295275Y154940D01*
X295275Y167640D01*
X321945Y167640D01*
X321945Y154940D01*
D11*
X273874Y157607D02*
X273874Y164973D01*
X275920Y164973D01*
X276009Y164971D01*
X276098Y164965D01*
X276187Y164955D01*
X276275Y164942D01*
X276363Y164925D01*
X276450Y164903D01*
X276535Y164878D01*
X276620Y164850D01*
X276703Y164817D01*
X276785Y164781D01*
X276865Y164742D01*
X276943Y164699D01*
X277019Y164653D01*
X277094Y164603D01*
X277166Y164550D01*
X277235Y164494D01*
X277302Y164435D01*
X277367Y164374D01*
X277428Y164309D01*
X277487Y164242D01*
X277543Y164173D01*
X277596Y164101D01*
X277646Y164026D01*
X277692Y163950D01*
X277735Y163872D01*
X277774Y163792D01*
X277810Y163710D01*
X277843Y163627D01*
X277871Y163542D01*
X277896Y163457D01*
X277918Y163370D01*
X277935Y163282D01*
X277948Y163194D01*
X277958Y163105D01*
X277964Y163016D01*
X277966Y162927D01*
X277964Y162838D01*
X277958Y162749D01*
X277948Y162660D01*
X277935Y162572D01*
X277918Y162484D01*
X277896Y162397D01*
X277871Y162312D01*
X277843Y162227D01*
X277810Y162144D01*
X277774Y162062D01*
X277735Y161982D01*
X277692Y161904D01*
X277646Y161828D01*
X277596Y161753D01*
X277543Y161681D01*
X277487Y161612D01*
X277428Y161545D01*
X277367Y161480D01*
X277302Y161419D01*
X277235Y161360D01*
X277166Y161304D01*
X277094Y161251D01*
X277019Y161201D01*
X276943Y161155D01*
X276865Y161112D01*
X276785Y161073D01*
X276703Y161037D01*
X276620Y161004D01*
X276535Y160976D01*
X276450Y160951D01*
X276363Y160929D01*
X276275Y160912D01*
X276187Y160899D01*
X276098Y160889D01*
X276009Y160883D01*
X275920Y160881D01*
X273874Y160881D01*
X276330Y160881D02*
X277966Y157607D01*
X281138Y163336D02*
X283184Y164973D01*
X283184Y157607D01*
X281138Y157607D02*
X285231Y157607D01*
X288454Y157607D02*
X290500Y157607D01*
X290589Y157609D01*
X290678Y157615D01*
X290767Y157625D01*
X290855Y157638D01*
X290943Y157655D01*
X291030Y157677D01*
X291115Y157702D01*
X291200Y157730D01*
X291283Y157763D01*
X291365Y157799D01*
X291445Y157838D01*
X291523Y157881D01*
X291599Y157927D01*
X291674Y157977D01*
X291746Y158030D01*
X291815Y158086D01*
X291882Y158145D01*
X291947Y158206D01*
X292008Y158271D01*
X292067Y158338D01*
X292123Y158407D01*
X292176Y158479D01*
X292226Y158554D01*
X292272Y158630D01*
X292315Y158708D01*
X292354Y158788D01*
X292390Y158870D01*
X292423Y158953D01*
X292451Y159038D01*
X292476Y159123D01*
X292498Y159210D01*
X292515Y159298D01*
X292528Y159386D01*
X292538Y159475D01*
X292544Y159564D01*
X292546Y159653D01*
X292544Y159742D01*
X292538Y159831D01*
X292528Y159920D01*
X292515Y160008D01*
X292498Y160096D01*
X292476Y160183D01*
X292451Y160268D01*
X292423Y160353D01*
X292390Y160436D01*
X292354Y160518D01*
X292315Y160598D01*
X292272Y160676D01*
X292226Y160752D01*
X292176Y160827D01*
X292123Y160899D01*
X292067Y160968D01*
X292008Y161035D01*
X291947Y161100D01*
X291882Y161161D01*
X291815Y161220D01*
X291746Y161276D01*
X291674Y161329D01*
X291599Y161379D01*
X291523Y161425D01*
X291445Y161468D01*
X291365Y161507D01*
X291283Y161543D01*
X291200Y161576D01*
X291115Y161604D01*
X291030Y161629D01*
X290943Y161651D01*
X290855Y161668D01*
X290767Y161681D01*
X290678Y161691D01*
X290589Y161697D01*
X290500Y161699D01*
X290909Y164973D02*
X288454Y164973D01*
X290909Y164973D02*
X290988Y164971D01*
X291067Y164965D01*
X291146Y164956D01*
X291224Y164943D01*
X291301Y164925D01*
X291377Y164905D01*
X291452Y164880D01*
X291526Y164852D01*
X291599Y164821D01*
X291670Y164785D01*
X291739Y164747D01*
X291806Y164705D01*
X291871Y164660D01*
X291934Y164612D01*
X291995Y164561D01*
X292052Y164507D01*
X292108Y164451D01*
X292160Y164392D01*
X292210Y164330D01*
X292256Y164266D01*
X292300Y164200D01*
X292340Y164132D01*
X292376Y164062D01*
X292410Y163990D01*
X292440Y163916D01*
X292466Y163842D01*
X292489Y163766D01*
X292507Y163689D01*
X292523Y163612D01*
X292534Y163533D01*
X292542Y163455D01*
X292546Y163376D01*
X292546Y163296D01*
X292542Y163217D01*
X292534Y163139D01*
X292523Y163060D01*
X292507Y162983D01*
X292489Y162906D01*
X292466Y162830D01*
X292440Y162756D01*
X292410Y162682D01*
X292376Y162610D01*
X292340Y162540D01*
X292300Y162472D01*
X292256Y162406D01*
X292210Y162342D01*
X292160Y162280D01*
X292108Y162221D01*
X292052Y162165D01*
X291995Y162111D01*
X291934Y162060D01*
X291871Y162012D01*
X291806Y161967D01*
X291739Y161925D01*
X291670Y161887D01*
X291599Y161851D01*
X291526Y161820D01*
X291452Y161792D01*
X291377Y161767D01*
X291301Y161747D01*
X291224Y161729D01*
X291146Y161716D01*
X291067Y161707D01*
X290988Y161701D01*
X290909Y161699D01*
X289272Y161699D01*
D10*
X295275Y185420D02*
X321945Y185420D01*
X295275Y185420D02*
X295275Y198120D01*
X321945Y198120D01*
X321945Y185420D01*
D11*
X273874Y188087D02*
X273874Y195453D01*
X275920Y195453D01*
X276009Y195451D01*
X276098Y195445D01*
X276187Y195435D01*
X276275Y195422D01*
X276363Y195405D01*
X276450Y195383D01*
X276535Y195358D01*
X276620Y195330D01*
X276703Y195297D01*
X276785Y195261D01*
X276865Y195222D01*
X276943Y195179D01*
X277019Y195133D01*
X277094Y195083D01*
X277166Y195030D01*
X277235Y194974D01*
X277302Y194915D01*
X277367Y194854D01*
X277428Y194789D01*
X277487Y194722D01*
X277543Y194653D01*
X277596Y194581D01*
X277646Y194506D01*
X277692Y194430D01*
X277735Y194352D01*
X277774Y194272D01*
X277810Y194190D01*
X277843Y194107D01*
X277871Y194022D01*
X277896Y193937D01*
X277918Y193850D01*
X277935Y193762D01*
X277948Y193674D01*
X277958Y193585D01*
X277964Y193496D01*
X277966Y193407D01*
X277964Y193318D01*
X277958Y193229D01*
X277948Y193140D01*
X277935Y193052D01*
X277918Y192964D01*
X277896Y192877D01*
X277871Y192792D01*
X277843Y192707D01*
X277810Y192624D01*
X277774Y192542D01*
X277735Y192462D01*
X277692Y192384D01*
X277646Y192308D01*
X277596Y192233D01*
X277543Y192161D01*
X277487Y192092D01*
X277428Y192025D01*
X277367Y191960D01*
X277302Y191899D01*
X277235Y191840D01*
X277166Y191784D01*
X277094Y191731D01*
X277019Y191681D01*
X276943Y191635D01*
X276865Y191592D01*
X276785Y191553D01*
X276703Y191517D01*
X276620Y191484D01*
X276535Y191456D01*
X276450Y191431D01*
X276363Y191409D01*
X276275Y191392D01*
X276187Y191379D01*
X276098Y191369D01*
X276009Y191363D01*
X275920Y191361D01*
X273874Y191361D01*
X276330Y191361D02*
X277966Y188087D01*
X281138Y193816D02*
X283184Y195453D01*
X283184Y188087D01*
X281138Y188087D02*
X285231Y188087D01*
X288454Y189724D02*
X290090Y195453D01*
X288454Y189724D02*
X292546Y189724D01*
X291318Y191361D02*
X291318Y188087D01*
D10*
X295275Y170180D02*
X321945Y170180D01*
X295275Y170180D02*
X295275Y182880D01*
X321945Y182880D01*
X321945Y170180D01*
D11*
X277721Y172847D02*
X276084Y172847D01*
X276006Y172849D01*
X275928Y172854D01*
X275851Y172864D01*
X275774Y172877D01*
X275698Y172893D01*
X275623Y172913D01*
X275549Y172937D01*
X275476Y172964D01*
X275404Y172995D01*
X275334Y173029D01*
X275266Y173066D01*
X275199Y173107D01*
X275134Y173151D01*
X275072Y173197D01*
X275012Y173247D01*
X274954Y173299D01*
X274899Y173354D01*
X274847Y173412D01*
X274797Y173472D01*
X274751Y173534D01*
X274707Y173599D01*
X274666Y173666D01*
X274629Y173734D01*
X274595Y173804D01*
X274564Y173876D01*
X274537Y173949D01*
X274513Y174023D01*
X274493Y174098D01*
X274477Y174174D01*
X274464Y174251D01*
X274454Y174328D01*
X274449Y174406D01*
X274447Y174484D01*
X274447Y178576D01*
X274449Y178656D01*
X274455Y178736D01*
X274465Y178816D01*
X274478Y178895D01*
X274496Y178974D01*
X274517Y179051D01*
X274543Y179127D01*
X274572Y179202D01*
X274604Y179276D01*
X274640Y179348D01*
X274680Y179418D01*
X274723Y179485D01*
X274769Y179551D01*
X274819Y179614D01*
X274871Y179675D01*
X274926Y179734D01*
X274985Y179789D01*
X275045Y179841D01*
X275109Y179891D01*
X275175Y179937D01*
X275242Y179980D01*
X275312Y180020D01*
X275384Y180056D01*
X275458Y180088D01*
X275532Y180117D01*
X275609Y180143D01*
X275686Y180164D01*
X275765Y180182D01*
X275844Y180195D01*
X275924Y180205D01*
X276004Y180211D01*
X276084Y180213D01*
X277721Y180213D01*
X282817Y180214D02*
X282902Y180212D01*
X282987Y180206D01*
X283071Y180196D01*
X283155Y180183D01*
X283239Y180165D01*
X283321Y180144D01*
X283402Y180119D01*
X283482Y180090D01*
X283561Y180057D01*
X283638Y180021D01*
X283713Y179981D01*
X283787Y179938D01*
X283858Y179892D01*
X283927Y179842D01*
X283994Y179789D01*
X284058Y179733D01*
X284119Y179674D01*
X284178Y179613D01*
X284234Y179549D01*
X284287Y179482D01*
X284337Y179413D01*
X284383Y179342D01*
X284426Y179268D01*
X284466Y179193D01*
X284502Y179116D01*
X284535Y179037D01*
X284564Y178957D01*
X284589Y178876D01*
X284610Y178794D01*
X284628Y178710D01*
X284641Y178626D01*
X284651Y178542D01*
X284657Y178457D01*
X284659Y178372D01*
X282817Y180213D02*
X282721Y180211D01*
X282625Y180205D01*
X282530Y180195D01*
X282435Y180182D01*
X282340Y180164D01*
X282247Y180143D01*
X282154Y180118D01*
X282063Y180089D01*
X281972Y180057D01*
X281883Y180021D01*
X281796Y179981D01*
X281710Y179938D01*
X281626Y179892D01*
X281544Y179842D01*
X281464Y179788D01*
X281387Y179732D01*
X281312Y179672D01*
X281239Y179610D01*
X281169Y179544D01*
X281101Y179476D01*
X281036Y179405D01*
X280975Y179332D01*
X280916Y179256D01*
X280860Y179177D01*
X280808Y179097D01*
X280759Y179014D01*
X280713Y178930D01*
X280671Y178844D01*
X280633Y178756D01*
X280598Y178667D01*
X280566Y178576D01*
X284044Y176940D02*
X284104Y176999D01*
X284161Y177061D01*
X284216Y177125D01*
X284267Y177192D01*
X284316Y177261D01*
X284362Y177331D01*
X284405Y177404D01*
X284445Y177478D01*
X284481Y177554D01*
X284514Y177632D01*
X284544Y177711D01*
X284571Y177791D01*
X284594Y177872D01*
X284613Y177954D01*
X284629Y178036D01*
X284642Y178120D01*
X284651Y178204D01*
X284656Y178288D01*
X284658Y178372D01*
X284044Y176939D02*
X280566Y172847D01*
X284658Y172847D01*
X287881Y176530D02*
X287883Y176683D01*
X287889Y176836D01*
X287898Y176988D01*
X287912Y177141D01*
X287929Y177293D01*
X287950Y177444D01*
X287975Y177595D01*
X288004Y177745D01*
X288036Y177895D01*
X288073Y178043D01*
X288113Y178191D01*
X288156Y178338D01*
X288204Y178483D01*
X288255Y178627D01*
X288309Y178770D01*
X288368Y178912D01*
X288429Y179051D01*
X288495Y179190D01*
X288521Y179260D01*
X288551Y179330D01*
X288584Y179397D01*
X288620Y179463D01*
X288659Y179527D01*
X288702Y179589D01*
X288748Y179648D01*
X288796Y179706D01*
X288847Y179760D01*
X288901Y179813D01*
X288958Y179862D01*
X289017Y179909D01*
X289078Y179952D01*
X289141Y179993D01*
X289206Y180030D01*
X289273Y180065D01*
X289342Y180095D01*
X289412Y180123D01*
X289483Y180146D01*
X289555Y180167D01*
X289628Y180183D01*
X289702Y180196D01*
X289777Y180206D01*
X289852Y180211D01*
X289927Y180213D01*
X290002Y180211D01*
X290077Y180206D01*
X290152Y180196D01*
X290226Y180183D01*
X290299Y180167D01*
X290371Y180146D01*
X290442Y180123D01*
X290512Y180095D01*
X290581Y180065D01*
X290648Y180030D01*
X290713Y179993D01*
X290776Y179952D01*
X290837Y179909D01*
X290896Y179862D01*
X290953Y179813D01*
X291007Y179760D01*
X291058Y179706D01*
X291107Y179648D01*
X291152Y179589D01*
X291195Y179527D01*
X291234Y179463D01*
X291271Y179397D01*
X291303Y179329D01*
X291333Y179260D01*
X291359Y179190D01*
X291424Y179052D01*
X291486Y178912D01*
X291544Y178770D01*
X291599Y178627D01*
X291650Y178483D01*
X291698Y178338D01*
X291741Y178191D01*
X291781Y178044D01*
X291818Y177895D01*
X291850Y177745D01*
X291879Y177595D01*
X291904Y177444D01*
X291925Y177293D01*
X291942Y177141D01*
X291956Y176988D01*
X291965Y176836D01*
X291971Y176683D01*
X291973Y176530D01*
X287881Y176530D02*
X287883Y176377D01*
X287889Y176224D01*
X287898Y176071D01*
X287912Y175919D01*
X287929Y175767D01*
X287950Y175616D01*
X287975Y175465D01*
X288004Y175314D01*
X288036Y175165D01*
X288073Y175016D01*
X288113Y174869D01*
X288156Y174722D01*
X288204Y174577D01*
X288255Y174432D01*
X288310Y174290D01*
X288368Y174148D01*
X288430Y174008D01*
X288495Y173870D01*
X288521Y173799D01*
X288551Y173730D01*
X288584Y173663D01*
X288620Y173597D01*
X288659Y173533D01*
X288702Y173471D01*
X288748Y173412D01*
X288796Y173354D01*
X288847Y173300D01*
X288901Y173247D01*
X288958Y173198D01*
X289017Y173151D01*
X289078Y173108D01*
X289141Y173067D01*
X289206Y173030D01*
X289273Y172995D01*
X289342Y172965D01*
X289412Y172937D01*
X289483Y172914D01*
X289555Y172893D01*
X289628Y172877D01*
X289702Y172864D01*
X289777Y172854D01*
X289852Y172849D01*
X289927Y172847D01*
X291359Y173870D02*
X291424Y174008D01*
X291486Y174148D01*
X291544Y174290D01*
X291599Y174433D01*
X291650Y174577D01*
X291698Y174722D01*
X291741Y174869D01*
X291781Y175017D01*
X291818Y175165D01*
X291850Y175315D01*
X291879Y175465D01*
X291904Y175616D01*
X291925Y175767D01*
X291942Y175919D01*
X291956Y176072D01*
X291965Y176224D01*
X291971Y176377D01*
X291973Y176530D01*
X291359Y173870D02*
X291333Y173800D01*
X291303Y173730D01*
X291271Y173663D01*
X291234Y173597D01*
X291195Y173533D01*
X291152Y173471D01*
X291106Y173412D01*
X291058Y173354D01*
X291007Y173300D01*
X290953Y173247D01*
X290896Y173198D01*
X290837Y173151D01*
X290776Y173108D01*
X290713Y173067D01*
X290648Y173030D01*
X290581Y172995D01*
X290512Y172965D01*
X290442Y172937D01*
X290371Y172914D01*
X290299Y172893D01*
X290226Y172877D01*
X290152Y172864D01*
X290077Y172854D01*
X290002Y172849D01*
X289927Y172847D01*
X288290Y174484D02*
X291564Y178576D01*
D10*
X295275Y139700D02*
X321945Y139700D01*
X295275Y139700D02*
X295275Y152400D01*
X321945Y152400D01*
X321945Y139700D01*
D11*
X277721Y142367D02*
X276084Y142367D01*
X276006Y142369D01*
X275928Y142374D01*
X275851Y142384D01*
X275774Y142397D01*
X275698Y142413D01*
X275623Y142433D01*
X275549Y142457D01*
X275476Y142484D01*
X275404Y142515D01*
X275334Y142549D01*
X275266Y142586D01*
X275199Y142627D01*
X275134Y142671D01*
X275072Y142717D01*
X275012Y142767D01*
X274954Y142819D01*
X274899Y142874D01*
X274847Y142932D01*
X274797Y142992D01*
X274751Y143054D01*
X274707Y143119D01*
X274666Y143186D01*
X274629Y143254D01*
X274595Y143324D01*
X274564Y143396D01*
X274537Y143469D01*
X274513Y143543D01*
X274493Y143618D01*
X274477Y143694D01*
X274464Y143771D01*
X274454Y143848D01*
X274449Y143926D01*
X274447Y144004D01*
X274447Y148096D01*
X274449Y148176D01*
X274455Y148256D01*
X274465Y148336D01*
X274478Y148415D01*
X274496Y148494D01*
X274517Y148571D01*
X274543Y148647D01*
X274572Y148722D01*
X274604Y148796D01*
X274640Y148868D01*
X274680Y148938D01*
X274723Y149005D01*
X274769Y149071D01*
X274819Y149134D01*
X274871Y149195D01*
X274926Y149254D01*
X274985Y149309D01*
X275045Y149361D01*
X275109Y149411D01*
X275175Y149457D01*
X275242Y149500D01*
X275312Y149540D01*
X275384Y149576D01*
X275458Y149608D01*
X275532Y149637D01*
X275609Y149663D01*
X275686Y149684D01*
X275765Y149702D01*
X275844Y149715D01*
X275924Y149725D01*
X276004Y149731D01*
X276084Y149733D01*
X277721Y149733D01*
X282817Y149734D02*
X282902Y149732D01*
X282987Y149726D01*
X283071Y149716D01*
X283155Y149703D01*
X283239Y149685D01*
X283321Y149664D01*
X283402Y149639D01*
X283482Y149610D01*
X283561Y149577D01*
X283638Y149541D01*
X283713Y149501D01*
X283787Y149458D01*
X283858Y149412D01*
X283927Y149362D01*
X283994Y149309D01*
X284058Y149253D01*
X284119Y149194D01*
X284178Y149133D01*
X284234Y149069D01*
X284287Y149002D01*
X284337Y148933D01*
X284383Y148862D01*
X284426Y148788D01*
X284466Y148713D01*
X284502Y148636D01*
X284535Y148557D01*
X284564Y148477D01*
X284589Y148396D01*
X284610Y148314D01*
X284628Y148230D01*
X284641Y148146D01*
X284651Y148062D01*
X284657Y147977D01*
X284659Y147892D01*
X282817Y149733D02*
X282721Y149731D01*
X282625Y149725D01*
X282530Y149715D01*
X282435Y149702D01*
X282340Y149684D01*
X282247Y149663D01*
X282154Y149638D01*
X282063Y149609D01*
X281972Y149577D01*
X281883Y149541D01*
X281796Y149501D01*
X281710Y149458D01*
X281626Y149412D01*
X281544Y149362D01*
X281464Y149308D01*
X281387Y149252D01*
X281312Y149192D01*
X281239Y149130D01*
X281169Y149064D01*
X281101Y148996D01*
X281036Y148925D01*
X280975Y148852D01*
X280916Y148776D01*
X280860Y148697D01*
X280808Y148617D01*
X280759Y148534D01*
X280713Y148450D01*
X280671Y148364D01*
X280633Y148276D01*
X280598Y148187D01*
X280566Y148096D01*
X284044Y146460D02*
X284104Y146519D01*
X284161Y146581D01*
X284216Y146645D01*
X284267Y146712D01*
X284316Y146781D01*
X284362Y146851D01*
X284405Y146924D01*
X284445Y146998D01*
X284481Y147074D01*
X284514Y147152D01*
X284544Y147231D01*
X284571Y147311D01*
X284594Y147392D01*
X284613Y147474D01*
X284629Y147556D01*
X284642Y147640D01*
X284651Y147724D01*
X284656Y147808D01*
X284658Y147892D01*
X284044Y146459D02*
X280566Y142367D01*
X284658Y142367D01*
X287881Y148096D02*
X289927Y149733D01*
X289927Y142367D01*
X287881Y142367D02*
X291973Y142367D01*
D10*
X566420Y149860D02*
X566432Y150826D01*
X566467Y151792D01*
X566527Y152756D01*
X566610Y153719D01*
X566716Y154679D01*
X566846Y155637D01*
X567000Y156591D01*
X567176Y157541D01*
X567377Y158486D01*
X567600Y159426D01*
X567846Y160360D01*
X568115Y161289D01*
X568407Y162210D01*
X568721Y163123D01*
X569058Y164029D01*
X569417Y164926D01*
X569798Y165814D01*
X570200Y166693D01*
X570624Y167561D01*
X571069Y168419D01*
X571535Y169265D01*
X572021Y170100D01*
X572528Y170923D01*
X573055Y171733D01*
X573602Y172530D01*
X574168Y173313D01*
X574753Y174082D01*
X575357Y174836D01*
X575979Y175575D01*
X576619Y176299D01*
X577276Y177007D01*
X577951Y177699D01*
X578643Y178374D01*
X579351Y179031D01*
X580075Y179671D01*
X580814Y180293D01*
X581568Y180897D01*
X582337Y181482D01*
X583120Y182048D01*
X583917Y182595D01*
X584727Y183122D01*
X585550Y183629D01*
X586385Y184115D01*
X587231Y184581D01*
X588089Y185026D01*
X588957Y185450D01*
X589836Y185852D01*
X590724Y186233D01*
X591621Y186592D01*
X592527Y186929D01*
X593440Y187243D01*
X594361Y187535D01*
X595290Y187804D01*
X596224Y188050D01*
X597164Y188273D01*
X598109Y188474D01*
X599059Y188650D01*
X600013Y188804D01*
X600971Y188934D01*
X601931Y189040D01*
X602894Y189123D01*
X603858Y189183D01*
X604824Y189218D01*
X605790Y189230D01*
X606756Y189218D01*
X607722Y189183D01*
X608686Y189123D01*
X609649Y189040D01*
X610609Y188934D01*
X611567Y188804D01*
X612521Y188650D01*
X613471Y188474D01*
X614416Y188273D01*
X615356Y188050D01*
X616290Y187804D01*
X617219Y187535D01*
X618140Y187243D01*
X619053Y186929D01*
X619959Y186592D01*
X620856Y186233D01*
X621744Y185852D01*
X622623Y185450D01*
X623491Y185026D01*
X624349Y184581D01*
X625195Y184115D01*
X626030Y183629D01*
X626853Y183122D01*
X627663Y182595D01*
X628460Y182048D01*
X629243Y181482D01*
X630012Y180897D01*
X630766Y180293D01*
X631505Y179671D01*
X632229Y179031D01*
X632937Y178374D01*
X633629Y177699D01*
X634304Y177007D01*
X634961Y176299D01*
X635601Y175575D01*
X636223Y174836D01*
X636827Y174082D01*
X637412Y173313D01*
X637978Y172530D01*
X638525Y171733D01*
X639052Y170923D01*
X639559Y170100D01*
X640045Y169265D01*
X640511Y168419D01*
X640956Y167561D01*
X641380Y166693D01*
X641782Y165814D01*
X642163Y164926D01*
X642522Y164029D01*
X642859Y163123D01*
X643173Y162210D01*
X643465Y161289D01*
X643734Y160360D01*
X643980Y159426D01*
X644203Y158486D01*
X644404Y157541D01*
X644580Y156591D01*
X644734Y155637D01*
X644864Y154679D01*
X644970Y153719D01*
X645053Y152756D01*
X645113Y151792D01*
X645148Y150826D01*
X645160Y149860D01*
X645148Y148894D01*
X645113Y147928D01*
X645053Y146964D01*
X644970Y146001D01*
X644864Y145041D01*
X644734Y144083D01*
X644580Y143129D01*
X644404Y142179D01*
X644203Y141234D01*
X643980Y140294D01*
X643734Y139360D01*
X643465Y138431D01*
X643173Y137510D01*
X642859Y136597D01*
X642522Y135691D01*
X642163Y134794D01*
X641782Y133906D01*
X641380Y133027D01*
X640956Y132159D01*
X640511Y131301D01*
X640045Y130455D01*
X639559Y129620D01*
X639052Y128797D01*
X638525Y127987D01*
X637978Y127190D01*
X637412Y126407D01*
X636827Y125638D01*
X636223Y124884D01*
X635601Y124145D01*
X634961Y123421D01*
X634304Y122713D01*
X633629Y122021D01*
X632937Y121346D01*
X632229Y120689D01*
X631505Y120049D01*
X630766Y119427D01*
X630012Y118823D01*
X629243Y118238D01*
X628460Y117672D01*
X627663Y117125D01*
X626853Y116598D01*
X626030Y116091D01*
X625195Y115605D01*
X624349Y115139D01*
X623491Y114694D01*
X622623Y114270D01*
X621744Y113868D01*
X620856Y113487D01*
X619959Y113128D01*
X619053Y112791D01*
X618140Y112477D01*
X617219Y112185D01*
X616290Y111916D01*
X615356Y111670D01*
X614416Y111447D01*
X613471Y111246D01*
X612521Y111070D01*
X611567Y110916D01*
X610609Y110786D01*
X609649Y110680D01*
X608686Y110597D01*
X607722Y110537D01*
X606756Y110502D01*
X605790Y110490D01*
X604824Y110502D01*
X603858Y110537D01*
X602894Y110597D01*
X601931Y110680D01*
X600971Y110786D01*
X600013Y110916D01*
X599059Y111070D01*
X598109Y111246D01*
X597164Y111447D01*
X596224Y111670D01*
X595290Y111916D01*
X594361Y112185D01*
X593440Y112477D01*
X592527Y112791D01*
X591621Y113128D01*
X590724Y113487D01*
X589836Y113868D01*
X588957Y114270D01*
X588089Y114694D01*
X587231Y115139D01*
X586385Y115605D01*
X585550Y116091D01*
X584727Y116598D01*
X583917Y117125D01*
X583120Y117672D01*
X582337Y118238D01*
X581568Y118823D01*
X580814Y119427D01*
X580075Y120049D01*
X579351Y120689D01*
X578643Y121346D01*
X577951Y122021D01*
X577276Y122713D01*
X576619Y123421D01*
X575979Y124145D01*
X575357Y124884D01*
X574753Y125638D01*
X574168Y126407D01*
X573602Y127190D01*
X573055Y127987D01*
X572528Y128797D01*
X572021Y129620D01*
X571535Y130455D01*
X571069Y131301D01*
X570624Y132159D01*
X570200Y133027D01*
X569798Y133906D01*
X569417Y134794D01*
X569058Y135691D01*
X568721Y136597D01*
X568407Y137510D01*
X568115Y138431D01*
X567846Y139360D01*
X567600Y140294D01*
X567377Y141234D01*
X567176Y142179D01*
X567000Y143129D01*
X566846Y144083D01*
X566716Y145041D01*
X566610Y146001D01*
X566527Y146964D01*
X566467Y147928D01*
X566432Y148894D01*
X566420Y149860D01*
X645160Y139700D02*
X648970Y139700D01*
X648970Y160020D01*
X645160Y160020D01*
D11*
X601871Y99633D02*
X600234Y99633D01*
X600156Y99635D01*
X600078Y99640D01*
X600001Y99650D01*
X599924Y99663D01*
X599848Y99679D01*
X599773Y99699D01*
X599699Y99723D01*
X599626Y99750D01*
X599554Y99781D01*
X599484Y99815D01*
X599416Y99852D01*
X599349Y99893D01*
X599284Y99937D01*
X599222Y99983D01*
X599162Y100033D01*
X599104Y100085D01*
X599049Y100140D01*
X598997Y100198D01*
X598947Y100258D01*
X598901Y100320D01*
X598857Y100385D01*
X598816Y100452D01*
X598779Y100520D01*
X598745Y100590D01*
X598714Y100662D01*
X598687Y100735D01*
X598663Y100809D01*
X598643Y100884D01*
X598627Y100960D01*
X598614Y101037D01*
X598604Y101114D01*
X598599Y101192D01*
X598597Y101270D01*
X598598Y101270D02*
X598598Y105362D01*
X598597Y105362D02*
X598599Y105442D01*
X598605Y105522D01*
X598615Y105602D01*
X598628Y105681D01*
X598646Y105760D01*
X598667Y105837D01*
X598693Y105913D01*
X598722Y105988D01*
X598754Y106062D01*
X598790Y106134D01*
X598830Y106204D01*
X598873Y106271D01*
X598919Y106337D01*
X598969Y106400D01*
X599021Y106461D01*
X599076Y106520D01*
X599135Y106575D01*
X599195Y106627D01*
X599259Y106677D01*
X599325Y106723D01*
X599392Y106766D01*
X599462Y106806D01*
X599534Y106842D01*
X599608Y106874D01*
X599682Y106903D01*
X599759Y106929D01*
X599836Y106950D01*
X599915Y106968D01*
X599994Y106981D01*
X600074Y106991D01*
X600154Y106997D01*
X600234Y106999D01*
X601871Y106999D01*
X604717Y105362D02*
X606763Y106999D01*
X606763Y99633D01*
X604717Y99633D02*
X608809Y99633D01*
X612032Y103725D02*
X614487Y103725D01*
X614565Y103723D01*
X614643Y103718D01*
X614720Y103708D01*
X614797Y103695D01*
X614873Y103679D01*
X614948Y103659D01*
X615022Y103635D01*
X615095Y103608D01*
X615167Y103577D01*
X615237Y103543D01*
X615306Y103506D01*
X615372Y103465D01*
X615437Y103421D01*
X615499Y103375D01*
X615559Y103325D01*
X615617Y103273D01*
X615672Y103218D01*
X615724Y103160D01*
X615774Y103100D01*
X615820Y103038D01*
X615864Y102973D01*
X615905Y102907D01*
X615942Y102838D01*
X615976Y102768D01*
X616007Y102696D01*
X616034Y102623D01*
X616058Y102549D01*
X616078Y102474D01*
X616094Y102398D01*
X616107Y102321D01*
X616117Y102244D01*
X616122Y102166D01*
X616124Y102088D01*
X616124Y101679D01*
X616122Y101590D01*
X616116Y101501D01*
X616106Y101412D01*
X616093Y101324D01*
X616076Y101236D01*
X616054Y101149D01*
X616029Y101064D01*
X616001Y100979D01*
X615968Y100896D01*
X615932Y100814D01*
X615893Y100734D01*
X615850Y100656D01*
X615804Y100580D01*
X615754Y100505D01*
X615701Y100433D01*
X615645Y100364D01*
X615586Y100297D01*
X615525Y100232D01*
X615460Y100171D01*
X615393Y100112D01*
X615324Y100056D01*
X615252Y100003D01*
X615177Y99953D01*
X615101Y99907D01*
X615023Y99864D01*
X614943Y99825D01*
X614861Y99789D01*
X614778Y99756D01*
X614693Y99728D01*
X614608Y99703D01*
X614521Y99681D01*
X614433Y99664D01*
X614345Y99651D01*
X614256Y99641D01*
X614167Y99635D01*
X614078Y99633D01*
X613989Y99635D01*
X613900Y99641D01*
X613811Y99651D01*
X613723Y99664D01*
X613635Y99681D01*
X613548Y99703D01*
X613463Y99728D01*
X613378Y99756D01*
X613295Y99789D01*
X613213Y99825D01*
X613133Y99864D01*
X613055Y99907D01*
X612979Y99953D01*
X612904Y100003D01*
X612832Y100056D01*
X612763Y100112D01*
X612696Y100171D01*
X612631Y100232D01*
X612570Y100297D01*
X612511Y100364D01*
X612455Y100433D01*
X612402Y100505D01*
X612352Y100580D01*
X612306Y100656D01*
X612263Y100734D01*
X612224Y100814D01*
X612188Y100896D01*
X612155Y100979D01*
X612127Y101064D01*
X612102Y101149D01*
X612080Y101236D01*
X612063Y101324D01*
X612050Y101412D01*
X612040Y101501D01*
X612034Y101590D01*
X612032Y101679D01*
X612032Y103725D01*
X612034Y103839D01*
X612040Y103953D01*
X612050Y104067D01*
X612064Y104181D01*
X612082Y104294D01*
X612104Y104406D01*
X612129Y104517D01*
X612159Y104627D01*
X612192Y104737D01*
X612229Y104845D01*
X612270Y104951D01*
X612315Y105057D01*
X612363Y105160D01*
X612415Y105262D01*
X612471Y105362D01*
X612529Y105460D01*
X612592Y105556D01*
X612657Y105649D01*
X612726Y105741D01*
X612798Y105829D01*
X612873Y105916D01*
X612951Y105999D01*
X613032Y106080D01*
X613115Y106158D01*
X613202Y106233D01*
X613290Y106305D01*
X613382Y106374D01*
X613475Y106439D01*
X613571Y106501D01*
X613669Y106560D01*
X613769Y106616D01*
X613871Y106668D01*
X613974Y106716D01*
X614080Y106761D01*
X614186Y106802D01*
X614294Y106839D01*
X614404Y106872D01*
X614514Y106902D01*
X614625Y106927D01*
X614737Y106949D01*
X614850Y106967D01*
X614964Y106981D01*
X615078Y106991D01*
X615192Y106997D01*
X615306Y106999D01*
D10*
X483870Y149860D02*
X483882Y150826D01*
X483917Y151792D01*
X483977Y152756D01*
X484060Y153719D01*
X484166Y154679D01*
X484296Y155637D01*
X484450Y156591D01*
X484626Y157541D01*
X484827Y158486D01*
X485050Y159426D01*
X485296Y160360D01*
X485565Y161289D01*
X485857Y162210D01*
X486171Y163123D01*
X486508Y164029D01*
X486867Y164926D01*
X487248Y165814D01*
X487650Y166693D01*
X488074Y167561D01*
X488519Y168419D01*
X488985Y169265D01*
X489471Y170100D01*
X489978Y170923D01*
X490505Y171733D01*
X491052Y172530D01*
X491618Y173313D01*
X492203Y174082D01*
X492807Y174836D01*
X493429Y175575D01*
X494069Y176299D01*
X494726Y177007D01*
X495401Y177699D01*
X496093Y178374D01*
X496801Y179031D01*
X497525Y179671D01*
X498264Y180293D01*
X499018Y180897D01*
X499787Y181482D01*
X500570Y182048D01*
X501367Y182595D01*
X502177Y183122D01*
X503000Y183629D01*
X503835Y184115D01*
X504681Y184581D01*
X505539Y185026D01*
X506407Y185450D01*
X507286Y185852D01*
X508174Y186233D01*
X509071Y186592D01*
X509977Y186929D01*
X510890Y187243D01*
X511811Y187535D01*
X512740Y187804D01*
X513674Y188050D01*
X514614Y188273D01*
X515559Y188474D01*
X516509Y188650D01*
X517463Y188804D01*
X518421Y188934D01*
X519381Y189040D01*
X520344Y189123D01*
X521308Y189183D01*
X522274Y189218D01*
X523240Y189230D01*
X524206Y189218D01*
X525172Y189183D01*
X526136Y189123D01*
X527099Y189040D01*
X528059Y188934D01*
X529017Y188804D01*
X529971Y188650D01*
X530921Y188474D01*
X531866Y188273D01*
X532806Y188050D01*
X533740Y187804D01*
X534669Y187535D01*
X535590Y187243D01*
X536503Y186929D01*
X537409Y186592D01*
X538306Y186233D01*
X539194Y185852D01*
X540073Y185450D01*
X540941Y185026D01*
X541799Y184581D01*
X542645Y184115D01*
X543480Y183629D01*
X544303Y183122D01*
X545113Y182595D01*
X545910Y182048D01*
X546693Y181482D01*
X547462Y180897D01*
X548216Y180293D01*
X548955Y179671D01*
X549679Y179031D01*
X550387Y178374D01*
X551079Y177699D01*
X551754Y177007D01*
X552411Y176299D01*
X553051Y175575D01*
X553673Y174836D01*
X554277Y174082D01*
X554862Y173313D01*
X555428Y172530D01*
X555975Y171733D01*
X556502Y170923D01*
X557009Y170100D01*
X557495Y169265D01*
X557961Y168419D01*
X558406Y167561D01*
X558830Y166693D01*
X559232Y165814D01*
X559613Y164926D01*
X559972Y164029D01*
X560309Y163123D01*
X560623Y162210D01*
X560915Y161289D01*
X561184Y160360D01*
X561430Y159426D01*
X561653Y158486D01*
X561854Y157541D01*
X562030Y156591D01*
X562184Y155637D01*
X562314Y154679D01*
X562420Y153719D01*
X562503Y152756D01*
X562563Y151792D01*
X562598Y150826D01*
X562610Y149860D01*
X562598Y148894D01*
X562563Y147928D01*
X562503Y146964D01*
X562420Y146001D01*
X562314Y145041D01*
X562184Y144083D01*
X562030Y143129D01*
X561854Y142179D01*
X561653Y141234D01*
X561430Y140294D01*
X561184Y139360D01*
X560915Y138431D01*
X560623Y137510D01*
X560309Y136597D01*
X559972Y135691D01*
X559613Y134794D01*
X559232Y133906D01*
X558830Y133027D01*
X558406Y132159D01*
X557961Y131301D01*
X557495Y130455D01*
X557009Y129620D01*
X556502Y128797D01*
X555975Y127987D01*
X555428Y127190D01*
X554862Y126407D01*
X554277Y125638D01*
X553673Y124884D01*
X553051Y124145D01*
X552411Y123421D01*
X551754Y122713D01*
X551079Y122021D01*
X550387Y121346D01*
X549679Y120689D01*
X548955Y120049D01*
X548216Y119427D01*
X547462Y118823D01*
X546693Y118238D01*
X545910Y117672D01*
X545113Y117125D01*
X544303Y116598D01*
X543480Y116091D01*
X542645Y115605D01*
X541799Y115139D01*
X540941Y114694D01*
X540073Y114270D01*
X539194Y113868D01*
X538306Y113487D01*
X537409Y113128D01*
X536503Y112791D01*
X535590Y112477D01*
X534669Y112185D01*
X533740Y111916D01*
X532806Y111670D01*
X531866Y111447D01*
X530921Y111246D01*
X529971Y111070D01*
X529017Y110916D01*
X528059Y110786D01*
X527099Y110680D01*
X526136Y110597D01*
X525172Y110537D01*
X524206Y110502D01*
X523240Y110490D01*
X522274Y110502D01*
X521308Y110537D01*
X520344Y110597D01*
X519381Y110680D01*
X518421Y110786D01*
X517463Y110916D01*
X516509Y111070D01*
X515559Y111246D01*
X514614Y111447D01*
X513674Y111670D01*
X512740Y111916D01*
X511811Y112185D01*
X510890Y112477D01*
X509977Y112791D01*
X509071Y113128D01*
X508174Y113487D01*
X507286Y113868D01*
X506407Y114270D01*
X505539Y114694D01*
X504681Y115139D01*
X503835Y115605D01*
X503000Y116091D01*
X502177Y116598D01*
X501367Y117125D01*
X500570Y117672D01*
X499787Y118238D01*
X499018Y118823D01*
X498264Y119427D01*
X497525Y120049D01*
X496801Y120689D01*
X496093Y121346D01*
X495401Y122021D01*
X494726Y122713D01*
X494069Y123421D01*
X493429Y124145D01*
X492807Y124884D01*
X492203Y125638D01*
X491618Y126407D01*
X491052Y127190D01*
X490505Y127987D01*
X489978Y128797D01*
X489471Y129620D01*
X488985Y130455D01*
X488519Y131301D01*
X488074Y132159D01*
X487650Y133027D01*
X487248Y133906D01*
X486867Y134794D01*
X486508Y135691D01*
X486171Y136597D01*
X485857Y137510D01*
X485565Y138431D01*
X485296Y139360D01*
X485050Y140294D01*
X484827Y141234D01*
X484626Y142179D01*
X484450Y143129D01*
X484296Y144083D01*
X484166Y145041D01*
X484060Y146001D01*
X483977Y146964D01*
X483917Y147928D01*
X483882Y148894D01*
X483870Y149860D01*
X562610Y139700D02*
X566420Y139700D01*
X566420Y160020D01*
X562610Y160020D01*
D11*
X519321Y99633D02*
X517684Y99633D01*
X517606Y99635D01*
X517528Y99640D01*
X517451Y99650D01*
X517374Y99663D01*
X517298Y99679D01*
X517223Y99699D01*
X517149Y99723D01*
X517076Y99750D01*
X517004Y99781D01*
X516934Y99815D01*
X516866Y99852D01*
X516799Y99893D01*
X516734Y99937D01*
X516672Y99983D01*
X516612Y100033D01*
X516554Y100085D01*
X516499Y100140D01*
X516447Y100198D01*
X516397Y100258D01*
X516351Y100320D01*
X516307Y100385D01*
X516266Y100452D01*
X516229Y100520D01*
X516195Y100590D01*
X516164Y100662D01*
X516137Y100735D01*
X516113Y100809D01*
X516093Y100884D01*
X516077Y100960D01*
X516064Y101037D01*
X516054Y101114D01*
X516049Y101192D01*
X516047Y101270D01*
X516048Y101270D02*
X516048Y105362D01*
X516047Y105362D02*
X516049Y105442D01*
X516055Y105522D01*
X516065Y105602D01*
X516078Y105681D01*
X516096Y105760D01*
X516117Y105837D01*
X516143Y105913D01*
X516172Y105988D01*
X516204Y106062D01*
X516240Y106134D01*
X516280Y106204D01*
X516323Y106271D01*
X516369Y106337D01*
X516419Y106400D01*
X516471Y106461D01*
X516526Y106520D01*
X516585Y106575D01*
X516645Y106627D01*
X516709Y106677D01*
X516775Y106723D01*
X516842Y106766D01*
X516912Y106806D01*
X516984Y106842D01*
X517058Y106874D01*
X517132Y106903D01*
X517209Y106929D01*
X517286Y106950D01*
X517365Y106968D01*
X517444Y106981D01*
X517524Y106991D01*
X517604Y106997D01*
X517684Y106999D01*
X519321Y106999D01*
X522167Y105362D02*
X524213Y106999D01*
X524213Y99633D01*
X522167Y99633D02*
X526259Y99633D01*
X529482Y106181D02*
X529482Y106999D01*
X533574Y106999D01*
X531528Y99633D01*
D10*
X471170Y361315D02*
X471170Y525145D01*
X471170Y361315D02*
X311150Y361315D01*
X311150Y525145D01*
X471170Y525145D01*
D11*
X477266Y431058D02*
X484632Y431058D01*
X481358Y433513D02*
X477266Y431058D01*
X481358Y433513D02*
X477266Y435968D01*
X484632Y435968D01*
X482586Y439514D02*
X479312Y439514D01*
X479223Y439516D01*
X479134Y439522D01*
X479045Y439532D01*
X478957Y439545D01*
X478869Y439562D01*
X478782Y439584D01*
X478697Y439609D01*
X478612Y439637D01*
X478529Y439670D01*
X478447Y439706D01*
X478367Y439745D01*
X478289Y439788D01*
X478213Y439834D01*
X478138Y439884D01*
X478066Y439937D01*
X477997Y439993D01*
X477930Y440052D01*
X477865Y440113D01*
X477804Y440178D01*
X477745Y440245D01*
X477689Y440314D01*
X477636Y440386D01*
X477586Y440461D01*
X477540Y440537D01*
X477497Y440615D01*
X477458Y440695D01*
X477422Y440777D01*
X477389Y440860D01*
X477361Y440945D01*
X477336Y441030D01*
X477314Y441117D01*
X477297Y441205D01*
X477284Y441293D01*
X477274Y441382D01*
X477268Y441471D01*
X477266Y441560D01*
X477268Y441649D01*
X477274Y441738D01*
X477284Y441827D01*
X477297Y441915D01*
X477314Y442003D01*
X477336Y442090D01*
X477361Y442175D01*
X477389Y442260D01*
X477422Y442343D01*
X477458Y442425D01*
X477497Y442505D01*
X477540Y442583D01*
X477586Y442659D01*
X477636Y442734D01*
X477689Y442806D01*
X477745Y442875D01*
X477804Y442942D01*
X477865Y443007D01*
X477930Y443068D01*
X477997Y443127D01*
X478066Y443183D01*
X478138Y443236D01*
X478213Y443286D01*
X478289Y443332D01*
X478367Y443375D01*
X478447Y443414D01*
X478529Y443450D01*
X478612Y443483D01*
X478697Y443511D01*
X478782Y443536D01*
X478869Y443558D01*
X478957Y443575D01*
X479045Y443588D01*
X479134Y443598D01*
X479223Y443604D01*
X479312Y443606D01*
X482586Y443606D01*
X482675Y443604D01*
X482764Y443598D01*
X482853Y443588D01*
X482941Y443575D01*
X483029Y443558D01*
X483116Y443536D01*
X483201Y443511D01*
X483286Y443483D01*
X483369Y443450D01*
X483451Y443414D01*
X483531Y443375D01*
X483609Y443332D01*
X483685Y443286D01*
X483760Y443236D01*
X483832Y443183D01*
X483901Y443127D01*
X483968Y443068D01*
X484033Y443007D01*
X484094Y442942D01*
X484153Y442875D01*
X484209Y442806D01*
X484262Y442734D01*
X484312Y442659D01*
X484358Y442583D01*
X484401Y442505D01*
X484440Y442425D01*
X484476Y442343D01*
X484509Y442260D01*
X484537Y442175D01*
X484562Y442090D01*
X484584Y442003D01*
X484601Y441915D01*
X484614Y441827D01*
X484624Y441738D01*
X484630Y441649D01*
X484632Y441560D01*
X484630Y441471D01*
X484624Y441382D01*
X484614Y441293D01*
X484601Y441205D01*
X484584Y441117D01*
X484562Y441030D01*
X484537Y440945D01*
X484509Y440860D01*
X484476Y440777D01*
X484440Y440695D01*
X484401Y440615D01*
X484358Y440537D01*
X484312Y440461D01*
X484262Y440386D01*
X484209Y440314D01*
X484153Y440245D01*
X484094Y440178D01*
X484033Y440113D01*
X483968Y440052D01*
X483901Y439993D01*
X483832Y439937D01*
X483760Y439884D01*
X483685Y439834D01*
X483609Y439788D01*
X483531Y439745D01*
X483451Y439706D01*
X483369Y439670D01*
X483286Y439637D01*
X483201Y439609D01*
X483116Y439584D01*
X483029Y439562D01*
X482941Y439545D01*
X482853Y439532D01*
X482764Y439522D01*
X482675Y439516D01*
X482586Y439514D01*
X484632Y447073D02*
X477266Y447073D01*
X477266Y449119D01*
X477268Y449208D01*
X477274Y449297D01*
X477284Y449386D01*
X477297Y449474D01*
X477314Y449562D01*
X477336Y449649D01*
X477361Y449734D01*
X477389Y449819D01*
X477422Y449902D01*
X477458Y449984D01*
X477497Y450064D01*
X477540Y450142D01*
X477586Y450218D01*
X477636Y450293D01*
X477689Y450365D01*
X477745Y450434D01*
X477804Y450501D01*
X477865Y450566D01*
X477930Y450627D01*
X477997Y450686D01*
X478066Y450742D01*
X478138Y450795D01*
X478213Y450845D01*
X478289Y450891D01*
X478367Y450934D01*
X478447Y450973D01*
X478529Y451009D01*
X478612Y451042D01*
X478697Y451070D01*
X478782Y451095D01*
X478869Y451117D01*
X478957Y451134D01*
X479045Y451147D01*
X479134Y451157D01*
X479223Y451163D01*
X479312Y451165D01*
X482586Y451165D01*
X482675Y451163D01*
X482764Y451157D01*
X482853Y451147D01*
X482941Y451134D01*
X483029Y451117D01*
X483116Y451095D01*
X483201Y451070D01*
X483286Y451042D01*
X483369Y451009D01*
X483451Y450973D01*
X483531Y450934D01*
X483609Y450891D01*
X483685Y450845D01*
X483760Y450795D01*
X483832Y450742D01*
X483901Y450686D01*
X483968Y450627D01*
X484033Y450566D01*
X484094Y450501D01*
X484153Y450434D01*
X484209Y450365D01*
X484262Y450293D01*
X484312Y450218D01*
X484358Y450142D01*
X484401Y450064D01*
X484440Y449984D01*
X484476Y449902D01*
X484509Y449819D01*
X484537Y449734D01*
X484562Y449649D01*
X484584Y449562D01*
X484601Y449474D01*
X484614Y449386D01*
X484624Y449297D01*
X484630Y449208D01*
X484632Y449119D01*
X484632Y447073D01*
X478903Y454632D02*
X477266Y456678D01*
X484632Y456678D01*
X484632Y454632D02*
X484632Y458724D01*
D10*
X233045Y439420D02*
X206375Y439420D01*
X206375Y452120D01*
X233045Y452120D01*
X233045Y439420D01*
D11*
X235774Y442087D02*
X235774Y449453D01*
X237820Y449453D01*
X237909Y449451D01*
X237998Y449445D01*
X238087Y449435D01*
X238175Y449422D01*
X238263Y449405D01*
X238350Y449383D01*
X238435Y449358D01*
X238520Y449330D01*
X238603Y449297D01*
X238685Y449261D01*
X238765Y449222D01*
X238843Y449179D01*
X238919Y449133D01*
X238994Y449083D01*
X239066Y449030D01*
X239135Y448974D01*
X239202Y448915D01*
X239267Y448854D01*
X239328Y448789D01*
X239387Y448722D01*
X239443Y448653D01*
X239496Y448581D01*
X239546Y448506D01*
X239592Y448430D01*
X239635Y448352D01*
X239674Y448272D01*
X239710Y448190D01*
X239743Y448107D01*
X239771Y448022D01*
X239796Y447937D01*
X239818Y447850D01*
X239835Y447762D01*
X239848Y447674D01*
X239858Y447585D01*
X239864Y447496D01*
X239866Y447407D01*
X239864Y447318D01*
X239858Y447229D01*
X239848Y447140D01*
X239835Y447052D01*
X239818Y446964D01*
X239796Y446877D01*
X239771Y446792D01*
X239743Y446707D01*
X239710Y446624D01*
X239674Y446542D01*
X239635Y446462D01*
X239592Y446384D01*
X239546Y446308D01*
X239496Y446233D01*
X239443Y446161D01*
X239387Y446092D01*
X239328Y446025D01*
X239267Y445960D01*
X239202Y445899D01*
X239135Y445840D01*
X239066Y445784D01*
X238994Y445731D01*
X238919Y445681D01*
X238843Y445635D01*
X238765Y445592D01*
X238685Y445553D01*
X238603Y445517D01*
X238520Y445484D01*
X238435Y445456D01*
X238350Y445431D01*
X238263Y445409D01*
X238175Y445392D01*
X238087Y445379D01*
X237998Y445369D01*
X237909Y445363D01*
X237820Y445361D01*
X235774Y445361D01*
X238230Y445361D02*
X239866Y442087D01*
X243038Y447816D02*
X245084Y449453D01*
X245084Y442087D01*
X243038Y442087D02*
X247131Y442087D01*
X250354Y442087D02*
X252809Y442087D01*
X252887Y442089D01*
X252965Y442094D01*
X253042Y442104D01*
X253119Y442117D01*
X253195Y442133D01*
X253270Y442153D01*
X253344Y442177D01*
X253417Y442204D01*
X253489Y442235D01*
X253559Y442269D01*
X253628Y442306D01*
X253694Y442347D01*
X253759Y442391D01*
X253821Y442437D01*
X253881Y442487D01*
X253939Y442539D01*
X253994Y442594D01*
X254046Y442652D01*
X254096Y442712D01*
X254142Y442774D01*
X254186Y442839D01*
X254227Y442906D01*
X254264Y442974D01*
X254298Y443044D01*
X254329Y443116D01*
X254356Y443189D01*
X254380Y443263D01*
X254400Y443338D01*
X254416Y443414D01*
X254429Y443491D01*
X254439Y443568D01*
X254444Y443646D01*
X254446Y443724D01*
X254446Y444542D01*
X254444Y444620D01*
X254439Y444698D01*
X254429Y444775D01*
X254416Y444852D01*
X254400Y444928D01*
X254380Y445003D01*
X254356Y445077D01*
X254329Y445150D01*
X254298Y445222D01*
X254264Y445292D01*
X254227Y445361D01*
X254186Y445427D01*
X254142Y445492D01*
X254096Y445554D01*
X254046Y445614D01*
X253994Y445672D01*
X253939Y445727D01*
X253881Y445779D01*
X253821Y445829D01*
X253759Y445875D01*
X253694Y445919D01*
X253628Y445960D01*
X253559Y445997D01*
X253489Y446031D01*
X253417Y446062D01*
X253344Y446089D01*
X253270Y446113D01*
X253195Y446133D01*
X253119Y446149D01*
X253042Y446162D01*
X252965Y446172D01*
X252887Y446177D01*
X252809Y446179D01*
X250354Y446179D01*
X250354Y449453D01*
X254446Y449453D01*
D10*
X311150Y83185D02*
X311150Y46355D01*
X311150Y83185D02*
X344170Y83185D01*
X344170Y46355D01*
X311150Y46355D01*
D11*
X321072Y85217D02*
X321072Y92583D01*
X320254Y85217D02*
X321891Y85217D01*
X321891Y92583D02*
X320254Y92583D01*
X326492Y85217D02*
X328129Y85217D01*
X326492Y85217D02*
X326414Y85219D01*
X326336Y85224D01*
X326259Y85234D01*
X326182Y85247D01*
X326106Y85263D01*
X326031Y85283D01*
X325957Y85307D01*
X325884Y85334D01*
X325812Y85365D01*
X325742Y85399D01*
X325674Y85436D01*
X325607Y85477D01*
X325542Y85521D01*
X325480Y85567D01*
X325420Y85617D01*
X325362Y85669D01*
X325307Y85724D01*
X325255Y85782D01*
X325205Y85842D01*
X325159Y85904D01*
X325115Y85969D01*
X325074Y86036D01*
X325037Y86104D01*
X325003Y86174D01*
X324972Y86246D01*
X324945Y86319D01*
X324921Y86393D01*
X324901Y86468D01*
X324885Y86544D01*
X324872Y86621D01*
X324862Y86698D01*
X324857Y86776D01*
X324855Y86854D01*
X324855Y90946D01*
X324857Y91026D01*
X324863Y91106D01*
X324873Y91186D01*
X324886Y91265D01*
X324904Y91344D01*
X324925Y91421D01*
X324951Y91497D01*
X324980Y91572D01*
X325012Y91646D01*
X325048Y91718D01*
X325088Y91788D01*
X325131Y91855D01*
X325177Y91921D01*
X325227Y91984D01*
X325279Y92045D01*
X325334Y92104D01*
X325393Y92159D01*
X325453Y92211D01*
X325517Y92261D01*
X325583Y92307D01*
X325650Y92350D01*
X325720Y92390D01*
X325792Y92426D01*
X325866Y92458D01*
X325940Y92487D01*
X326017Y92513D01*
X326094Y92534D01*
X326173Y92552D01*
X326252Y92565D01*
X326332Y92575D01*
X326412Y92581D01*
X326492Y92583D01*
X328129Y92583D01*
X333225Y92584D02*
X333310Y92582D01*
X333395Y92576D01*
X333479Y92566D01*
X333563Y92553D01*
X333647Y92535D01*
X333729Y92514D01*
X333810Y92489D01*
X333890Y92460D01*
X333969Y92427D01*
X334046Y92391D01*
X334121Y92351D01*
X334195Y92308D01*
X334266Y92262D01*
X334335Y92212D01*
X334402Y92159D01*
X334466Y92103D01*
X334527Y92044D01*
X334586Y91983D01*
X334642Y91919D01*
X334695Y91852D01*
X334745Y91783D01*
X334791Y91712D01*
X334834Y91638D01*
X334874Y91563D01*
X334910Y91486D01*
X334943Y91407D01*
X334972Y91327D01*
X334997Y91246D01*
X335018Y91164D01*
X335036Y91080D01*
X335049Y90996D01*
X335059Y90912D01*
X335065Y90827D01*
X335067Y90742D01*
X333225Y92583D02*
X333129Y92581D01*
X333033Y92575D01*
X332938Y92565D01*
X332843Y92552D01*
X332748Y92534D01*
X332655Y92513D01*
X332562Y92488D01*
X332471Y92459D01*
X332380Y92427D01*
X332291Y92391D01*
X332204Y92351D01*
X332118Y92308D01*
X332034Y92262D01*
X331952Y92212D01*
X331872Y92158D01*
X331795Y92102D01*
X331720Y92042D01*
X331647Y91980D01*
X331577Y91914D01*
X331509Y91846D01*
X331444Y91775D01*
X331383Y91702D01*
X331324Y91626D01*
X331268Y91547D01*
X331216Y91467D01*
X331167Y91384D01*
X331121Y91300D01*
X331079Y91214D01*
X331041Y91126D01*
X331006Y91037D01*
X330974Y90946D01*
X334452Y89310D02*
X334512Y89369D01*
X334569Y89431D01*
X334624Y89495D01*
X334675Y89562D01*
X334724Y89631D01*
X334770Y89701D01*
X334813Y89774D01*
X334853Y89848D01*
X334889Y89924D01*
X334922Y90002D01*
X334952Y90081D01*
X334979Y90161D01*
X335002Y90242D01*
X335021Y90324D01*
X335037Y90406D01*
X335050Y90490D01*
X335059Y90574D01*
X335064Y90658D01*
X335066Y90742D01*
X334453Y89309D02*
X330974Y85217D01*
X335066Y85217D01*
D10*
X125095Y412750D02*
X98425Y412750D01*
X125095Y412750D02*
X125095Y400050D01*
X98425Y400050D01*
X98425Y412750D01*
D11*
X84492Y410083D02*
X84492Y402717D01*
X84492Y410083D02*
X86538Y410083D01*
X86627Y410081D01*
X86716Y410075D01*
X86805Y410065D01*
X86893Y410052D01*
X86981Y410035D01*
X87068Y410013D01*
X87153Y409988D01*
X87238Y409960D01*
X87321Y409927D01*
X87403Y409891D01*
X87483Y409852D01*
X87561Y409809D01*
X87637Y409763D01*
X87712Y409713D01*
X87784Y409660D01*
X87853Y409604D01*
X87920Y409545D01*
X87985Y409484D01*
X88046Y409419D01*
X88105Y409352D01*
X88161Y409283D01*
X88214Y409211D01*
X88264Y409136D01*
X88310Y409060D01*
X88353Y408982D01*
X88392Y408902D01*
X88428Y408820D01*
X88461Y408737D01*
X88489Y408652D01*
X88514Y408567D01*
X88536Y408480D01*
X88553Y408392D01*
X88566Y408304D01*
X88576Y408215D01*
X88582Y408126D01*
X88584Y408037D01*
X88582Y407948D01*
X88576Y407859D01*
X88566Y407770D01*
X88553Y407682D01*
X88536Y407594D01*
X88514Y407507D01*
X88489Y407422D01*
X88461Y407337D01*
X88428Y407254D01*
X88392Y407172D01*
X88353Y407092D01*
X88310Y407014D01*
X88264Y406938D01*
X88214Y406863D01*
X88161Y406791D01*
X88105Y406722D01*
X88046Y406655D01*
X87985Y406590D01*
X87920Y406529D01*
X87853Y406470D01*
X87784Y406414D01*
X87712Y406361D01*
X87637Y406311D01*
X87561Y406265D01*
X87483Y406222D01*
X87403Y406183D01*
X87321Y406147D01*
X87238Y406114D01*
X87153Y406086D01*
X87068Y406061D01*
X86981Y406039D01*
X86893Y406022D01*
X86805Y406009D01*
X86716Y405999D01*
X86627Y405993D01*
X86538Y405991D01*
X84492Y405991D01*
X86947Y405991D02*
X88584Y402717D01*
X91756Y408446D02*
X93802Y410083D01*
X93802Y402717D01*
X91756Y402717D02*
X95848Y402717D01*
D10*
X98425Y397510D02*
X125095Y397510D01*
X125095Y384810D01*
X98425Y384810D01*
X98425Y397510D01*
D11*
X84492Y394843D02*
X84492Y387477D01*
X84492Y394843D02*
X86538Y394843D01*
X86627Y394841D01*
X86716Y394835D01*
X86805Y394825D01*
X86893Y394812D01*
X86981Y394795D01*
X87068Y394773D01*
X87153Y394748D01*
X87238Y394720D01*
X87321Y394687D01*
X87403Y394651D01*
X87483Y394612D01*
X87561Y394569D01*
X87637Y394523D01*
X87712Y394473D01*
X87784Y394420D01*
X87853Y394364D01*
X87920Y394305D01*
X87985Y394244D01*
X88046Y394179D01*
X88105Y394112D01*
X88161Y394043D01*
X88214Y393971D01*
X88264Y393896D01*
X88310Y393820D01*
X88353Y393742D01*
X88392Y393662D01*
X88428Y393580D01*
X88461Y393497D01*
X88489Y393412D01*
X88514Y393327D01*
X88536Y393240D01*
X88553Y393152D01*
X88566Y393064D01*
X88576Y392975D01*
X88582Y392886D01*
X88584Y392797D01*
X88582Y392708D01*
X88576Y392619D01*
X88566Y392530D01*
X88553Y392442D01*
X88536Y392354D01*
X88514Y392267D01*
X88489Y392182D01*
X88461Y392097D01*
X88428Y392014D01*
X88392Y391932D01*
X88353Y391852D01*
X88310Y391774D01*
X88264Y391698D01*
X88214Y391623D01*
X88161Y391551D01*
X88105Y391482D01*
X88046Y391415D01*
X87985Y391350D01*
X87920Y391289D01*
X87853Y391230D01*
X87784Y391174D01*
X87712Y391121D01*
X87637Y391071D01*
X87561Y391025D01*
X87483Y390982D01*
X87403Y390943D01*
X87321Y390907D01*
X87238Y390874D01*
X87153Y390846D01*
X87068Y390821D01*
X86981Y390799D01*
X86893Y390782D01*
X86805Y390769D01*
X86716Y390759D01*
X86627Y390753D01*
X86538Y390751D01*
X84492Y390751D01*
X86947Y390751D02*
X88584Y387477D01*
X95849Y393002D02*
X95847Y393087D01*
X95841Y393172D01*
X95831Y393256D01*
X95818Y393340D01*
X95800Y393424D01*
X95779Y393506D01*
X95754Y393587D01*
X95725Y393667D01*
X95692Y393746D01*
X95656Y393823D01*
X95616Y393898D01*
X95573Y393972D01*
X95527Y394043D01*
X95477Y394112D01*
X95424Y394179D01*
X95368Y394243D01*
X95309Y394304D01*
X95248Y394363D01*
X95184Y394419D01*
X95117Y394472D01*
X95048Y394522D01*
X94977Y394568D01*
X94903Y394611D01*
X94828Y394651D01*
X94751Y394687D01*
X94672Y394720D01*
X94592Y394749D01*
X94511Y394774D01*
X94429Y394795D01*
X94345Y394813D01*
X94261Y394826D01*
X94177Y394836D01*
X94092Y394842D01*
X94007Y394844D01*
X94007Y394843D02*
X93911Y394841D01*
X93815Y394835D01*
X93720Y394825D01*
X93625Y394812D01*
X93530Y394794D01*
X93437Y394773D01*
X93344Y394748D01*
X93253Y394719D01*
X93162Y394687D01*
X93073Y394651D01*
X92986Y394611D01*
X92900Y394568D01*
X92816Y394522D01*
X92734Y394472D01*
X92654Y394418D01*
X92577Y394362D01*
X92502Y394302D01*
X92429Y394240D01*
X92359Y394174D01*
X92291Y394106D01*
X92226Y394035D01*
X92165Y393962D01*
X92106Y393886D01*
X92050Y393807D01*
X91998Y393727D01*
X91949Y393644D01*
X91903Y393560D01*
X91861Y393474D01*
X91823Y393386D01*
X91788Y393297D01*
X91756Y393206D01*
X95234Y391570D02*
X95294Y391629D01*
X95351Y391691D01*
X95406Y391755D01*
X95457Y391822D01*
X95506Y391891D01*
X95552Y391961D01*
X95595Y392034D01*
X95635Y392108D01*
X95671Y392184D01*
X95704Y392262D01*
X95734Y392341D01*
X95761Y392421D01*
X95784Y392502D01*
X95803Y392584D01*
X95819Y392666D01*
X95832Y392750D01*
X95841Y392834D01*
X95846Y392918D01*
X95848Y393002D01*
X95234Y391569D02*
X91756Y387477D01*
X95848Y387477D01*
D10*
X433705Y317500D02*
X460375Y317500D01*
X460375Y304800D01*
X433705Y304800D01*
X433705Y317500D01*
D11*
X465314Y307467D02*
X466951Y307467D01*
X465314Y307467D02*
X465236Y307469D01*
X465158Y307474D01*
X465081Y307484D01*
X465004Y307497D01*
X464928Y307513D01*
X464853Y307533D01*
X464779Y307557D01*
X464706Y307584D01*
X464634Y307615D01*
X464564Y307649D01*
X464496Y307686D01*
X464429Y307727D01*
X464364Y307771D01*
X464302Y307817D01*
X464242Y307867D01*
X464184Y307919D01*
X464129Y307974D01*
X464077Y308032D01*
X464027Y308092D01*
X463981Y308154D01*
X463937Y308219D01*
X463896Y308286D01*
X463859Y308354D01*
X463825Y308424D01*
X463794Y308496D01*
X463767Y308569D01*
X463743Y308643D01*
X463723Y308718D01*
X463707Y308794D01*
X463694Y308871D01*
X463684Y308948D01*
X463679Y309026D01*
X463677Y309104D01*
X463677Y313196D01*
X463679Y313276D01*
X463685Y313356D01*
X463695Y313436D01*
X463708Y313515D01*
X463726Y313594D01*
X463747Y313671D01*
X463773Y313747D01*
X463802Y313822D01*
X463834Y313896D01*
X463870Y313968D01*
X463910Y314038D01*
X463953Y314105D01*
X463999Y314171D01*
X464049Y314234D01*
X464101Y314295D01*
X464156Y314354D01*
X464215Y314409D01*
X464275Y314461D01*
X464339Y314511D01*
X464405Y314557D01*
X464472Y314600D01*
X464542Y314640D01*
X464614Y314676D01*
X464688Y314708D01*
X464762Y314737D01*
X464839Y314763D01*
X464916Y314784D01*
X464995Y314802D01*
X465074Y314815D01*
X465154Y314825D01*
X465234Y314831D01*
X465314Y314833D01*
X466951Y314833D01*
X469796Y313196D02*
X471842Y314833D01*
X471842Y307467D01*
X469796Y307467D02*
X473888Y307467D01*
X477111Y309104D02*
X478748Y314833D01*
X477111Y309104D02*
X481203Y309104D01*
X479976Y310741D02*
X479976Y307467D01*
D10*
X460375Y302260D02*
X433705Y302260D01*
X460375Y302260D02*
X460375Y289560D01*
X433705Y289560D01*
X433705Y302260D01*
D11*
X465314Y292227D02*
X466951Y292227D01*
X465314Y292227D02*
X465236Y292229D01*
X465158Y292234D01*
X465081Y292244D01*
X465004Y292257D01*
X464928Y292273D01*
X464853Y292293D01*
X464779Y292317D01*
X464706Y292344D01*
X464634Y292375D01*
X464564Y292409D01*
X464496Y292446D01*
X464429Y292487D01*
X464364Y292531D01*
X464302Y292577D01*
X464242Y292627D01*
X464184Y292679D01*
X464129Y292734D01*
X464077Y292792D01*
X464027Y292852D01*
X463981Y292914D01*
X463937Y292979D01*
X463896Y293046D01*
X463859Y293114D01*
X463825Y293184D01*
X463794Y293256D01*
X463767Y293329D01*
X463743Y293403D01*
X463723Y293478D01*
X463707Y293554D01*
X463694Y293631D01*
X463684Y293708D01*
X463679Y293786D01*
X463677Y293864D01*
X463677Y297956D01*
X463679Y298036D01*
X463685Y298116D01*
X463695Y298196D01*
X463708Y298275D01*
X463726Y298354D01*
X463747Y298431D01*
X463773Y298507D01*
X463802Y298582D01*
X463834Y298656D01*
X463870Y298728D01*
X463910Y298798D01*
X463953Y298865D01*
X463999Y298931D01*
X464049Y298994D01*
X464101Y299055D01*
X464156Y299114D01*
X464215Y299169D01*
X464275Y299221D01*
X464339Y299271D01*
X464405Y299317D01*
X464472Y299360D01*
X464542Y299400D01*
X464614Y299436D01*
X464688Y299468D01*
X464762Y299497D01*
X464839Y299523D01*
X464916Y299544D01*
X464995Y299562D01*
X465074Y299575D01*
X465154Y299585D01*
X465234Y299591D01*
X465314Y299593D01*
X466951Y299593D01*
X469796Y297956D02*
X471842Y299593D01*
X471842Y292227D01*
X469796Y292227D02*
X473888Y292227D01*
X477111Y292227D02*
X479566Y292227D01*
X479644Y292229D01*
X479722Y292234D01*
X479799Y292244D01*
X479876Y292257D01*
X479952Y292273D01*
X480027Y292293D01*
X480101Y292317D01*
X480174Y292344D01*
X480246Y292375D01*
X480316Y292409D01*
X480385Y292446D01*
X480451Y292487D01*
X480516Y292531D01*
X480578Y292577D01*
X480638Y292627D01*
X480696Y292679D01*
X480751Y292734D01*
X480803Y292792D01*
X480853Y292852D01*
X480899Y292914D01*
X480943Y292979D01*
X480984Y293046D01*
X481021Y293114D01*
X481055Y293184D01*
X481086Y293256D01*
X481113Y293329D01*
X481137Y293403D01*
X481157Y293478D01*
X481173Y293554D01*
X481186Y293631D01*
X481196Y293708D01*
X481201Y293786D01*
X481203Y293864D01*
X481203Y294682D01*
X481201Y294760D01*
X481196Y294838D01*
X481186Y294915D01*
X481173Y294992D01*
X481157Y295068D01*
X481137Y295143D01*
X481113Y295217D01*
X481086Y295290D01*
X481055Y295362D01*
X481021Y295432D01*
X480984Y295501D01*
X480943Y295567D01*
X480899Y295632D01*
X480853Y295694D01*
X480803Y295754D01*
X480751Y295812D01*
X480696Y295867D01*
X480638Y295919D01*
X480578Y295969D01*
X480516Y296015D01*
X480451Y296059D01*
X480385Y296100D01*
X480316Y296137D01*
X480246Y296171D01*
X480174Y296202D01*
X480101Y296229D01*
X480027Y296253D01*
X479952Y296273D01*
X479876Y296289D01*
X479799Y296302D01*
X479722Y296312D01*
X479644Y296317D01*
X479566Y296319D01*
X477111Y296319D01*
X477111Y299593D01*
X481203Y299593D01*
D12*
X0Y78740D02*
X77Y76969D01*
X309Y75211D01*
X692Y73481D01*
X1225Y71790D01*
X1904Y70152D01*
X2722Y68580D01*
X3675Y67085D01*
X4754Y65679D01*
X5952Y64372D01*
X7259Y63174D01*
X8665Y62095D01*
X10160Y61142D01*
X11732Y60324D01*
X13370Y59645D01*
X15061Y59112D01*
X16791Y58729D01*
X18549Y58497D01*
X20320Y58420D01*
X27940Y58420D01*
X30597Y58304D01*
X33233Y57957D01*
X35829Y57381D01*
X38365Y56582D01*
X40821Y55564D01*
X43180Y54336D01*
X45423Y52908D01*
X47532Y51289D01*
X49493Y49493D01*
X51289Y47532D01*
X52908Y45423D01*
X54336Y43180D01*
X55564Y40821D01*
X56582Y38365D01*
X57381Y35829D01*
X57957Y33233D01*
X58304Y30597D01*
X58420Y27940D01*
X58420Y20320D01*
X58497Y18549D01*
X58729Y16791D01*
X59112Y15061D01*
X59645Y13370D01*
X60324Y11732D01*
X61142Y10160D01*
X62095Y8665D01*
X63174Y7259D01*
X64372Y5952D01*
X65679Y4754D01*
X67085Y3675D01*
X68580Y2722D01*
X70152Y1904D01*
X71790Y1225D01*
X73481Y692D01*
X75211Y309D01*
X76969Y77D01*
X78740Y0D01*
X599440Y0D01*
X601211Y77D01*
X602969Y309D01*
X604699Y692D01*
X606390Y1225D01*
X608028Y1904D01*
X609600Y2722D01*
X611095Y3675D01*
X612501Y4754D01*
X613808Y5952D01*
X615006Y7259D01*
X616085Y8665D01*
X617038Y10160D01*
X617856Y11732D01*
X618535Y13370D01*
X619068Y15061D01*
X619451Y16791D01*
X619683Y18549D01*
X619760Y20320D01*
X619760Y27940D01*
X619876Y30597D01*
X620223Y33233D01*
X620799Y35829D01*
X621598Y38365D01*
X622616Y40821D01*
X623844Y43180D01*
X625272Y45423D01*
X626891Y47532D01*
X628687Y49493D01*
X630648Y51289D01*
X632757Y52908D01*
X635000Y54336D01*
X637359Y55564D01*
X639815Y56582D01*
X642351Y57381D01*
X644947Y57957D01*
X647584Y58304D01*
X650240Y58420D01*
X657860Y58420D01*
X659631Y58497D01*
X661389Y58729D01*
X663119Y59112D01*
X664810Y59645D01*
X666448Y60324D01*
X668020Y61142D01*
X669515Y62095D01*
X670921Y63174D01*
X672228Y64372D01*
X673426Y65679D01*
X674505Y67085D01*
X675458Y68580D01*
X676276Y70152D01*
X676955Y71790D01*
X677488Y73481D01*
X677871Y75211D01*
X678103Y76969D01*
X678180Y78740D01*
X678180Y538480D01*
X678103Y540251D01*
X677871Y542009D01*
X677488Y543739D01*
X676955Y545430D01*
X676276Y547068D01*
X675458Y548640D01*
X674505Y550135D01*
X673426Y551541D01*
X672228Y552848D01*
X670921Y554046D01*
X669515Y555125D01*
X668020Y556078D01*
X666448Y556896D01*
X664810Y557575D01*
X663119Y558108D01*
X661389Y558491D01*
X659631Y558723D01*
X657860Y558800D01*
X650240Y558800D01*
X647584Y558916D01*
X644947Y559263D01*
X642351Y559839D01*
X639815Y560638D01*
X637359Y561656D01*
X635000Y562884D01*
X632757Y564312D01*
X630648Y565931D01*
X628687Y567727D01*
X626891Y569688D01*
X625272Y571797D01*
X623844Y574040D01*
X622616Y576399D01*
X621598Y578855D01*
X620799Y581391D01*
X620223Y583987D01*
X619876Y586624D01*
X619760Y589280D01*
X619760Y596900D01*
X619683Y598671D01*
X619451Y600429D01*
X619068Y602159D01*
X618535Y603850D01*
X617856Y605488D01*
X617038Y607060D01*
X616085Y608555D01*
X615006Y609961D01*
X613808Y611268D01*
X612501Y612466D01*
X611095Y613545D01*
X609600Y614498D01*
X608028Y615316D01*
X606390Y615995D01*
X604699Y616528D01*
X602969Y616911D01*
X601211Y617143D01*
X599440Y617220D01*
X78740Y617220D01*
X76969Y617143D01*
X75211Y616911D01*
X73481Y616528D01*
X71790Y615995D01*
X70152Y615316D01*
X68580Y614498D01*
X67085Y613545D01*
X65679Y612466D01*
X64372Y611268D01*
X63174Y609961D01*
X62095Y608555D01*
X61142Y607060D01*
X60324Y605488D01*
X59645Y603850D01*
X59112Y602159D01*
X58729Y600429D01*
X58497Y598671D01*
X58420Y596900D01*
X58420Y589280D01*
X58304Y586624D01*
X57957Y583987D01*
X57381Y581391D01*
X56582Y578855D01*
X55564Y576399D01*
X54336Y574040D01*
X52908Y571797D01*
X51289Y569688D01*
X49493Y567727D01*
X47532Y565931D01*
X45423Y564312D01*
X43180Y562884D01*
X40821Y561656D01*
X38365Y560638D01*
X35829Y559839D01*
X33233Y559263D01*
X30597Y558916D01*
X27940Y558800D01*
X20320Y558800D01*
X18549Y558723D01*
X16791Y558491D01*
X15061Y558108D01*
X13370Y557575D01*
X11732Y556896D01*
X10160Y556078D01*
X8665Y555125D01*
X7259Y554046D01*
X5952Y552848D01*
X4754Y551541D01*
X3675Y550135D01*
X2722Y548640D01*
X1904Y547068D01*
X1225Y545430D01*
X692Y543739D01*
X309Y542009D01*
X77Y540251D01*
X0Y538480D01*
X0Y78740D01*
X132080Y532818D02*
X132004Y531656D01*
X131852Y530502D01*
X131625Y529360D01*
X131324Y528236D01*
X130949Y527134D01*
X130504Y526058D01*
X129989Y525014D01*
X129407Y524006D01*
X128760Y523038D01*
X128052Y522114D01*
X127284Y521239D01*
X126461Y520416D01*
X125586Y519649D01*
X124662Y518940D01*
X123694Y518293D01*
X122686Y517711D01*
X121642Y517196D01*
X120566Y516751D01*
X119464Y516377D01*
X118340Y516075D01*
X117198Y515848D01*
X116044Y515696D01*
X114882Y515620D01*
X113718Y515620D01*
X112556Y515696D01*
X111402Y515848D01*
X110260Y516075D01*
X109136Y516377D01*
X108034Y516751D01*
X106958Y517196D01*
X105914Y517711D01*
X104906Y518293D01*
X103938Y518940D01*
X103014Y519649D01*
X102139Y520416D01*
X101316Y521239D01*
X100549Y522114D01*
X99840Y523038D01*
X99193Y524006D01*
X98611Y525014D01*
X98096Y526058D01*
X97651Y527134D01*
X97277Y528236D01*
X96975Y529360D01*
X96748Y530502D01*
X96596Y531656D01*
X96520Y532818D01*
X96520Y533982D01*
X96596Y535144D01*
X96748Y536298D01*
X96975Y537440D01*
X97277Y538564D01*
X97651Y539666D01*
X98096Y540742D01*
X98611Y541786D01*
X99193Y542794D01*
X99840Y543762D01*
X100549Y544686D01*
X101316Y545561D01*
X102139Y546384D01*
X103014Y547152D01*
X103938Y547860D01*
X104906Y548507D01*
X105914Y549089D01*
X106958Y549604D01*
X108034Y550049D01*
X109136Y550424D01*
X110260Y550725D01*
X111402Y550952D01*
X112556Y551104D01*
X113718Y551180D01*
X114882Y551180D01*
X116044Y551104D01*
X117198Y550952D01*
X118340Y550725D01*
X119464Y550424D01*
X120566Y550049D01*
X121642Y549604D01*
X122686Y549089D01*
X123694Y548507D01*
X124662Y547860D01*
X125586Y547152D01*
X126461Y546384D01*
X127284Y545561D01*
X128052Y544686D01*
X128760Y543762D01*
X129407Y542794D01*
X129989Y541786D01*
X130504Y540742D01*
X130949Y539666D01*
X131324Y538564D01*
X131625Y537440D01*
X131852Y536298D01*
X132004Y535144D01*
X132080Y533982D01*
X132080Y532818D01*
X581660Y532818D02*
X581584Y531656D01*
X581432Y530502D01*
X581205Y529360D01*
X580904Y528236D01*
X580529Y527134D01*
X580084Y526058D01*
X579569Y525014D01*
X578987Y524006D01*
X578340Y523038D01*
X577632Y522114D01*
X576864Y521239D01*
X576041Y520416D01*
X575166Y519649D01*
X574242Y518940D01*
X573274Y518293D01*
X572266Y517711D01*
X571222Y517196D01*
X570146Y516751D01*
X569044Y516377D01*
X567920Y516075D01*
X566778Y515848D01*
X565624Y515696D01*
X564462Y515620D01*
X563298Y515620D01*
X562136Y515696D01*
X560982Y515848D01*
X559840Y516075D01*
X558716Y516377D01*
X557614Y516751D01*
X556538Y517196D01*
X555494Y517711D01*
X554486Y518293D01*
X553518Y518940D01*
X552594Y519649D01*
X551719Y520416D01*
X550896Y521239D01*
X550129Y522114D01*
X549420Y523038D01*
X548773Y524006D01*
X548191Y525014D01*
X547676Y526058D01*
X547231Y527134D01*
X546857Y528236D01*
X546555Y529360D01*
X546328Y530502D01*
X546176Y531656D01*
X546100Y532818D01*
X546100Y533982D01*
X546176Y535144D01*
X546328Y536298D01*
X546555Y537440D01*
X546857Y538564D01*
X547231Y539666D01*
X547676Y540742D01*
X548191Y541786D01*
X548773Y542794D01*
X549420Y543762D01*
X550129Y544686D01*
X550896Y545561D01*
X551719Y546384D01*
X552594Y547152D01*
X553518Y547860D01*
X554486Y548507D01*
X555494Y549089D01*
X556538Y549604D01*
X557614Y550049D01*
X558716Y550424D01*
X559840Y550725D01*
X560982Y550952D01*
X562136Y551104D01*
X563298Y551180D01*
X564462Y551180D01*
X565624Y551104D01*
X566778Y550952D01*
X567920Y550725D01*
X569044Y550424D01*
X570146Y550049D01*
X571222Y549604D01*
X572266Y549089D01*
X573274Y548507D01*
X574242Y547860D01*
X575166Y547152D01*
X576041Y546384D01*
X576864Y545561D01*
X577632Y544686D01*
X578340Y543762D01*
X578987Y542794D01*
X579569Y541786D01*
X580084Y540742D01*
X580529Y539666D01*
X580904Y538564D01*
X581205Y537440D01*
X581432Y536298D01*
X581584Y535144D01*
X581660Y533982D01*
X581660Y532818D01*
X581660Y83238D02*
X581584Y82076D01*
X581432Y80922D01*
X581205Y79780D01*
X580904Y78656D01*
X580529Y77554D01*
X580084Y76478D01*
X579569Y75434D01*
X578987Y74426D01*
X578340Y73458D01*
X577632Y72534D01*
X576864Y71659D01*
X576041Y70836D01*
X575166Y70069D01*
X574242Y69360D01*
X573274Y68713D01*
X572266Y68131D01*
X571222Y67616D01*
X570146Y67171D01*
X569044Y66797D01*
X567920Y66495D01*
X566778Y66268D01*
X565624Y66116D01*
X564462Y66040D01*
X563298Y66040D01*
X562136Y66116D01*
X560982Y66268D01*
X559840Y66495D01*
X558716Y66797D01*
X557614Y67171D01*
X556538Y67616D01*
X555494Y68131D01*
X554486Y68713D01*
X553518Y69360D01*
X552594Y70069D01*
X551719Y70836D01*
X550896Y71659D01*
X550129Y72534D01*
X549420Y73458D01*
X548773Y74426D01*
X548191Y75434D01*
X547676Y76478D01*
X547231Y77554D01*
X546857Y78656D01*
X546555Y79780D01*
X546328Y80922D01*
X546176Y82076D01*
X546100Y83238D01*
X546100Y84402D01*
X546176Y85564D01*
X546328Y86718D01*
X546555Y87860D01*
X546857Y88984D01*
X547231Y90086D01*
X547676Y91162D01*
X548191Y92206D01*
X548773Y93214D01*
X549420Y94182D01*
X550129Y95106D01*
X550896Y95981D01*
X551719Y96804D01*
X552594Y97572D01*
X553518Y98280D01*
X554486Y98927D01*
X555494Y99509D01*
X556538Y100024D01*
X557614Y100469D01*
X558716Y100844D01*
X559840Y101145D01*
X560982Y101372D01*
X562136Y101524D01*
X563298Y101600D01*
X564462Y101600D01*
X565624Y101524D01*
X566778Y101372D01*
X567920Y101145D01*
X569044Y100844D01*
X570146Y100469D01*
X571222Y100024D01*
X572266Y99509D01*
X573274Y98927D01*
X574242Y98280D01*
X575166Y97572D01*
X576041Y96804D01*
X576864Y95981D01*
X577632Y95106D01*
X578340Y94182D01*
X578987Y93214D01*
X579569Y92206D01*
X580084Y91162D01*
X580529Y90086D01*
X580904Y88984D01*
X581205Y87860D01*
X581432Y86718D01*
X581584Y85564D01*
X581660Y84402D01*
X581660Y83238D01*
X132080Y83238D02*
X132004Y82076D01*
X131852Y80922D01*
X131625Y79780D01*
X131324Y78656D01*
X130949Y77554D01*
X130504Y76478D01*
X129989Y75434D01*
X129407Y74426D01*
X128760Y73458D01*
X128052Y72534D01*
X127284Y71659D01*
X126461Y70836D01*
X125586Y70069D01*
X124662Y69360D01*
X123694Y68713D01*
X122686Y68131D01*
X121642Y67616D01*
X120566Y67171D01*
X119464Y66797D01*
X118340Y66495D01*
X117198Y66268D01*
X116044Y66116D01*
X114882Y66040D01*
X113718Y66040D01*
X112556Y66116D01*
X111402Y66268D01*
X110260Y66495D01*
X109136Y66797D01*
X108034Y67171D01*
X106958Y67616D01*
X105914Y68131D01*
X104906Y68713D01*
X103938Y69360D01*
X103014Y70069D01*
X102139Y70836D01*
X101316Y71659D01*
X100549Y72534D01*
X99840Y73458D01*
X99193Y74426D01*
X98611Y75434D01*
X98096Y76478D01*
X97651Y77554D01*
X97277Y78656D01*
X96975Y79780D01*
X96748Y80922D01*
X96596Y82076D01*
X96520Y83238D01*
X96520Y84402D01*
X96596Y85564D01*
X96748Y86718D01*
X96975Y87860D01*
X97277Y88984D01*
X97651Y90086D01*
X98096Y91162D01*
X98611Y92206D01*
X99193Y93214D01*
X99840Y94182D01*
X100549Y95106D01*
X101316Y95981D01*
X102139Y96804D01*
X103014Y97572D01*
X103938Y98280D01*
X104906Y98927D01*
X105914Y99509D01*
X106958Y100024D01*
X108034Y100469D01*
X109136Y100844D01*
X110260Y101145D01*
X111402Y101372D01*
X112556Y101524D01*
X113718Y101600D01*
X114882Y101600D01*
X116044Y101524D01*
X117198Y101372D01*
X118340Y101145D01*
X119464Y100844D01*
X120566Y100469D01*
X121642Y100024D01*
X122686Y99509D01*
X123694Y98927D01*
X124662Y98280D01*
X125586Y97572D01*
X126461Y96804D01*
X127284Y95981D01*
X128052Y95106D01*
X128760Y94182D01*
X129407Y93214D01*
X129989Y92206D01*
X130504Y91162D01*
X130949Y90086D01*
X131324Y88984D01*
X131625Y87860D01*
X131852Y86718D01*
X132004Y85564D01*
X132080Y84402D01*
X132080Y83238D01*
M02*
