G04 EAGLE Gerber RS-274X export*
G75*
%MOMM*%
%FSLAX34Y34*%
%LPD*%
%INSilkscreen Bottom*%
%IPPOS*%
%AMOC8*
5,1,8,0,0,1.08239X$1,22.5*%
G01*
%ADD10C,0.304800*%
%ADD11C,0.406400*%
%ADD12C,0.076200*%
%ADD13C,0.127000*%
%ADD14C,0.200000*%
%ADD15C,0.254000*%


D10*
X650155Y339598D02*
X650155Y362966D01*
X638471Y351282D02*
X661839Y351282D01*
D11*
X47498Y350407D02*
X16341Y350407D01*
D12*
X459613Y557911D02*
X466979Y557911D01*
X459613Y557911D02*
X459613Y559957D01*
X459615Y560046D01*
X459621Y560135D01*
X459631Y560224D01*
X459644Y560312D01*
X459661Y560400D01*
X459683Y560487D01*
X459708Y560572D01*
X459736Y560657D01*
X459769Y560740D01*
X459805Y560822D01*
X459844Y560902D01*
X459887Y560980D01*
X459933Y561056D01*
X459983Y561131D01*
X460036Y561203D01*
X460092Y561272D01*
X460151Y561339D01*
X460212Y561404D01*
X460277Y561465D01*
X460344Y561524D01*
X460413Y561580D01*
X460485Y561633D01*
X460560Y561683D01*
X460636Y561729D01*
X460714Y561772D01*
X460794Y561811D01*
X460876Y561847D01*
X460959Y561880D01*
X461044Y561908D01*
X461129Y561933D01*
X461216Y561955D01*
X461304Y561972D01*
X461392Y561985D01*
X461481Y561995D01*
X461570Y562001D01*
X461659Y562003D01*
X461748Y562001D01*
X461837Y561995D01*
X461926Y561985D01*
X462014Y561972D01*
X462102Y561955D01*
X462189Y561933D01*
X462274Y561908D01*
X462359Y561880D01*
X462442Y561847D01*
X462524Y561811D01*
X462604Y561772D01*
X462682Y561729D01*
X462758Y561683D01*
X462833Y561633D01*
X462905Y561580D01*
X462974Y561524D01*
X463041Y561465D01*
X463106Y561404D01*
X463167Y561339D01*
X463226Y561272D01*
X463282Y561203D01*
X463335Y561131D01*
X463385Y561056D01*
X463431Y560980D01*
X463474Y560902D01*
X463513Y560822D01*
X463549Y560740D01*
X463582Y560657D01*
X463610Y560572D01*
X463635Y560487D01*
X463657Y560400D01*
X463674Y560312D01*
X463687Y560224D01*
X463697Y560135D01*
X463703Y560046D01*
X463705Y559957D01*
X463705Y557911D01*
X463705Y560366D02*
X466979Y562003D01*
X466979Y565435D02*
X466979Y568708D01*
X466979Y565435D02*
X459613Y565435D01*
X459613Y568708D01*
X462887Y567890D02*
X462887Y565435D01*
X466979Y573726D02*
X466977Y573804D01*
X466972Y573882D01*
X466962Y573959D01*
X466949Y574036D01*
X466933Y574112D01*
X466913Y574187D01*
X466889Y574261D01*
X466862Y574334D01*
X466831Y574406D01*
X466797Y574476D01*
X466760Y574545D01*
X466719Y574611D01*
X466675Y574676D01*
X466629Y574738D01*
X466579Y574798D01*
X466527Y574856D01*
X466472Y574911D01*
X466414Y574963D01*
X466354Y575013D01*
X466292Y575059D01*
X466227Y575103D01*
X466161Y575144D01*
X466092Y575181D01*
X466022Y575215D01*
X465950Y575246D01*
X465877Y575273D01*
X465803Y575297D01*
X465728Y575317D01*
X465652Y575333D01*
X465575Y575346D01*
X465498Y575356D01*
X465420Y575361D01*
X465342Y575363D01*
X466979Y573726D02*
X466977Y573612D01*
X466972Y573499D01*
X466962Y573385D01*
X466949Y573272D01*
X466932Y573160D01*
X466912Y573048D01*
X466888Y572937D01*
X466860Y572826D01*
X466829Y572717D01*
X466794Y572609D01*
X466755Y572502D01*
X466713Y572396D01*
X466668Y572292D01*
X466619Y572189D01*
X466566Y572088D01*
X466511Y571989D01*
X466452Y571891D01*
X466390Y571796D01*
X466325Y571703D01*
X466257Y571611D01*
X466186Y571523D01*
X466112Y571436D01*
X466035Y571352D01*
X465956Y571271D01*
X461250Y571476D02*
X461172Y571478D01*
X461094Y571483D01*
X461017Y571493D01*
X460940Y571506D01*
X460864Y571522D01*
X460789Y571542D01*
X460715Y571566D01*
X460642Y571593D01*
X460570Y571624D01*
X460500Y571658D01*
X460432Y571695D01*
X460365Y571736D01*
X460300Y571780D01*
X460238Y571826D01*
X460178Y571876D01*
X460120Y571928D01*
X460065Y571983D01*
X460013Y572041D01*
X459963Y572101D01*
X459917Y572163D01*
X459873Y572228D01*
X459832Y572295D01*
X459795Y572363D01*
X459761Y572433D01*
X459730Y572505D01*
X459703Y572578D01*
X459679Y572652D01*
X459659Y572727D01*
X459643Y572803D01*
X459630Y572880D01*
X459620Y572957D01*
X459615Y573035D01*
X459613Y573113D01*
X459615Y573223D01*
X459621Y573332D01*
X459631Y573442D01*
X459644Y573550D01*
X459662Y573659D01*
X459683Y573766D01*
X459709Y573873D01*
X459738Y573979D01*
X459770Y574084D01*
X459807Y574187D01*
X459847Y574289D01*
X459891Y574390D01*
X459939Y574489D01*
X459989Y574586D01*
X460044Y574681D01*
X460102Y574774D01*
X460163Y574865D01*
X460227Y574954D01*
X462682Y572294D02*
X462640Y572228D01*
X462596Y572163D01*
X462548Y572101D01*
X462498Y572041D01*
X462445Y571983D01*
X462389Y571928D01*
X462331Y571875D01*
X462270Y571826D01*
X462207Y571779D01*
X462142Y571735D01*
X462075Y571695D01*
X462006Y571658D01*
X461935Y571624D01*
X461863Y571593D01*
X461789Y571566D01*
X461714Y571542D01*
X461639Y571522D01*
X461562Y571506D01*
X461485Y571493D01*
X461407Y571483D01*
X461328Y571478D01*
X461250Y571476D01*
X463909Y574545D02*
X463951Y574612D01*
X463995Y574677D01*
X464043Y574739D01*
X464093Y574799D01*
X464146Y574857D01*
X464202Y574912D01*
X464261Y574964D01*
X464321Y575014D01*
X464385Y575061D01*
X464450Y575104D01*
X464517Y575145D01*
X464586Y575182D01*
X464657Y575216D01*
X464729Y575247D01*
X464803Y575274D01*
X464877Y575298D01*
X464953Y575318D01*
X465030Y575334D01*
X465107Y575347D01*
X465185Y575357D01*
X465264Y575362D01*
X465342Y575364D01*
X463910Y574545D02*
X462682Y572294D01*
X466979Y578602D02*
X466979Y581876D01*
X466979Y578602D02*
X459613Y578602D01*
X459613Y581876D01*
X462887Y581057D02*
X462887Y578602D01*
X459613Y586241D02*
X466979Y586241D01*
X459613Y584195D02*
X459613Y588287D01*
D13*
X346710Y608330D02*
X339090Y615950D01*
X331470Y608330D01*
D12*
X291387Y590699D02*
X291387Y589062D01*
X291389Y588984D01*
X291394Y588906D01*
X291404Y588829D01*
X291417Y588752D01*
X291433Y588676D01*
X291453Y588601D01*
X291477Y588527D01*
X291504Y588454D01*
X291535Y588382D01*
X291569Y588312D01*
X291606Y588244D01*
X291647Y588177D01*
X291691Y588112D01*
X291737Y588050D01*
X291787Y587990D01*
X291839Y587932D01*
X291894Y587877D01*
X291952Y587825D01*
X292012Y587775D01*
X292074Y587729D01*
X292139Y587685D01*
X292206Y587644D01*
X292274Y587607D01*
X292344Y587573D01*
X292416Y587542D01*
X292489Y587515D01*
X292563Y587491D01*
X292638Y587471D01*
X292714Y587455D01*
X292791Y587442D01*
X292868Y587432D01*
X292946Y587427D01*
X293024Y587425D01*
X297116Y587425D01*
X297194Y587427D01*
X297272Y587432D01*
X297349Y587442D01*
X297426Y587455D01*
X297502Y587471D01*
X297577Y587491D01*
X297651Y587515D01*
X297724Y587542D01*
X297796Y587573D01*
X297866Y587607D01*
X297935Y587644D01*
X298001Y587685D01*
X298066Y587729D01*
X298128Y587775D01*
X298188Y587825D01*
X298246Y587877D01*
X298301Y587932D01*
X298353Y587990D01*
X298403Y588050D01*
X298449Y588112D01*
X298493Y588177D01*
X298534Y588244D01*
X298571Y588312D01*
X298605Y588382D01*
X298636Y588454D01*
X298663Y588527D01*
X298687Y588601D01*
X298707Y588676D01*
X298723Y588752D01*
X298736Y588829D01*
X298746Y588906D01*
X298751Y588984D01*
X298753Y589062D01*
X298753Y590699D01*
X296707Y593544D02*
X293433Y593544D01*
X296707Y593544D02*
X296796Y593546D01*
X296885Y593552D01*
X296974Y593562D01*
X297062Y593575D01*
X297150Y593592D01*
X297237Y593614D01*
X297322Y593639D01*
X297407Y593667D01*
X297490Y593700D01*
X297572Y593736D01*
X297652Y593775D01*
X297730Y593818D01*
X297806Y593864D01*
X297881Y593914D01*
X297953Y593967D01*
X298022Y594023D01*
X298089Y594082D01*
X298154Y594143D01*
X298215Y594208D01*
X298274Y594275D01*
X298330Y594344D01*
X298383Y594416D01*
X298433Y594491D01*
X298479Y594567D01*
X298522Y594645D01*
X298561Y594725D01*
X298597Y594807D01*
X298630Y594890D01*
X298658Y594975D01*
X298683Y595060D01*
X298705Y595147D01*
X298722Y595235D01*
X298735Y595323D01*
X298745Y595412D01*
X298751Y595501D01*
X298753Y595590D01*
X298751Y595679D01*
X298745Y595768D01*
X298735Y595857D01*
X298722Y595945D01*
X298705Y596033D01*
X298683Y596120D01*
X298658Y596205D01*
X298630Y596290D01*
X298597Y596373D01*
X298561Y596455D01*
X298522Y596535D01*
X298479Y596613D01*
X298433Y596689D01*
X298383Y596764D01*
X298330Y596836D01*
X298274Y596905D01*
X298215Y596972D01*
X298154Y597037D01*
X298089Y597098D01*
X298022Y597157D01*
X297953Y597213D01*
X297881Y597266D01*
X297806Y597316D01*
X297730Y597362D01*
X297652Y597405D01*
X297572Y597444D01*
X297490Y597480D01*
X297407Y597513D01*
X297322Y597541D01*
X297237Y597566D01*
X297150Y597588D01*
X297062Y597605D01*
X296974Y597618D01*
X296885Y597628D01*
X296796Y597634D01*
X296707Y597636D01*
X296707Y597637D02*
X293433Y597637D01*
X293433Y597636D02*
X293344Y597634D01*
X293255Y597628D01*
X293166Y597618D01*
X293078Y597605D01*
X292990Y597588D01*
X292903Y597566D01*
X292818Y597541D01*
X292733Y597513D01*
X292650Y597480D01*
X292568Y597444D01*
X292488Y597405D01*
X292410Y597362D01*
X292334Y597316D01*
X292259Y597266D01*
X292187Y597213D01*
X292118Y597157D01*
X292051Y597098D01*
X291986Y597037D01*
X291925Y596972D01*
X291866Y596905D01*
X291810Y596836D01*
X291757Y596764D01*
X291707Y596689D01*
X291661Y596613D01*
X291618Y596535D01*
X291579Y596455D01*
X291543Y596373D01*
X291510Y596290D01*
X291482Y596205D01*
X291457Y596120D01*
X291435Y596033D01*
X291418Y595945D01*
X291405Y595857D01*
X291395Y595768D01*
X291389Y595679D01*
X291387Y595590D01*
X291389Y595501D01*
X291395Y595412D01*
X291405Y595323D01*
X291418Y595235D01*
X291435Y595147D01*
X291457Y595060D01*
X291482Y594975D01*
X291510Y594890D01*
X291543Y594807D01*
X291579Y594725D01*
X291618Y594645D01*
X291661Y594567D01*
X291707Y594491D01*
X291757Y594416D01*
X291810Y594344D01*
X291866Y594275D01*
X291925Y594208D01*
X291986Y594143D01*
X292051Y594082D01*
X292118Y594023D01*
X292187Y593967D01*
X292259Y593914D01*
X292334Y593864D01*
X292410Y593818D01*
X292488Y593775D01*
X292568Y593736D01*
X292650Y593700D01*
X292733Y593667D01*
X292818Y593639D01*
X292903Y593614D01*
X292990Y593592D01*
X293078Y593575D01*
X293166Y593562D01*
X293255Y593552D01*
X293344Y593546D01*
X293433Y593544D01*
X291387Y601103D02*
X298753Y601103D01*
X291387Y605196D01*
X298753Y605196D01*
X291387Y608662D02*
X291387Y610709D01*
X291389Y610798D01*
X291395Y610887D01*
X291405Y610976D01*
X291418Y611064D01*
X291435Y611152D01*
X291457Y611239D01*
X291482Y611324D01*
X291510Y611409D01*
X291543Y611492D01*
X291579Y611574D01*
X291618Y611654D01*
X291661Y611732D01*
X291707Y611808D01*
X291757Y611883D01*
X291810Y611955D01*
X291866Y612024D01*
X291925Y612091D01*
X291986Y612156D01*
X292051Y612217D01*
X292118Y612276D01*
X292187Y612332D01*
X292259Y612385D01*
X292334Y612435D01*
X292410Y612481D01*
X292488Y612524D01*
X292568Y612563D01*
X292650Y612599D01*
X292733Y612632D01*
X292818Y612660D01*
X292903Y612685D01*
X292990Y612707D01*
X293078Y612724D01*
X293166Y612737D01*
X293255Y612747D01*
X293344Y612753D01*
X293433Y612755D01*
X293522Y612753D01*
X293611Y612747D01*
X293700Y612737D01*
X293788Y612724D01*
X293876Y612707D01*
X293963Y612685D01*
X294048Y612660D01*
X294133Y612632D01*
X294216Y612599D01*
X294298Y612563D01*
X294378Y612524D01*
X294456Y612481D01*
X294532Y612435D01*
X294607Y612385D01*
X294679Y612332D01*
X294748Y612276D01*
X294815Y612217D01*
X294880Y612156D01*
X294941Y612091D01*
X295000Y612024D01*
X295056Y611955D01*
X295109Y611883D01*
X295159Y611808D01*
X295205Y611732D01*
X295248Y611654D01*
X295287Y611574D01*
X295323Y611492D01*
X295356Y611409D01*
X295384Y611324D01*
X295409Y611239D01*
X295431Y611152D01*
X295448Y611064D01*
X295461Y610976D01*
X295471Y610887D01*
X295477Y610798D01*
X295479Y610709D01*
X298753Y611118D02*
X298753Y608662D01*
X298753Y611118D02*
X298751Y611197D01*
X298745Y611276D01*
X298736Y611355D01*
X298723Y611433D01*
X298705Y611510D01*
X298685Y611586D01*
X298660Y611661D01*
X298632Y611735D01*
X298601Y611808D01*
X298565Y611879D01*
X298527Y611948D01*
X298485Y612015D01*
X298440Y612080D01*
X298392Y612143D01*
X298341Y612204D01*
X298287Y612261D01*
X298231Y612317D01*
X298172Y612369D01*
X298110Y612419D01*
X298046Y612465D01*
X297980Y612509D01*
X297912Y612549D01*
X297842Y612585D01*
X297770Y612619D01*
X297696Y612649D01*
X297622Y612675D01*
X297546Y612698D01*
X297469Y612716D01*
X297392Y612732D01*
X297313Y612743D01*
X297235Y612751D01*
X297156Y612755D01*
X297076Y612755D01*
X296997Y612751D01*
X296919Y612743D01*
X296840Y612732D01*
X296763Y612716D01*
X296686Y612698D01*
X296610Y612675D01*
X296536Y612649D01*
X296462Y612619D01*
X296390Y612585D01*
X296320Y612549D01*
X296252Y612509D01*
X296186Y612465D01*
X296122Y612419D01*
X296060Y612369D01*
X296001Y612317D01*
X295945Y612261D01*
X295891Y612204D01*
X295840Y612143D01*
X295792Y612080D01*
X295747Y612015D01*
X295705Y611948D01*
X295667Y611879D01*
X295631Y611808D01*
X295600Y611735D01*
X295572Y611661D01*
X295547Y611586D01*
X295527Y611510D01*
X295509Y611433D01*
X295496Y611355D01*
X295487Y611276D01*
X295481Y611197D01*
X295479Y611118D01*
X295479Y609481D01*
D13*
X151130Y613410D02*
X151130Y562610D01*
X151130Y613410D02*
X74930Y613410D01*
X74930Y562610D01*
X151130Y562610D01*
D12*
X66167Y575712D02*
X66167Y577349D01*
X66167Y575712D02*
X66169Y575634D01*
X66174Y575556D01*
X66184Y575479D01*
X66197Y575402D01*
X66213Y575326D01*
X66233Y575251D01*
X66257Y575177D01*
X66284Y575104D01*
X66315Y575032D01*
X66349Y574962D01*
X66386Y574894D01*
X66427Y574827D01*
X66471Y574762D01*
X66517Y574700D01*
X66567Y574640D01*
X66619Y574582D01*
X66674Y574527D01*
X66732Y574475D01*
X66792Y574425D01*
X66854Y574379D01*
X66919Y574335D01*
X66986Y574294D01*
X67054Y574257D01*
X67124Y574223D01*
X67196Y574192D01*
X67269Y574165D01*
X67343Y574141D01*
X67418Y574121D01*
X67494Y574105D01*
X67571Y574092D01*
X67648Y574082D01*
X67726Y574077D01*
X67804Y574075D01*
X71896Y574075D01*
X71974Y574077D01*
X72052Y574082D01*
X72129Y574092D01*
X72206Y574105D01*
X72282Y574121D01*
X72357Y574141D01*
X72431Y574165D01*
X72504Y574192D01*
X72576Y574223D01*
X72646Y574257D01*
X72715Y574294D01*
X72781Y574335D01*
X72846Y574379D01*
X72908Y574425D01*
X72968Y574475D01*
X73026Y574527D01*
X73081Y574582D01*
X73133Y574640D01*
X73183Y574700D01*
X73229Y574762D01*
X73273Y574827D01*
X73314Y574894D01*
X73351Y574962D01*
X73385Y575032D01*
X73416Y575104D01*
X73443Y575177D01*
X73467Y575251D01*
X73487Y575326D01*
X73503Y575402D01*
X73516Y575479D01*
X73526Y575556D01*
X73531Y575634D01*
X73533Y575712D01*
X73533Y577349D01*
X71487Y580194D02*
X68213Y580194D01*
X71487Y580194D02*
X71576Y580196D01*
X71665Y580202D01*
X71754Y580212D01*
X71842Y580225D01*
X71930Y580242D01*
X72017Y580264D01*
X72102Y580289D01*
X72187Y580317D01*
X72270Y580350D01*
X72352Y580386D01*
X72432Y580425D01*
X72510Y580468D01*
X72586Y580514D01*
X72661Y580564D01*
X72733Y580617D01*
X72802Y580673D01*
X72869Y580732D01*
X72934Y580793D01*
X72995Y580858D01*
X73054Y580925D01*
X73110Y580994D01*
X73163Y581066D01*
X73213Y581141D01*
X73259Y581217D01*
X73302Y581295D01*
X73341Y581375D01*
X73377Y581457D01*
X73410Y581540D01*
X73438Y581625D01*
X73463Y581710D01*
X73485Y581797D01*
X73502Y581885D01*
X73515Y581973D01*
X73525Y582062D01*
X73531Y582151D01*
X73533Y582240D01*
X73531Y582329D01*
X73525Y582418D01*
X73515Y582507D01*
X73502Y582595D01*
X73485Y582683D01*
X73463Y582770D01*
X73438Y582855D01*
X73410Y582940D01*
X73377Y583023D01*
X73341Y583105D01*
X73302Y583185D01*
X73259Y583263D01*
X73213Y583339D01*
X73163Y583414D01*
X73110Y583486D01*
X73054Y583555D01*
X72995Y583622D01*
X72934Y583687D01*
X72869Y583748D01*
X72802Y583807D01*
X72733Y583863D01*
X72661Y583916D01*
X72586Y583966D01*
X72510Y584012D01*
X72432Y584055D01*
X72352Y584094D01*
X72270Y584130D01*
X72187Y584163D01*
X72102Y584191D01*
X72017Y584216D01*
X71930Y584238D01*
X71842Y584255D01*
X71754Y584268D01*
X71665Y584278D01*
X71576Y584284D01*
X71487Y584286D01*
X71487Y584287D02*
X68213Y584287D01*
X68213Y584286D02*
X68124Y584284D01*
X68035Y584278D01*
X67946Y584268D01*
X67858Y584255D01*
X67770Y584238D01*
X67683Y584216D01*
X67598Y584191D01*
X67513Y584163D01*
X67430Y584130D01*
X67348Y584094D01*
X67268Y584055D01*
X67190Y584012D01*
X67114Y583966D01*
X67039Y583916D01*
X66967Y583863D01*
X66898Y583807D01*
X66831Y583748D01*
X66766Y583687D01*
X66705Y583622D01*
X66646Y583555D01*
X66590Y583486D01*
X66537Y583414D01*
X66487Y583339D01*
X66441Y583263D01*
X66398Y583185D01*
X66359Y583105D01*
X66323Y583023D01*
X66290Y582940D01*
X66262Y582855D01*
X66237Y582770D01*
X66215Y582683D01*
X66198Y582595D01*
X66185Y582507D01*
X66175Y582418D01*
X66169Y582329D01*
X66167Y582240D01*
X66169Y582151D01*
X66175Y582062D01*
X66185Y581973D01*
X66198Y581885D01*
X66215Y581797D01*
X66237Y581710D01*
X66262Y581625D01*
X66290Y581540D01*
X66323Y581457D01*
X66359Y581375D01*
X66398Y581295D01*
X66441Y581217D01*
X66487Y581141D01*
X66537Y581066D01*
X66590Y580994D01*
X66646Y580925D01*
X66705Y580858D01*
X66766Y580793D01*
X66831Y580732D01*
X66898Y580673D01*
X66967Y580617D01*
X67039Y580564D01*
X67114Y580514D01*
X67190Y580468D01*
X67268Y580425D01*
X67348Y580386D01*
X67430Y580350D01*
X67513Y580317D01*
X67598Y580289D01*
X67683Y580264D01*
X67770Y580242D01*
X67858Y580225D01*
X67946Y580212D01*
X68035Y580202D01*
X68124Y580196D01*
X68213Y580194D01*
X66167Y587753D02*
X73533Y587753D01*
X66167Y591846D01*
X73533Y591846D01*
X71896Y595312D02*
X73533Y597359D01*
X66167Y597359D01*
X66167Y599405D02*
X66167Y595312D01*
D13*
X133350Y499110D02*
X252730Y499110D01*
X252730Y558800D01*
X133350Y558800D01*
X133350Y499110D01*
D12*
X198835Y505311D02*
X200472Y505311D01*
X200550Y505313D01*
X200628Y505318D01*
X200705Y505328D01*
X200782Y505341D01*
X200858Y505357D01*
X200933Y505377D01*
X201007Y505401D01*
X201080Y505428D01*
X201152Y505459D01*
X201222Y505493D01*
X201291Y505530D01*
X201357Y505571D01*
X201422Y505615D01*
X201484Y505661D01*
X201544Y505711D01*
X201602Y505763D01*
X201657Y505818D01*
X201709Y505876D01*
X201759Y505936D01*
X201805Y505998D01*
X201849Y506063D01*
X201890Y506130D01*
X201927Y506198D01*
X201961Y506268D01*
X201992Y506340D01*
X202019Y506413D01*
X202043Y506487D01*
X202063Y506562D01*
X202079Y506638D01*
X202092Y506715D01*
X202102Y506792D01*
X202107Y506870D01*
X202109Y506948D01*
X202109Y511040D01*
X202107Y511118D01*
X202102Y511196D01*
X202092Y511273D01*
X202079Y511350D01*
X202063Y511426D01*
X202043Y511501D01*
X202019Y511575D01*
X201992Y511648D01*
X201961Y511720D01*
X201927Y511790D01*
X201890Y511859D01*
X201849Y511925D01*
X201805Y511990D01*
X201759Y512052D01*
X201709Y512112D01*
X201657Y512170D01*
X201602Y512225D01*
X201544Y512277D01*
X201484Y512327D01*
X201422Y512373D01*
X201357Y512417D01*
X201291Y512458D01*
X201222Y512495D01*
X201152Y512529D01*
X201080Y512560D01*
X201007Y512587D01*
X200933Y512611D01*
X200858Y512631D01*
X200782Y512647D01*
X200705Y512660D01*
X200628Y512670D01*
X200550Y512675D01*
X200472Y512677D01*
X198835Y512677D01*
X195990Y510631D02*
X195990Y507357D01*
X195990Y510631D02*
X195988Y510720D01*
X195982Y510809D01*
X195972Y510898D01*
X195959Y510986D01*
X195942Y511074D01*
X195920Y511161D01*
X195895Y511246D01*
X195867Y511331D01*
X195834Y511414D01*
X195798Y511496D01*
X195759Y511576D01*
X195716Y511654D01*
X195670Y511730D01*
X195620Y511805D01*
X195567Y511877D01*
X195511Y511946D01*
X195452Y512013D01*
X195391Y512078D01*
X195326Y512139D01*
X195259Y512198D01*
X195190Y512254D01*
X195118Y512307D01*
X195043Y512357D01*
X194967Y512403D01*
X194889Y512446D01*
X194809Y512485D01*
X194727Y512521D01*
X194644Y512554D01*
X194559Y512582D01*
X194474Y512607D01*
X194387Y512629D01*
X194299Y512646D01*
X194211Y512659D01*
X194122Y512669D01*
X194033Y512675D01*
X193944Y512677D01*
X193855Y512675D01*
X193766Y512669D01*
X193677Y512659D01*
X193589Y512646D01*
X193501Y512629D01*
X193414Y512607D01*
X193329Y512582D01*
X193244Y512554D01*
X193161Y512521D01*
X193079Y512485D01*
X192999Y512446D01*
X192921Y512403D01*
X192845Y512357D01*
X192770Y512307D01*
X192698Y512254D01*
X192629Y512198D01*
X192562Y512139D01*
X192497Y512078D01*
X192436Y512013D01*
X192377Y511946D01*
X192321Y511877D01*
X192268Y511805D01*
X192218Y511730D01*
X192172Y511654D01*
X192129Y511576D01*
X192090Y511496D01*
X192054Y511414D01*
X192021Y511331D01*
X191993Y511246D01*
X191968Y511161D01*
X191946Y511074D01*
X191929Y510986D01*
X191916Y510898D01*
X191906Y510809D01*
X191900Y510720D01*
X191898Y510631D01*
X191898Y507357D01*
X191900Y507268D01*
X191906Y507179D01*
X191916Y507090D01*
X191929Y507002D01*
X191946Y506914D01*
X191968Y506827D01*
X191993Y506742D01*
X192021Y506657D01*
X192054Y506574D01*
X192090Y506492D01*
X192129Y506412D01*
X192172Y506334D01*
X192218Y506258D01*
X192268Y506183D01*
X192321Y506111D01*
X192377Y506042D01*
X192436Y505975D01*
X192497Y505910D01*
X192562Y505849D01*
X192629Y505790D01*
X192698Y505734D01*
X192770Y505681D01*
X192845Y505631D01*
X192921Y505585D01*
X192999Y505542D01*
X193079Y505503D01*
X193161Y505467D01*
X193244Y505434D01*
X193329Y505406D01*
X193414Y505381D01*
X193501Y505359D01*
X193589Y505342D01*
X193677Y505329D01*
X193766Y505319D01*
X193855Y505313D01*
X193944Y505311D01*
X194033Y505313D01*
X194122Y505319D01*
X194211Y505329D01*
X194299Y505342D01*
X194387Y505359D01*
X194474Y505381D01*
X194559Y505406D01*
X194644Y505434D01*
X194727Y505467D01*
X194809Y505503D01*
X194889Y505542D01*
X194967Y505585D01*
X195043Y505631D01*
X195118Y505681D01*
X195190Y505734D01*
X195259Y505790D01*
X195326Y505849D01*
X195391Y505910D01*
X195452Y505975D01*
X195511Y506042D01*
X195567Y506111D01*
X195620Y506183D01*
X195670Y506258D01*
X195716Y506334D01*
X195759Y506412D01*
X195798Y506492D01*
X195834Y506574D01*
X195867Y506657D01*
X195895Y506742D01*
X195920Y506827D01*
X195942Y506914D01*
X195959Y507002D01*
X195972Y507090D01*
X195982Y507179D01*
X195988Y507268D01*
X195990Y507357D01*
X188431Y505311D02*
X188431Y512677D01*
X184339Y505311D01*
X184339Y512677D01*
X179235Y512677D02*
X180872Y506948D01*
X176780Y506948D01*
X178007Y508585D02*
X178007Y505311D01*
X409100Y549310D02*
X429100Y549310D01*
X393100Y565310D02*
X393100Y585310D01*
D13*
X391160Y614045D02*
X391160Y536575D01*
X447040Y536575D01*
X447040Y614045D01*
X391160Y614045D01*
D12*
X449807Y567471D02*
X449809Y567549D01*
X449814Y567627D01*
X449824Y567704D01*
X449837Y567781D01*
X449853Y567857D01*
X449873Y567932D01*
X449897Y568006D01*
X449924Y568079D01*
X449955Y568151D01*
X449989Y568221D01*
X450026Y568290D01*
X450067Y568356D01*
X450111Y568421D01*
X450157Y568483D01*
X450207Y568543D01*
X450259Y568601D01*
X450314Y568656D01*
X450372Y568708D01*
X450432Y568758D01*
X450494Y568804D01*
X450559Y568848D01*
X450626Y568889D01*
X450694Y568926D01*
X450764Y568960D01*
X450836Y568991D01*
X450909Y569018D01*
X450983Y569042D01*
X451058Y569062D01*
X451134Y569078D01*
X451211Y569091D01*
X451288Y569101D01*
X451366Y569106D01*
X451444Y569108D01*
X449807Y567471D02*
X449809Y567357D01*
X449814Y567244D01*
X449824Y567130D01*
X449837Y567017D01*
X449854Y566905D01*
X449874Y566793D01*
X449898Y566682D01*
X449926Y566571D01*
X449957Y566462D01*
X449992Y566354D01*
X450031Y566247D01*
X450073Y566141D01*
X450118Y566037D01*
X450167Y565934D01*
X450220Y565833D01*
X450275Y565734D01*
X450334Y565636D01*
X450396Y565541D01*
X450461Y565448D01*
X450529Y565356D01*
X450600Y565268D01*
X450674Y565181D01*
X450751Y565097D01*
X450830Y565016D01*
X455536Y565220D02*
X455614Y565222D01*
X455692Y565227D01*
X455769Y565237D01*
X455846Y565250D01*
X455922Y565266D01*
X455997Y565286D01*
X456071Y565310D01*
X456144Y565337D01*
X456216Y565368D01*
X456286Y565402D01*
X456355Y565439D01*
X456421Y565480D01*
X456486Y565524D01*
X456548Y565570D01*
X456608Y565620D01*
X456666Y565672D01*
X456721Y565727D01*
X456773Y565785D01*
X456823Y565845D01*
X456869Y565907D01*
X456913Y565972D01*
X456954Y566039D01*
X456991Y566107D01*
X457025Y566177D01*
X457056Y566249D01*
X457083Y566322D01*
X457107Y566396D01*
X457127Y566471D01*
X457143Y566547D01*
X457156Y566624D01*
X457166Y566701D01*
X457171Y566779D01*
X457173Y566857D01*
X457171Y566967D01*
X457165Y567076D01*
X457155Y567186D01*
X457142Y567294D01*
X457124Y567403D01*
X457103Y567510D01*
X457077Y567617D01*
X457048Y567723D01*
X457016Y567828D01*
X456979Y567931D01*
X456939Y568033D01*
X456895Y568134D01*
X456847Y568233D01*
X456797Y568330D01*
X456742Y568425D01*
X456684Y568518D01*
X456623Y568609D01*
X456559Y568698D01*
X454103Y566038D02*
X454145Y565971D01*
X454189Y565906D01*
X454237Y565844D01*
X454287Y565784D01*
X454340Y565726D01*
X454396Y565671D01*
X454455Y565619D01*
X454515Y565569D01*
X454579Y565522D01*
X454644Y565479D01*
X454711Y565438D01*
X454780Y565401D01*
X454851Y565367D01*
X454923Y565336D01*
X454997Y565309D01*
X455071Y565285D01*
X455147Y565265D01*
X455224Y565249D01*
X455301Y565236D01*
X455379Y565226D01*
X455458Y565221D01*
X455536Y565219D01*
X452876Y568289D02*
X452834Y568355D01*
X452790Y568420D01*
X452743Y568482D01*
X452692Y568542D01*
X452639Y568600D01*
X452583Y568655D01*
X452525Y568708D01*
X452464Y568757D01*
X452401Y568804D01*
X452336Y568847D01*
X452269Y568888D01*
X452200Y568925D01*
X452129Y568959D01*
X452057Y568990D01*
X451983Y569017D01*
X451908Y569041D01*
X451833Y569061D01*
X451756Y569077D01*
X451679Y569090D01*
X451601Y569100D01*
X451522Y569105D01*
X451444Y569107D01*
X452876Y568289D02*
X454104Y566038D01*
X457173Y571834D02*
X449807Y573471D01*
X454718Y575108D01*
X449807Y576745D01*
X457173Y578382D01*
X455536Y581353D02*
X457173Y583399D01*
X449807Y583399D01*
X449807Y581353D02*
X449807Y585445D01*
D14*
X629090Y494250D02*
X49090Y494250D01*
X49090Y204250D01*
X629090Y204250D01*
X629090Y494250D01*
D12*
X661659Y365776D02*
X661659Y363730D01*
X661659Y365776D02*
X661657Y365865D01*
X661651Y365954D01*
X661641Y366043D01*
X661628Y366131D01*
X661611Y366219D01*
X661589Y366306D01*
X661564Y366391D01*
X661536Y366476D01*
X661503Y366559D01*
X661467Y366641D01*
X661428Y366721D01*
X661385Y366799D01*
X661339Y366875D01*
X661289Y366950D01*
X661236Y367022D01*
X661180Y367091D01*
X661121Y367158D01*
X661060Y367223D01*
X660995Y367284D01*
X660928Y367343D01*
X660859Y367399D01*
X660787Y367452D01*
X660712Y367502D01*
X660636Y367548D01*
X660558Y367591D01*
X660478Y367630D01*
X660396Y367666D01*
X660313Y367699D01*
X660228Y367727D01*
X660143Y367752D01*
X660056Y367774D01*
X659968Y367791D01*
X659880Y367804D01*
X659791Y367814D01*
X659702Y367820D01*
X659613Y367822D01*
X659524Y367820D01*
X659435Y367814D01*
X659346Y367804D01*
X659258Y367791D01*
X659170Y367774D01*
X659083Y367752D01*
X658998Y367727D01*
X658913Y367699D01*
X658830Y367666D01*
X658748Y367630D01*
X658668Y367591D01*
X658590Y367548D01*
X658514Y367502D01*
X658439Y367452D01*
X658367Y367399D01*
X658298Y367343D01*
X658231Y367284D01*
X658166Y367223D01*
X658105Y367158D01*
X658046Y367091D01*
X657990Y367022D01*
X657937Y366950D01*
X657887Y366875D01*
X657841Y366799D01*
X657798Y366721D01*
X657759Y366641D01*
X657723Y366559D01*
X657690Y366476D01*
X657662Y366391D01*
X657637Y366306D01*
X657615Y366219D01*
X657598Y366131D01*
X657585Y366043D01*
X657575Y365954D01*
X657569Y365865D01*
X657567Y365776D01*
X657567Y363730D01*
X664933Y363730D01*
X664933Y365776D01*
X664931Y365855D01*
X664925Y365934D01*
X664916Y366013D01*
X664903Y366091D01*
X664885Y366168D01*
X664865Y366244D01*
X664840Y366319D01*
X664812Y366393D01*
X664781Y366466D01*
X664745Y366537D01*
X664707Y366606D01*
X664665Y366673D01*
X664620Y366738D01*
X664572Y366801D01*
X664521Y366862D01*
X664467Y366919D01*
X664411Y366975D01*
X664352Y367027D01*
X664290Y367077D01*
X664226Y367123D01*
X664160Y367167D01*
X664092Y367207D01*
X664022Y367243D01*
X663950Y367277D01*
X663876Y367307D01*
X663802Y367333D01*
X663726Y367356D01*
X663649Y367374D01*
X663572Y367390D01*
X663493Y367401D01*
X663415Y367409D01*
X663336Y367413D01*
X663256Y367413D01*
X663177Y367409D01*
X663099Y367401D01*
X663020Y367390D01*
X662943Y367374D01*
X662866Y367356D01*
X662790Y367333D01*
X662716Y367307D01*
X662642Y367277D01*
X662570Y367243D01*
X662500Y367207D01*
X662432Y367167D01*
X662366Y367123D01*
X662302Y367077D01*
X662240Y367027D01*
X662181Y366975D01*
X662125Y366919D01*
X662071Y366862D01*
X662020Y366801D01*
X661972Y366738D01*
X661927Y366673D01*
X661885Y366606D01*
X661847Y366537D01*
X661811Y366466D01*
X661780Y366393D01*
X661752Y366319D01*
X661727Y366244D01*
X661707Y366168D01*
X661689Y366091D01*
X661676Y366013D01*
X661667Y365934D01*
X661661Y365855D01*
X661659Y365776D01*
X657567Y370274D02*
X664933Y372729D01*
X657567Y375185D01*
X659409Y374571D02*
X659409Y370888D01*
X657567Y379557D02*
X664933Y379557D01*
X664933Y377511D02*
X664933Y381603D01*
X663296Y384338D02*
X664933Y386384D01*
X657567Y386384D01*
X657567Y384338D02*
X657567Y388430D01*
D13*
X291465Y584835D02*
X259715Y584835D01*
X259715Y568325D01*
X291465Y568325D01*
X291465Y584835D01*
X278130Y581660D02*
X276860Y581660D01*
X276860Y571500D01*
X278130Y571500D01*
X278130Y581660D01*
D12*
X288868Y563983D02*
X288868Y556617D01*
X285594Y556617D01*
X282528Y556617D02*
X279254Y556617D01*
X282528Y556617D02*
X282528Y563983D01*
X279254Y563983D01*
X280072Y560709D02*
X282528Y560709D01*
X276204Y563983D02*
X276204Y556617D01*
X276204Y563983D02*
X274158Y563983D01*
X274069Y563981D01*
X273980Y563975D01*
X273891Y563965D01*
X273803Y563952D01*
X273715Y563935D01*
X273628Y563913D01*
X273543Y563888D01*
X273458Y563860D01*
X273375Y563827D01*
X273293Y563791D01*
X273213Y563752D01*
X273135Y563709D01*
X273059Y563663D01*
X272984Y563613D01*
X272912Y563560D01*
X272843Y563504D01*
X272776Y563445D01*
X272711Y563384D01*
X272650Y563319D01*
X272591Y563252D01*
X272535Y563183D01*
X272482Y563111D01*
X272432Y563036D01*
X272386Y562960D01*
X272343Y562882D01*
X272304Y562802D01*
X272268Y562720D01*
X272235Y562637D01*
X272207Y562552D01*
X272182Y562467D01*
X272160Y562380D01*
X272143Y562292D01*
X272130Y562204D01*
X272120Y562115D01*
X272114Y562026D01*
X272112Y561937D01*
X272111Y561937D02*
X272111Y558663D01*
X272112Y558663D02*
X272114Y558574D01*
X272120Y558485D01*
X272130Y558396D01*
X272143Y558308D01*
X272160Y558220D01*
X272182Y558133D01*
X272207Y558048D01*
X272235Y557963D01*
X272268Y557880D01*
X272304Y557798D01*
X272343Y557718D01*
X272386Y557640D01*
X272432Y557564D01*
X272482Y557489D01*
X272535Y557417D01*
X272591Y557348D01*
X272650Y557281D01*
X272711Y557216D01*
X272776Y557155D01*
X272843Y557096D01*
X272912Y557040D01*
X272984Y556987D01*
X273059Y556937D01*
X273135Y556891D01*
X273213Y556848D01*
X273293Y556809D01*
X273375Y556773D01*
X273458Y556740D01*
X273543Y556712D01*
X273628Y556687D01*
X273715Y556665D01*
X273803Y556648D01*
X273891Y556635D01*
X273980Y556625D01*
X274069Y556619D01*
X274158Y556617D01*
X276204Y556617D01*
X268645Y562346D02*
X266599Y563983D01*
X266599Y556617D01*
X268645Y556617D02*
X264552Y556617D01*
D13*
X440690Y146050D02*
X466090Y146050D01*
X440690Y146050D02*
X440690Y95250D01*
X466090Y95250D01*
X466090Y146050D01*
D12*
X470694Y118044D02*
X476423Y118044D01*
X470694Y118044D02*
X470616Y118042D01*
X470538Y118037D01*
X470461Y118027D01*
X470384Y118014D01*
X470308Y117998D01*
X470233Y117978D01*
X470159Y117954D01*
X470086Y117927D01*
X470014Y117896D01*
X469944Y117862D01*
X469876Y117825D01*
X469809Y117784D01*
X469744Y117740D01*
X469682Y117694D01*
X469622Y117644D01*
X469564Y117592D01*
X469509Y117537D01*
X469457Y117479D01*
X469407Y117419D01*
X469361Y117357D01*
X469317Y117292D01*
X469276Y117226D01*
X469239Y117157D01*
X469205Y117087D01*
X469174Y117015D01*
X469147Y116942D01*
X469123Y116868D01*
X469103Y116793D01*
X469087Y116717D01*
X469074Y116640D01*
X469064Y116563D01*
X469059Y116485D01*
X469057Y116407D01*
X469057Y115589D01*
X474786Y121479D02*
X476423Y123525D01*
X469057Y123525D01*
X469057Y121479D02*
X469057Y125571D01*
D13*
X27940Y222250D02*
X27940Y420370D01*
X2540Y420370D01*
X2540Y222250D01*
X27940Y222250D01*
D12*
X32701Y313431D02*
X32703Y313509D01*
X32708Y313587D01*
X32718Y313664D01*
X32731Y313741D01*
X32747Y313817D01*
X32767Y313892D01*
X32791Y313966D01*
X32818Y314039D01*
X32849Y314111D01*
X32883Y314181D01*
X32920Y314250D01*
X32961Y314316D01*
X33005Y314381D01*
X33051Y314443D01*
X33101Y314503D01*
X33153Y314561D01*
X33208Y314616D01*
X33266Y314668D01*
X33326Y314718D01*
X33388Y314764D01*
X33453Y314808D01*
X33520Y314849D01*
X33588Y314886D01*
X33658Y314920D01*
X33730Y314951D01*
X33803Y314978D01*
X33877Y315002D01*
X33952Y315022D01*
X34028Y315038D01*
X34105Y315051D01*
X34182Y315061D01*
X34260Y315066D01*
X34338Y315068D01*
X32701Y313431D02*
X32703Y313317D01*
X32708Y313204D01*
X32718Y313090D01*
X32731Y312977D01*
X32748Y312865D01*
X32768Y312753D01*
X32792Y312642D01*
X32820Y312531D01*
X32851Y312422D01*
X32886Y312314D01*
X32925Y312207D01*
X32967Y312101D01*
X33012Y311997D01*
X33061Y311894D01*
X33114Y311793D01*
X33169Y311694D01*
X33228Y311596D01*
X33290Y311501D01*
X33355Y311408D01*
X33423Y311316D01*
X33494Y311228D01*
X33568Y311141D01*
X33645Y311057D01*
X33724Y310976D01*
X38430Y311180D02*
X38508Y311182D01*
X38586Y311187D01*
X38663Y311197D01*
X38740Y311210D01*
X38816Y311226D01*
X38891Y311246D01*
X38965Y311270D01*
X39038Y311297D01*
X39110Y311328D01*
X39180Y311362D01*
X39249Y311399D01*
X39315Y311440D01*
X39380Y311484D01*
X39442Y311530D01*
X39502Y311580D01*
X39560Y311632D01*
X39615Y311687D01*
X39667Y311745D01*
X39717Y311805D01*
X39763Y311867D01*
X39807Y311932D01*
X39848Y311999D01*
X39885Y312067D01*
X39919Y312137D01*
X39950Y312209D01*
X39977Y312282D01*
X40001Y312356D01*
X40021Y312431D01*
X40037Y312507D01*
X40050Y312584D01*
X40060Y312661D01*
X40065Y312739D01*
X40067Y312817D01*
X40065Y312927D01*
X40059Y313036D01*
X40049Y313146D01*
X40036Y313254D01*
X40018Y313363D01*
X39997Y313470D01*
X39971Y313577D01*
X39942Y313683D01*
X39910Y313788D01*
X39873Y313891D01*
X39833Y313993D01*
X39789Y314094D01*
X39741Y314193D01*
X39691Y314290D01*
X39636Y314385D01*
X39578Y314478D01*
X39517Y314569D01*
X39453Y314658D01*
X36997Y311999D02*
X37039Y311932D01*
X37083Y311867D01*
X37131Y311805D01*
X37181Y311745D01*
X37234Y311687D01*
X37290Y311632D01*
X37349Y311580D01*
X37409Y311530D01*
X37473Y311483D01*
X37538Y311440D01*
X37605Y311399D01*
X37674Y311362D01*
X37745Y311328D01*
X37817Y311297D01*
X37891Y311270D01*
X37965Y311246D01*
X38041Y311226D01*
X38118Y311210D01*
X38195Y311197D01*
X38273Y311187D01*
X38352Y311182D01*
X38430Y311180D01*
X35770Y314250D02*
X35728Y314316D01*
X35684Y314381D01*
X35637Y314443D01*
X35586Y314503D01*
X35533Y314561D01*
X35477Y314616D01*
X35419Y314669D01*
X35358Y314718D01*
X35295Y314765D01*
X35230Y314808D01*
X35163Y314849D01*
X35094Y314886D01*
X35023Y314920D01*
X34951Y314951D01*
X34877Y314978D01*
X34802Y315002D01*
X34727Y315022D01*
X34650Y315038D01*
X34573Y315051D01*
X34495Y315061D01*
X34416Y315066D01*
X34338Y315068D01*
X35770Y314250D02*
X36998Y311999D01*
X40067Y317795D02*
X32701Y319432D01*
X37612Y321069D01*
X32701Y322706D01*
X40067Y324343D01*
X40068Y329564D02*
X40066Y329649D01*
X40060Y329734D01*
X40050Y329818D01*
X40037Y329902D01*
X40019Y329986D01*
X39998Y330068D01*
X39973Y330149D01*
X39944Y330229D01*
X39911Y330308D01*
X39875Y330385D01*
X39835Y330460D01*
X39792Y330534D01*
X39746Y330605D01*
X39696Y330674D01*
X39643Y330741D01*
X39587Y330805D01*
X39528Y330866D01*
X39467Y330925D01*
X39403Y330981D01*
X39336Y331034D01*
X39267Y331084D01*
X39196Y331130D01*
X39122Y331173D01*
X39047Y331213D01*
X38970Y331249D01*
X38891Y331282D01*
X38811Y331311D01*
X38730Y331336D01*
X38648Y331357D01*
X38564Y331375D01*
X38480Y331388D01*
X38396Y331398D01*
X38311Y331404D01*
X38226Y331406D01*
X40067Y329564D02*
X40065Y329468D01*
X40059Y329372D01*
X40049Y329277D01*
X40036Y329182D01*
X40018Y329087D01*
X39997Y328994D01*
X39972Y328901D01*
X39943Y328810D01*
X39911Y328719D01*
X39875Y328630D01*
X39835Y328543D01*
X39792Y328457D01*
X39746Y328373D01*
X39696Y328291D01*
X39642Y328211D01*
X39586Y328134D01*
X39526Y328059D01*
X39464Y327986D01*
X39398Y327916D01*
X39330Y327848D01*
X39259Y327783D01*
X39186Y327722D01*
X39110Y327663D01*
X39031Y327607D01*
X38951Y327555D01*
X38868Y327506D01*
X38784Y327460D01*
X38698Y327418D01*
X38610Y327380D01*
X38521Y327345D01*
X38430Y327313D01*
X36794Y330792D02*
X36853Y330852D01*
X36915Y330909D01*
X36979Y330964D01*
X37046Y331015D01*
X37115Y331064D01*
X37185Y331110D01*
X37258Y331153D01*
X37332Y331193D01*
X37408Y331229D01*
X37486Y331262D01*
X37565Y331292D01*
X37645Y331319D01*
X37726Y331342D01*
X37808Y331361D01*
X37890Y331377D01*
X37974Y331390D01*
X38058Y331399D01*
X38142Y331404D01*
X38226Y331406D01*
X36793Y330792D02*
X32701Y327313D01*
X32701Y331406D01*
D13*
X262890Y120650D02*
X415290Y120650D01*
X262890Y120650D02*
X262890Y95250D01*
X415290Y95250D01*
X415290Y120650D01*
D12*
X350118Y124587D02*
X348481Y124587D01*
X350118Y124587D02*
X350196Y124589D01*
X350274Y124594D01*
X350351Y124604D01*
X350428Y124617D01*
X350504Y124633D01*
X350579Y124653D01*
X350653Y124677D01*
X350726Y124704D01*
X350798Y124735D01*
X350868Y124769D01*
X350937Y124806D01*
X351003Y124847D01*
X351068Y124891D01*
X351130Y124937D01*
X351190Y124987D01*
X351248Y125039D01*
X351303Y125094D01*
X351355Y125152D01*
X351405Y125212D01*
X351451Y125274D01*
X351495Y125339D01*
X351536Y125406D01*
X351573Y125474D01*
X351607Y125544D01*
X351638Y125616D01*
X351665Y125689D01*
X351689Y125763D01*
X351709Y125838D01*
X351725Y125914D01*
X351738Y125991D01*
X351748Y126068D01*
X351753Y126146D01*
X351755Y126224D01*
X351755Y130316D01*
X351753Y130394D01*
X351748Y130472D01*
X351738Y130549D01*
X351725Y130626D01*
X351709Y130702D01*
X351689Y130777D01*
X351665Y130851D01*
X351638Y130924D01*
X351607Y130996D01*
X351573Y131066D01*
X351536Y131135D01*
X351495Y131201D01*
X351451Y131266D01*
X351405Y131328D01*
X351355Y131388D01*
X351303Y131446D01*
X351248Y131501D01*
X351190Y131553D01*
X351130Y131603D01*
X351068Y131649D01*
X351003Y131693D01*
X350937Y131734D01*
X350868Y131771D01*
X350798Y131805D01*
X350726Y131836D01*
X350653Y131863D01*
X350579Y131887D01*
X350504Y131907D01*
X350428Y131923D01*
X350351Y131936D01*
X350274Y131946D01*
X350196Y131951D01*
X350118Y131953D01*
X348481Y131953D01*
X345636Y129907D02*
X345636Y126633D01*
X345635Y129907D02*
X345633Y129996D01*
X345627Y130085D01*
X345617Y130174D01*
X345604Y130262D01*
X345587Y130350D01*
X345565Y130437D01*
X345540Y130522D01*
X345512Y130607D01*
X345479Y130690D01*
X345443Y130772D01*
X345404Y130852D01*
X345361Y130930D01*
X345315Y131006D01*
X345265Y131081D01*
X345212Y131153D01*
X345156Y131222D01*
X345097Y131289D01*
X345036Y131354D01*
X344971Y131415D01*
X344904Y131474D01*
X344835Y131530D01*
X344763Y131583D01*
X344688Y131633D01*
X344612Y131679D01*
X344534Y131722D01*
X344454Y131761D01*
X344372Y131797D01*
X344289Y131830D01*
X344204Y131858D01*
X344119Y131883D01*
X344032Y131905D01*
X343944Y131922D01*
X343856Y131935D01*
X343767Y131945D01*
X343678Y131951D01*
X343589Y131953D01*
X343500Y131951D01*
X343411Y131945D01*
X343322Y131935D01*
X343234Y131922D01*
X343146Y131905D01*
X343059Y131883D01*
X342974Y131858D01*
X342889Y131830D01*
X342806Y131797D01*
X342724Y131761D01*
X342644Y131722D01*
X342566Y131679D01*
X342490Y131633D01*
X342415Y131583D01*
X342343Y131530D01*
X342274Y131474D01*
X342207Y131415D01*
X342142Y131354D01*
X342081Y131289D01*
X342022Y131222D01*
X341966Y131153D01*
X341913Y131081D01*
X341863Y131006D01*
X341817Y130930D01*
X341774Y130852D01*
X341735Y130772D01*
X341699Y130690D01*
X341666Y130607D01*
X341638Y130522D01*
X341613Y130437D01*
X341591Y130350D01*
X341574Y130262D01*
X341561Y130174D01*
X341551Y130085D01*
X341545Y129996D01*
X341543Y129907D01*
X341543Y126633D01*
X341545Y126544D01*
X341551Y126455D01*
X341561Y126366D01*
X341574Y126278D01*
X341591Y126190D01*
X341613Y126103D01*
X341638Y126018D01*
X341666Y125933D01*
X341699Y125850D01*
X341735Y125768D01*
X341774Y125688D01*
X341817Y125610D01*
X341863Y125534D01*
X341913Y125459D01*
X341966Y125387D01*
X342022Y125318D01*
X342081Y125251D01*
X342142Y125186D01*
X342207Y125125D01*
X342274Y125066D01*
X342343Y125010D01*
X342415Y124957D01*
X342490Y124907D01*
X342566Y124861D01*
X342644Y124818D01*
X342724Y124779D01*
X342806Y124743D01*
X342889Y124710D01*
X342974Y124682D01*
X343059Y124657D01*
X343146Y124635D01*
X343234Y124618D01*
X343322Y124605D01*
X343411Y124595D01*
X343500Y124589D01*
X343589Y124587D01*
X343678Y124589D01*
X343767Y124595D01*
X343856Y124605D01*
X343944Y124618D01*
X344032Y124635D01*
X344119Y124657D01*
X344204Y124682D01*
X344289Y124710D01*
X344372Y124743D01*
X344454Y124779D01*
X344534Y124818D01*
X344612Y124861D01*
X344688Y124907D01*
X344763Y124957D01*
X344835Y125010D01*
X344904Y125066D01*
X344971Y125125D01*
X345036Y125186D01*
X345097Y125251D01*
X345156Y125318D01*
X345212Y125387D01*
X345265Y125459D01*
X345315Y125534D01*
X345361Y125610D01*
X345404Y125688D01*
X345443Y125768D01*
X345479Y125850D01*
X345512Y125933D01*
X345540Y126018D01*
X345565Y126103D01*
X345587Y126190D01*
X345604Y126278D01*
X345617Y126366D01*
X345627Y126455D01*
X345633Y126544D01*
X345635Y126633D01*
X338077Y124587D02*
X338077Y131953D01*
X333984Y124587D01*
X333984Y131953D01*
X330518Y124587D02*
X328062Y124587D01*
X327982Y124589D01*
X327902Y124595D01*
X327822Y124605D01*
X327743Y124618D01*
X327664Y124636D01*
X327587Y124657D01*
X327511Y124683D01*
X327436Y124712D01*
X327362Y124744D01*
X327290Y124780D01*
X327220Y124820D01*
X327153Y124863D01*
X327087Y124909D01*
X327024Y124959D01*
X326963Y125011D01*
X326904Y125066D01*
X326849Y125125D01*
X326797Y125185D01*
X326747Y125249D01*
X326701Y125314D01*
X326658Y125382D01*
X326618Y125452D01*
X326582Y125524D01*
X326550Y125598D01*
X326521Y125672D01*
X326496Y125749D01*
X326474Y125826D01*
X326456Y125905D01*
X326443Y125984D01*
X326433Y126063D01*
X326427Y126144D01*
X326425Y126224D01*
X326425Y127042D01*
X326427Y127120D01*
X326432Y127198D01*
X326442Y127275D01*
X326455Y127352D01*
X326471Y127428D01*
X326491Y127503D01*
X326515Y127577D01*
X326542Y127650D01*
X326573Y127722D01*
X326607Y127792D01*
X326644Y127861D01*
X326685Y127927D01*
X326729Y127992D01*
X326775Y128054D01*
X326825Y128114D01*
X326877Y128172D01*
X326932Y128227D01*
X326990Y128279D01*
X327050Y128329D01*
X327112Y128375D01*
X327177Y128419D01*
X327244Y128460D01*
X327312Y128497D01*
X327382Y128531D01*
X327454Y128562D01*
X327527Y128589D01*
X327601Y128613D01*
X327676Y128633D01*
X327752Y128649D01*
X327829Y128662D01*
X327906Y128672D01*
X327984Y128677D01*
X328062Y128679D01*
X330518Y128679D01*
X330518Y131953D01*
X326425Y131953D01*
D13*
X252730Y613410D02*
X151130Y613410D01*
X151130Y562610D01*
X252730Y562610D01*
X252730Y613410D01*
D12*
X255443Y593643D02*
X255443Y592007D01*
X255445Y591929D01*
X255450Y591851D01*
X255460Y591774D01*
X255473Y591697D01*
X255489Y591621D01*
X255509Y591546D01*
X255533Y591472D01*
X255560Y591399D01*
X255591Y591327D01*
X255625Y591257D01*
X255662Y591189D01*
X255703Y591122D01*
X255747Y591057D01*
X255793Y590995D01*
X255843Y590935D01*
X255895Y590877D01*
X255950Y590822D01*
X256008Y590770D01*
X256068Y590720D01*
X256130Y590674D01*
X256195Y590630D01*
X256262Y590589D01*
X256330Y590552D01*
X256400Y590518D01*
X256472Y590487D01*
X256545Y590460D01*
X256619Y590436D01*
X256694Y590416D01*
X256770Y590400D01*
X256847Y590387D01*
X256924Y590377D01*
X257002Y590372D01*
X257080Y590370D01*
X261172Y590370D01*
X261250Y590372D01*
X261328Y590377D01*
X261405Y590387D01*
X261482Y590400D01*
X261558Y590416D01*
X261633Y590436D01*
X261707Y590460D01*
X261780Y590487D01*
X261852Y590518D01*
X261922Y590552D01*
X261991Y590589D01*
X262057Y590630D01*
X262122Y590674D01*
X262184Y590720D01*
X262244Y590770D01*
X262302Y590822D01*
X262357Y590877D01*
X262409Y590935D01*
X262459Y590995D01*
X262505Y591057D01*
X262549Y591122D01*
X262590Y591189D01*
X262627Y591257D01*
X262661Y591327D01*
X262692Y591399D01*
X262719Y591472D01*
X262743Y591546D01*
X262763Y591621D01*
X262779Y591697D01*
X262792Y591774D01*
X262802Y591851D01*
X262807Y591929D01*
X262809Y592007D01*
X262809Y593643D01*
X260763Y596489D02*
X257489Y596489D01*
X260763Y596489D02*
X260852Y596491D01*
X260941Y596497D01*
X261030Y596507D01*
X261118Y596520D01*
X261206Y596537D01*
X261293Y596559D01*
X261378Y596584D01*
X261463Y596612D01*
X261546Y596645D01*
X261628Y596681D01*
X261708Y596720D01*
X261786Y596763D01*
X261862Y596809D01*
X261937Y596859D01*
X262009Y596912D01*
X262078Y596968D01*
X262145Y597027D01*
X262210Y597088D01*
X262271Y597153D01*
X262330Y597220D01*
X262386Y597289D01*
X262439Y597361D01*
X262489Y597436D01*
X262535Y597512D01*
X262578Y597590D01*
X262617Y597670D01*
X262653Y597752D01*
X262686Y597835D01*
X262714Y597920D01*
X262739Y598005D01*
X262761Y598092D01*
X262778Y598180D01*
X262791Y598268D01*
X262801Y598357D01*
X262807Y598446D01*
X262809Y598535D01*
X262807Y598624D01*
X262801Y598713D01*
X262791Y598802D01*
X262778Y598890D01*
X262761Y598978D01*
X262739Y599065D01*
X262714Y599150D01*
X262686Y599235D01*
X262653Y599318D01*
X262617Y599400D01*
X262578Y599480D01*
X262535Y599558D01*
X262489Y599634D01*
X262439Y599709D01*
X262386Y599781D01*
X262330Y599850D01*
X262271Y599917D01*
X262210Y599982D01*
X262145Y600043D01*
X262078Y600102D01*
X262009Y600158D01*
X261937Y600211D01*
X261862Y600261D01*
X261786Y600307D01*
X261708Y600350D01*
X261628Y600389D01*
X261546Y600425D01*
X261463Y600458D01*
X261378Y600486D01*
X261293Y600511D01*
X261206Y600533D01*
X261118Y600550D01*
X261030Y600563D01*
X260941Y600573D01*
X260852Y600579D01*
X260763Y600581D01*
X257489Y600581D01*
X257400Y600579D01*
X257311Y600573D01*
X257222Y600563D01*
X257134Y600550D01*
X257046Y600533D01*
X256959Y600511D01*
X256874Y600486D01*
X256789Y600458D01*
X256706Y600425D01*
X256624Y600389D01*
X256544Y600350D01*
X256466Y600307D01*
X256390Y600261D01*
X256315Y600211D01*
X256243Y600158D01*
X256174Y600102D01*
X256107Y600043D01*
X256042Y599982D01*
X255981Y599917D01*
X255922Y599850D01*
X255866Y599781D01*
X255813Y599709D01*
X255763Y599634D01*
X255717Y599558D01*
X255674Y599480D01*
X255635Y599400D01*
X255599Y599318D01*
X255566Y599235D01*
X255538Y599150D01*
X255513Y599065D01*
X255491Y598978D01*
X255474Y598890D01*
X255461Y598802D01*
X255451Y598713D01*
X255445Y598624D01*
X255443Y598535D01*
X255445Y598446D01*
X255451Y598357D01*
X255461Y598268D01*
X255474Y598180D01*
X255491Y598092D01*
X255513Y598005D01*
X255538Y597920D01*
X255566Y597835D01*
X255599Y597752D01*
X255635Y597670D01*
X255674Y597590D01*
X255717Y597512D01*
X255763Y597436D01*
X255813Y597361D01*
X255866Y597289D01*
X255922Y597220D01*
X255981Y597153D01*
X256042Y597088D01*
X256107Y597027D01*
X256174Y596968D01*
X256243Y596912D01*
X256315Y596859D01*
X256390Y596809D01*
X256466Y596763D01*
X256544Y596720D01*
X256624Y596681D01*
X256706Y596645D01*
X256789Y596612D01*
X256874Y596584D01*
X256959Y596559D01*
X257046Y596537D01*
X257134Y596520D01*
X257222Y596507D01*
X257311Y596497D01*
X257400Y596491D01*
X257489Y596489D01*
X255443Y604048D02*
X262809Y604048D01*
X255443Y608140D01*
X262809Y608140D01*
X262810Y613858D02*
X262808Y613943D01*
X262802Y614028D01*
X262792Y614112D01*
X262779Y614196D01*
X262761Y614280D01*
X262740Y614362D01*
X262715Y614443D01*
X262686Y614523D01*
X262653Y614602D01*
X262617Y614679D01*
X262577Y614754D01*
X262534Y614828D01*
X262488Y614899D01*
X262438Y614968D01*
X262385Y615035D01*
X262329Y615099D01*
X262270Y615160D01*
X262209Y615219D01*
X262145Y615275D01*
X262078Y615328D01*
X262009Y615378D01*
X261938Y615424D01*
X261864Y615467D01*
X261789Y615507D01*
X261712Y615543D01*
X261633Y615576D01*
X261553Y615605D01*
X261472Y615630D01*
X261390Y615651D01*
X261306Y615669D01*
X261222Y615682D01*
X261138Y615692D01*
X261053Y615698D01*
X260968Y615700D01*
X262809Y613858D02*
X262807Y613762D01*
X262801Y613666D01*
X262791Y613571D01*
X262778Y613476D01*
X262760Y613381D01*
X262739Y613288D01*
X262714Y613195D01*
X262685Y613104D01*
X262653Y613013D01*
X262617Y612924D01*
X262577Y612837D01*
X262534Y612751D01*
X262488Y612667D01*
X262438Y612585D01*
X262384Y612505D01*
X262328Y612428D01*
X262268Y612353D01*
X262206Y612280D01*
X262140Y612210D01*
X262072Y612142D01*
X262001Y612077D01*
X261928Y612016D01*
X261852Y611957D01*
X261773Y611901D01*
X261693Y611849D01*
X261610Y611800D01*
X261526Y611754D01*
X261440Y611712D01*
X261352Y611674D01*
X261263Y611639D01*
X261172Y611607D01*
X259536Y615085D02*
X259595Y615145D01*
X259657Y615202D01*
X259721Y615257D01*
X259788Y615308D01*
X259857Y615357D01*
X259927Y615403D01*
X260000Y615446D01*
X260074Y615486D01*
X260150Y615522D01*
X260228Y615555D01*
X260307Y615585D01*
X260387Y615612D01*
X260468Y615635D01*
X260550Y615654D01*
X260632Y615670D01*
X260716Y615683D01*
X260800Y615692D01*
X260884Y615697D01*
X260968Y615699D01*
X259535Y615085D02*
X255443Y611607D01*
X255443Y615699D01*
D13*
X574040Y142240D02*
X574055Y143487D01*
X574101Y144733D01*
X574178Y145977D01*
X574285Y147219D01*
X574422Y148458D01*
X574590Y149694D01*
X574788Y150925D01*
X575016Y152151D01*
X575274Y153370D01*
X575562Y154583D01*
X575880Y155789D01*
X576227Y156986D01*
X576604Y158175D01*
X577010Y159354D01*
X577444Y160523D01*
X577907Y161680D01*
X578398Y162826D01*
X578917Y163960D01*
X579464Y165080D01*
X580038Y166187D01*
X580640Y167279D01*
X581267Y168356D01*
X581921Y169418D01*
X582601Y170463D01*
X583307Y171491D01*
X584037Y172502D01*
X584792Y173494D01*
X585571Y174467D01*
X586374Y175421D01*
X587200Y176355D01*
X588048Y177269D01*
X588919Y178161D01*
X589811Y179032D01*
X590725Y179880D01*
X591659Y180706D01*
X592613Y181509D01*
X593586Y182288D01*
X594578Y183043D01*
X595589Y183773D01*
X596617Y184479D01*
X597662Y185159D01*
X598724Y185813D01*
X599801Y186440D01*
X600893Y187042D01*
X602000Y187616D01*
X603120Y188163D01*
X604254Y188682D01*
X605400Y189173D01*
X606557Y189636D01*
X607726Y190070D01*
X608905Y190476D01*
X610094Y190853D01*
X611291Y191200D01*
X612497Y191518D01*
X613710Y191806D01*
X614929Y192064D01*
X616155Y192292D01*
X617386Y192490D01*
X618622Y192658D01*
X619861Y192795D01*
X621103Y192902D01*
X622347Y192979D01*
X623593Y193025D01*
X624840Y193040D01*
X626087Y193025D01*
X627333Y192979D01*
X628577Y192902D01*
X629819Y192795D01*
X631058Y192658D01*
X632294Y192490D01*
X633525Y192292D01*
X634751Y192064D01*
X635970Y191806D01*
X637183Y191518D01*
X638389Y191200D01*
X639586Y190853D01*
X640775Y190476D01*
X641954Y190070D01*
X643123Y189636D01*
X644280Y189173D01*
X645426Y188682D01*
X646560Y188163D01*
X647680Y187616D01*
X648787Y187042D01*
X649879Y186440D01*
X650956Y185813D01*
X652018Y185159D01*
X653063Y184479D01*
X654091Y183773D01*
X655102Y183043D01*
X656094Y182288D01*
X657067Y181509D01*
X658021Y180706D01*
X658955Y179880D01*
X659869Y179032D01*
X660761Y178161D01*
X661632Y177269D01*
X662480Y176355D01*
X663306Y175421D01*
X664109Y174467D01*
X664888Y173494D01*
X665643Y172502D01*
X666373Y171491D01*
X667079Y170463D01*
X667759Y169418D01*
X668413Y168356D01*
X669040Y167279D01*
X669642Y166187D01*
X670216Y165080D01*
X670763Y163960D01*
X671282Y162826D01*
X671773Y161680D01*
X672236Y160523D01*
X672670Y159354D01*
X673076Y158175D01*
X673453Y156986D01*
X673800Y155789D01*
X674118Y154583D01*
X674406Y153370D01*
X674664Y152151D01*
X674892Y150925D01*
X675090Y149694D01*
X675258Y148458D01*
X675395Y147219D01*
X675502Y145977D01*
X675579Y144733D01*
X675625Y143487D01*
X675640Y142240D01*
X675625Y140993D01*
X675579Y139747D01*
X675502Y138503D01*
X675395Y137261D01*
X675258Y136022D01*
X675090Y134786D01*
X674892Y133555D01*
X674664Y132329D01*
X674406Y131110D01*
X674118Y129897D01*
X673800Y128691D01*
X673453Y127494D01*
X673076Y126305D01*
X672670Y125126D01*
X672236Y123957D01*
X671773Y122800D01*
X671282Y121654D01*
X670763Y120520D01*
X670216Y119400D01*
X669642Y118293D01*
X669040Y117201D01*
X668413Y116124D01*
X667759Y115062D01*
X667079Y114017D01*
X666373Y112989D01*
X665643Y111978D01*
X664888Y110986D01*
X664109Y110013D01*
X663306Y109059D01*
X662480Y108125D01*
X661632Y107211D01*
X660761Y106319D01*
X659869Y105448D01*
X658955Y104600D01*
X658021Y103774D01*
X657067Y102971D01*
X656094Y102192D01*
X655102Y101437D01*
X654091Y100707D01*
X653063Y100001D01*
X652018Y99321D01*
X650956Y98667D01*
X649879Y98040D01*
X648787Y97438D01*
X647680Y96864D01*
X646560Y96317D01*
X645426Y95798D01*
X644280Y95307D01*
X643123Y94844D01*
X641954Y94410D01*
X640775Y94004D01*
X639586Y93627D01*
X638389Y93280D01*
X637183Y92962D01*
X635970Y92674D01*
X634751Y92416D01*
X633525Y92188D01*
X632294Y91990D01*
X631058Y91822D01*
X629819Y91685D01*
X628577Y91578D01*
X627333Y91501D01*
X626087Y91455D01*
X624840Y91440D01*
X623593Y91455D01*
X622347Y91501D01*
X621103Y91578D01*
X619861Y91685D01*
X618622Y91822D01*
X617386Y91990D01*
X616155Y92188D01*
X614929Y92416D01*
X613710Y92674D01*
X612497Y92962D01*
X611291Y93280D01*
X610094Y93627D01*
X608905Y94004D01*
X607726Y94410D01*
X606557Y94844D01*
X605400Y95307D01*
X604254Y95798D01*
X603120Y96317D01*
X602000Y96864D01*
X600893Y97438D01*
X599801Y98040D01*
X598724Y98667D01*
X597662Y99321D01*
X596617Y100001D01*
X595589Y100707D01*
X594578Y101437D01*
X593586Y102192D01*
X592613Y102971D01*
X591659Y103774D01*
X590725Y104600D01*
X589811Y105448D01*
X588919Y106319D01*
X588048Y107211D01*
X587200Y108125D01*
X586374Y109059D01*
X585571Y110013D01*
X584792Y110986D01*
X584037Y111978D01*
X583307Y112989D01*
X582601Y114017D01*
X581921Y115062D01*
X581267Y116124D01*
X580640Y117201D01*
X580038Y118293D01*
X579464Y119400D01*
X578917Y120520D01*
X578398Y121654D01*
X577907Y122800D01*
X577444Y123957D01*
X577010Y125126D01*
X576604Y126305D01*
X576227Y127494D01*
X575880Y128691D01*
X575562Y129897D01*
X575274Y131110D01*
X575016Y132329D01*
X574788Y133555D01*
X574590Y134786D01*
X574422Y136022D01*
X574285Y137261D01*
X574178Y138503D01*
X574101Y139747D01*
X574055Y140993D01*
X574040Y142240D01*
X637540Y91440D02*
X637540Y78740D01*
X612140Y78740D01*
X612140Y91440D01*
D12*
X624521Y119573D02*
X624521Y121210D01*
X624521Y119573D02*
X624523Y119495D01*
X624528Y119417D01*
X624538Y119340D01*
X624551Y119263D01*
X624567Y119187D01*
X624587Y119112D01*
X624611Y119038D01*
X624638Y118965D01*
X624669Y118893D01*
X624703Y118823D01*
X624740Y118755D01*
X624781Y118688D01*
X624825Y118623D01*
X624871Y118561D01*
X624921Y118501D01*
X624973Y118443D01*
X625028Y118388D01*
X625086Y118336D01*
X625146Y118286D01*
X625208Y118240D01*
X625273Y118196D01*
X625340Y118155D01*
X625408Y118118D01*
X625478Y118084D01*
X625550Y118053D01*
X625623Y118026D01*
X625697Y118002D01*
X625772Y117982D01*
X625848Y117966D01*
X625925Y117953D01*
X626002Y117943D01*
X626080Y117938D01*
X626158Y117936D01*
X630250Y117936D01*
X630328Y117938D01*
X630406Y117943D01*
X630483Y117953D01*
X630560Y117966D01*
X630636Y117982D01*
X630711Y118002D01*
X630785Y118026D01*
X630858Y118053D01*
X630930Y118084D01*
X631000Y118118D01*
X631069Y118155D01*
X631135Y118196D01*
X631200Y118240D01*
X631262Y118286D01*
X631322Y118336D01*
X631380Y118388D01*
X631435Y118443D01*
X631487Y118501D01*
X631537Y118561D01*
X631583Y118623D01*
X631627Y118688D01*
X631668Y118755D01*
X631705Y118823D01*
X631739Y118893D01*
X631770Y118965D01*
X631797Y119038D01*
X631821Y119112D01*
X631841Y119187D01*
X631857Y119263D01*
X631870Y119340D01*
X631880Y119417D01*
X631885Y119495D01*
X631887Y119573D01*
X631887Y121210D01*
X630250Y124055D02*
X631887Y126101D01*
X624521Y126101D01*
X624521Y124055D02*
X624521Y128147D01*
X628613Y131370D02*
X628613Y133826D01*
X628611Y133904D01*
X628606Y133982D01*
X628596Y134059D01*
X628583Y134136D01*
X628567Y134212D01*
X628547Y134287D01*
X628523Y134361D01*
X628496Y134434D01*
X628465Y134506D01*
X628431Y134576D01*
X628394Y134645D01*
X628353Y134711D01*
X628309Y134776D01*
X628263Y134838D01*
X628213Y134898D01*
X628161Y134956D01*
X628106Y135011D01*
X628048Y135063D01*
X627988Y135113D01*
X627926Y135159D01*
X627861Y135203D01*
X627795Y135244D01*
X627726Y135281D01*
X627656Y135315D01*
X627584Y135346D01*
X627511Y135373D01*
X627437Y135397D01*
X627362Y135417D01*
X627286Y135433D01*
X627209Y135446D01*
X627132Y135456D01*
X627054Y135461D01*
X626976Y135463D01*
X626567Y135463D01*
X626567Y135462D02*
X626478Y135460D01*
X626389Y135454D01*
X626300Y135444D01*
X626212Y135431D01*
X626124Y135414D01*
X626037Y135392D01*
X625952Y135367D01*
X625867Y135339D01*
X625784Y135306D01*
X625702Y135270D01*
X625622Y135231D01*
X625544Y135188D01*
X625468Y135142D01*
X625393Y135092D01*
X625321Y135039D01*
X625252Y134983D01*
X625185Y134924D01*
X625120Y134863D01*
X625059Y134798D01*
X625000Y134731D01*
X624944Y134662D01*
X624891Y134590D01*
X624841Y134515D01*
X624795Y134439D01*
X624752Y134361D01*
X624713Y134281D01*
X624677Y134199D01*
X624644Y134116D01*
X624616Y134031D01*
X624591Y133946D01*
X624569Y133859D01*
X624552Y133771D01*
X624539Y133683D01*
X624529Y133594D01*
X624523Y133505D01*
X624521Y133416D01*
X624523Y133327D01*
X624529Y133238D01*
X624539Y133149D01*
X624552Y133061D01*
X624569Y132973D01*
X624591Y132886D01*
X624616Y132801D01*
X624644Y132716D01*
X624677Y132633D01*
X624713Y132551D01*
X624752Y132471D01*
X624795Y132393D01*
X624841Y132317D01*
X624891Y132242D01*
X624944Y132170D01*
X625000Y132101D01*
X625059Y132034D01*
X625120Y131969D01*
X625185Y131908D01*
X625252Y131849D01*
X625321Y131793D01*
X625393Y131740D01*
X625468Y131690D01*
X625544Y131644D01*
X625622Y131601D01*
X625702Y131562D01*
X625784Y131526D01*
X625867Y131493D01*
X625952Y131465D01*
X626037Y131440D01*
X626124Y131418D01*
X626212Y131401D01*
X626300Y131388D01*
X626389Y131378D01*
X626478Y131372D01*
X626567Y131370D01*
X628613Y131370D01*
X628727Y131372D01*
X628841Y131378D01*
X628955Y131388D01*
X629069Y131402D01*
X629182Y131420D01*
X629294Y131442D01*
X629405Y131467D01*
X629515Y131497D01*
X629625Y131530D01*
X629733Y131567D01*
X629839Y131608D01*
X629945Y131653D01*
X630048Y131701D01*
X630150Y131753D01*
X630250Y131809D01*
X630348Y131867D01*
X630444Y131930D01*
X630537Y131995D01*
X630629Y132064D01*
X630717Y132136D01*
X630804Y132211D01*
X630887Y132289D01*
X630968Y132370D01*
X631046Y132453D01*
X631121Y132540D01*
X631193Y132628D01*
X631262Y132720D01*
X631327Y132813D01*
X631389Y132909D01*
X631448Y133007D01*
X631504Y133107D01*
X631556Y133209D01*
X631604Y133312D01*
X631649Y133418D01*
X631690Y133524D01*
X631727Y133632D01*
X631760Y133742D01*
X631790Y133852D01*
X631815Y133963D01*
X631837Y134075D01*
X631855Y134188D01*
X631869Y134302D01*
X631879Y134416D01*
X631885Y134530D01*
X631887Y134644D01*
D15*
X0Y78740D02*
X77Y76969D01*
X309Y75211D01*
X692Y73481D01*
X1225Y71790D01*
X1904Y70152D01*
X2722Y68580D01*
X3675Y67085D01*
X4754Y65679D01*
X5952Y64372D01*
X7259Y63174D01*
X8665Y62095D01*
X10160Y61142D01*
X11732Y60324D01*
X13370Y59645D01*
X15061Y59112D01*
X16791Y58729D01*
X18549Y58497D01*
X20320Y58420D01*
X27940Y58420D01*
X30597Y58304D01*
X33233Y57957D01*
X35829Y57381D01*
X38365Y56582D01*
X40821Y55564D01*
X43180Y54336D01*
X45423Y52908D01*
X47532Y51289D01*
X49493Y49493D01*
X51289Y47532D01*
X52908Y45423D01*
X54336Y43180D01*
X55564Y40821D01*
X56582Y38365D01*
X57381Y35829D01*
X57957Y33233D01*
X58304Y30597D01*
X58420Y27940D01*
X58420Y20320D01*
X58497Y18549D01*
X58729Y16791D01*
X59112Y15061D01*
X59645Y13370D01*
X60324Y11732D01*
X61142Y10160D01*
X62095Y8665D01*
X63174Y7259D01*
X64372Y5952D01*
X65679Y4754D01*
X67085Y3675D01*
X68580Y2722D01*
X70152Y1904D01*
X71790Y1225D01*
X73481Y692D01*
X75211Y309D01*
X76969Y77D01*
X78740Y0D01*
X599440Y0D01*
X601211Y77D01*
X602969Y309D01*
X604699Y692D01*
X606390Y1225D01*
X608028Y1904D01*
X609600Y2722D01*
X611095Y3675D01*
X612501Y4754D01*
X613808Y5952D01*
X615006Y7259D01*
X616085Y8665D01*
X617038Y10160D01*
X617856Y11732D01*
X618535Y13370D01*
X619068Y15061D01*
X619451Y16791D01*
X619683Y18549D01*
X619760Y20320D01*
X619760Y27940D01*
X619876Y30597D01*
X620223Y33233D01*
X620799Y35829D01*
X621598Y38365D01*
X622616Y40821D01*
X623844Y43180D01*
X625272Y45423D01*
X626891Y47532D01*
X628687Y49493D01*
X630648Y51289D01*
X632757Y52908D01*
X635000Y54336D01*
X637359Y55564D01*
X639815Y56582D01*
X642351Y57381D01*
X644947Y57957D01*
X647584Y58304D01*
X650240Y58420D01*
X657860Y58420D01*
X659631Y58497D01*
X661389Y58729D01*
X663119Y59112D01*
X664810Y59645D01*
X666448Y60324D01*
X668020Y61142D01*
X669515Y62095D01*
X670921Y63174D01*
X672228Y64372D01*
X673426Y65679D01*
X674505Y67085D01*
X675458Y68580D01*
X676276Y70152D01*
X676955Y71790D01*
X677488Y73481D01*
X677871Y75211D01*
X678103Y76969D01*
X678180Y78740D01*
X678180Y538480D01*
X678103Y540251D01*
X677871Y542009D01*
X677488Y543739D01*
X676955Y545430D01*
X676276Y547068D01*
X675458Y548640D01*
X674505Y550135D01*
X673426Y551541D01*
X672228Y552848D01*
X670921Y554046D01*
X669515Y555125D01*
X668020Y556078D01*
X666448Y556896D01*
X664810Y557575D01*
X663119Y558108D01*
X661389Y558491D01*
X659631Y558723D01*
X657860Y558800D01*
X650240Y558800D01*
X647584Y558916D01*
X644947Y559263D01*
X642351Y559839D01*
X639815Y560638D01*
X637359Y561656D01*
X635000Y562884D01*
X632757Y564312D01*
X630648Y565931D01*
X628687Y567727D01*
X626891Y569688D01*
X625272Y571797D01*
X623844Y574040D01*
X622616Y576399D01*
X621598Y578855D01*
X620799Y581391D01*
X620223Y583987D01*
X619876Y586624D01*
X619760Y589280D01*
X619760Y596900D01*
X619683Y598671D01*
X619451Y600429D01*
X619068Y602159D01*
X618535Y603850D01*
X617856Y605488D01*
X617038Y607060D01*
X616085Y608555D01*
X615006Y609961D01*
X613808Y611268D01*
X612501Y612466D01*
X611095Y613545D01*
X609600Y614498D01*
X608028Y615316D01*
X606390Y615995D01*
X604699Y616528D01*
X602969Y616911D01*
X601211Y617143D01*
X599440Y617220D01*
X78740Y617220D01*
X76969Y617143D01*
X75211Y616911D01*
X73481Y616528D01*
X71790Y615995D01*
X70152Y615316D01*
X68580Y614498D01*
X67085Y613545D01*
X65679Y612466D01*
X64372Y611268D01*
X63174Y609961D01*
X62095Y608555D01*
X61142Y607060D01*
X60324Y605488D01*
X59645Y603850D01*
X59112Y602159D01*
X58729Y600429D01*
X58497Y598671D01*
X58420Y596900D01*
X58420Y589280D01*
X58304Y586624D01*
X57957Y583987D01*
X57381Y581391D01*
X56582Y578855D01*
X55564Y576399D01*
X54336Y574040D01*
X52908Y571797D01*
X51289Y569688D01*
X49493Y567727D01*
X47532Y565931D01*
X45423Y564312D01*
X43180Y562884D01*
X40821Y561656D01*
X38365Y560638D01*
X35829Y559839D01*
X33233Y559263D01*
X30597Y558916D01*
X27940Y558800D01*
X20320Y558800D01*
X18549Y558723D01*
X16791Y558491D01*
X15061Y558108D01*
X13370Y557575D01*
X11732Y556896D01*
X10160Y556078D01*
X8665Y555125D01*
X7259Y554046D01*
X5952Y552848D01*
X4754Y551541D01*
X3675Y550135D01*
X2722Y548640D01*
X1904Y547068D01*
X1225Y545430D01*
X692Y543739D01*
X309Y542009D01*
X77Y540251D01*
X0Y538480D01*
X0Y78740D01*
X132080Y532818D02*
X132004Y531656D01*
X131852Y530502D01*
X131625Y529360D01*
X131324Y528236D01*
X130949Y527134D01*
X130504Y526058D01*
X129989Y525014D01*
X129407Y524006D01*
X128760Y523038D01*
X128052Y522114D01*
X127284Y521239D01*
X126461Y520416D01*
X125586Y519649D01*
X124662Y518940D01*
X123694Y518293D01*
X122686Y517711D01*
X121642Y517196D01*
X120566Y516751D01*
X119464Y516377D01*
X118340Y516075D01*
X117198Y515848D01*
X116044Y515696D01*
X114882Y515620D01*
X113718Y515620D01*
X112556Y515696D01*
X111402Y515848D01*
X110260Y516075D01*
X109136Y516377D01*
X108034Y516751D01*
X106958Y517196D01*
X105914Y517711D01*
X104906Y518293D01*
X103938Y518940D01*
X103014Y519649D01*
X102139Y520416D01*
X101316Y521239D01*
X100549Y522114D01*
X99840Y523038D01*
X99193Y524006D01*
X98611Y525014D01*
X98096Y526058D01*
X97651Y527134D01*
X97277Y528236D01*
X96975Y529360D01*
X96748Y530502D01*
X96596Y531656D01*
X96520Y532818D01*
X96520Y533982D01*
X96596Y535144D01*
X96748Y536298D01*
X96975Y537440D01*
X97277Y538564D01*
X97651Y539666D01*
X98096Y540742D01*
X98611Y541786D01*
X99193Y542794D01*
X99840Y543762D01*
X100549Y544686D01*
X101316Y545561D01*
X102139Y546384D01*
X103014Y547152D01*
X103938Y547860D01*
X104906Y548507D01*
X105914Y549089D01*
X106958Y549604D01*
X108034Y550049D01*
X109136Y550424D01*
X110260Y550725D01*
X111402Y550952D01*
X112556Y551104D01*
X113718Y551180D01*
X114882Y551180D01*
X116044Y551104D01*
X117198Y550952D01*
X118340Y550725D01*
X119464Y550424D01*
X120566Y550049D01*
X121642Y549604D01*
X122686Y549089D01*
X123694Y548507D01*
X124662Y547860D01*
X125586Y547152D01*
X126461Y546384D01*
X127284Y545561D01*
X128052Y544686D01*
X128760Y543762D01*
X129407Y542794D01*
X129989Y541786D01*
X130504Y540742D01*
X130949Y539666D01*
X131324Y538564D01*
X131625Y537440D01*
X131852Y536298D01*
X132004Y535144D01*
X132080Y533982D01*
X132080Y532818D01*
X581660Y532818D02*
X581584Y531656D01*
X581432Y530502D01*
X581205Y529360D01*
X580904Y528236D01*
X580529Y527134D01*
X580084Y526058D01*
X579569Y525014D01*
X578987Y524006D01*
X578340Y523038D01*
X577632Y522114D01*
X576864Y521239D01*
X576041Y520416D01*
X575166Y519649D01*
X574242Y518940D01*
X573274Y518293D01*
X572266Y517711D01*
X571222Y517196D01*
X570146Y516751D01*
X569044Y516377D01*
X567920Y516075D01*
X566778Y515848D01*
X565624Y515696D01*
X564462Y515620D01*
X563298Y515620D01*
X562136Y515696D01*
X560982Y515848D01*
X559840Y516075D01*
X558716Y516377D01*
X557614Y516751D01*
X556538Y517196D01*
X555494Y517711D01*
X554486Y518293D01*
X553518Y518940D01*
X552594Y519649D01*
X551719Y520416D01*
X550896Y521239D01*
X550129Y522114D01*
X549420Y523038D01*
X548773Y524006D01*
X548191Y525014D01*
X547676Y526058D01*
X547231Y527134D01*
X546857Y528236D01*
X546555Y529360D01*
X546328Y530502D01*
X546176Y531656D01*
X546100Y532818D01*
X546100Y533982D01*
X546176Y535144D01*
X546328Y536298D01*
X546555Y537440D01*
X546857Y538564D01*
X547231Y539666D01*
X547676Y540742D01*
X548191Y541786D01*
X548773Y542794D01*
X549420Y543762D01*
X550129Y544686D01*
X550896Y545561D01*
X551719Y546384D01*
X552594Y547152D01*
X553518Y547860D01*
X554486Y548507D01*
X555494Y549089D01*
X556538Y549604D01*
X557614Y550049D01*
X558716Y550424D01*
X559840Y550725D01*
X560982Y550952D01*
X562136Y551104D01*
X563298Y551180D01*
X564462Y551180D01*
X565624Y551104D01*
X566778Y550952D01*
X567920Y550725D01*
X569044Y550424D01*
X570146Y550049D01*
X571222Y549604D01*
X572266Y549089D01*
X573274Y548507D01*
X574242Y547860D01*
X575166Y547152D01*
X576041Y546384D01*
X576864Y545561D01*
X577632Y544686D01*
X578340Y543762D01*
X578987Y542794D01*
X579569Y541786D01*
X580084Y540742D01*
X580529Y539666D01*
X580904Y538564D01*
X581205Y537440D01*
X581432Y536298D01*
X581584Y535144D01*
X581660Y533982D01*
X581660Y532818D01*
X581660Y83238D02*
X581584Y82076D01*
X581432Y80922D01*
X581205Y79780D01*
X580904Y78656D01*
X580529Y77554D01*
X580084Y76478D01*
X579569Y75434D01*
X578987Y74426D01*
X578340Y73458D01*
X577632Y72534D01*
X576864Y71659D01*
X576041Y70836D01*
X575166Y70069D01*
X574242Y69360D01*
X573274Y68713D01*
X572266Y68131D01*
X571222Y67616D01*
X570146Y67171D01*
X569044Y66797D01*
X567920Y66495D01*
X566778Y66268D01*
X565624Y66116D01*
X564462Y66040D01*
X563298Y66040D01*
X562136Y66116D01*
X560982Y66268D01*
X559840Y66495D01*
X558716Y66797D01*
X557614Y67171D01*
X556538Y67616D01*
X555494Y68131D01*
X554486Y68713D01*
X553518Y69360D01*
X552594Y70069D01*
X551719Y70836D01*
X550896Y71659D01*
X550129Y72534D01*
X549420Y73458D01*
X548773Y74426D01*
X548191Y75434D01*
X547676Y76478D01*
X547231Y77554D01*
X546857Y78656D01*
X546555Y79780D01*
X546328Y80922D01*
X546176Y82076D01*
X546100Y83238D01*
X546100Y84402D01*
X546176Y85564D01*
X546328Y86718D01*
X546555Y87860D01*
X546857Y88984D01*
X547231Y90086D01*
X547676Y91162D01*
X548191Y92206D01*
X548773Y93214D01*
X549420Y94182D01*
X550129Y95106D01*
X550896Y95981D01*
X551719Y96804D01*
X552594Y97572D01*
X553518Y98280D01*
X554486Y98927D01*
X555494Y99509D01*
X556538Y100024D01*
X557614Y100469D01*
X558716Y100844D01*
X559840Y101145D01*
X560982Y101372D01*
X562136Y101524D01*
X563298Y101600D01*
X564462Y101600D01*
X565624Y101524D01*
X566778Y101372D01*
X567920Y101145D01*
X569044Y100844D01*
X570146Y100469D01*
X571222Y100024D01*
X572266Y99509D01*
X573274Y98927D01*
X574242Y98280D01*
X575166Y97572D01*
X576041Y96804D01*
X576864Y95981D01*
X577632Y95106D01*
X578340Y94182D01*
X578987Y93214D01*
X579569Y92206D01*
X580084Y91162D01*
X580529Y90086D01*
X580904Y88984D01*
X581205Y87860D01*
X581432Y86718D01*
X581584Y85564D01*
X581660Y84402D01*
X581660Y83238D01*
X132080Y83238D02*
X132004Y82076D01*
X131852Y80922D01*
X131625Y79780D01*
X131324Y78656D01*
X130949Y77554D01*
X130504Y76478D01*
X129989Y75434D01*
X129407Y74426D01*
X128760Y73458D01*
X128052Y72534D01*
X127284Y71659D01*
X126461Y70836D01*
X125586Y70069D01*
X124662Y69360D01*
X123694Y68713D01*
X122686Y68131D01*
X121642Y67616D01*
X120566Y67171D01*
X119464Y66797D01*
X118340Y66495D01*
X117198Y66268D01*
X116044Y66116D01*
X114882Y66040D01*
X113718Y66040D01*
X112556Y66116D01*
X111402Y66268D01*
X110260Y66495D01*
X109136Y66797D01*
X108034Y67171D01*
X106958Y67616D01*
X105914Y68131D01*
X104906Y68713D01*
X103938Y69360D01*
X103014Y70069D01*
X102139Y70836D01*
X101316Y71659D01*
X100549Y72534D01*
X99840Y73458D01*
X99193Y74426D01*
X98611Y75434D01*
X98096Y76478D01*
X97651Y77554D01*
X97277Y78656D01*
X96975Y79780D01*
X96748Y80922D01*
X96596Y82076D01*
X96520Y83238D01*
X96520Y84402D01*
X96596Y85564D01*
X96748Y86718D01*
X96975Y87860D01*
X97277Y88984D01*
X97651Y90086D01*
X98096Y91162D01*
X98611Y92206D01*
X99193Y93214D01*
X99840Y94182D01*
X100549Y95106D01*
X101316Y95981D01*
X102139Y96804D01*
X103014Y97572D01*
X103938Y98280D01*
X104906Y98927D01*
X105914Y99509D01*
X106958Y100024D01*
X108034Y100469D01*
X109136Y100844D01*
X110260Y101145D01*
X111402Y101372D01*
X112556Y101524D01*
X113718Y101600D01*
X114882Y101600D01*
X116044Y101524D01*
X117198Y101372D01*
X118340Y101145D01*
X119464Y100844D01*
X120566Y100469D01*
X121642Y100024D01*
X122686Y99509D01*
X123694Y98927D01*
X124662Y98280D01*
X125586Y97572D01*
X126461Y96804D01*
X127284Y95981D01*
X128052Y95106D01*
X128760Y94182D01*
X129407Y93214D01*
X129989Y92206D01*
X130504Y91162D01*
X130949Y90086D01*
X131324Y88984D01*
X131625Y87860D01*
X131852Y86718D01*
X132004Y85564D01*
X132080Y84402D01*
X132080Y83238D01*
M02*
