G04 EAGLE Gerber RS-274X export*
G75*
%MOMM*%
%FSLAX34Y34*%
%LPD*%
%INSoldermask Bottom*%
%IPPOS*%
%AMOC8*
5,1,8,0,0,1.08239X$1,22.5*%
G01*
%ADD10C,3.759200*%
%ADD11C,2.603200*%
%ADD12C,1.853200*%
%ADD13C,1.161200*%
%ADD14C,2.453200*%
%ADD15R,0.965200X1.473200*%
%ADD16C,2.387600*%
%ADD17R,1.219200X1.473200*%
%ADD18C,1.309600*%
%ADD19C,0.254000*%


D10*
X114300Y533400D03*
X563880Y533400D03*
X563880Y83820D03*
X114300Y83820D03*
D11*
X339090Y576580D03*
X364490Y601980D03*
X364490Y551180D03*
X313690Y551180D03*
X313690Y601980D03*
D12*
X113030Y600710D03*
X87630Y575310D03*
X87630Y600710D03*
X138430Y575310D03*
X138430Y600710D03*
X113030Y575310D03*
D13*
X193040Y527050D03*
X180040Y527050D03*
X186540Y537050D03*
X199540Y537050D03*
X206040Y527050D03*
D14*
X157290Y529250D03*
X228790Y529250D03*
D15*
X400600Y605790D03*
X400600Y544830D03*
X437600Y605790D03*
X437600Y544830D03*
D16*
X596900Y349250D03*
X81280Y349250D03*
D17*
X284480Y576580D03*
X266700Y576580D03*
D12*
X453390Y107950D03*
X453390Y133350D03*
X15240Y232410D03*
X15240Y410210D03*
X402590Y107950D03*
X377190Y107950D03*
X351790Y107950D03*
X326390Y107950D03*
X300990Y107950D03*
X275590Y107950D03*
X163830Y575310D03*
X240030Y600710D03*
X214630Y600710D03*
X240030Y575310D03*
X214630Y575310D03*
X189230Y575310D03*
X189230Y600710D03*
X163830Y600710D03*
X624840Y116840D03*
X624840Y167640D03*
D18*
X492760Y36830D03*
X300990Y53340D03*
X276860Y359410D03*
X318770Y304800D03*
X134620Y416560D03*
X59690Y382270D03*
X473710Y267970D03*
X516890Y267970D03*
X279400Y491490D03*
X495300Y491490D03*
X467360Y341630D03*
X495300Y341630D03*
D19*
X0Y78740D02*
X77Y76969D01*
X309Y75211D01*
X692Y73481D01*
X1225Y71790D01*
X1904Y70152D01*
X2722Y68580D01*
X3675Y67085D01*
X4754Y65679D01*
X5952Y64372D01*
X7259Y63174D01*
X8665Y62095D01*
X10160Y61142D01*
X11732Y60324D01*
X13370Y59645D01*
X15061Y59112D01*
X16791Y58729D01*
X18549Y58497D01*
X20320Y58420D01*
X27940Y58420D01*
X30597Y58304D01*
X33233Y57957D01*
X35829Y57381D01*
X38365Y56582D01*
X40821Y55564D01*
X43180Y54336D01*
X45423Y52908D01*
X47532Y51289D01*
X49493Y49493D01*
X51289Y47532D01*
X52908Y45423D01*
X54336Y43180D01*
X55564Y40821D01*
X56582Y38365D01*
X57381Y35829D01*
X57957Y33233D01*
X58304Y30597D01*
X58420Y27940D01*
X58420Y20320D01*
X58497Y18549D01*
X58729Y16791D01*
X59112Y15061D01*
X59645Y13370D01*
X60324Y11732D01*
X61142Y10160D01*
X62095Y8665D01*
X63174Y7259D01*
X64372Y5952D01*
X65679Y4754D01*
X67085Y3675D01*
X68580Y2722D01*
X70152Y1904D01*
X71790Y1225D01*
X73481Y692D01*
X75211Y309D01*
X76969Y77D01*
X78740Y0D01*
X599440Y0D01*
X601211Y77D01*
X602969Y309D01*
X604699Y692D01*
X606390Y1225D01*
X608028Y1904D01*
X609600Y2722D01*
X611095Y3675D01*
X612501Y4754D01*
X613808Y5952D01*
X615006Y7259D01*
X616085Y8665D01*
X617038Y10160D01*
X617856Y11732D01*
X618535Y13370D01*
X619068Y15061D01*
X619451Y16791D01*
X619683Y18549D01*
X619760Y20320D01*
X619760Y27940D01*
X619876Y30597D01*
X620223Y33233D01*
X620799Y35829D01*
X621598Y38365D01*
X622616Y40821D01*
X623844Y43180D01*
X625272Y45423D01*
X626891Y47532D01*
X628687Y49493D01*
X630648Y51289D01*
X632757Y52908D01*
X635000Y54336D01*
X637359Y55564D01*
X639815Y56582D01*
X642351Y57381D01*
X644947Y57957D01*
X647584Y58304D01*
X650240Y58420D01*
X657860Y58420D01*
X659631Y58497D01*
X661389Y58729D01*
X663119Y59112D01*
X664810Y59645D01*
X666448Y60324D01*
X668020Y61142D01*
X669515Y62095D01*
X670921Y63174D01*
X672228Y64372D01*
X673426Y65679D01*
X674505Y67085D01*
X675458Y68580D01*
X676276Y70152D01*
X676955Y71790D01*
X677488Y73481D01*
X677871Y75211D01*
X678103Y76969D01*
X678180Y78740D01*
X678180Y538480D01*
X678103Y540251D01*
X677871Y542009D01*
X677488Y543739D01*
X676955Y545430D01*
X676276Y547068D01*
X675458Y548640D01*
X674505Y550135D01*
X673426Y551541D01*
X672228Y552848D01*
X670921Y554046D01*
X669515Y555125D01*
X668020Y556078D01*
X666448Y556896D01*
X664810Y557575D01*
X663119Y558108D01*
X661389Y558491D01*
X659631Y558723D01*
X657860Y558800D01*
X650240Y558800D01*
X647584Y558916D01*
X644947Y559263D01*
X642351Y559839D01*
X639815Y560638D01*
X637359Y561656D01*
X635000Y562884D01*
X632757Y564312D01*
X630648Y565931D01*
X628687Y567727D01*
X626891Y569688D01*
X625272Y571797D01*
X623844Y574040D01*
X622616Y576399D01*
X621598Y578855D01*
X620799Y581391D01*
X620223Y583987D01*
X619876Y586624D01*
X619760Y589280D01*
X619760Y596900D01*
X619683Y598671D01*
X619451Y600429D01*
X619068Y602159D01*
X618535Y603850D01*
X617856Y605488D01*
X617038Y607060D01*
X616085Y608555D01*
X615006Y609961D01*
X613808Y611268D01*
X612501Y612466D01*
X611095Y613545D01*
X609600Y614498D01*
X608028Y615316D01*
X606390Y615995D01*
X604699Y616528D01*
X602969Y616911D01*
X601211Y617143D01*
X599440Y617220D01*
X78740Y617220D01*
X76969Y617143D01*
X75211Y616911D01*
X73481Y616528D01*
X71790Y615995D01*
X70152Y615316D01*
X68580Y614498D01*
X67085Y613545D01*
X65679Y612466D01*
X64372Y611268D01*
X63174Y609961D01*
X62095Y608555D01*
X61142Y607060D01*
X60324Y605488D01*
X59645Y603850D01*
X59112Y602159D01*
X58729Y600429D01*
X58497Y598671D01*
X58420Y596900D01*
X58420Y589280D01*
X58304Y586624D01*
X57957Y583987D01*
X57381Y581391D01*
X56582Y578855D01*
X55564Y576399D01*
X54336Y574040D01*
X52908Y571797D01*
X51289Y569688D01*
X49493Y567727D01*
X47532Y565931D01*
X45423Y564312D01*
X43180Y562884D01*
X40821Y561656D01*
X38365Y560638D01*
X35829Y559839D01*
X33233Y559263D01*
X30597Y558916D01*
X27940Y558800D01*
X20320Y558800D01*
X18549Y558723D01*
X16791Y558491D01*
X15061Y558108D01*
X13370Y557575D01*
X11732Y556896D01*
X10160Y556078D01*
X8665Y555125D01*
X7259Y554046D01*
X5952Y552848D01*
X4754Y551541D01*
X3675Y550135D01*
X2722Y548640D01*
X1904Y547068D01*
X1225Y545430D01*
X692Y543739D01*
X309Y542009D01*
X77Y540251D01*
X0Y538480D01*
X0Y78740D01*
X132080Y532818D02*
X132004Y531656D01*
X131852Y530502D01*
X131625Y529360D01*
X131324Y528236D01*
X130949Y527134D01*
X130504Y526058D01*
X129989Y525014D01*
X129407Y524006D01*
X128760Y523038D01*
X128052Y522114D01*
X127284Y521239D01*
X126461Y520416D01*
X125586Y519649D01*
X124662Y518940D01*
X123694Y518293D01*
X122686Y517711D01*
X121642Y517196D01*
X120566Y516751D01*
X119464Y516377D01*
X118340Y516075D01*
X117198Y515848D01*
X116044Y515696D01*
X114882Y515620D01*
X113718Y515620D01*
X112556Y515696D01*
X111402Y515848D01*
X110260Y516075D01*
X109136Y516377D01*
X108034Y516751D01*
X106958Y517196D01*
X105914Y517711D01*
X104906Y518293D01*
X103938Y518940D01*
X103014Y519649D01*
X102139Y520416D01*
X101316Y521239D01*
X100549Y522114D01*
X99840Y523038D01*
X99193Y524006D01*
X98611Y525014D01*
X98096Y526058D01*
X97651Y527134D01*
X97277Y528236D01*
X96975Y529360D01*
X96748Y530502D01*
X96596Y531656D01*
X96520Y532818D01*
X96520Y533982D01*
X96596Y535144D01*
X96748Y536298D01*
X96975Y537440D01*
X97277Y538564D01*
X97651Y539666D01*
X98096Y540742D01*
X98611Y541786D01*
X99193Y542794D01*
X99840Y543762D01*
X100549Y544686D01*
X101316Y545561D01*
X102139Y546384D01*
X103014Y547152D01*
X103938Y547860D01*
X104906Y548507D01*
X105914Y549089D01*
X106958Y549604D01*
X108034Y550049D01*
X109136Y550424D01*
X110260Y550725D01*
X111402Y550952D01*
X112556Y551104D01*
X113718Y551180D01*
X114882Y551180D01*
X116044Y551104D01*
X117198Y550952D01*
X118340Y550725D01*
X119464Y550424D01*
X120566Y550049D01*
X121642Y549604D01*
X122686Y549089D01*
X123694Y548507D01*
X124662Y547860D01*
X125586Y547152D01*
X126461Y546384D01*
X127284Y545561D01*
X128052Y544686D01*
X128760Y543762D01*
X129407Y542794D01*
X129989Y541786D01*
X130504Y540742D01*
X130949Y539666D01*
X131324Y538564D01*
X131625Y537440D01*
X131852Y536298D01*
X132004Y535144D01*
X132080Y533982D01*
X132080Y532818D01*
X581660Y532818D02*
X581584Y531656D01*
X581432Y530502D01*
X581205Y529360D01*
X580904Y528236D01*
X580529Y527134D01*
X580084Y526058D01*
X579569Y525014D01*
X578987Y524006D01*
X578340Y523038D01*
X577632Y522114D01*
X576864Y521239D01*
X576041Y520416D01*
X575166Y519649D01*
X574242Y518940D01*
X573274Y518293D01*
X572266Y517711D01*
X571222Y517196D01*
X570146Y516751D01*
X569044Y516377D01*
X567920Y516075D01*
X566778Y515848D01*
X565624Y515696D01*
X564462Y515620D01*
X563298Y515620D01*
X562136Y515696D01*
X560982Y515848D01*
X559840Y516075D01*
X558716Y516377D01*
X557614Y516751D01*
X556538Y517196D01*
X555494Y517711D01*
X554486Y518293D01*
X553518Y518940D01*
X552594Y519649D01*
X551719Y520416D01*
X550896Y521239D01*
X550129Y522114D01*
X549420Y523038D01*
X548773Y524006D01*
X548191Y525014D01*
X547676Y526058D01*
X547231Y527134D01*
X546857Y528236D01*
X546555Y529360D01*
X546328Y530502D01*
X546176Y531656D01*
X546100Y532818D01*
X546100Y533982D01*
X546176Y535144D01*
X546328Y536298D01*
X546555Y537440D01*
X546857Y538564D01*
X547231Y539666D01*
X547676Y540742D01*
X548191Y541786D01*
X548773Y542794D01*
X549420Y543762D01*
X550129Y544686D01*
X550896Y545561D01*
X551719Y546384D01*
X552594Y547152D01*
X553518Y547860D01*
X554486Y548507D01*
X555494Y549089D01*
X556538Y549604D01*
X557614Y550049D01*
X558716Y550424D01*
X559840Y550725D01*
X560982Y550952D01*
X562136Y551104D01*
X563298Y551180D01*
X564462Y551180D01*
X565624Y551104D01*
X566778Y550952D01*
X567920Y550725D01*
X569044Y550424D01*
X570146Y550049D01*
X571222Y549604D01*
X572266Y549089D01*
X573274Y548507D01*
X574242Y547860D01*
X575166Y547152D01*
X576041Y546384D01*
X576864Y545561D01*
X577632Y544686D01*
X578340Y543762D01*
X578987Y542794D01*
X579569Y541786D01*
X580084Y540742D01*
X580529Y539666D01*
X580904Y538564D01*
X581205Y537440D01*
X581432Y536298D01*
X581584Y535144D01*
X581660Y533982D01*
X581660Y532818D01*
X581660Y83238D02*
X581584Y82076D01*
X581432Y80922D01*
X581205Y79780D01*
X580904Y78656D01*
X580529Y77554D01*
X580084Y76478D01*
X579569Y75434D01*
X578987Y74426D01*
X578340Y73458D01*
X577632Y72534D01*
X576864Y71659D01*
X576041Y70836D01*
X575166Y70069D01*
X574242Y69360D01*
X573274Y68713D01*
X572266Y68131D01*
X571222Y67616D01*
X570146Y67171D01*
X569044Y66797D01*
X567920Y66495D01*
X566778Y66268D01*
X565624Y66116D01*
X564462Y66040D01*
X563298Y66040D01*
X562136Y66116D01*
X560982Y66268D01*
X559840Y66495D01*
X558716Y66797D01*
X557614Y67171D01*
X556538Y67616D01*
X555494Y68131D01*
X554486Y68713D01*
X553518Y69360D01*
X552594Y70069D01*
X551719Y70836D01*
X550896Y71659D01*
X550129Y72534D01*
X549420Y73458D01*
X548773Y74426D01*
X548191Y75434D01*
X547676Y76478D01*
X547231Y77554D01*
X546857Y78656D01*
X546555Y79780D01*
X546328Y80922D01*
X546176Y82076D01*
X546100Y83238D01*
X546100Y84402D01*
X546176Y85564D01*
X546328Y86718D01*
X546555Y87860D01*
X546857Y88984D01*
X547231Y90086D01*
X547676Y91162D01*
X548191Y92206D01*
X548773Y93214D01*
X549420Y94182D01*
X550129Y95106D01*
X550896Y95981D01*
X551719Y96804D01*
X552594Y97572D01*
X553518Y98280D01*
X554486Y98927D01*
X555494Y99509D01*
X556538Y100024D01*
X557614Y100469D01*
X558716Y100844D01*
X559840Y101145D01*
X560982Y101372D01*
X562136Y101524D01*
X563298Y101600D01*
X564462Y101600D01*
X565624Y101524D01*
X566778Y101372D01*
X567920Y101145D01*
X569044Y100844D01*
X570146Y100469D01*
X571222Y100024D01*
X572266Y99509D01*
X573274Y98927D01*
X574242Y98280D01*
X575166Y97572D01*
X576041Y96804D01*
X576864Y95981D01*
X577632Y95106D01*
X578340Y94182D01*
X578987Y93214D01*
X579569Y92206D01*
X580084Y91162D01*
X580529Y90086D01*
X580904Y88984D01*
X581205Y87860D01*
X581432Y86718D01*
X581584Y85564D01*
X581660Y84402D01*
X581660Y83238D01*
X132080Y83238D02*
X132004Y82076D01*
X131852Y80922D01*
X131625Y79780D01*
X131324Y78656D01*
X130949Y77554D01*
X130504Y76478D01*
X129989Y75434D01*
X129407Y74426D01*
X128760Y73458D01*
X128052Y72534D01*
X127284Y71659D01*
X126461Y70836D01*
X125586Y70069D01*
X124662Y69360D01*
X123694Y68713D01*
X122686Y68131D01*
X121642Y67616D01*
X120566Y67171D01*
X119464Y66797D01*
X118340Y66495D01*
X117198Y66268D01*
X116044Y66116D01*
X114882Y66040D01*
X113718Y66040D01*
X112556Y66116D01*
X111402Y66268D01*
X110260Y66495D01*
X109136Y66797D01*
X108034Y67171D01*
X106958Y67616D01*
X105914Y68131D01*
X104906Y68713D01*
X103938Y69360D01*
X103014Y70069D01*
X102139Y70836D01*
X101316Y71659D01*
X100549Y72534D01*
X99840Y73458D01*
X99193Y74426D01*
X98611Y75434D01*
X98096Y76478D01*
X97651Y77554D01*
X97277Y78656D01*
X96975Y79780D01*
X96748Y80922D01*
X96596Y82076D01*
X96520Y83238D01*
X96520Y84402D01*
X96596Y85564D01*
X96748Y86718D01*
X96975Y87860D01*
X97277Y88984D01*
X97651Y90086D01*
X98096Y91162D01*
X98611Y92206D01*
X99193Y93214D01*
X99840Y94182D01*
X100549Y95106D01*
X101316Y95981D01*
X102139Y96804D01*
X103014Y97572D01*
X103938Y98280D01*
X104906Y98927D01*
X105914Y99509D01*
X106958Y100024D01*
X108034Y100469D01*
X109136Y100844D01*
X110260Y101145D01*
X111402Y101372D01*
X112556Y101524D01*
X113718Y101600D01*
X114882Y101600D01*
X116044Y101524D01*
X117198Y101372D01*
X118340Y101145D01*
X119464Y100844D01*
X120566Y100469D01*
X121642Y100024D01*
X122686Y99509D01*
X123694Y98927D01*
X124662Y98280D01*
X125586Y97572D01*
X126461Y96804D01*
X127284Y95981D01*
X128052Y95106D01*
X128760Y94182D01*
X129407Y93214D01*
X129989Y92206D01*
X130504Y91162D01*
X130949Y90086D01*
X131324Y88984D01*
X131625Y87860D01*
X131852Y86718D01*
X132004Y85564D01*
X132080Y84402D01*
X132080Y83238D01*
M02*
