G04 EAGLE Gerber RS-274X export*
G75*
%MOMM*%
%FSLAX34Y34*%
%LPD*%
%INBottom Copper*%
%IPPOS*%
%AMOC8*
5,1,8,0,0,1.08239X$1,22.5*%
G01*
%ADD10C,1.650000*%
%ADD11C,0.806400*%
%ADD12C,0.304800*%
%ADD13C,0.254000*%

G36*
X153788Y16D02*
X153788Y16D01*
X153907Y23D01*
X153945Y36D01*
X153986Y41D01*
X154096Y84D01*
X154209Y121D01*
X154244Y143D01*
X154281Y158D01*
X154377Y228D01*
X154478Y291D01*
X154506Y321D01*
X154539Y344D01*
X154615Y436D01*
X154696Y523D01*
X154716Y558D01*
X154741Y589D01*
X154792Y697D01*
X154850Y801D01*
X154860Y841D01*
X154877Y877D01*
X154899Y994D01*
X154929Y1109D01*
X154933Y1170D01*
X154937Y1190D01*
X154935Y1210D01*
X154939Y1270D01*
X154939Y27940D01*
X154937Y27962D01*
X154934Y28051D01*
X154741Y30256D01*
X154735Y30286D01*
X154735Y30316D01*
X154703Y30474D01*
X154130Y32612D01*
X154119Y32640D01*
X154113Y32670D01*
X154054Y32820D01*
X153119Y34826D01*
X153103Y34852D01*
X153092Y34881D01*
X153008Y35018D01*
X151738Y36831D01*
X151718Y36854D01*
X151703Y36880D01*
X151596Y37001D01*
X150031Y38566D01*
X150007Y38585D01*
X149987Y38608D01*
X149861Y38708D01*
X148048Y39978D01*
X148021Y39992D01*
X147998Y40012D01*
X147856Y40089D01*
X145850Y41024D01*
X145821Y41034D01*
X145795Y41049D01*
X145642Y41100D01*
X143504Y41673D01*
X143474Y41677D01*
X143445Y41687D01*
X143286Y41711D01*
X141081Y41904D01*
X141059Y41904D01*
X140970Y41909D01*
X102925Y41909D01*
X100886Y42088D01*
X98962Y42603D01*
X97157Y43445D01*
X95526Y44587D01*
X94117Y45996D01*
X92975Y47627D01*
X92133Y49432D01*
X91618Y51356D01*
X91439Y53395D01*
X91439Y233609D01*
X91543Y234526D01*
X91824Y235330D01*
X91868Y235401D01*
X92277Y236051D01*
X92879Y236653D01*
X93600Y237106D01*
X94404Y237387D01*
X95377Y237497D01*
X97566Y237689D01*
X97596Y237695D01*
X97626Y237695D01*
X97784Y237727D01*
X99922Y238300D01*
X99950Y238311D01*
X99980Y238317D01*
X100130Y238376D01*
X102136Y239311D01*
X102162Y239327D01*
X102191Y239338D01*
X102328Y239422D01*
X104141Y240692D01*
X104164Y240712D01*
X104190Y240727D01*
X104311Y240834D01*
X105876Y242399D01*
X105895Y242423D01*
X105918Y242443D01*
X106018Y242569D01*
X107288Y244382D01*
X107302Y244409D01*
X107322Y244432D01*
X107399Y244574D01*
X108334Y246580D01*
X108344Y246609D01*
X108359Y246635D01*
X108410Y246788D01*
X108983Y248926D01*
X108987Y248956D01*
X108997Y248985D01*
X109021Y249144D01*
X109214Y251349D01*
X109214Y251371D01*
X109219Y251460D01*
X109219Y326390D01*
X109217Y326412D01*
X109214Y326501D01*
X109021Y328706D01*
X109015Y328736D01*
X109015Y328766D01*
X108983Y328924D01*
X108410Y331062D01*
X108399Y331090D01*
X108393Y331120D01*
X108334Y331270D01*
X107399Y333276D01*
X107383Y333302D01*
X107372Y333331D01*
X107288Y333468D01*
X106018Y335281D01*
X105998Y335304D01*
X105983Y335330D01*
X105876Y335451D01*
X104311Y337016D01*
X104287Y337035D01*
X104267Y337058D01*
X104141Y337158D01*
X102328Y338428D01*
X102301Y338442D01*
X102278Y338462D01*
X102136Y338539D01*
X100130Y339474D01*
X100101Y339484D01*
X100075Y339499D01*
X99922Y339550D01*
X97784Y340123D01*
X97754Y340127D01*
X97725Y340137D01*
X97566Y340161D01*
X95361Y340354D01*
X95339Y340354D01*
X95250Y340359D01*
X59690Y340359D01*
X59669Y340357D01*
X59579Y340354D01*
X57374Y340161D01*
X57344Y340155D01*
X57314Y340155D01*
X57156Y340123D01*
X55018Y339550D01*
X54990Y339539D01*
X54960Y339533D01*
X54810Y339474D01*
X52804Y338539D01*
X52778Y338523D01*
X52749Y338512D01*
X52612Y338428D01*
X50799Y337158D01*
X50776Y337138D01*
X50750Y337123D01*
X50629Y337016D01*
X49064Y335451D01*
X49045Y335427D01*
X49022Y335407D01*
X48922Y335281D01*
X47652Y333468D01*
X47638Y333441D01*
X47618Y333418D01*
X47541Y333276D01*
X46606Y331270D01*
X46596Y331241D01*
X46581Y331215D01*
X46530Y331062D01*
X45957Y328924D01*
X45953Y328894D01*
X45943Y328865D01*
X45919Y328706D01*
X45726Y326501D01*
X45726Y326479D01*
X45721Y326390D01*
X45721Y251460D01*
X45723Y251439D01*
X45726Y251349D01*
X45919Y249144D01*
X45925Y249114D01*
X45925Y249084D01*
X45957Y248926D01*
X46530Y246788D01*
X46541Y246760D01*
X46547Y246730D01*
X46606Y246580D01*
X47541Y244574D01*
X47557Y244548D01*
X47568Y244519D01*
X47652Y244382D01*
X48922Y242569D01*
X48942Y242546D01*
X48957Y242520D01*
X49064Y242399D01*
X50629Y240834D01*
X50653Y240815D01*
X50673Y240792D01*
X50799Y240692D01*
X52612Y239422D01*
X52639Y239408D01*
X52662Y239388D01*
X52804Y239311D01*
X54810Y238376D01*
X54839Y238366D01*
X54865Y238351D01*
X55018Y238300D01*
X57156Y237727D01*
X57186Y237723D01*
X57215Y237713D01*
X57374Y237689D01*
X59563Y237497D01*
X60536Y237387D01*
X61340Y237106D01*
X62061Y236653D01*
X62663Y236051D01*
X63116Y235330D01*
X63397Y234526D01*
X63501Y233609D01*
X63501Y53395D01*
X63322Y51356D01*
X62807Y49432D01*
X61965Y47627D01*
X60823Y45996D01*
X59414Y44587D01*
X57783Y43445D01*
X55978Y42603D01*
X54054Y42088D01*
X52015Y41909D01*
X13970Y41909D01*
X13949Y41907D01*
X13859Y41904D01*
X11654Y41711D01*
X11624Y41705D01*
X11594Y41705D01*
X11436Y41673D01*
X9298Y41100D01*
X9270Y41089D01*
X9240Y41083D01*
X9090Y41024D01*
X7084Y40089D01*
X7058Y40073D01*
X7029Y40062D01*
X6892Y39978D01*
X5079Y38708D01*
X5056Y38688D01*
X5030Y38673D01*
X4909Y38566D01*
X3344Y37001D01*
X3325Y36977D01*
X3302Y36957D01*
X3202Y36831D01*
X1932Y35018D01*
X1918Y34991D01*
X1898Y34968D01*
X1821Y34826D01*
X886Y32820D01*
X876Y32791D01*
X861Y32765D01*
X810Y32612D01*
X237Y30474D01*
X233Y30444D01*
X223Y30415D01*
X199Y30256D01*
X6Y28051D01*
X6Y28029D01*
X6Y28017D01*
X3Y28005D01*
X4Y27992D01*
X1Y27940D01*
X1Y1270D01*
X16Y1152D01*
X23Y1033D01*
X36Y995D01*
X41Y954D01*
X84Y844D01*
X121Y731D01*
X143Y696D01*
X158Y659D01*
X228Y563D01*
X291Y462D01*
X321Y434D01*
X344Y401D01*
X436Y326D01*
X523Y244D01*
X558Y224D01*
X589Y199D01*
X697Y148D01*
X801Y90D01*
X841Y80D01*
X877Y63D01*
X994Y41D01*
X1109Y11D01*
X1170Y7D01*
X1190Y3D01*
X1210Y5D01*
X1270Y1D01*
X153670Y1D01*
X153788Y16D01*
G37*
%LPC*%
G36*
X62725Y3687D02*
X62725Y3687D01*
X58945Y5253D01*
X56053Y8145D01*
X54487Y11925D01*
X54487Y16015D01*
X56053Y19795D01*
X58945Y22687D01*
X62725Y24253D01*
X64436Y24253D01*
X64574Y24270D01*
X64713Y24283D01*
X64732Y24290D01*
X64752Y24293D01*
X64881Y24344D01*
X65012Y24391D01*
X65029Y24402D01*
X65047Y24410D01*
X65160Y24491D01*
X65275Y24569D01*
X65288Y24585D01*
X65305Y24596D01*
X65394Y24704D01*
X65485Y24808D01*
X65495Y24826D01*
X65508Y24841D01*
X65567Y24967D01*
X65630Y25091D01*
X65634Y25111D01*
X65643Y25129D01*
X65669Y25266D01*
X65700Y25401D01*
X65699Y25422D01*
X65703Y25441D01*
X65694Y25580D01*
X65690Y25719D01*
X65684Y25739D01*
X65683Y25759D01*
X65640Y25891D01*
X65602Y26025D01*
X65591Y26042D01*
X65585Y26061D01*
X65511Y26179D01*
X65440Y26299D01*
X65422Y26320D01*
X65415Y26330D01*
X65400Y26344D01*
X65334Y26419D01*
X64709Y27045D01*
X63785Y29274D01*
X63785Y31686D01*
X64709Y33915D01*
X66415Y35621D01*
X68644Y36545D01*
X71056Y36545D01*
X73285Y35621D01*
X74498Y34408D01*
X74577Y34348D01*
X74649Y34280D01*
X74702Y34251D01*
X74750Y34214D01*
X74841Y34174D01*
X74927Y34126D01*
X74986Y34111D01*
X75041Y34087D01*
X75139Y34072D01*
X75235Y34047D01*
X75335Y34041D01*
X75356Y34037D01*
X75368Y34039D01*
X75396Y34037D01*
X84624Y34037D01*
X84722Y34049D01*
X84821Y34052D01*
X84880Y34069D01*
X84940Y34077D01*
X85032Y34113D01*
X85127Y34141D01*
X85179Y34171D01*
X85235Y34194D01*
X85315Y34252D01*
X85401Y34302D01*
X85476Y34368D01*
X85493Y34380D01*
X85500Y34390D01*
X85522Y34408D01*
X86735Y35621D01*
X88964Y36545D01*
X91376Y36545D01*
X93605Y35621D01*
X95311Y33915D01*
X96235Y31686D01*
X96235Y29274D01*
X95311Y27045D01*
X93774Y25507D01*
X93743Y25468D01*
X93706Y25434D01*
X93646Y25342D01*
X93579Y25256D01*
X93559Y25210D01*
X93532Y25168D01*
X93496Y25065D01*
X93452Y24964D01*
X93445Y24915D01*
X93428Y24868D01*
X93420Y24758D01*
X93403Y24650D01*
X93407Y24600D01*
X93403Y24551D01*
X93422Y24442D01*
X93432Y24333D01*
X93449Y24286D01*
X93458Y24237D01*
X93503Y24137D01*
X93540Y24034D01*
X93568Y23993D01*
X93588Y23947D01*
X93657Y23862D01*
X93719Y23771D01*
X93756Y23738D01*
X93787Y23699D01*
X93875Y23633D01*
X93957Y23560D01*
X94001Y23537D01*
X94041Y23508D01*
X94185Y23437D01*
X95995Y22687D01*
X98887Y19795D01*
X100453Y16015D01*
X100453Y11925D01*
X98887Y8145D01*
X95995Y5253D01*
X92215Y3687D01*
X88125Y3687D01*
X84345Y5253D01*
X81453Y8145D01*
X79887Y11925D01*
X79887Y16015D01*
X81453Y19795D01*
X84345Y22687D01*
X86155Y23437D01*
X86198Y23461D01*
X86245Y23478D01*
X86335Y23540D01*
X86431Y23594D01*
X86467Y23629D01*
X86508Y23657D01*
X86580Y23739D01*
X86659Y23816D01*
X86685Y23858D01*
X86718Y23895D01*
X86768Y23993D01*
X86825Y24087D01*
X86840Y24134D01*
X86863Y24178D01*
X86887Y24286D01*
X86919Y24391D01*
X86921Y24440D01*
X86932Y24489D01*
X86929Y24599D01*
X86934Y24708D01*
X86924Y24757D01*
X86923Y24807D01*
X86892Y24912D01*
X86870Y25020D01*
X86848Y25064D01*
X86834Y25112D01*
X86779Y25207D01*
X86730Y25305D01*
X86698Y25343D01*
X86673Y25386D01*
X86566Y25507D01*
X85522Y26552D01*
X85444Y26612D01*
X85371Y26680D01*
X85318Y26709D01*
X85270Y26746D01*
X85179Y26786D01*
X85093Y26834D01*
X85034Y26849D01*
X84978Y26873D01*
X84881Y26888D01*
X84785Y26913D01*
X84685Y26919D01*
X84664Y26923D01*
X84652Y26921D01*
X84624Y26923D01*
X75396Y26923D01*
X75298Y26911D01*
X75199Y26908D01*
X75140Y26891D01*
X75080Y26883D01*
X74988Y26847D01*
X74893Y26819D01*
X74841Y26789D01*
X74785Y26766D01*
X74705Y26708D01*
X74619Y26658D01*
X74544Y26592D01*
X74527Y26580D01*
X74520Y26570D01*
X74498Y26552D01*
X73285Y25339D01*
X71263Y24501D01*
X71220Y24476D01*
X71173Y24459D01*
X71082Y24398D01*
X70987Y24343D01*
X70951Y24309D01*
X70910Y24281D01*
X70837Y24198D01*
X70758Y24122D01*
X70732Y24080D01*
X70699Y24042D01*
X70650Y23945D01*
X70592Y23851D01*
X70577Y23803D01*
X70555Y23759D01*
X70531Y23652D01*
X70498Y23547D01*
X70496Y23497D01*
X70485Y23449D01*
X70489Y23339D01*
X70483Y23229D01*
X70493Y23181D01*
X70495Y23131D01*
X70525Y23025D01*
X70548Y22918D01*
X70569Y22873D01*
X70583Y22826D01*
X70639Y22731D01*
X70687Y22632D01*
X70720Y22594D01*
X70745Y22552D01*
X70851Y22431D01*
X73487Y19795D01*
X75053Y16015D01*
X75053Y11925D01*
X73487Y8145D01*
X70595Y5253D01*
X66815Y3687D01*
X62725Y3687D01*
G37*
%LPD*%
%LPC*%
G36*
X83884Y249205D02*
X83884Y249205D01*
X81655Y250129D01*
X79949Y251835D01*
X79025Y254064D01*
X79025Y256476D01*
X79949Y258705D01*
X81655Y260411D01*
X83884Y261335D01*
X85599Y261335D01*
X85697Y261347D01*
X85796Y261350D01*
X85854Y261367D01*
X85915Y261375D01*
X86007Y261411D01*
X86102Y261439D01*
X86154Y261469D01*
X86210Y261492D01*
X86290Y261550D01*
X86376Y261600D01*
X86451Y261666D01*
X86468Y261678D01*
X86475Y261688D01*
X86497Y261706D01*
X90052Y265261D01*
X90112Y265340D01*
X90180Y265412D01*
X90209Y265465D01*
X90246Y265513D01*
X90286Y265604D01*
X90334Y265690D01*
X90349Y265749D01*
X90373Y265805D01*
X90388Y265903D01*
X90413Y265998D01*
X90419Y266098D01*
X90423Y266119D01*
X90421Y266131D01*
X90423Y266159D01*
X90423Y321851D01*
X90411Y321949D01*
X90408Y322048D01*
X90391Y322106D01*
X90383Y322167D01*
X90347Y322259D01*
X90319Y322354D01*
X90289Y322406D01*
X90266Y322462D01*
X90208Y322542D01*
X90158Y322628D01*
X90092Y322703D01*
X90080Y322720D01*
X90070Y322727D01*
X90052Y322749D01*
X86529Y326272D01*
X86450Y326332D01*
X86378Y326400D01*
X86325Y326429D01*
X86277Y326466D01*
X86186Y326506D01*
X86100Y326554D01*
X86041Y326569D01*
X85985Y326593D01*
X85887Y326608D01*
X85792Y326633D01*
X85692Y326639D01*
X85671Y326643D01*
X85659Y326641D01*
X85631Y326643D01*
X83016Y326643D01*
X82918Y326631D01*
X82819Y326628D01*
X82760Y326611D01*
X82700Y326603D01*
X82608Y326567D01*
X82513Y326539D01*
X82461Y326509D01*
X82405Y326486D01*
X82325Y326428D01*
X82239Y326378D01*
X82164Y326312D01*
X82147Y326300D01*
X82140Y326290D01*
X82118Y326272D01*
X80905Y325059D01*
X78676Y324135D01*
X76264Y324135D01*
X74035Y325059D01*
X72329Y326765D01*
X71405Y328994D01*
X71405Y331406D01*
X72329Y333635D01*
X74035Y335341D01*
X76264Y336265D01*
X78676Y336265D01*
X80905Y335341D01*
X82118Y334128D01*
X82197Y334068D01*
X82269Y334000D01*
X82322Y333971D01*
X82370Y333934D01*
X82461Y333894D01*
X82547Y333846D01*
X82606Y333831D01*
X82661Y333807D01*
X82759Y333792D01*
X82855Y333767D01*
X82955Y333761D01*
X82976Y333757D01*
X82988Y333759D01*
X83016Y333757D01*
X89103Y333757D01*
X97537Y325323D01*
X97537Y262687D01*
X91526Y256677D01*
X91466Y256598D01*
X91398Y256526D01*
X91369Y256473D01*
X91332Y256425D01*
X91292Y256334D01*
X91244Y256248D01*
X91229Y256189D01*
X91205Y256133D01*
X91190Y256035D01*
X91165Y255940D01*
X91159Y255840D01*
X91155Y255819D01*
X91157Y255807D01*
X91155Y255779D01*
X91155Y254064D01*
X90231Y251835D01*
X88525Y250129D01*
X86296Y249205D01*
X83884Y249205D01*
G37*
%LPD*%
%LPC*%
G36*
X59754Y241585D02*
X59754Y241585D01*
X57525Y242509D01*
X55819Y244215D01*
X54895Y246444D01*
X54895Y248856D01*
X55819Y251085D01*
X57032Y252298D01*
X57092Y252377D01*
X57160Y252449D01*
X57189Y252502D01*
X57226Y252550D01*
X57266Y252641D01*
X57314Y252727D01*
X57329Y252786D01*
X57353Y252841D01*
X57368Y252939D01*
X57393Y253035D01*
X57399Y253135D01*
X57403Y253156D01*
X57401Y253168D01*
X57403Y253196D01*
X57403Y254203D01*
X74844Y271643D01*
X74904Y271722D01*
X74972Y271794D01*
X75001Y271847D01*
X75038Y271895D01*
X75078Y271986D01*
X75126Y272072D01*
X75141Y272131D01*
X75165Y272187D01*
X75180Y272285D01*
X75205Y272380D01*
X75211Y272480D01*
X75215Y272501D01*
X75213Y272513D01*
X75215Y272541D01*
X75215Y274256D01*
X76139Y276485D01*
X77845Y278191D01*
X80074Y279115D01*
X82486Y279115D01*
X84715Y278191D01*
X86421Y276485D01*
X87345Y274256D01*
X87345Y271844D01*
X86421Y269615D01*
X84715Y267909D01*
X82486Y266985D01*
X80771Y266985D01*
X80673Y266973D01*
X80574Y266970D01*
X80516Y266953D01*
X80455Y266945D01*
X80363Y266909D01*
X80268Y266881D01*
X80216Y266851D01*
X80160Y266828D01*
X80080Y266770D01*
X79994Y266720D01*
X79919Y266654D01*
X79902Y266642D01*
X79895Y266632D01*
X79873Y266614D01*
X66121Y252861D01*
X66048Y252767D01*
X65969Y252678D01*
X65951Y252642D01*
X65926Y252610D01*
X65879Y252500D01*
X65824Y252394D01*
X65816Y252355D01*
X65800Y252318D01*
X65781Y252200D01*
X65755Y252084D01*
X65756Y252044D01*
X65750Y252004D01*
X65761Y251885D01*
X65765Y251766D01*
X65776Y251727D01*
X65780Y251687D01*
X65820Y251575D01*
X65853Y251461D01*
X65874Y251426D01*
X65887Y251388D01*
X65954Y251289D01*
X66015Y251187D01*
X66054Y251142D01*
X66066Y251125D01*
X66081Y251111D01*
X66099Y251090D01*
X67025Y248856D01*
X67025Y246444D01*
X66101Y244215D01*
X64395Y242509D01*
X62166Y241585D01*
X59754Y241585D01*
G37*
%LPD*%
%LPC*%
G36*
X138925Y3687D02*
X138925Y3687D01*
X135145Y5253D01*
X132253Y8145D01*
X130687Y11925D01*
X130687Y16015D01*
X132253Y19795D01*
X135145Y22687D01*
X138925Y24253D01*
X143015Y24253D01*
X146795Y22687D01*
X149687Y19795D01*
X151253Y16015D01*
X151253Y11925D01*
X149687Y8145D01*
X146795Y5253D01*
X143015Y3687D01*
X138925Y3687D01*
G37*
%LPD*%
%LPC*%
G36*
X113525Y3687D02*
X113525Y3687D01*
X109745Y5253D01*
X106853Y8145D01*
X105287Y11925D01*
X105287Y16015D01*
X106853Y19795D01*
X109745Y22687D01*
X113525Y24253D01*
X117615Y24253D01*
X121395Y22687D01*
X124287Y19795D01*
X125853Y16015D01*
X125853Y11925D01*
X124287Y8145D01*
X121395Y5253D01*
X117615Y3687D01*
X113525Y3687D01*
G37*
%LPD*%
%LPC*%
G36*
X11925Y3687D02*
X11925Y3687D01*
X8145Y5253D01*
X5253Y8145D01*
X3687Y11925D01*
X3687Y16015D01*
X5253Y19795D01*
X8145Y22687D01*
X11925Y24253D01*
X16015Y24253D01*
X19795Y22687D01*
X22687Y19795D01*
X24253Y16015D01*
X24253Y11925D01*
X22687Y8145D01*
X19795Y5253D01*
X16015Y3687D01*
X11925Y3687D01*
G37*
%LPD*%
%LPC*%
G36*
X41909Y16509D02*
X41909Y16509D01*
X41909Y24491D01*
X43512Y23970D01*
X45026Y23199D01*
X46400Y22201D01*
X47601Y21000D01*
X48599Y19626D01*
X49370Y18112D01*
X49891Y16509D01*
X41909Y16509D01*
G37*
%LPD*%
%LPC*%
G36*
X28849Y16509D02*
X28849Y16509D01*
X29370Y18112D01*
X30141Y19626D01*
X31139Y21000D01*
X32340Y22201D01*
X33714Y23199D01*
X35228Y23970D01*
X36831Y24491D01*
X36831Y16509D01*
X28849Y16509D01*
G37*
%LPD*%
%LPC*%
G36*
X41909Y11431D02*
X41909Y11431D01*
X49891Y11431D01*
X49370Y9828D01*
X48599Y8314D01*
X47601Y6940D01*
X46400Y5739D01*
X45026Y4741D01*
X43512Y3970D01*
X41909Y3449D01*
X41909Y11431D01*
G37*
%LPD*%
%LPC*%
G36*
X35228Y3970D02*
X35228Y3970D01*
X33714Y4741D01*
X32340Y5739D01*
X31139Y6940D01*
X30141Y8314D01*
X29370Y9828D01*
X28849Y11431D01*
X36831Y11431D01*
X36831Y3449D01*
X35228Y3970D01*
G37*
%LPD*%
%LPC*%
G36*
X39369Y13969D02*
X39369Y13969D01*
X39369Y13971D01*
X39371Y13971D01*
X39371Y13969D01*
X39369Y13969D01*
G37*
%LPD*%
D10*
X13970Y13970D03*
X39370Y13970D03*
X64770Y13970D03*
X90170Y13970D03*
X115570Y13970D03*
X140970Y13970D03*
D11*
X101600Y273050D03*
X53340Y255270D03*
X69850Y273050D03*
X77470Y308610D03*
X81280Y273050D03*
X60960Y247650D03*
D12*
X60960Y252730D02*
X81280Y273050D01*
X60960Y252730D02*
X60960Y247650D01*
D11*
X85090Y255270D03*
X77470Y330200D03*
D12*
X87630Y330200D01*
X93980Y323850D01*
X93980Y264160D02*
X85090Y255270D01*
X93980Y264160D02*
X93980Y323850D01*
D11*
X69850Y30480D03*
X90170Y30480D03*
D12*
X69850Y30480D01*
D13*
X0Y0D02*
X154940Y0D01*
X154940Y29210D01*
X154892Y30317D01*
X154747Y31415D01*
X154507Y32497D01*
X154174Y33554D01*
X153750Y34577D01*
X153239Y35560D01*
X152643Y36494D01*
X151969Y37373D01*
X151220Y38190D01*
X150403Y38939D01*
X149524Y39613D01*
X148590Y40209D01*
X147607Y40720D01*
X146584Y41144D01*
X145527Y41477D01*
X144445Y41717D01*
X143347Y41862D01*
X142240Y41910D01*
X104140Y41910D01*
X103033Y41958D01*
X101935Y42103D01*
X100853Y42343D01*
X99796Y42676D01*
X98773Y43100D01*
X97790Y43611D01*
X96856Y44207D01*
X95977Y44881D01*
X95160Y45630D01*
X94411Y46447D01*
X93737Y47326D01*
X93141Y48260D01*
X92630Y49243D01*
X92206Y50266D01*
X91873Y51323D01*
X91633Y52405D01*
X91488Y53503D01*
X91440Y54610D01*
X91440Y232410D01*
X91459Y232853D01*
X91517Y233292D01*
X91613Y233725D01*
X91746Y234147D01*
X91916Y234557D01*
X92121Y234950D01*
X92359Y235324D01*
X92629Y235675D01*
X92928Y236002D01*
X93255Y236302D01*
X93606Y236571D01*
X93980Y236809D01*
X94373Y237014D01*
X94783Y237184D01*
X95205Y237317D01*
X95638Y237413D01*
X96077Y237471D01*
X96520Y237490D01*
X97627Y237538D01*
X98725Y237683D01*
X99807Y237923D01*
X100864Y238256D01*
X101887Y238680D01*
X102870Y239191D01*
X103804Y239787D01*
X104683Y240461D01*
X105500Y241210D01*
X106249Y242027D01*
X106923Y242906D01*
X107519Y243840D01*
X108030Y244823D01*
X108454Y245846D01*
X108787Y246903D01*
X109027Y247985D01*
X109172Y249083D01*
X109220Y250190D01*
X109220Y327660D01*
X109172Y328767D01*
X109027Y329865D01*
X108787Y330947D01*
X108454Y332004D01*
X108030Y333027D01*
X107519Y334010D01*
X106923Y334944D01*
X106249Y335823D01*
X105500Y336640D01*
X104683Y337389D01*
X103804Y338063D01*
X102870Y338659D01*
X101887Y339170D01*
X100864Y339594D01*
X99807Y339927D01*
X98725Y340167D01*
X97627Y340312D01*
X96520Y340360D01*
X58420Y340360D01*
X57313Y340312D01*
X56215Y340167D01*
X55133Y339927D01*
X54076Y339594D01*
X53053Y339170D01*
X52070Y338659D01*
X51136Y338063D01*
X50257Y337389D01*
X49440Y336640D01*
X48691Y335823D01*
X48017Y334944D01*
X47421Y334010D01*
X46910Y333027D01*
X46486Y332004D01*
X46153Y330947D01*
X45913Y329865D01*
X45768Y328767D01*
X45720Y327660D01*
X45720Y250190D01*
X45768Y249083D01*
X45913Y247985D01*
X46153Y246903D01*
X46486Y245846D01*
X46910Y244823D01*
X47421Y243840D01*
X48017Y242906D01*
X48691Y242027D01*
X49440Y241210D01*
X50257Y240461D01*
X51136Y239787D01*
X52070Y239191D01*
X53053Y238680D01*
X54076Y238256D01*
X55133Y237923D01*
X56215Y237683D01*
X57313Y237538D01*
X58420Y237490D01*
X58863Y237471D01*
X59302Y237413D01*
X59735Y237317D01*
X60157Y237184D01*
X60567Y237014D01*
X60960Y236809D01*
X61334Y236571D01*
X61685Y236302D01*
X62012Y236002D01*
X62312Y235675D01*
X62581Y235324D01*
X62819Y234950D01*
X63024Y234557D01*
X63194Y234147D01*
X63327Y233725D01*
X63423Y233292D01*
X63481Y232853D01*
X63500Y232410D01*
X63500Y54610D01*
X63452Y53503D01*
X63307Y52405D01*
X63067Y51323D01*
X62734Y50266D01*
X62310Y49243D01*
X61799Y48260D01*
X61203Y47326D01*
X60529Y46447D01*
X59780Y45630D01*
X58963Y44881D01*
X58084Y44207D01*
X57150Y43611D01*
X56167Y43100D01*
X55144Y42676D01*
X54087Y42343D01*
X53005Y42103D01*
X51907Y41958D01*
X50800Y41910D01*
X12700Y41910D01*
X11593Y41862D01*
X10495Y41717D01*
X9413Y41477D01*
X8356Y41144D01*
X7333Y40720D01*
X6350Y40209D01*
X5416Y39613D01*
X4537Y38939D01*
X3720Y38190D01*
X2971Y37373D01*
X2297Y36494D01*
X1701Y35560D01*
X1190Y34577D01*
X766Y33554D01*
X433Y32497D01*
X193Y31415D01*
X48Y30317D01*
X0Y29210D01*
X0Y0D01*
M02*
