G04 EAGLE Gerber RS-274X export*
G75*
%MOMM*%
%FSLAX34Y34*%
%LPD*%
%INSilkscreen Bottom*%
%IPPOS*%
%AMOC8*
5,1,8,0,0,1.08239X$1,22.5*%
G01*
%ADD10C,0.254000*%


D10*
X0Y0D02*
X154940Y0D01*
X154940Y29210D01*
X154892Y30317D01*
X154747Y31415D01*
X154507Y32497D01*
X154174Y33554D01*
X153750Y34577D01*
X153239Y35560D01*
X152643Y36494D01*
X151969Y37373D01*
X151220Y38190D01*
X150403Y38939D01*
X149524Y39613D01*
X148590Y40209D01*
X147607Y40720D01*
X146584Y41144D01*
X145527Y41477D01*
X144445Y41717D01*
X143347Y41862D01*
X142240Y41910D01*
X104140Y41910D01*
X103033Y41958D01*
X101935Y42103D01*
X100853Y42343D01*
X99796Y42676D01*
X98773Y43100D01*
X97790Y43611D01*
X96856Y44207D01*
X95977Y44881D01*
X95160Y45630D01*
X94411Y46447D01*
X93737Y47326D01*
X93141Y48260D01*
X92630Y49243D01*
X92206Y50266D01*
X91873Y51323D01*
X91633Y52405D01*
X91488Y53503D01*
X91440Y54610D01*
X91440Y232410D01*
X91459Y232853D01*
X91517Y233292D01*
X91613Y233725D01*
X91746Y234147D01*
X91916Y234557D01*
X92121Y234950D01*
X92359Y235324D01*
X92629Y235675D01*
X92928Y236002D01*
X93255Y236302D01*
X93606Y236571D01*
X93980Y236809D01*
X94373Y237014D01*
X94783Y237184D01*
X95205Y237317D01*
X95638Y237413D01*
X96077Y237471D01*
X96520Y237490D01*
X97627Y237538D01*
X98725Y237683D01*
X99807Y237923D01*
X100864Y238256D01*
X101887Y238680D01*
X102870Y239191D01*
X103804Y239787D01*
X104683Y240461D01*
X105500Y241210D01*
X106249Y242027D01*
X106923Y242906D01*
X107519Y243840D01*
X108030Y244823D01*
X108454Y245846D01*
X108787Y246903D01*
X109027Y247985D01*
X109172Y249083D01*
X109220Y250190D01*
X109220Y327660D01*
X109172Y328767D01*
X109027Y329865D01*
X108787Y330947D01*
X108454Y332004D01*
X108030Y333027D01*
X107519Y334010D01*
X106923Y334944D01*
X106249Y335823D01*
X105500Y336640D01*
X104683Y337389D01*
X103804Y338063D01*
X102870Y338659D01*
X101887Y339170D01*
X100864Y339594D01*
X99807Y339927D01*
X98725Y340167D01*
X97627Y340312D01*
X96520Y340360D01*
X58420Y340360D01*
X57313Y340312D01*
X56215Y340167D01*
X55133Y339927D01*
X54076Y339594D01*
X53053Y339170D01*
X52070Y338659D01*
X51136Y338063D01*
X50257Y337389D01*
X49440Y336640D01*
X48691Y335823D01*
X48017Y334944D01*
X47421Y334010D01*
X46910Y333027D01*
X46486Y332004D01*
X46153Y330947D01*
X45913Y329865D01*
X45768Y328767D01*
X45720Y327660D01*
X45720Y250190D01*
X45768Y249083D01*
X45913Y247985D01*
X46153Y246903D01*
X46486Y245846D01*
X46910Y244823D01*
X47421Y243840D01*
X48017Y242906D01*
X48691Y242027D01*
X49440Y241210D01*
X50257Y240461D01*
X51136Y239787D01*
X52070Y239191D01*
X53053Y238680D01*
X54076Y238256D01*
X55133Y237923D01*
X56215Y237683D01*
X57313Y237538D01*
X58420Y237490D01*
X58863Y237471D01*
X59302Y237413D01*
X59735Y237317D01*
X60157Y237184D01*
X60567Y237014D01*
X60960Y236809D01*
X61334Y236571D01*
X61685Y236302D01*
X62012Y236002D01*
X62312Y235675D01*
X62581Y235324D01*
X62819Y234950D01*
X63024Y234557D01*
X63194Y234147D01*
X63327Y233725D01*
X63423Y233292D01*
X63481Y232853D01*
X63500Y232410D01*
X63500Y54610D01*
X63452Y53503D01*
X63307Y52405D01*
X63067Y51323D01*
X62734Y50266D01*
X62310Y49243D01*
X61799Y48260D01*
X61203Y47326D01*
X60529Y46447D01*
X59780Y45630D01*
X58963Y44881D01*
X58084Y44207D01*
X57150Y43611D01*
X56167Y43100D01*
X55144Y42676D01*
X54087Y42343D01*
X53005Y42103D01*
X51907Y41958D01*
X50800Y41910D01*
X12700Y41910D01*
X11593Y41862D01*
X10495Y41717D01*
X9413Y41477D01*
X8356Y41144D01*
X7333Y40720D01*
X6350Y40209D01*
X5416Y39613D01*
X4537Y38939D01*
X3720Y38190D01*
X2971Y37373D01*
X2297Y36494D01*
X1701Y35560D01*
X1190Y34577D01*
X766Y33554D01*
X433Y32497D01*
X193Y31415D01*
X48Y30317D01*
X0Y29210D01*
X0Y0D01*
M02*
